<svg id="Group_1256" data-name="Group 1256" xmlns="http://www.w3.org/2000/svg" xmlns:xlink="http://www.w3.org/1999/xlink" width="1226.63" height="595.651" viewBox="0 0 1226.63 595.651">
  <defs>
    <clipPath id="clip-path">
      <path id="Path_583" data-name="Path 583" d="M61.586,0c18.378,0,33.13,3.669,33.463,37.565s-26.624,56.3-45,56.3S44.26,70.414,44.26,43.534,43.207,0,61.586,0Z" transform="translate(-33.315 11.496)" fill="#fff" stroke="#cd2e63" stroke-width="1"/>
    </clipPath>
  </defs>
  <g id="Group_1041" data-name="Group 1041" transform="translate(3915 -689) rotate(-90)">
    <circle id="Ellipse_136" data-name="Ellipse 136" cx="1.5" cy="1.5" r="1.5" transform="translate(-745 -3915)" fill="#e234a6"/>
    <circle id="Ellipse_174" data-name="Ellipse 174" cx="1.5" cy="1.5" r="1.5" transform="translate(-745 -3901.758)" fill="#e234a6"/>
    <circle id="Ellipse_159" data-name="Ellipse 159" cx="1.5" cy="1.5" r="1.5" transform="translate(-745 -3909)" fill="#e234a6"/>
    <circle id="Ellipse_175" data-name="Ellipse 175" cx="1.5" cy="1.5" r="1.5" transform="translate(-745 -3895.137)" fill="#e234a6"/>
    <circle id="Ellipse_148" data-name="Ellipse 148" cx="1.5" cy="1.5" r="1.5" transform="translate(-718.5 -3915)" fill="#e234a6"/>
    <circle id="Ellipse_163" data-name="Ellipse 163" cx="1.5" cy="1.5" r="1.5" transform="translate(-718.5 -3901.758)" fill="#e234a6"/>
    <circle id="Ellipse_183" data-name="Ellipse 183" cx="1.5" cy="1.5" r="1.5" transform="translate(-718.5 -3888.516)" fill="#e234a6"/>
    <circle id="Ellipse_196" data-name="Ellipse 196" cx="1.5" cy="1.5" r="1.5" transform="translate(-718.5 -3875.274)" fill="#e234a6"/>
    <circle id="Ellipse_155" data-name="Ellipse 155" cx="1.5" cy="1.5" r="1.5" transform="translate(-718.5 -3909)" fill="#e234a6"/>
    <circle id="Ellipse_164" data-name="Ellipse 164" cx="1.5" cy="1.5" r="1.5" transform="translate(-718.5 -3895.137)" fill="#e234a6"/>
    <circle id="Ellipse_176" data-name="Ellipse 176" cx="1.5" cy="1.5" r="1.5" transform="translate(-718.5 -3881.896)" fill="#e234a6"/>
    <circle id="Ellipse_200" data-name="Ellipse 200" cx="1.5" cy="1.5" r="1.5" transform="translate(-718.5 -3868.654)" fill="#e234a6"/>
    <circle id="Ellipse_234" data-name="Ellipse 234" cx="1.5" cy="1.5" r="1.5" transform="translate(-725.125 -3868.654)" fill="#e234a6"/>
    <circle id="Ellipse_147" data-name="Ellipse 147" cx="1.5" cy="1.5" r="1.5" transform="translate(-731.75 -3915)" fill="#e234a6"/>
    <circle id="Ellipse_170" data-name="Ellipse 170" cx="1.5" cy="1.5" r="1.5" transform="translate(-731.75 -3901.758)" fill="#e234a6"/>
    <circle id="Ellipse_184" data-name="Ellipse 184" cx="1.5" cy="1.5" r="1.5" transform="translate(-731.75 -3888.516)" fill="#e234a6"/>
    <circle id="Ellipse_194" data-name="Ellipse 194" cx="1.5" cy="1.5" r="1.5" transform="translate(-731.75 -3875.274)" fill="#e234a6"/>
    <circle id="Ellipse_245" data-name="Ellipse 245" cx="1.5" cy="1.5" r="1.5" transform="translate(-739 -3875.274)" fill="#e234a6"/>
    <circle id="Ellipse_237" data-name="Ellipse 237" cx="1.5" cy="1.5" r="1.5" transform="translate(-731.75 -3868.654)" fill="#e234a6"/>
    <circle id="Ellipse_157" data-name="Ellipse 157" cx="1.5" cy="1.5" r="1.5" transform="translate(-731.75 -3909)" fill="#e234a6"/>
    <circle id="Ellipse_171" data-name="Ellipse 171" cx="1.5" cy="1.5" r="1.5" transform="translate(-731.75 -3895.137)" fill="#e234a6"/>
    <circle id="Ellipse_181" data-name="Ellipse 181" cx="1.5" cy="1.5" r="1.5" transform="translate(-731.75 -3881.896)" fill="#e234a6"/>
    <circle id="Ellipse_149" data-name="Ellipse 149" cx="1.5" cy="1.5" r="1.5" transform="translate(-705.25 -3915)" fill="#e234a6"/>
    <circle id="Ellipse_165" data-name="Ellipse 165" cx="1.5" cy="1.5" r="1.5" transform="translate(-705.25 -3901.758)" fill="#e234a6"/>
    <circle id="Ellipse_185" data-name="Ellipse 185" cx="1.5" cy="1.5" r="1.5" transform="translate(-705.25 -3888.516)" fill="#e234a6"/>
    <circle id="Ellipse_198" data-name="Ellipse 198" cx="1.5" cy="1.5" r="1.5" transform="translate(-705.25 -3875.274)" fill="#e234a6"/>
    <circle id="Ellipse_152" data-name="Ellipse 152" cx="1.5" cy="1.5" r="1.5" transform="translate(-705.25 -3909)" fill="#e234a6"/>
    <circle id="Ellipse_161" data-name="Ellipse 161" cx="1.5" cy="1.5" r="1.5" transform="translate(-705.25 -3895.137)" fill="#e234a6"/>
    <circle id="Ellipse_177" data-name="Ellipse 177" cx="1.5" cy="1.5" r="1.5" transform="translate(-705.25 -3881.896)" fill="#e234a6"/>
    <circle id="Ellipse_202" data-name="Ellipse 202" cx="1.5" cy="1.5" r="1.5" transform="translate(-705.25 -3868.654)" fill="#e234a6"/>
    <circle id="Ellipse_223" data-name="Ellipse 223" cx="1.5" cy="1.5" r="1.5" transform="translate(-705.25 -3861.412)" fill="#e234a6"/>
    <circle id="Ellipse_227" data-name="Ellipse 227" cx="1.5" cy="1.5" r="1.5" transform="translate(-705.25 -3855.412)" fill="#e234a6"/>
    <circle id="Ellipse_236" data-name="Ellipse 236" cx="1.5" cy="1.5" r="1.5" transform="translate(-711.875 -3855.412)" fill="#e234a6"/>
    <circle id="Ellipse_145" data-name="Ellipse 145" cx="1.5" cy="1.5" r="1.5" transform="translate(-739 -3915)" fill="#e234a6"/>
    <circle id="Ellipse_172" data-name="Ellipse 172" cx="1.5" cy="1.5" r="1.5" transform="translate(-739 -3901.758)" fill="#e234a6"/>
    <circle id="Ellipse_186" data-name="Ellipse 186" cx="1.5" cy="1.5" r="1.5" transform="translate(-739 -3888.516)" fill="#e234a6"/>
    <circle id="Ellipse_246" data-name="Ellipse 246" cx="1.5" cy="1.5" r="1.5" transform="translate(-745 -3888.516)" fill="#e234a6"/>
    <circle id="Ellipse_158" data-name="Ellipse 158" cx="1.5" cy="1.5" r="1.5" transform="translate(-739 -3909)" fill="#e234a6"/>
    <circle id="Ellipse_173" data-name="Ellipse 173" cx="1.5" cy="1.5" r="1.5" transform="translate(-739 -3895.137)" fill="#e234a6"/>
    <circle id="Ellipse_182" data-name="Ellipse 182" cx="1.5" cy="1.5" r="1.5" transform="translate(-739 -3881.896)" fill="#e234a6"/>
    <circle id="Ellipse_150" data-name="Ellipse 150" cx="1.5" cy="1.5" r="1.5" transform="translate(-711.875 -3915)" fill="#e234a6"/>
    <circle id="Ellipse_166" data-name="Ellipse 166" cx="1.5" cy="1.5" r="1.5" transform="translate(-711.875 -3901.758)" fill="#e234a6"/>
    <circle id="Ellipse_187" data-name="Ellipse 187" cx="1.5" cy="1.5" r="1.5" transform="translate(-711.875 -3888.516)" fill="#e234a6"/>
    <circle id="Ellipse_197" data-name="Ellipse 197" cx="1.5" cy="1.5" r="1.5" transform="translate(-711.875 -3875.274)" fill="#e234a6"/>
    <circle id="Ellipse_153" data-name="Ellipse 153" cx="1.5" cy="1.5" r="1.5" transform="translate(-711.875 -3909)" fill="#e234a6"/>
    <circle id="Ellipse_162" data-name="Ellipse 162" cx="1.5" cy="1.5" r="1.5" transform="translate(-711.875 -3895.137)" fill="#e234a6"/>
    <circle id="Ellipse_178" data-name="Ellipse 178" cx="1.5" cy="1.5" r="1.5" transform="translate(-711.875 -3881.896)" fill="#e234a6"/>
    <circle id="Ellipse_204" data-name="Ellipse 204" cx="1.5" cy="1.5" r="1.5" transform="translate(-711.875 -3868.654)" fill="#e234a6"/>
    <circle id="Ellipse_224" data-name="Ellipse 224" cx="1.5" cy="1.5" r="1.5" transform="translate(-711.875 -3861.412)" fill="#e234a6"/>
    <circle id="Ellipse_235" data-name="Ellipse 235" cx="1.5" cy="1.5" r="1.5" transform="translate(-718.5 -3861.412)" fill="#e234a6"/>
    <circle id="Ellipse_238" data-name="Ellipse 238" cx="1.5" cy="1.5" r="1.5" transform="translate(-725.125 -3861.412)" fill="#e234a6"/>
    <circle id="Ellipse_146" data-name="Ellipse 146" cx="1.5" cy="1.5" r="1.5" transform="translate(-725.125 -3915)" fill="#e234a6"/>
    <circle id="Ellipse_167" data-name="Ellipse 167" cx="1.5" cy="1.5" r="1.5" transform="translate(-725.125 -3901.758)" fill="#e234a6"/>
    <circle id="Ellipse_188" data-name="Ellipse 188" cx="1.5" cy="1.5" r="1.5" transform="translate(-725.125 -3888.516)" fill="#e234a6"/>
    <circle id="Ellipse_195" data-name="Ellipse 195" cx="1.5" cy="1.5" r="1.5" transform="translate(-725.125 -3875.274)" fill="#e234a6"/>
    <circle id="Ellipse_156" data-name="Ellipse 156" cx="1.5" cy="1.5" r="1.5" transform="translate(-725.125 -3909)" fill="#e234a6"/>
    <circle id="Ellipse_168" data-name="Ellipse 168" cx="1.5" cy="1.5" r="1.5" transform="translate(-725.125 -3895.137)" fill="#e234a6"/>
    <circle id="Ellipse_180" data-name="Ellipse 180" cx="1.5" cy="1.5" r="1.5" transform="translate(-725.125 -3881.896)" fill="#e234a6"/>
    <circle id="Ellipse_151" data-name="Ellipse 151" cx="1.5" cy="1.5" r="1.5" transform="translate(-698 -3915)" fill="#e234a6"/>
    <circle id="Ellipse_222" data-name="Ellipse 222" cx="1.5" cy="1.5" r="1.5" transform="translate(-692 -3915)" fill="#e234a6"/>
    <circle id="Ellipse_169" data-name="Ellipse 169" cx="1.5" cy="1.5" r="1.5" transform="translate(-698 -3901.758)" fill="#e234a6"/>
    <circle id="Ellipse_220" data-name="Ellipse 220" cx="1.5" cy="1.5" r="1.5" transform="translate(-692 -3901.758)" fill="#e234a6"/>
    <circle id="Ellipse_189" data-name="Ellipse 189" cx="1.5" cy="1.5" r="1.5" transform="translate(-698 -3888.516)" fill="#e234a6"/>
    <circle id="Ellipse_218" data-name="Ellipse 218" cx="1.5" cy="1.5" r="1.5" transform="translate(-692 -3888.516)" fill="#e234a6"/>
    <circle id="Ellipse_206" data-name="Ellipse 206" cx="1.5" cy="1.5" r="1.5" transform="translate(-698 -3875.274)" fill="#e234a6"/>
    <circle id="Ellipse_216" data-name="Ellipse 216" cx="1.5" cy="1.5" r="1.5" transform="translate(-692 -3875.274)" fill="#e234a6"/>
    <circle id="Ellipse_154" data-name="Ellipse 154" cx="1.5" cy="1.5" r="1.5" transform="translate(-698 -3909)" fill="#e234a6"/>
    <circle id="Ellipse_221" data-name="Ellipse 221" cx="1.5" cy="1.5" r="1.5" transform="translate(-692 -3909)" fill="#e234a6"/>
    <circle id="Ellipse_160" data-name="Ellipse 160" cx="1.5" cy="1.5" r="1.5" transform="translate(-698 -3895.137)" fill="#e234a6"/>
    <circle id="Ellipse_219" data-name="Ellipse 219" cx="1.5" cy="1.5" r="1.5" transform="translate(-692 -3895.137)" fill="#e234a6"/>
    <circle id="Ellipse_179" data-name="Ellipse 179" cx="1.5" cy="1.5" r="1.5" transform="translate(-698 -3881.896)" fill="#e234a6"/>
    <circle id="Ellipse_217" data-name="Ellipse 217" cx="1.5" cy="1.5" r="1.5" transform="translate(-692 -3881.896)" fill="#e234a6"/>
    <circle id="Ellipse_207" data-name="Ellipse 207" cx="1.5" cy="1.5" r="1.5" transform="translate(-698 -3868.654)" fill="#e234a6"/>
    <circle id="Ellipse_225" data-name="Ellipse 225" cx="1.5" cy="1.5" r="1.5" transform="translate(-698 -3861.412)" fill="#e234a6"/>
    <circle id="Ellipse_229" data-name="Ellipse 229" cx="1.5" cy="1.5" r="1.5" transform="translate(-698 -3855.412)" fill="#e234a6"/>
    <circle id="Ellipse_215" data-name="Ellipse 215" cx="1.5" cy="1.5" r="1.5" transform="translate(-692 -3868.654)" fill="#e234a6"/>
    <circle id="Ellipse_226" data-name="Ellipse 226" cx="1.5" cy="1.5" r="1.5" transform="translate(-692 -3861.412)" fill="#e234a6"/>
    <circle id="Ellipse_230" data-name="Ellipse 230" cx="1.5" cy="1.5" r="1.5" transform="translate(-692 -3855.412)" fill="#e234a6"/>
  </g>
  <g id="Group_1058" data-name="Group 1058" transform="translate(0.469 -46)">
    <path id="Path_581" data-name="Path 581" d="M-1.838,13.693,77.5-7.261l43.388,27.3,6.772-6.347h9.677l84.921,6.347,20.224,8.631,9.536-14.978h84.585V237.3l-3.723,295.546,3.723,196.525-3.723,136.974,3.723,90.121L268.359,964.2l-45.945-7.735L57.525,971.677l-19.07-15.209H-1.838L-.223,818.889l-1.615-96.4L-.223,585.026l-4.963-291.98Z" transform="translate(1165.208 272.564) rotate(90)" fill="#eee"/>
  </g>
  <g id="Mask_Group_188" data-name="Mask Group 188" transform="matrix(0.391, -0.921, 0.921, 0.391, 150.685, 560.686)" clip-path="url(#clip-path)">
    <g id="Group_1047" data-name="Group 1047" transform="translate(-36.518 -14.221)">
      <rect id="Rectangle_8141" data-name="Rectangle 8141" width="11.181" height="11.181" transform="translate(22.361)" fill="#77c1f0"/>
      <rect id="Rectangle_8142" data-name="Rectangle 8142" width="11.181" height="11.181" transform="translate(22.361 44.722)" fill="#77c1f0"/>
      <rect id="Rectangle_8143" data-name="Rectangle 8143" width="11.181" height="11.181" transform="translate(22.361 22.361)" fill="#77c1f0"/>
      <rect id="Rectangle_8144" data-name="Rectangle 8144" width="11.181" height="11.181" transform="translate(22.361 67.084)" fill="#77c1f0"/>
      <rect id="Rectangle_8145" data-name="Rectangle 8145" width="11.181" height="11.181" fill="#77c1f0"/>
      <rect id="Rectangle_8146" data-name="Rectangle 8146" width="11.181" height="11.181" transform="translate(0 44.722)" fill="#77c1f0"/>
      <rect id="Rectangle_8147" data-name="Rectangle 8147" width="11.181" height="11.181" transform="translate(0 22.361)" fill="#77c1f0"/>
      <rect id="Rectangle_8148" data-name="Rectangle 8148" width="11.181" height="11.181" transform="translate(0 67.084)" fill="#77c1f0"/>
      <rect id="Rectangle_8149" data-name="Rectangle 8149" width="11.181" height="11.181" transform="translate(33.542 11.181)" fill="#77c1f0"/>
      <rect id="Rectangle_8150" data-name="Rectangle 8150" width="11.181" height="11.181" transform="translate(33.542 55.903)" fill="#77c1f0"/>
      <rect id="Rectangle_8151" data-name="Rectangle 8151" width="11.181" height="11.181" transform="translate(33.542 33.542)" fill="#77c1f0"/>
      <rect id="Rectangle_8152" data-name="Rectangle 8152" width="11.181" height="11.181" transform="translate(33.542 78.264)" fill="#77c1f0"/>
      <rect id="Rectangle_8153" data-name="Rectangle 8153" width="11.181" height="11.181" transform="translate(11.181 11.181)" fill="#77c1f0"/>
      <rect id="Rectangle_8154" data-name="Rectangle 8154" width="11.181" height="11.181" transform="translate(11.181 55.903)" fill="#77c1f0"/>
      <rect id="Rectangle_8155" data-name="Rectangle 8155" width="11.181" height="11.181" transform="translate(11.181 33.542)" fill="#77c1f0"/>
      <rect id="Rectangle_8156" data-name="Rectangle 8156" width="11.181" height="11.181" transform="translate(11.181 78.264)" fill="#77c1f0"/>
      <rect id="Rectangle_8157" data-name="Rectangle 8157" width="11.181" height="11.181" transform="translate(44.722)" fill="#77c1f0"/>
      <rect id="Rectangle_8158" data-name="Rectangle 8158" width="11.181" height="11.181" transform="translate(44.722 44.722)" fill="#77c1f0"/>
      <rect id="Rectangle_8159" data-name="Rectangle 8159" width="11.181" height="11.181" transform="translate(44.722 22.361)" fill="#77c1f0"/>
      <rect id="Rectangle_8160" data-name="Rectangle 8160" width="11.181" height="11.181" transform="translate(44.722 67.084)" fill="#77c1f0"/>
      <rect id="Rectangle_8161" data-name="Rectangle 8161" width="11.181" height="11.181" transform="translate(55.903 11.181)" fill="#77c1f0"/>
      <rect id="Rectangle_8162" data-name="Rectangle 8162" width="11.181" height="11.181" transform="translate(55.903 55.903)" fill="#77c1f0"/>
      <rect id="Rectangle_8163" data-name="Rectangle 8163" width="11.181" height="11.181" transform="translate(55.903 33.542)" fill="#77c1f0"/>
      <rect id="Rectangle_8164" data-name="Rectangle 8164" width="11.181" height="11.181" transform="translate(55.903 78.264)" fill="#77c1f0"/>
      <rect id="Rectangle_8165" data-name="Rectangle 8165" width="11.181" height="11.181" transform="translate(67.084)" fill="#77c1f0"/>
      <rect id="Rectangle_8166" data-name="Rectangle 8166" width="11.181" height="11.181" transform="translate(67.084 44.722)" fill="#77c1f0"/>
      <rect id="Rectangle_8167" data-name="Rectangle 8167" width="11.181" height="11.181" transform="translate(67.084 22.361)" fill="#77c1f0"/>
      <rect id="Rectangle_8168" data-name="Rectangle 8168" width="11.181" height="11.181" transform="translate(67.084 67.084)" fill="#77c1f0"/>
      <rect id="Rectangle_8169" data-name="Rectangle 8169" width="11.181" height="11.181" transform="translate(78.264 11.181)" fill="#77c1f0"/>
      <rect id="Rectangle_8170" data-name="Rectangle 8170" width="11.181" height="11.181" transform="translate(78.264 55.903)" fill="#77c1f0"/>
      <rect id="Rectangle_8171" data-name="Rectangle 8171" width="11.181" height="11.181" transform="translate(78.264 33.542)" fill="#77c1f0"/>
      <rect id="Rectangle_8172" data-name="Rectangle 8172" width="11.181" height="11.181" transform="translate(78.264 78.264)" fill="#77c1f0"/>
      <rect id="Rectangle_8173" data-name="Rectangle 8173" width="11.181" height="11.181" transform="translate(89.445)" fill="#77c1f0"/>
      <rect id="Rectangle_8174" data-name="Rectangle 8174" width="11.181" height="11.181" transform="translate(89.445 44.722)" fill="#77c1f0"/>
      <rect id="Rectangle_8175" data-name="Rectangle 8175" width="11.181" height="11.181" transform="translate(89.445 22.361)" fill="#77c1f0"/>
      <rect id="Rectangle_8176" data-name="Rectangle 8176" width="11.181" height="11.181" transform="translate(89.445 67.084)" fill="#77c1f0"/>
      <rect id="Rectangle_8177" data-name="Rectangle 8177" width="11.181" height="11.181" transform="translate(100.625 11.181)" fill="#77c1f0"/>
      <rect id="Rectangle_8178" data-name="Rectangle 8178" width="11.181" height="11.181" transform="translate(100.625 55.903)" fill="#77c1f0"/>
      <rect id="Rectangle_8179" data-name="Rectangle 8179" width="11.181" height="11.181" transform="translate(100.625 33.542)" fill="#77c1f0"/>
      <rect id="Rectangle_8180" data-name="Rectangle 8180" width="11.181" height="11.181" transform="translate(100.625 78.264)" fill="#77c1f0"/>
      <rect id="Rectangle_8181" data-name="Rectangle 8181" width="11.181" height="11.181" transform="translate(111.806)" fill="#77c1f0"/>
      <rect id="Rectangle_8182" data-name="Rectangle 8182" width="11.181" height="11.181" transform="translate(111.806 44.722)" fill="#77c1f0"/>
      <rect id="Rectangle_8183" data-name="Rectangle 8183" width="11.181" height="11.181" transform="translate(111.806 22.361)" fill="#77c1f0"/>
      <rect id="Rectangle_8184" data-name="Rectangle 8184" width="11.181" height="11.181" transform="translate(111.806 67.084)" fill="#77c1f0"/>
      <rect id="Rectangle_8185" data-name="Rectangle 8185" width="11.181" height="11.181" transform="translate(122.987 11.181)" fill="#77c1f0"/>
      <rect id="Rectangle_8186" data-name="Rectangle 8186" width="11.181" height="11.181" transform="translate(122.987 55.903)" fill="#77c1f0"/>
      <rect id="Rectangle_8187" data-name="Rectangle 8187" width="11.181" height="11.181" transform="translate(122.987 33.542)" fill="#77c1f0"/>
      <rect id="Rectangle_8188" data-name="Rectangle 8188" width="11.181" height="11.181" transform="translate(122.987 78.264)" fill="#77c1f0"/>
    </g>
    <g id="Group_1048" data-name="Group 1048" transform="translate(-36.518 75.224)">
      <rect id="Rectangle_8189" data-name="Rectangle 8189" width="11.181" height="11.181" transform="translate(22.361)" fill="#77c1f0"/>
      <rect id="Rectangle_8190" data-name="Rectangle 8190" width="11.181" height="11.181" transform="translate(22.361 44.722)" fill="#77c1f0"/>
      <rect id="Rectangle_8191" data-name="Rectangle 8191" width="11.181" height="11.181" transform="translate(22.361 22.361)" fill="#77c1f0"/>
      <rect id="Rectangle_8192" data-name="Rectangle 8192" width="11.181" height="11.181" transform="translate(22.361 67.084)" fill="#77c1f0"/>
      <rect id="Rectangle_8193" data-name="Rectangle 8193" width="11.181" height="11.181" fill="#77c1f0"/>
      <rect id="Rectangle_8194" data-name="Rectangle 8194" width="11.181" height="11.181" transform="translate(0 44.722)" fill="#77c1f0"/>
      <rect id="Rectangle_8195" data-name="Rectangle 8195" width="11.181" height="11.181" transform="translate(0 22.361)" fill="#77c1f0"/>
      <rect id="Rectangle_8196" data-name="Rectangle 8196" width="11.181" height="11.181" transform="translate(0 67.084)" fill="#77c1f0"/>
      <rect id="Rectangle_8197" data-name="Rectangle 8197" width="11.181" height="11.181" transform="translate(33.542 11.181)" fill="#77c1f0"/>
      <rect id="Rectangle_8198" data-name="Rectangle 8198" width="11.181" height="11.181" transform="translate(33.542 55.903)" fill="#77c1f0"/>
      <rect id="Rectangle_8199" data-name="Rectangle 8199" width="11.181" height="11.181" transform="translate(33.542 33.542)" fill="#77c1f0"/>
      <rect id="Rectangle_8200" data-name="Rectangle 8200" width="11.181" height="11.181" transform="translate(33.542 78.264)" fill="#77c1f0"/>
      <rect id="Rectangle_8201" data-name="Rectangle 8201" width="11.181" height="11.181" transform="translate(11.181 11.181)" fill="#77c1f0"/>
      <rect id="Rectangle_8202" data-name="Rectangle 8202" width="11.181" height="11.181" transform="translate(11.181 55.903)" fill="#77c1f0"/>
      <rect id="Rectangle_8203" data-name="Rectangle 8203" width="11.181" height="11.181" transform="translate(11.181 33.542)" fill="#77c1f0"/>
      <rect id="Rectangle_8204" data-name="Rectangle 8204" width="11.181" height="11.181" transform="translate(11.181 78.264)" fill="#77c1f0"/>
      <rect id="Rectangle_8205" data-name="Rectangle 8205" width="11.181" height="11.181" transform="translate(44.722)" fill="#77c1f0"/>
      <rect id="Rectangle_8206" data-name="Rectangle 8206" width="11.181" height="11.181" transform="translate(44.722 44.722)" fill="#77c1f0"/>
      <rect id="Rectangle_8207" data-name="Rectangle 8207" width="11.181" height="11.181" transform="translate(44.722 22.361)" fill="#77c1f0"/>
      <rect id="Rectangle_8208" data-name="Rectangle 8208" width="11.181" height="11.181" transform="translate(44.722 67.084)" fill="#77c1f0"/>
      <rect id="Rectangle_8209" data-name="Rectangle 8209" width="11.181" height="11.181" transform="translate(55.903 11.181)" fill="#77c1f0"/>
      <rect id="Rectangle_8210" data-name="Rectangle 8210" width="11.181" height="11.181" transform="translate(55.903 55.903)" fill="#77c1f0"/>
      <rect id="Rectangle_8211" data-name="Rectangle 8211" width="11.181" height="11.181" transform="translate(55.903 33.542)" fill="#77c1f0"/>
      <rect id="Rectangle_8212" data-name="Rectangle 8212" width="11.181" height="11.181" transform="translate(55.903 78.264)" fill="#77c1f0"/>
      <rect id="Rectangle_8213" data-name="Rectangle 8213" width="11.181" height="11.181" transform="translate(67.084)" fill="#77c1f0"/>
      <rect id="Rectangle_8214" data-name="Rectangle 8214" width="11.181" height="11.181" transform="translate(67.084 44.722)" fill="#77c1f0"/>
      <rect id="Rectangle_8215" data-name="Rectangle 8215" width="11.181" height="11.181" transform="translate(67.084 22.361)" fill="#77c1f0"/>
      <rect id="Rectangle_8216" data-name="Rectangle 8216" width="11.181" height="11.181" transform="translate(67.084 67.084)" fill="#77c1f0"/>
      <rect id="Rectangle_8217" data-name="Rectangle 8217" width="11.181" height="11.181" transform="translate(78.264 11.181)" fill="#77c1f0"/>
      <rect id="Rectangle_8218" data-name="Rectangle 8218" width="11.181" height="11.181" transform="translate(78.264 55.903)" fill="#77c1f0"/>
      <rect id="Rectangle_8219" data-name="Rectangle 8219" width="11.181" height="11.181" transform="translate(78.264 33.542)" fill="#77c1f0"/>
      <rect id="Rectangle_8220" data-name="Rectangle 8220" width="11.181" height="11.181" transform="translate(78.264 78.264)" fill="#77c1f0"/>
      <rect id="Rectangle_8221" data-name="Rectangle 8221" width="11.181" height="11.181" transform="translate(89.445)" fill="#77c1f0"/>
      <rect id="Rectangle_8222" data-name="Rectangle 8222" width="11.181" height="11.181" transform="translate(89.445 44.722)" fill="#77c1f0"/>
      <rect id="Rectangle_8223" data-name="Rectangle 8223" width="11.181" height="11.181" transform="translate(89.445 22.361)" fill="#77c1f0"/>
      <rect id="Rectangle_8224" data-name="Rectangle 8224" width="11.181" height="11.181" transform="translate(89.445 67.084)" fill="#77c1f0"/>
      <rect id="Rectangle_8225" data-name="Rectangle 8225" width="11.181" height="11.181" transform="translate(100.625 11.181)" fill="#77c1f0"/>
      <rect id="Rectangle_8226" data-name="Rectangle 8226" width="11.181" height="11.181" transform="translate(100.625 55.903)" fill="#77c1f0"/>
      <rect id="Rectangle_8227" data-name="Rectangle 8227" width="11.181" height="11.181" transform="translate(100.625 33.542)" fill="#77c1f0"/>
      <rect id="Rectangle_8228" data-name="Rectangle 8228" width="11.181" height="11.181" transform="translate(100.625 78.264)" fill="#77c1f0"/>
      <rect id="Rectangle_8229" data-name="Rectangle 8229" width="11.181" height="11.181" transform="translate(111.806)" fill="#77c1f0"/>
      <rect id="Rectangle_8230" data-name="Rectangle 8230" width="11.181" height="11.181" transform="translate(111.806 44.722)" fill="#77c1f0"/>
      <rect id="Rectangle_8231" data-name="Rectangle 8231" width="11.181" height="11.181" transform="translate(111.806 22.361)" fill="#77c1f0"/>
      <rect id="Rectangle_8232" data-name="Rectangle 8232" width="11.181" height="11.181" transform="translate(111.806 67.084)" fill="#77c1f0"/>
      <rect id="Rectangle_8233" data-name="Rectangle 8233" width="11.181" height="11.181" transform="translate(122.987 11.181)" fill="#77c1f0"/>
      <rect id="Rectangle_8234" data-name="Rectangle 8234" width="11.181" height="11.181" transform="translate(122.987 55.903)" fill="#77c1f0"/>
      <rect id="Rectangle_8235" data-name="Rectangle 8235" width="11.181" height="11.181" transform="translate(122.987 33.542)" fill="#77c1f0"/>
      <rect id="Rectangle_8236" data-name="Rectangle 8236" width="11.181" height="11.181" transform="translate(122.987 78.264)" fill="#77c1f0"/>
    </g>
  </g>
  <g id="Group_1049" data-name="Group 1049" transform="translate(-2486.827 1620.329) rotate(79)">
    <circle id="Ellipse_136-2" data-name="Ellipse 136" cx="1.5" cy="1.5" r="1.5" transform="translate(-745 -3915)" fill="#3d9cd7"/>
    <circle id="Ellipse_174-2" data-name="Ellipse 174" cx="1.5" cy="1.5" r="1.5" transform="translate(-745 -3901.758)" fill="#3d9cd7"/>
    <circle id="Ellipse_159-2" data-name="Ellipse 159" cx="1.5" cy="1.5" r="1.5" transform="translate(-745 -3909)" fill="#3d9cd7"/>
    <circle id="Ellipse_175-2" data-name="Ellipse 175" cx="1.5" cy="1.5" r="1.5" transform="translate(-745 -3895.137)" fill="#3d9cd7"/>
    <circle id="Ellipse_148-2" data-name="Ellipse 148" cx="1.5" cy="1.5" r="1.5" transform="translate(-718.5 -3915)" fill="#3d9cd7"/>
    <circle id="Ellipse_163-2" data-name="Ellipse 163" cx="1.5" cy="1.5" r="1.5" transform="translate(-718.5 -3901.758)" fill="#3d9cd7"/>
    <circle id="Ellipse_183-2" data-name="Ellipse 183" cx="1.5" cy="1.5" r="1.5" transform="translate(-718.5 -3888.516)" fill="#3d9cd7"/>
    <circle id="Ellipse_196-2" data-name="Ellipse 196" cx="1.5" cy="1.5" r="1.5" transform="translate(-718.5 -3875.274)" fill="#3d9cd7"/>
    <circle id="Ellipse_155-2" data-name="Ellipse 155" cx="1.5" cy="1.5" r="1.5" transform="translate(-718.5 -3909)" fill="#3d9cd7"/>
    <circle id="Ellipse_164-2" data-name="Ellipse 164" cx="1.5" cy="1.5" r="1.5" transform="translate(-718.5 -3895.137)" fill="#3d9cd7"/>
    <circle id="Ellipse_176-2" data-name="Ellipse 176" cx="1.5" cy="1.5" r="1.5" transform="translate(-718.5 -3881.896)" fill="#3d9cd7"/>
    <circle id="Ellipse_200-2" data-name="Ellipse 200" cx="1.5" cy="1.5" r="1.5" transform="translate(-718.5 -3868.654)" fill="#3d9cd7"/>
    <circle id="Ellipse_234-2" data-name="Ellipse 234" cx="1.5" cy="1.5" r="1.5" transform="translate(-725.125 -3868.654)" fill="#3d9cd7"/>
    <circle id="Ellipse_147-2" data-name="Ellipse 147" cx="1.5" cy="1.5" r="1.5" transform="translate(-731.75 -3915)" fill="#3d9cd7"/>
    <circle id="Ellipse_170-2" data-name="Ellipse 170" cx="1.5" cy="1.5" r="1.5" transform="translate(-731.75 -3901.758)" fill="#3d9cd7"/>
    <circle id="Ellipse_184-2" data-name="Ellipse 184" cx="1.5" cy="1.5" r="1.5" transform="translate(-731.75 -3888.516)" fill="#3d9cd7"/>
    <circle id="Ellipse_194-2" data-name="Ellipse 194" cx="1.5" cy="1.5" r="1.5" transform="translate(-731.75 -3875.274)" fill="#3d9cd7"/>
    <circle id="Ellipse_245-2" data-name="Ellipse 245" cx="1.5" cy="1.5" r="1.5" transform="translate(-739 -3875.274)" fill="#3d9cd7"/>
    <circle id="Ellipse_237-2" data-name="Ellipse 237" cx="1.5" cy="1.5" r="1.5" transform="translate(-731.75 -3868.654)" fill="#3d9cd7"/>
    <circle id="Ellipse_157-2" data-name="Ellipse 157" cx="1.5" cy="1.5" r="1.5" transform="translate(-731.75 -3909)" fill="#3d9cd7"/>
    <circle id="Ellipse_171-2" data-name="Ellipse 171" cx="1.5" cy="1.5" r="1.5" transform="translate(-731.75 -3895.137)" fill="#3d9cd7"/>
    <circle id="Ellipse_181-2" data-name="Ellipse 181" cx="1.5" cy="1.5" r="1.5" transform="translate(-731.75 -3881.896)" fill="#3d9cd7"/>
    <circle id="Ellipse_149-2" data-name="Ellipse 149" cx="1.5" cy="1.5" r="1.5" transform="translate(-705.25 -3915)" fill="#3d9cd7"/>
    <circle id="Ellipse_165-2" data-name="Ellipse 165" cx="1.5" cy="1.5" r="1.5" transform="translate(-705.25 -3901.758)" fill="#3d9cd7"/>
    <circle id="Ellipse_185-2" data-name="Ellipse 185" cx="1.5" cy="1.5" r="1.5" transform="translate(-705.25 -3888.516)" fill="#3d9cd7"/>
    <circle id="Ellipse_198-2" data-name="Ellipse 198" cx="1.5" cy="1.5" r="1.5" transform="translate(-705.25 -3875.274)" fill="#3d9cd7"/>
    <circle id="Ellipse_152-2" data-name="Ellipse 152" cx="1.5" cy="1.5" r="1.5" transform="translate(-705.25 -3909)" fill="#3d9cd7"/>
    <circle id="Ellipse_161-2" data-name="Ellipse 161" cx="1.5" cy="1.5" r="1.5" transform="translate(-705.25 -3895.137)" fill="#3d9cd7"/>
    <circle id="Ellipse_177-2" data-name="Ellipse 177" cx="1.5" cy="1.5" r="1.5" transform="translate(-705.25 -3881.896)" fill="#3d9cd7"/>
    <circle id="Ellipse_202-2" data-name="Ellipse 202" cx="1.5" cy="1.5" r="1.5" transform="translate(-705.25 -3868.654)" fill="#3d9cd7"/>
    <circle id="Ellipse_223-2" data-name="Ellipse 223" cx="1.5" cy="1.5" r="1.5" transform="translate(-705.25 -3861.412)" fill="#3d9cd7"/>
    <circle id="Ellipse_227-2" data-name="Ellipse 227" cx="1.5" cy="1.5" r="1.5" transform="translate(-705.25 -3855.412)" fill="#3d9cd7"/>
    <circle id="Ellipse_236-2" data-name="Ellipse 236" cx="1.5" cy="1.5" r="1.5" transform="translate(-711.875 -3855.412)" fill="#3d9cd7"/>
    <circle id="Ellipse_145-2" data-name="Ellipse 145" cx="1.5" cy="1.5" r="1.5" transform="translate(-739 -3915)" fill="#3d9cd7"/>
    <circle id="Ellipse_172-2" data-name="Ellipse 172" cx="1.5" cy="1.5" r="1.5" transform="translate(-739 -3901.758)" fill="#3d9cd7"/>
    <circle id="Ellipse_186-2" data-name="Ellipse 186" cx="1.5" cy="1.5" r="1.5" transform="translate(-739 -3888.516)" fill="#3d9cd7"/>
    <circle id="Ellipse_246-2" data-name="Ellipse 246" cx="1.5" cy="1.5" r="1.5" transform="translate(-745 -3888.516)" fill="#3d9cd7"/>
    <circle id="Ellipse_158-2" data-name="Ellipse 158" cx="1.5" cy="1.5" r="1.5" transform="translate(-739 -3909)" fill="#3d9cd7"/>
    <circle id="Ellipse_173-2" data-name="Ellipse 173" cx="1.5" cy="1.5" r="1.5" transform="translate(-739 -3895.137)" fill="#3d9cd7"/>
    <circle id="Ellipse_182-2" data-name="Ellipse 182" cx="1.5" cy="1.5" r="1.5" transform="translate(-739 -3881.896)" fill="#3d9cd7"/>
    <circle id="Ellipse_150-2" data-name="Ellipse 150" cx="1.5" cy="1.5" r="1.5" transform="translate(-711.875 -3915)" fill="#3d9cd7"/>
    <circle id="Ellipse_166-2" data-name="Ellipse 166" cx="1.5" cy="1.5" r="1.5" transform="translate(-711.875 -3901.758)" fill="#3d9cd7"/>
    <circle id="Ellipse_187-2" data-name="Ellipse 187" cx="1.5" cy="1.5" r="1.5" transform="translate(-711.875 -3888.516)" fill="#3d9cd7"/>
    <circle id="Ellipse_197-2" data-name="Ellipse 197" cx="1.5" cy="1.5" r="1.5" transform="translate(-711.875 -3875.274)" fill="#3d9cd7"/>
    <circle id="Ellipse_153-2" data-name="Ellipse 153" cx="1.5" cy="1.5" r="1.5" transform="translate(-711.875 -3909)" fill="#3d9cd7"/>
    <circle id="Ellipse_162-2" data-name="Ellipse 162" cx="1.5" cy="1.5" r="1.5" transform="translate(-711.875 -3895.137)" fill="#3d9cd7"/>
    <circle id="Ellipse_178-2" data-name="Ellipse 178" cx="1.5" cy="1.5" r="1.5" transform="translate(-711.875 -3881.896)" fill="#3d9cd7"/>
    <circle id="Ellipse_204-2" data-name="Ellipse 204" cx="1.5" cy="1.5" r="1.5" transform="translate(-711.875 -3868.654)" fill="#3d9cd7"/>
    <circle id="Ellipse_224-2" data-name="Ellipse 224" cx="1.5" cy="1.5" r="1.5" transform="translate(-711.875 -3861.412)" fill="#3d9cd7"/>
    <circle id="Ellipse_235-2" data-name="Ellipse 235" cx="1.5" cy="1.5" r="1.5" transform="translate(-718.5 -3861.412)" fill="#3d9cd7"/>
    <circle id="Ellipse_238-2" data-name="Ellipse 238" cx="1.5" cy="1.5" r="1.5" transform="translate(-725.125 -3861.412)" fill="#3d9cd7"/>
    <circle id="Ellipse_146-2" data-name="Ellipse 146" cx="1.5" cy="1.5" r="1.5" transform="translate(-725.125 -3915)" fill="#3d9cd7"/>
    <circle id="Ellipse_167-2" data-name="Ellipse 167" cx="1.5" cy="1.5" r="1.5" transform="translate(-725.125 -3901.758)" fill="#3d9cd7"/>
    <circle id="Ellipse_188-2" data-name="Ellipse 188" cx="1.5" cy="1.5" r="1.5" transform="translate(-725.125 -3888.516)" fill="#3d9cd7"/>
    <circle id="Ellipse_195-2" data-name="Ellipse 195" cx="1.5" cy="1.5" r="1.5" transform="translate(-725.125 -3875.274)" fill="#3d9cd7"/>
    <circle id="Ellipse_156-2" data-name="Ellipse 156" cx="1.5" cy="1.5" r="1.5" transform="translate(-725.125 -3909)" fill="#3d9cd7"/>
    <circle id="Ellipse_168-2" data-name="Ellipse 168" cx="1.5" cy="1.5" r="1.5" transform="translate(-725.125 -3895.137)" fill="#3d9cd7"/>
    <circle id="Ellipse_180-2" data-name="Ellipse 180" cx="1.5" cy="1.5" r="1.5" transform="translate(-725.125 -3881.896)" fill="#3d9cd7"/>
    <circle id="Ellipse_151-2" data-name="Ellipse 151" cx="1.5" cy="1.5" r="1.5" transform="translate(-698 -3915)" fill="#3d9cd7"/>
    <circle id="Ellipse_222-2" data-name="Ellipse 222" cx="1.5" cy="1.5" r="1.5" transform="translate(-692 -3915)" fill="#3d9cd7"/>
    <circle id="Ellipse_169-2" data-name="Ellipse 169" cx="1.5" cy="1.5" r="1.5" transform="translate(-698 -3901.758)" fill="#3d9cd7"/>
    <circle id="Ellipse_220-2" data-name="Ellipse 220" cx="1.5" cy="1.5" r="1.5" transform="translate(-692 -3901.758)" fill="#3d9cd7"/>
    <circle id="Ellipse_189-2" data-name="Ellipse 189" cx="1.5" cy="1.5" r="1.5" transform="translate(-698 -3888.516)" fill="#3d9cd7"/>
    <circle id="Ellipse_218-2" data-name="Ellipse 218" cx="1.5" cy="1.5" r="1.5" transform="translate(-692 -3888.516)" fill="#3d9cd7"/>
    <circle id="Ellipse_206-2" data-name="Ellipse 206" cx="1.5" cy="1.5" r="1.5" transform="translate(-698 -3875.274)" fill="#3d9cd7"/>
    <circle id="Ellipse_216-2" data-name="Ellipse 216" cx="1.5" cy="1.5" r="1.5" transform="translate(-692 -3875.274)" fill="#3d9cd7"/>
    <circle id="Ellipse_154-2" data-name="Ellipse 154" cx="1.5" cy="1.5" r="1.5" transform="translate(-698 -3909)" fill="#3d9cd7"/>
    <circle id="Ellipse_221-2" data-name="Ellipse 221" cx="1.5" cy="1.5" r="1.5" transform="translate(-692 -3909)" fill="#3d9cd7"/>
    <circle id="Ellipse_160-2" data-name="Ellipse 160" cx="1.5" cy="1.5" r="1.5" transform="translate(-698 -3895.137)" fill="#3d9cd7"/>
    <circle id="Ellipse_219-2" data-name="Ellipse 219" cx="1.5" cy="1.5" r="1.5" transform="translate(-692 -3895.137)" fill="#3d9cd7"/>
    <circle id="Ellipse_179-2" data-name="Ellipse 179" cx="1.5" cy="1.5" r="1.5" transform="translate(-698 -3881.896)" fill="#3d9cd7"/>
    <circle id="Ellipse_217-2" data-name="Ellipse 217" cx="1.5" cy="1.5" r="1.5" transform="translate(-692 -3881.896)" fill="#3d9cd7"/>
    <circle id="Ellipse_207-2" data-name="Ellipse 207" cx="1.5" cy="1.5" r="1.5" transform="translate(-698 -3868.654)" fill="#3d9cd7"/>
    <circle id="Ellipse_225-2" data-name="Ellipse 225" cx="1.5" cy="1.5" r="1.5" transform="translate(-698 -3861.412)" fill="#3d9cd7"/>
    <circle id="Ellipse_229-2" data-name="Ellipse 229" cx="1.5" cy="1.5" r="1.5" transform="translate(-698 -3855.412)" fill="#3d9cd7"/>
    <circle id="Ellipse_215-2" data-name="Ellipse 215" cx="1.5" cy="1.5" r="1.5" transform="translate(-692 -3868.654)" fill="#3d9cd7"/>
    <circle id="Ellipse_226-2" data-name="Ellipse 226" cx="1.5" cy="1.5" r="1.5" transform="translate(-692 -3861.412)" fill="#3d9cd7"/>
    <circle id="Ellipse_230-2" data-name="Ellipse 230" cx="1.5" cy="1.5" r="1.5" transform="translate(-692 -3855.412)" fill="#3d9cd7"/>
  </g>
  <path id="Path_582" data-name="Path 582" d="M65.1,0c31.041,0,56.2,25.719,56.2,57.444s-25.163,57.444-56.2,57.444,0-25.719,0-57.444S34.064,0,65.1,0Z" transform="matrix(0.695, 0.719, -0.719, 0.695, 1142.362, 109.769)" fill="#f8ec4f"/>
</svg>
