<svg xmlns="http://www.w3.org/2000/svg" width="638.114" height="742.708" viewBox="0 0 638.114 742.708">
  <g id="Group_1258" data-name="Group 1258" transform="translate(0 -25.292)">
    <circle id="Ellipse_287" data-name="Ellipse 287" cx="312.057" cy="312.057" r="312.057" transform="translate(14 25.292)" fill="#f8ec4f"/>
    <g id="Group_1085" data-name="Group 1085" transform="translate(-638.822 -3147) rotate(180)">
      <circle id="Ellipse_136" data-name="Ellipse 136" cx="3" cy="3" r="3" transform="translate(-744.822 -3915)" fill="#e234a6"/>
      <circle id="Ellipse_174" data-name="Ellipse 174" cx="3" cy="3" r="3" transform="translate(-744.822 -3889.745)" fill="#e234a6"/>
      <circle id="Ellipse_159" data-name="Ellipse 159" cx="3" cy="3" r="3" transform="translate(-744.822 -3903)" fill="#e234a6"/>
      <circle id="Ellipse_175" data-name="Ellipse 175" cx="3" cy="3" r="3" transform="translate(-744.822 -3877.118)" fill="#e234a6"/>
      <circle id="Ellipse_148" data-name="Ellipse 148" cx="3" cy="3" r="3" transform="translate(-695.349 -3915)" fill="#e234a6"/>
      <circle id="Ellipse_163" data-name="Ellipse 163" cx="3" cy="3" r="3" transform="translate(-695.349 -3889.745)" fill="#e234a6"/>
      <circle id="Ellipse_183" data-name="Ellipse 183" cx="3" cy="3" r="3" transform="translate(-695.349 -3864.49)" fill="#e234a6"/>
      <circle id="Ellipse_196" data-name="Ellipse 196" cx="3" cy="3" r="3" transform="translate(-695.349 -3840.288)" fill="#e234a6"/>
      <circle id="Ellipse_155" data-name="Ellipse 155" cx="3" cy="3" r="3" transform="translate(-695.349 -3903)" fill="#e234a6"/>
      <circle id="Ellipse_164" data-name="Ellipse 164" cx="3" cy="3" r="3" transform="translate(-695.349 -3877.118)" fill="#e234a6"/>
      <ellipse id="Ellipse_176" data-name="Ellipse 176" cx="3" cy="2.5" rx="3" ry="2.5" transform="translate(-695.349 -3851.892)" fill="#e234a6"/>
      <circle id="Ellipse_200" data-name="Ellipse 200" cx="3" cy="3" r="3" transform="translate(-695.349 -3827.661)" fill="#e234a6"/>
      <ellipse id="Ellipse_234" data-name="Ellipse 234" cx="2.5" cy="3" rx="2.5" ry="3" transform="translate(-706.947 -3827.661)" fill="#e234a6"/>
      <circle id="Ellipse_147" data-name="Ellipse 147" cx="3" cy="3" r="3" transform="translate(-719.559 -3915)" fill="#e234a6"/>
      <circle id="Ellipse_170" data-name="Ellipse 170" cx="3" cy="3" r="3" transform="translate(-719.559 -3889.745)" fill="#e234a6"/>
      <circle id="Ellipse_184" data-name="Ellipse 184" cx="3" cy="3" r="3" transform="translate(-719.559 -3864.49)" fill="#e234a6"/>
      <circle id="Ellipse_194" data-name="Ellipse 194" cx="3" cy="3" r="3" transform="translate(-719.559 -3840.288)" fill="#e234a6"/>
      <circle id="Ellipse_245" data-name="Ellipse 245" cx="3" cy="3" r="3" transform="translate(-732.822 -3840.288)" fill="#e234a6"/>
      <circle id="Ellipse_237" data-name="Ellipse 237" cx="3" cy="3" r="3" transform="translate(-719.559 -3827.661)" fill="#e234a6"/>
      <circle id="Ellipse_157" data-name="Ellipse 157" cx="3" cy="3" r="3" transform="translate(-719.559 -3903)" fill="#e234a6"/>
      <circle id="Ellipse_171" data-name="Ellipse 171" cx="3" cy="3" r="3" transform="translate(-719.559 -3877.118)" fill="#e234a6"/>
      <ellipse id="Ellipse_181" data-name="Ellipse 181" cx="3" cy="2.5" rx="3" ry="2.5" transform="translate(-719.559 -3851.892)" fill="#e234a6"/>
      <circle id="Ellipse_149" data-name="Ellipse 149" cx="3" cy="3" r="3" transform="translate(-670.086 -3915)" fill="#e234a6"/>
      <circle id="Ellipse_165" data-name="Ellipse 165" cx="3" cy="3" r="3" transform="translate(-670.086 -3889.745)" fill="#e234a6"/>
      <circle id="Ellipse_185" data-name="Ellipse 185" cx="3" cy="3" r="3" transform="translate(-670.086 -3864.49)" fill="#e234a6"/>
      <circle id="Ellipse_198" data-name="Ellipse 198" cx="3" cy="3" r="3" transform="translate(-670.086 -3840.288)" fill="#e234a6"/>
      <circle id="Ellipse_152" data-name="Ellipse 152" cx="3" cy="3" r="3" transform="translate(-670.086 -3903)" fill="#e234a6"/>
      <circle id="Ellipse_161" data-name="Ellipse 161" cx="3" cy="3" r="3" transform="translate(-670.086 -3877.118)" fill="#e234a6"/>
      <ellipse id="Ellipse_177" data-name="Ellipse 177" cx="3" cy="2.5" rx="3" ry="2.5" transform="translate(-670.086 -3851.892)" fill="#e234a6"/>
      <circle id="Ellipse_202" data-name="Ellipse 202" cx="3" cy="3" r="3" transform="translate(-670.086 -3827.661)" fill="#e234a6"/>
      <circle id="Ellipse_223" data-name="Ellipse 223" cx="3" cy="3" r="3" transform="translate(-670.086 -3814.406)" fill="#e234a6"/>
      <circle id="Ellipse_227" data-name="Ellipse 227" cx="3" cy="3" r="3" transform="translate(-670.086 -3802.406)" fill="#e234a6"/>
      <circle id="Ellipse_236" data-name="Ellipse 236" cx="3" cy="3" r="3" transform="translate(-682.717 -3802.406)" fill="#e234a6"/>
      <circle id="Ellipse_145" data-name="Ellipse 145" cx="3" cy="3" r="3" transform="translate(-732.822 -3915)" fill="#e234a6"/>
      <circle id="Ellipse_172" data-name="Ellipse 172" cx="3" cy="3" r="3" transform="translate(-732.822 -3889.745)" fill="#e234a6"/>
      <circle id="Ellipse_186" data-name="Ellipse 186" cx="3" cy="3" r="3" transform="translate(-732.822 -3864.49)" fill="#e234a6"/>
      <circle id="Ellipse_246" data-name="Ellipse 246" cx="3" cy="3" r="3" transform="translate(-744.822 -3864.49)" fill="#e234a6"/>
      <circle id="Ellipse_158" data-name="Ellipse 158" cx="3" cy="3" r="3" transform="translate(-732.822 -3903)" fill="#e234a6"/>
      <circle id="Ellipse_173" data-name="Ellipse 173" cx="3" cy="3" r="3" transform="translate(-732.822 -3877.118)" fill="#e234a6"/>
      <ellipse id="Ellipse_182" data-name="Ellipse 182" cx="3" cy="2.5" rx="3" ry="2.5" transform="translate(-732.822 -3851.892)" fill="#e234a6"/>
      <circle id="Ellipse_150" data-name="Ellipse 150" cx="3" cy="3" r="3" transform="translate(-682.717 -3915)" fill="#e234a6"/>
      <circle id="Ellipse_166" data-name="Ellipse 166" cx="3" cy="3" r="3" transform="translate(-682.717 -3889.745)" fill="#e234a6"/>
      <circle id="Ellipse_187" data-name="Ellipse 187" cx="3" cy="3" r="3" transform="translate(-682.717 -3864.49)" fill="#e234a6"/>
      <circle id="Ellipse_197" data-name="Ellipse 197" cx="3" cy="3" r="3" transform="translate(-682.717 -3840.288)" fill="#e234a6"/>
      <circle id="Ellipse_153" data-name="Ellipse 153" cx="3" cy="3" r="3" transform="translate(-682.717 -3903)" fill="#e234a6"/>
      <circle id="Ellipse_162" data-name="Ellipse 162" cx="3" cy="3" r="3" transform="translate(-682.717 -3877.118)" fill="#e234a6"/>
      <ellipse id="Ellipse_178" data-name="Ellipse 178" cx="3" cy="2.5" rx="3" ry="2.5" transform="translate(-682.717 -3851.892)" fill="#e234a6"/>
      <circle id="Ellipse_204" data-name="Ellipse 204" cx="3" cy="3" r="3" transform="translate(-682.717 -3827.661)" fill="#e234a6"/>
      <circle id="Ellipse_224" data-name="Ellipse 224" cx="3" cy="3" r="3" transform="translate(-682.717 -3814.406)" fill="#e234a6"/>
      <circle id="Ellipse_235" data-name="Ellipse 235" cx="3" cy="3" r="3" transform="translate(-695.349 -3814.406)" fill="#e234a6"/>
      <ellipse id="Ellipse_238" data-name="Ellipse 238" cx="2.5" cy="3" rx="2.5" ry="3" transform="translate(-706.947 -3814.406)" fill="#e234a6"/>
      <ellipse id="Ellipse_146" data-name="Ellipse 146" cx="2.5" cy="3" rx="2.5" ry="3" transform="translate(-706.947 -3915)" fill="#e234a6"/>
      <ellipse id="Ellipse_167" data-name="Ellipse 167" cx="2.5" cy="3" rx="2.5" ry="3" transform="translate(-706.947 -3889.745)" fill="#e234a6"/>
      <ellipse id="Ellipse_188" data-name="Ellipse 188" cx="2.5" cy="3" rx="2.5" ry="3" transform="translate(-706.947 -3864.49)" fill="#e234a6"/>
      <ellipse id="Ellipse_195" data-name="Ellipse 195" cx="2.5" cy="3" rx="2.5" ry="3" transform="translate(-706.947 -3840.288)" fill="#e234a6"/>
      <ellipse id="Ellipse_156" data-name="Ellipse 156" cx="2.5" cy="3" rx="2.5" ry="3" transform="translate(-706.947 -3903)" fill="#e234a6"/>
      <ellipse id="Ellipse_168" data-name="Ellipse 168" cx="2.5" cy="3" rx="2.5" ry="3" transform="translate(-706.947 -3877.118)" fill="#e234a6"/>
      <circle id="Ellipse_180" data-name="Ellipse 180" cx="2.5" cy="2.5" r="2.5" transform="translate(-706.947 -3851.892)" fill="#e234a6"/>
      <circle id="Ellipse_151" data-name="Ellipse 151" cx="3" cy="3" r="3" transform="translate(-656.822 -3915)" fill="#e234a6"/>
      <circle id="Ellipse_222" data-name="Ellipse 222" cx="3" cy="3" r="3" transform="translate(-644.822 -3915)" fill="#e234a6"/>
      <circle id="Ellipse_169" data-name="Ellipse 169" cx="3" cy="3" r="3" transform="translate(-656.822 -3889.745)" fill="#e234a6"/>
      <circle id="Ellipse_220" data-name="Ellipse 220" cx="3" cy="3" r="3" transform="translate(-644.822 -3889.745)" fill="#e234a6"/>
      <circle id="Ellipse_189" data-name="Ellipse 189" cx="3" cy="3" r="3" transform="translate(-656.822 -3864.49)" fill="#e234a6"/>
      <circle id="Ellipse_218" data-name="Ellipse 218" cx="3" cy="3" r="3" transform="translate(-644.822 -3864.49)" fill="#e234a6"/>
      <circle id="Ellipse_206" data-name="Ellipse 206" cx="3" cy="3" r="3" transform="translate(-656.822 -3840.288)" fill="#e234a6"/>
      <circle id="Ellipse_216" data-name="Ellipse 216" cx="3" cy="3" r="3" transform="translate(-644.822 -3840.288)" fill="#e234a6"/>
      <circle id="Ellipse_154" data-name="Ellipse 154" cx="3" cy="3" r="3" transform="translate(-656.822 -3903)" fill="#e234a6"/>
      <circle id="Ellipse_221" data-name="Ellipse 221" cx="3" cy="3" r="3" transform="translate(-644.822 -3903)" fill="#e234a6"/>
      <circle id="Ellipse_160" data-name="Ellipse 160" cx="3" cy="3" r="3" transform="translate(-656.822 -3877.118)" fill="#e234a6"/>
      <circle id="Ellipse_219" data-name="Ellipse 219" cx="3" cy="3" r="3" transform="translate(-644.822 -3877.118)" fill="#e234a6"/>
      <ellipse id="Ellipse_179" data-name="Ellipse 179" cx="3" cy="2.5" rx="3" ry="2.5" transform="translate(-656.822 -3851.892)" fill="#e234a6"/>
      <ellipse id="Ellipse_217" data-name="Ellipse 217" cx="3" cy="2.5" rx="3" ry="2.5" transform="translate(-644.822 -3851.892)" fill="#e234a6"/>
      <circle id="Ellipse_207" data-name="Ellipse 207" cx="3" cy="3" r="3" transform="translate(-656.822 -3827.661)" fill="#e234a6"/>
      <circle id="Ellipse_225" data-name="Ellipse 225" cx="3" cy="3" r="3" transform="translate(-656.822 -3814.406)" fill="#e234a6"/>
      <circle id="Ellipse_229" data-name="Ellipse 229" cx="3" cy="3" r="3" transform="translate(-656.822 -3802.406)" fill="#e234a6"/>
      <circle id="Ellipse_215" data-name="Ellipse 215" cx="3" cy="3" r="3" transform="translate(-644.822 -3827.661)" fill="#e234a6"/>
      <circle id="Ellipse_226" data-name="Ellipse 226" cx="3" cy="3" r="3" transform="translate(-644.822 -3814.406)" fill="#e234a6"/>
      <circle id="Ellipse_230" data-name="Ellipse 230" cx="3" cy="3" r="3" transform="translate(-644.822 -3802.406)" fill="#e234a6"/>
    </g>
  </g>
</svg>
