<svg xmlns="http://www.w3.org/2000/svg" width="90" height="90" viewBox="0 0 91.231 92.433">
  <g id="Group_1051" data-name="Group 1051" transform="translate(-389.75 -356.567)">
    <g id="Group_1046" data-name="Group 1046" transform="matrix(0.616, 0.788, -0.788, 0.616, 444.352, 356.284)">
      <path id="Path_335" data-name="Path 335" d="M401.869,75.993s2.513-4.944,4.188-6.71,1.257-3,2.095-3.885,1.884.177,2.3,1.059,7.12,11.831,6.91,12.891.838,6.71,1.885,8.3,5.654,9.712,6.492,12.184,5.654,15.539,7.12,17.129,3.769,8.476,3.769,9.535,3.141,6.357,1.466,7.593-9.082,0-12.812,0-17.761-1.236-20.065-1.766-18.219-1.942-20.313-2.3-6.911-.353-5.026-4.414,4.607-9.182,5.026-11.654,6.91-18.718,9.214-23.132S401.869,75.993,401.869,75.993Z" transform="translate(-379.093 -65.066)" fill="#5bbf7f"/>
    </g>
    <text id="_1" data-name="1" transform="translate(402 383)" fill="#fff" font-size="40" font-family="Poppins-Bold, Poppins" font-weight="700"><tspan x="17.48" y="42">1</tspan></text>
  </g>
</svg>
