<svg xmlns="http://www.w3.org/2000/svg" width="90" height="90" viewBox="0 0 91.151 89.098">
  <g id="Group_1053" data-name="Group 1053" transform="translate(-679.387 -620.953)">
    <g id="Group_1044" data-name="Group 1044" transform="matrix(-0.602, 0.799, -0.799, -0.602, 770.755, 662.535)">
      <path id="Path_335" data-name="Path 335" d="M401.869,75.993s2.513-4.944,4.188-6.71,1.257-3,2.095-3.885,1.884.177,2.3,1.059,7.12,11.831,6.91,12.891.838,6.71,1.885,8.3,5.654,9.712,6.492,12.184,5.654,15.539,7.12,17.129,3.769,8.476,3.769,9.535,3.141,6.357,1.466,7.593-9.082,0-12.812,0-17.761-1.236-20.065-1.766-18.219-1.942-20.313-2.3-6.911-.353-5.026-4.414,4.607-9.182,5.026-11.654,6.91-18.718,9.214-23.132S401.869,75.993,401.869,75.993Z" transform="translate(-379.093 -65.066)" fill="#5bbf7f"/>
    </g>
    <text id="_3" data-name="3" transform="translate(693 631)" fill="#fff" font-size="40" font-family="Poppins-Bold, Poppins" font-weight="700"><tspan x="12.9" y="42">3</tspan></text>
  </g>
</svg>
