<svg xmlns="http://www.w3.org/2000/svg" width="122.692" height="110" viewBox="0 0 122.692 110">
  <g id="Group_1105" data-name="Group 1105" transform="translate(-3792.308 745.211) rotate(90)">
    <circle id="Ellipse_136" data-name="Ellipse 136" cx="3" cy="3" r="3" transform="translate(-745.211 -3915)" fill="#77c1f0"/>
    <ellipse id="Ellipse_174" data-name="Ellipse 174" cx="3" cy="3.5" rx="3" ry="3.5" transform="translate(-745.211 -3889.526)" fill="#77c1f0"/>
    <circle id="Ellipse_159" data-name="Ellipse 159" cx="3" cy="3" r="3" transform="translate(-745.211 -3903)" fill="#77c1f0"/>
    <circle id="Ellipse_175" data-name="Ellipse 175" cx="3" cy="3" r="3" transform="translate(-745.211 -3875.749)" fill="#77c1f0"/>
    <circle id="Ellipse_148" data-name="Ellipse 148" cx="3" cy="3" r="3" transform="translate(-693.211 -3915)" fill="#77c1f0"/>
    <ellipse id="Ellipse_163" data-name="Ellipse 163" cx="3" cy="3.5" rx="3" ry="3.5" transform="translate(-693.211 -3889.526)" fill="#77c1f0"/>
    <circle id="Ellipse_183" data-name="Ellipse 183" cx="3" cy="3" r="3" transform="translate(-693.211 -3863.019)" fill="#77c1f0"/>
    <circle id="Ellipse_196" data-name="Ellipse 196" cx="3" cy="3" r="3" transform="translate(-693.211 -3837.559)" fill="#77c1f0"/>
    <circle id="Ellipse_155" data-name="Ellipse 155" cx="3" cy="3" r="3" transform="translate(-693.211 -3903)" fill="#77c1f0"/>
    <circle id="Ellipse_164" data-name="Ellipse 164" cx="3" cy="3" r="3" transform="translate(-693.211 -3875.749)" fill="#77c1f0"/>
    <circle id="Ellipse_176" data-name="Ellipse 176" cx="3" cy="3" r="3" transform="translate(-693.211 -3850.289)" fill="#77c1f0"/>
    <ellipse id="Ellipse_200" data-name="Ellipse 200" cx="3" cy="3.5" rx="3" ry="3.5" transform="translate(-693.211 -3824.781)" fill="#77c1f0"/>
    <ellipse id="Ellipse_234" data-name="Ellipse 234" cx="3" cy="3.5" rx="3" ry="3.5" transform="translate(-705.945 -3824.781)" fill="#77c1f0"/>
    <circle id="Ellipse_147" data-name="Ellipse 147" cx="3" cy="3" r="3" transform="translate(-718.68 -3915)" fill="#77c1f0"/>
    <ellipse id="Ellipse_170" data-name="Ellipse 170" cx="3" cy="3.5" rx="3" ry="3.5" transform="translate(-718.68 -3889.526)" fill="#77c1f0"/>
    <circle id="Ellipse_184" data-name="Ellipse 184" cx="3" cy="3" r="3" transform="translate(-718.68 -3863.019)" fill="#77c1f0"/>
    <circle id="Ellipse_194" data-name="Ellipse 194" cx="3" cy="3" r="3" transform="translate(-718.68 -3837.559)" fill="#77c1f0"/>
    <ellipse id="Ellipse_245" data-name="Ellipse 245" cx="3.5" cy="3" rx="3.5" ry="3" transform="translate(-733.211 -3837.559)" fill="#77c1f0"/>
    <ellipse id="Ellipse_237" data-name="Ellipse 237" cx="3" cy="3.5" rx="3" ry="3.5" transform="translate(-718.68 -3824.781)" fill="#77c1f0"/>
    <circle id="Ellipse_157" data-name="Ellipse 157" cx="3" cy="3" r="3" transform="translate(-718.68 -3903)" fill="#77c1f0"/>
    <circle id="Ellipse_171" data-name="Ellipse 171" cx="3" cy="3" r="3" transform="translate(-718.68 -3875.749)" fill="#77c1f0"/>
    <circle id="Ellipse_181" data-name="Ellipse 181" cx="3" cy="3" r="3" transform="translate(-718.68 -3850.289)" fill="#77c1f0"/>
    <ellipse id="Ellipse_149" data-name="Ellipse 149" cx="3.5" cy="3" rx="3.5" ry="3" transform="translate(-667.695 -3915)" fill="#77c1f0"/>
    <circle id="Ellipse_165" data-name="Ellipse 165" cx="3.5" cy="3.5" r="3.5" transform="translate(-667.695 -3889.526)" fill="#77c1f0"/>
    <ellipse id="Ellipse_185" data-name="Ellipse 185" cx="3.5" cy="3" rx="3.5" ry="3" transform="translate(-667.695 -3863.019)" fill="#77c1f0"/>
    <ellipse id="Ellipse_198" data-name="Ellipse 198" cx="3.5" cy="3" rx="3.5" ry="3" transform="translate(-667.695 -3837.559)" fill="#77c1f0"/>
    <ellipse id="Ellipse_152" data-name="Ellipse 152" cx="3.5" cy="3" rx="3.5" ry="3" transform="translate(-667.695 -3903)" fill="#77c1f0"/>
    <ellipse id="Ellipse_161" data-name="Ellipse 161" cx="3.5" cy="3" rx="3.5" ry="3" transform="translate(-667.695 -3875.749)" fill="#77c1f0"/>
    <ellipse id="Ellipse_177" data-name="Ellipse 177" cx="3.5" cy="3" rx="3.5" ry="3" transform="translate(-667.695 -3850.289)" fill="#77c1f0"/>
    <circle id="Ellipse_202" data-name="Ellipse 202" cx="3.5" cy="3.5" r="3.5" transform="translate(-667.695 -3824.781)" fill="#77c1f0"/>
    <ellipse id="Ellipse_223" data-name="Ellipse 223" cx="3.5" cy="3" rx="3.5" ry="3" transform="translate(-667.695 -3810.308)" fill="#77c1f0"/>
    <ellipse id="Ellipse_227" data-name="Ellipse 227" cx="3.5" cy="3" rx="3.5" ry="3" transform="translate(-667.695 -3798.308)" fill="#77c1f0"/>
    <circle id="Ellipse_236" data-name="Ellipse 236" cx="3" cy="3" r="3" transform="translate(-680.476 -3798.308)" fill="#77c1f0"/>
    <ellipse id="Ellipse_145" data-name="Ellipse 145" cx="3.5" cy="3" rx="3.5" ry="3" transform="translate(-733.211 -3915)" fill="#77c1f0"/>
    <circle id="Ellipse_172" data-name="Ellipse 172" cx="3.5" cy="3.5" r="3.5" transform="translate(-733.211 -3889.526)" fill="#77c1f0"/>
    <ellipse id="Ellipse_186" data-name="Ellipse 186" cx="3.5" cy="3" rx="3.5" ry="3" transform="translate(-733.211 -3863.019)" fill="#77c1f0"/>
    <circle id="Ellipse_246" data-name="Ellipse 246" cx="3" cy="3" r="3" transform="translate(-745.211 -3863.019)" fill="#77c1f0"/>
    <ellipse id="Ellipse_158" data-name="Ellipse 158" cx="3.5" cy="3" rx="3.5" ry="3" transform="translate(-733.211 -3903)" fill="#77c1f0"/>
    <ellipse id="Ellipse_173" data-name="Ellipse 173" cx="3.5" cy="3" rx="3.5" ry="3" transform="translate(-733.211 -3875.749)" fill="#77c1f0"/>
    <ellipse id="Ellipse_182" data-name="Ellipse 182" cx="3.5" cy="3" rx="3.5" ry="3" transform="translate(-733.211 -3850.289)" fill="#77c1f0"/>
    <circle id="Ellipse_150" data-name="Ellipse 150" cx="3" cy="3" r="3" transform="translate(-680.476 -3915)" fill="#77c1f0"/>
    <ellipse id="Ellipse_166" data-name="Ellipse 166" cx="3" cy="3.5" rx="3" ry="3.5" transform="translate(-680.476 -3889.526)" fill="#77c1f0"/>
    <circle id="Ellipse_187" data-name="Ellipse 187" cx="3" cy="3" r="3" transform="translate(-680.476 -3863.019)" fill="#77c1f0"/>
    <circle id="Ellipse_197" data-name="Ellipse 197" cx="3" cy="3" r="3" transform="translate(-680.476 -3837.559)" fill="#77c1f0"/>
    <circle id="Ellipse_153" data-name="Ellipse 153" cx="3" cy="3" r="3" transform="translate(-680.476 -3903)" fill="#77c1f0"/>
    <circle id="Ellipse_162" data-name="Ellipse 162" cx="3" cy="3" r="3" transform="translate(-680.476 -3875.749)" fill="#77c1f0"/>
    <circle id="Ellipse_178" data-name="Ellipse 178" cx="3" cy="3" r="3" transform="translate(-680.476 -3850.289)" fill="#77c1f0"/>
    <ellipse id="Ellipse_204" data-name="Ellipse 204" cx="3" cy="3.5" rx="3" ry="3.5" transform="translate(-680.476 -3824.781)" fill="#77c1f0"/>
    <circle id="Ellipse_224" data-name="Ellipse 224" cx="3" cy="3" r="3" transform="translate(-680.476 -3810.308)" fill="#77c1f0"/>
    <circle id="Ellipse_235" data-name="Ellipse 235" cx="3" cy="3" r="3" transform="translate(-693.211 -3810.308)" fill="#77c1f0"/>
    <circle id="Ellipse_238" data-name="Ellipse 238" cx="3" cy="3" r="3" transform="translate(-705.945 -3810.308)" fill="#77c1f0"/>
    <circle id="Ellipse_146" data-name="Ellipse 146" cx="3" cy="3" r="3" transform="translate(-705.945 -3915)" fill="#77c1f0"/>
    <ellipse id="Ellipse_167" data-name="Ellipse 167" cx="3" cy="3.5" rx="3" ry="3.5" transform="translate(-705.945 -3889.526)" fill="#77c1f0"/>
    <circle id="Ellipse_188" data-name="Ellipse 188" cx="3" cy="3" r="3" transform="translate(-705.945 -3863.019)" fill="#77c1f0"/>
    <circle id="Ellipse_195" data-name="Ellipse 195" cx="3" cy="3" r="3" transform="translate(-705.945 -3837.559)" fill="#77c1f0"/>
    <circle id="Ellipse_156" data-name="Ellipse 156" cx="3" cy="3" r="3" transform="translate(-705.945 -3903)" fill="#77c1f0"/>
    <circle id="Ellipse_168" data-name="Ellipse 168" cx="3" cy="3" r="3" transform="translate(-705.945 -3875.749)" fill="#77c1f0"/>
    <circle id="Ellipse_180" data-name="Ellipse 180" cx="3" cy="3" r="3" transform="translate(-705.945 -3850.289)" fill="#77c1f0"/>
    <circle id="Ellipse_151" data-name="Ellipse 151" cx="3" cy="3" r="3" transform="translate(-653.211 -3915)" fill="#77c1f0"/>
    <circle id="Ellipse_222" data-name="Ellipse 222" cx="3" cy="3" r="3" transform="translate(-641.211 -3915)" fill="#77c1f0"/>
    <ellipse id="Ellipse_169" data-name="Ellipse 169" cx="3" cy="3.5" rx="3" ry="3.5" transform="translate(-653.211 -3889.526)" fill="#77c1f0"/>
    <ellipse id="Ellipse_220" data-name="Ellipse 220" cx="3" cy="3.5" rx="3" ry="3.5" transform="translate(-641.211 -3889.526)" fill="#77c1f0"/>
    <circle id="Ellipse_189" data-name="Ellipse 189" cx="3" cy="3" r="3" transform="translate(-653.211 -3863.019)" fill="#77c1f0"/>
    <circle id="Ellipse_218" data-name="Ellipse 218" cx="3" cy="3" r="3" transform="translate(-641.211 -3863.019)" fill="#77c1f0"/>
    <circle id="Ellipse_206" data-name="Ellipse 206" cx="3" cy="3" r="3" transform="translate(-653.211 -3837.559)" fill="#77c1f0"/>
    <circle id="Ellipse_216" data-name="Ellipse 216" cx="3" cy="3" r="3" transform="translate(-641.211 -3837.559)" fill="#77c1f0"/>
    <circle id="Ellipse_154" data-name="Ellipse 154" cx="3" cy="3" r="3" transform="translate(-653.211 -3903)" fill="#77c1f0"/>
    <circle id="Ellipse_221" data-name="Ellipse 221" cx="3" cy="3" r="3" transform="translate(-641.211 -3903)" fill="#77c1f0"/>
    <circle id="Ellipse_160" data-name="Ellipse 160" cx="3" cy="3" r="3" transform="translate(-653.211 -3875.749)" fill="#77c1f0"/>
    <circle id="Ellipse_219" data-name="Ellipse 219" cx="3" cy="3" r="3" transform="translate(-641.211 -3875.749)" fill="#77c1f0"/>
    <circle id="Ellipse_179" data-name="Ellipse 179" cx="3" cy="3" r="3" transform="translate(-653.211 -3850.289)" fill="#77c1f0"/>
    <circle id="Ellipse_217" data-name="Ellipse 217" cx="3" cy="3" r="3" transform="translate(-641.211 -3850.289)" fill="#77c1f0"/>
    <ellipse id="Ellipse_207" data-name="Ellipse 207" cx="3" cy="3.5" rx="3" ry="3.5" transform="translate(-653.211 -3824.781)" fill="#77c1f0"/>
    <circle id="Ellipse_225" data-name="Ellipse 225" cx="3" cy="3" r="3" transform="translate(-653.211 -3810.308)" fill="#77c1f0"/>
    <circle id="Ellipse_229" data-name="Ellipse 229" cx="3" cy="3" r="3" transform="translate(-653.211 -3798.308)" fill="#77c1f0"/>
    <ellipse id="Ellipse_215" data-name="Ellipse 215" cx="3" cy="3.5" rx="3" ry="3.5" transform="translate(-641.211 -3824.781)" fill="#77c1f0"/>
    <circle id="Ellipse_226" data-name="Ellipse 226" cx="3" cy="3" r="3" transform="translate(-641.211 -3810.308)" fill="#77c1f0"/>
    <circle id="Ellipse_230" data-name="Ellipse 230" cx="3" cy="3" r="3" transform="translate(-641.211 -3798.308)" fill="#77c1f0"/>
  </g>
</svg>
