<svg xmlns="http://www.w3.org/2000/svg" width="160" height="119.03" viewBox="0 0 160 119.03">
  <g id="Group_1106" data-name="Group 1106" transform="translate(-227.415 -247.133)">
    <ellipse id="Ellipse_61" data-name="Ellipse 61" cx="29.12" cy="13.862" rx="29.12" ry="13.862" transform="translate(227.415 337.981)" fill="#f8ec4f"/>
    <path id="Path_271" data-name="Path 271" d="M433.773,83.761s6.089-8.459,10.149-11.48,3.045-5.135,5.075-6.646,4.567.3,5.582,1.813S471.831,87.689,471.324,89.5s2.03,11.48,4.567,14.2,13.7,16.616,15.731,20.846,13.7,26.586,17.254,29.305,9.134,14.5,9.134,16.314,7.612,10.876,3.551,12.991-22.007,0-31.047,0-43.04-2.115-48.622-3.022-44.148-3.323-49.222-3.927-16.746-.6-12.178-7.553,11.163-15.71,12.178-19.94S409.415,116.692,415,109.139,433.773,83.761,433.773,83.761Z" transform="translate(-135.339 182.067)" fill="#e0873d"/>
  </g>
</svg>
