<svg xmlns="http://www.w3.org/2000/svg" width="150" height="40" viewBox="0 0 552 140.44">
  <g id="Group_981" data-name="Group 981" transform="translate(-521 4890)">
    <g id="Symbols" transform="translate(521 -4890)">
      <g id="STLYEGUIDE">
        <g id="LOGO_SAM_Main" data-name="LOGO/SAM_Main">
          <path id="Fill-1" d="M9.887,96.849a7.606,7.606,0,0,1-2.66-.433,5.1,5.1,0,0,1-1.983-1.291A5.706,5.706,0,0,1,3.994,93a9.163,9.163,0,0,1-.431-2.957,8.818,8.818,0,0,1,.473-3.013,6.2,6.2,0,0,1,1.327-2.221A5.582,5.582,0,0,1,7.4,83.448a6.9,6.9,0,0,1,2.586-.478,12.09,12.09,0,0,1,1.889.143,13.213,13.213,0,0,1,2.1.5V80.647a11.386,11.386,0,0,0-1.93-.467,14.887,14.887,0,0,0-2.253-.161,10.877,10.877,0,0,0-4.178.8A8.627,8.627,0,0,0,2.54,82.97,9.389,9.389,0,0,0,.664,86.2a12.181,12.181,0,0,0-.656,4.05,11.775,11.775,0,0,0,.615,3.887,8.1,8.1,0,0,0,1.823,3.016,8.185,8.185,0,0,0,3.02,1.951,11.7,11.7,0,0,0,4.195.692,16.717,16.717,0,0,0,2.363-.158,16.139,16.139,0,0,0,2.114-.452V96.181a12.242,12.242,0,0,1-2.078.5,14.711,14.711,0,0,1-2.174.167Z" transform="translate(0.004 40.639)" fill-rule="evenodd"/>
          <path id="Fill-3" d="M26.676,82.785A7.973,7.973,0,0,0,23.8,80.753a9.64,9.64,0,0,0-3.883-.734,9.633,9.633,0,0,0-3.875.734,7.89,7.89,0,0,0-2.876,2.033,8.9,8.9,0,0,0-1.787,3.126,13.5,13.5,0,0,0,0,8,8.884,8.884,0,0,0,1.787,3.13,8.092,8.092,0,0,0,2.876,2.033,9.817,9.817,0,0,0,3.875.725,9.824,9.824,0,0,0,3.883-.725,8.179,8.179,0,0,0,2.877-2.033,8.986,8.986,0,0,0,1.779-3.13,13.376,13.376,0,0,0,0-8,9.006,9.006,0,0,0-1.779-3.126M25.1,92.951a6.148,6.148,0,0,1-1.167,2.168,4.738,4.738,0,0,1-1.764,1.3,6.049,6.049,0,0,1-4.493,0,4.832,4.832,0,0,1-1.77-1.3,6.256,6.256,0,0,1-1.157-2.168,11.2,11.2,0,0,1,0-6.081A6.363,6.363,0,0,1,15.9,84.7a4.724,4.724,0,0,1,1.77-1.3,6.087,6.087,0,0,1,4.493,0,4.634,4.634,0,0,1,1.764,1.3A6.251,6.251,0,0,1,25.1,86.87a11.2,11.2,0,0,1,0,6.081" transform="translate(5.471 40.639)" fill-rule="evenodd"/>
          <path id="Fill-5" d="M37.752,88.773c0,1.129.054,2.943.161,5.415h-.08Q36.569,91.926,34.549,89l-6.17-8.872H24.774V99.2h3.432V90.572q0-1.927-.166-5.431h.083c1.155,2,2.268,3.764,3.343,5.287l6.12,8.777h3.6V80.132H37.752Z" transform="translate(12.582 40.697)" fill-rule="evenodd"/>
          <path id="Fill-7" d="M37.015,83.058h6.06V99.2h3.438V83.058h6.047V80.131H37.015Z" transform="translate(18.799 40.697)" fill-rule="evenodd"/>
          <path id="Fill-9" d="M52.482,90.906h7.5V87.992h-7.5V83.058h8.729V80.131H49.052V99.2H61.715V96.288H52.482Z" transform="translate(24.912 40.697)" fill-rule="evenodd"/>
          <path id="Fill-11" d="M70.685,89.26q-.909,2.576-1.527,4.831h-.084c-.478-1.737-.982-3.367-1.527-4.869L64.3,80.131h-4.8V99.2h3.433V89.531q0-2.278-.166-4.922H62.9c.16.54.348,1.152.562,1.829s.439,1.34.674,2L68.024,99.2h2.215l3.886-10.766c.231-.659.454-1.33.674-2s.4-1.289.561-1.829h.124q-.167,2.811-.164,4.937V99.2h3.432V80.131H73.929Z" transform="translate(30.223 40.697)" fill-rule="evenodd"/>
          <path id="Fill-13" d="M84.072,80.619a10.956,10.956,0,0,0-1.817-.363,21.15,21.15,0,0,0-2.378-.125H74.461V99.206H77.9V91.752q.389.041.84.054c.3.006.6.011.911.011a13.709,13.709,0,0,0,3.58-.413,8.016,8.016,0,0,0,2.637-1.176,5.14,5.14,0,0,0,1.644-1.873,5.485,5.485,0,0,0,.559-2.494,5.2,5.2,0,0,0-1.036-3.331,5.918,5.918,0,0,0-2.963-1.91m.2,6.436a2.3,2.3,0,0,1-.826.982,4.486,4.486,0,0,1-1.512.638,10.019,10.019,0,0,1-2.336.229c-.326,0-.644-.008-.944-.018s-.556-.039-.749-.068v-5.76h1.932a15.786,15.786,0,0,1,1.776.083,5.276,5.276,0,0,1,1.218.243,2.514,2.514,0,0,1,1.315.953,2.7,2.7,0,0,1,.377,1.458,3.061,3.061,0,0,1-.25,1.261" transform="translate(37.817 40.697)" fill-rule="evenodd"/>
          <path id="Fill-15" d="M100.516,82.785a7.859,7.859,0,0,0-2.874-2.033,10.62,10.62,0,0,0-7.761,0,7.937,7.937,0,0,0-2.871,2.033,8.869,8.869,0,0,0-1.781,3.126,13.344,13.344,0,0,0,0,8,8.849,8.849,0,0,0,1.781,3.13,8.142,8.142,0,0,0,2.871,2.033,10.744,10.744,0,0,0,7.761,0,8.06,8.06,0,0,0,2.874-2.033,8.807,8.807,0,0,0,1.782-3.13,13.377,13.377,0,0,0,0-8,8.826,8.826,0,0,0-1.782-3.126M98.939,92.951a6.14,6.14,0,0,1-1.161,2.168,4.759,4.759,0,0,1-1.77,1.3,6.037,6.037,0,0,1-4.489,0,4.714,4.714,0,0,1-1.764-1.3,6.12,6.12,0,0,1-1.164-2.168,11.123,11.123,0,0,1,0-6.081A6.222,6.222,0,0,1,89.754,84.7a4.611,4.611,0,0,1,1.764-1.3,6.075,6.075,0,0,1,4.489,0,4.654,4.654,0,0,1,1.77,1.3,6.242,6.242,0,0,1,1.161,2.173,11.16,11.16,0,0,1,0,6.081" transform="translate(42.974 40.639)" fill-rule="evenodd"/>
          <path id="Fill-17" d="M107.713,91.311a6.4,6.4,0,0,0,3.361-2.061,5.916,5.916,0,0,0,.193-6.555,5.472,5.472,0,0,0-2.553-1.9,9.039,9.039,0,0,0-2.09-.489,19.515,19.515,0,0,0-2.637-.172H98.275V99.2h3.435V91.817h2.358l5.106,7.387h4.12l-5.581-7.841Zm-.924-2.835a6.376,6.376,0,0,1-1.381.32,15,15,0,0,1-2,.109h-1.7V83.058h2.456a12.615,12.615,0,0,1,1.84.107,4.426,4.426,0,0,1,1.233.338,2.158,2.158,0,0,1,1.072.932,2.832,2.832,0,0,1,.315,1.359,3.075,3.075,0,0,1-.4,1.589,2.669,2.669,0,0,1-1.436,1.093Z" transform="translate(49.912 40.697)" fill-rule="evenodd"/>
          <path id="Fill-19" d="M117.109,80.131,109.662,99.2h3.658l1.844-4.854h7.067l1.838,4.854H127.7l-7.447-19.073Zm4.009,11.288h-4.848l.638-1.692c.522-1.336,1.1-3.01,1.758-5h.057q1,2.97,1.76,5Z" transform="translate(55.694 40.697)" fill-rule="evenodd"/>
          <path id="Fill-21" d="M132.553,91.311a6.4,6.4,0,0,0,3.36-2.061,5.909,5.909,0,0,0,.19-6.555,5.46,5.46,0,0,0-2.551-1.9,9,9,0,0,0-2.09-.489,19.446,19.446,0,0,0-2.64-.172h-5.709V99.2h3.435V91.817h2.361l5.1,7.387h4.123l-5.582-7.841Zm-.927-2.835a6.482,6.482,0,0,1-1.377.32,15.154,15.154,0,0,1-2,.109h-1.7V83.058h2.459a12.6,12.6,0,0,1,1.837.107,4.41,4.41,0,0,1,1.233.338,2.123,2.123,0,0,1,1.071.932,2.817,2.817,0,0,1,.32,1.359,3.1,3.1,0,0,1-.4,1.589,2.724,2.724,0,0,1-1.438,1.093Z" transform="translate(62.526 40.697)" fill-rule="evenodd"/>
          <path id="Fill-23" d="M141.378,88.35h-.041l-5-8.219h-3.818l7.111,11.392v7.683h3.443V91.523l7.111-11.392h-3.813Z" transform="translate(67.306 40.696)" fill-rule="evenodd"/>
          <path id="Fill-25" d="M157.431,80.131,149.979,99.2h3.664l1.84-4.854h7.067l1.838,4.854h3.634l-7.446-19.073Zm4.013,11.288h-4.851l.633-1.692c.52-1.336,1.107-3.01,1.758-5h.06q.988,2.97,1.761,5Z" transform="translate(76.171 40.697)" fill-rule="evenodd"/>
          <path id="Fill-27" d="M173,91.311a6.416,6.416,0,0,0,3.359-2.061,5.908,5.908,0,0,0,.187-6.555,5.427,5.427,0,0,0-2.545-1.9,8.951,8.951,0,0,0-2.094-.489,19.417,19.417,0,0,0-2.64-.172h-5.707V99.2H167V91.817h2.355l5.109,7.387h4.124L173,91.364Zm-.921-2.835a6.739,6.739,0,0,1-1.386.32,15.1,15.1,0,0,1-2,.109H167V83.058h2.452a12.731,12.731,0,0,1,1.843.107,4.419,4.419,0,0,1,1.236.338,2.16,2.16,0,0,1,1.071.932,2.813,2.813,0,0,1,.311,1.359,3.074,3.074,0,0,1-.4,1.589,2.714,2.714,0,0,1-1.432,1.093Z" transform="translate(83.067 40.697)" fill-rule="evenodd"/>
          <path id="Fill-29" d="M173.988,83.058h6.063V99.2h3.429V83.058h6.05V80.131H173.988Z" transform="translate(88.364 40.697)" fill-rule="evenodd"/>
          <path id="Fill-31" d="M191.962,99.2H195.4V80.132h-3.433Z" transform="translate(97.493 40.697)" fill-rule="evenodd"/>
          <path id="Fill-33" d="M209.628,88.773c0,1.129.057,2.943.164,5.415h-.074c-.852-1.508-1.939-3.239-3.286-5.184l-6.178-8.872h-3.605V99.2h3.436V90.572q0-1.927-.167-5.431h.087c1.149,2,2.257,3.764,3.336,5.287l6.117,8.777h3.608V80.132h-3.439Z" transform="translate(99.873 40.697)" fill-rule="evenodd"/>
          <path id="Fill-34" d="M228.505,89.811a6.752,6.752,0,0,0-1.935-.933c-.722-.219-1.484-.418-2.274-.593-.507-.1-.988-.22-1.437-.338a5.135,5.135,0,0,1-1.187-.5,2.438,2.438,0,0,1-.828-.771,2.2,2.2,0,0,1-.3-1.2,2.118,2.118,0,0,1,.923-1.882,4.654,4.654,0,0,1,2.615-.629,13.724,13.724,0,0,1,2.521.262,16.373,16.373,0,0,1,2.793.847V81.091a12.75,12.75,0,0,0-2.6-.77,15.852,15.852,0,0,0-3.019-.3,9.607,9.607,0,0,0-2.705.359,6.159,6.159,0,0,0-2.084,1.105,5.223,5.223,0,0,0-1.417,1.85,6.322,6.322,0,0,0-.511,2.636,5.094,5.094,0,0,0,.449,2.274,4.207,4.207,0,0,0,1.2,1.511,5.716,5.716,0,0,0,1.751.921,19.668,19.668,0,0,0,2.1.575c.546.113,1.074.231,1.574.348a7.389,7.389,0,0,1,1.351.461,2.7,2.7,0,0,1,.959.739,1.889,1.889,0,0,1,.351,1.178,2.445,2.445,0,0,1-.38,1.387,2.728,2.728,0,0,1-1,.894,4.92,4.92,0,0,1-1.41.461,8.967,8.967,0,0,1-1.6.131,12.884,12.884,0,0,1-2.72-.276,13.244,13.244,0,0,1-2.713-.9v2.955a8.174,8.174,0,0,0,2.465.862,14.479,14.479,0,0,0,3.013.306,13.579,13.579,0,0,0,3.224-.356,7.078,7.078,0,0,0,2.5-1.093,5.016,5.016,0,0,0,1.6-1.861,5.878,5.878,0,0,0,.561-2.661,5.454,5.454,0,0,0-.492-2.462,4.321,4.321,0,0,0-1.331-1.556" transform="translate(110.192 40.639)" fill-rule="evenodd"/>
          <path id="Fill-35" d="M242.876,82.791A7.933,7.933,0,0,0,240,80.752a10.62,10.62,0,0,0-7.761,0,7.9,7.9,0,0,0-2.877,2.034,8.858,8.858,0,0,0-1.776,3.126,13.372,13.372,0,0,0,0,8,8.845,8.845,0,0,0,1.776,3.132,8.079,8.079,0,0,0,2.877,2.031,10.743,10.743,0,0,0,7.761,0,8.1,8.1,0,0,0,2.873-2.031,8.922,8.922,0,0,0,1.779-3.132,13.276,13.276,0,0,0,0-8,8.875,8.875,0,0,0-1.779-3.121M241.3,92.957a6.138,6.138,0,0,1-1.164,2.162,4.765,4.765,0,0,1-1.764,1.3,6.063,6.063,0,0,1-4.5,0,4.811,4.811,0,0,1-1.76-1.3,6.237,6.237,0,0,1-1.164-2.168,11.23,11.23,0,0,1,0-6.08,6.356,6.356,0,0,1,1.164-2.173,4.683,4.683,0,0,1,1.76-1.3,6.1,6.1,0,0,1,4.5,0,4.639,4.639,0,0,1,1.764,1.3,6.23,6.23,0,0,1,1.164,2.173,11.137,11.137,0,0,1,0,6.086" transform="translate(115.276 40.639)" fill-rule="evenodd"/>
          <path id="Fill-36" d="M252.988,91.172a8.529,8.529,0,0,1-.472,3.167,3.6,3.6,0,0,1-1.564,1.834,5.492,5.492,0,0,1-4.824,0,3.558,3.558,0,0,1-1.556-1.834,8.329,8.329,0,0,1-.479-3.167V80.253h-3.435V91.485a15.651,15.651,0,0,0,.133,2.173,7.807,7.807,0,0,0,.439,1.76,6.472,6.472,0,0,0,1.013,1.785,5.766,5.766,0,0,0,1.529,1.345,7.181,7.181,0,0,0,2.078.837,10.519,10.519,0,0,0,2.654.3,10.7,10.7,0,0,0,2.66-.3,7.406,7.406,0,0,0,2.11-.837,5.8,5.8,0,0,0,1.561-1.345,6.147,6.147,0,0,0,1.013-1.785,7.877,7.877,0,0,0,.446-1.76,16.37,16.37,0,0,0,.133-2.173V80.253h-3.438Z" transform="translate(122.224 40.759)" fill-rule="evenodd"/>
          <path id="Fill-37" d="M252.67,83.058h6.066V99.2h3.436V83.058h6.045V80.131H252.67Z" transform="translate(128.325 40.697)" fill-rule="evenodd"/>
          <path id="Fill-38" d="M276.554,88h-8.7V80.132h-3.441V99.2h3.441v-8.3h8.7v8.3h3.438V80.132h-3.438Z" transform="translate(134.291 40.697)" fill-rule="evenodd"/>
          <path id="Fill-39" d="M280.827,90.906h7.49V88h-7.49v-4.94h8.72V80.131H277.38V99.2h12.677V96.288h-9.23Z" transform="translate(140.874 40.697)" fill-rule="evenodd"/>
          <path id="Fill-40" d="M294.777,80.131,287.326,99.2h3.664l1.831-4.854h7.072l1.843,4.854h3.629l-7.45-19.073Zm4.006,11.288H293.93l.645-1.692c.51-1.336,1.1-3.01,1.757-5h.053q1,2.97,1.757,5Z" transform="translate(145.926 40.697)" fill-rule="evenodd"/>
          <path id="Fill-41" d="M311.706,89.811a6.783,6.783,0,0,0-1.927-.933c-.724-.219-1.488-.418-2.281-.593-.507-.1-.984-.219-1.437-.338a5.187,5.187,0,0,1-1.187-.5,2.372,2.372,0,0,1-.828-.771,2.182,2.182,0,0,1-.3-1.2,2.124,2.124,0,0,1,.917-1.882,4.659,4.659,0,0,1,2.621-.629,13.637,13.637,0,0,1,2.516.262,16.5,16.5,0,0,1,2.8.847V81.091a12.875,12.875,0,0,0-2.612-.77,15.721,15.721,0,0,0-3.014-.3,9.6,9.6,0,0,0-2.7.359,6.2,6.2,0,0,0-2.09,1.105,5.262,5.262,0,0,0-1.411,1.85,6.23,6.23,0,0,0-.513,2.636,5.1,5.1,0,0,0,.448,2.28,4.284,4.284,0,0,0,1.2,1.5,5.78,5.78,0,0,0,1.755.921,19.662,19.662,0,0,0,2.091.575c.55.113,1.08.231,1.579.348a7.4,7.4,0,0,1,1.352.463,2.6,2.6,0,0,1,.955.737,1.869,1.869,0,0,1,.348,1.178,2.433,2.433,0,0,1-.377,1.387,2.714,2.714,0,0,1-1,.894,4.929,4.929,0,0,1-1.411.461,9.006,9.006,0,0,1-1.6.131,12.82,12.82,0,0,1-2.719-.276,13.176,13.176,0,0,1-2.708-.9v2.955a8.127,8.127,0,0,0,2.465.862,14.338,14.338,0,0,0,3,.306,13.37,13.37,0,0,0,3.234-.356,7.079,7.079,0,0,0,2.5-1.093,4.9,4.9,0,0,0,1.594-1.861,5.875,5.875,0,0,0,.563-2.661,5.5,5.5,0,0,0-.487-2.462,4.36,4.36,0,0,0-1.336-1.556" transform="translate(152.45 40.639)" fill-rule="evenodd"/>
          <path id="Fill-42" d="M309.688,83.058h6.069V99.2h3.437V83.058h5.068V80.131H309.688Z" transform="translate(157.283 40.697)" fill-rule="evenodd"/>
          <path id="Fill-43" d="M333.339,80.131,325.892,99.2h3.654l1.841-4.854h7.072l1.832,4.854h3.64l-7.447-19.073Zm4.014,11.288h-4.86l.645-1.692c.516-1.336,1.1-3.01,1.758-5h.054q.995,2.97,1.755,5Z" transform="translate(165.512 40.697)" fill-rule="evenodd"/>
          <path id="Fill-44" d="M350.765,89.811a6.7,6.7,0,0,0-1.928-.933c-.725-.219-1.493-.418-2.282-.593-.506-.1-.983-.219-1.431-.338a5.082,5.082,0,0,1-1.194-.5,2.339,2.339,0,0,1-.819-.771,2.426,2.426,0,0,1,.615-3.079,4.662,4.662,0,0,1,2.621-.629,13.639,13.639,0,0,1,2.515.262,16.738,16.738,0,0,1,2.8.847V81.091a13,13,0,0,0-2.618-.77,15.76,15.76,0,0,0-3.01-.3,9.526,9.526,0,0,0-2.7.359,6.164,6.164,0,0,0-2.1,1.105,5.244,5.244,0,0,0-1.4,1.85,6.134,6.134,0,0,0-.526,2.636,5.224,5.224,0,0,0,.451,2.28,4.445,4.445,0,0,0,1.2,1.5,5.742,5.742,0,0,0,1.758.921,19.962,19.962,0,0,0,2.091.575c.55.113,1.08.231,1.582.348a7.425,7.425,0,0,1,1.351.463,2.574,2.574,0,0,1,.95.737,1.847,1.847,0,0,1,.351,1.178,2.433,2.433,0,0,1-.378,1.387,2.664,2.664,0,0,1-1,.894,4.945,4.945,0,0,1-1.407.461,8.96,8.96,0,0,1-1.6.131,12.853,12.853,0,0,1-2.723-.276,13.04,13.04,0,0,1-2.707-.9v2.955a8.194,8.194,0,0,0,2.458.862,14.52,14.52,0,0,0,3.013.306,13.325,13.325,0,0,0,3.23-.356,7.1,7.1,0,0,0,2.5-1.093,4.914,4.914,0,0,0,1.591-1.861,5.782,5.782,0,0,0,.564-2.661,5.428,5.428,0,0,0-.493-2.462,4.316,4.316,0,0,0-1.33-1.556" transform="translate(172.287 40.639)" fill-rule="evenodd"/>
          <path id="Fill-45" d="M349.962,99.2h3.432V80.132h-3.432Z" transform="translate(177.737 40.697)" fill-rule="evenodd"/>
          <path id="Fill-46" d="M361.461,80.131,354.008,99.2h3.663l1.841-4.854h7.067l1.84,4.854h3.633L364.6,80.131Zm4.01,11.288H360.62l.641-1.692c.511-1.336,1.1-3.01,1.755-5h.054q1,2.97,1.757,5Z" transform="translate(179.792 40.697)" fill-rule="evenodd"/>
          <path id="Fill-47" d="M106.987,44.578c-7.845,0-10.644,4.249-10.644,8.227,0,8.2,8.627,8.619,10.352,8.619,4.653,0,10.076-2.183,10.076-8.346,0-5.158-3.839-8.5-9.783-8.5" transform="translate(48.93 22.64)" fill-rule="evenodd"/>
          <path id="Fill-48" d="M126.986,44.578c-7.4,0-10.777,4.37-10.777,8.424s3.376,8.422,10.777,8.422S137.762,57.061,137.762,53s-3.37-8.424-10.777-8.424" transform="translate(59.02 22.64)" fill-rule="evenodd"/>
          <path id="Fill-49" d="M171.686,54.081c0,2.087,2.464,2.526,4.516,2.526.891,0,8.682-.14,8.682-4.977v-.991a50.676,50.676,0,0,1-7.761,1.04c-5.437.508-5.437,1.553-5.437,2.4" transform="translate(87.195 25.718)" fill-rule="evenodd"/>
          <path id="Fill-50" d="M81.81,51.267c-5.513.329-6.259,1.935-6.259,3.468,0,2.551,2.414,3.839,7.162,3.839,4.221,0,10.5-1.57,10.5-5.887v-2.5a11.015,11.015,0,0,1-3.194.6Z" transform="translate(38.37 25.49)" fill-rule="evenodd"/>
          <path id="Fill-51" d="M536.2.636c-8.97,0-13.566,2.943-18.093,7.392-3.8-5.8-9.267-7.392-15.217-7.392-8.177,0-13.262,3.421-17.306,7.392h-.163V1.748H469.068V43.434h-5.79a14.355,14.355,0,0,1-1.072-6.455V15.236c0-12.065-11.749-14.6-27.375-14.6-13.188,0-25.334,1.825-26.917,14.6h16.831c.792-3.648,3.8-5.392,9.994-5.392,7.386,0,10.641,1.582,10.641,4.61,0,2.211-.725,3.168-5.088,3.491l-16.73,1.1c-10.243.682-16.49,3.29-18.135,10.038a17.111,17.111,0,0,0-.446,4.011,11.177,11.177,0,0,0,5.805,10.338H391.048c5.428-2.432,8.259-6.353,8.259-11.853a13.864,13.864,0,0,0-.2-2.486h.006l-.006-.009c-1.072-6.632-6.745-9.611-17.108-10.748l-14.522-1.586c-4.279-.481-5.4-1.668-5.4-3.013,0-2.934,2.863-4.053,7.7-4.053a16.018,16.018,0,0,1,6.047.956,4.238,4.238,0,0,1,3,3.649h18.892C396.775,2.063,382.322,0,370.892,0c-16.1,0-26.115,3.649-26.115,15.326,0,7.3,5.017,10.789,14.845,11.967l14.641,1.793.363.042c4.13.472,5.789,1.116,5.789,3.412,0,3.1-3.964,3.807-7.7,3.807-3.649,0-5.941-.478-7.459-1.348a4.537,4.537,0,0,1-2.381-3.649H343.357c.187,6.151,3.881,9.874,8.978,12.084H0V107.51H552V11.849C552,6.858,546.974.636,536.2.636Zm-89.9,42.8h-4.068a16.861,16.861,0,0,0,3.642-2.646,14.467,14.467,0,0,0,.427,2.646ZM423.553,29.085c.733-1.025,2.073-1.621,4.147-1.853l11.357-1.365a40.782,40.782,0,0,0,6.415-1.179v2.6a8.6,8.6,0,0,1-.17,1.793c-1,4.818-6.235,7.74-14.9,7.74-4.522,0-7.532-1.9-7.532-5.244a4.212,4.212,0,0,1,.682-2.5ZM27.774,87.163c-10.023,0-12.4-4.177-12.625-7.672l-.057-.811h3.655l.084.656c.267,1.889.662,4.729,9.509,4.729,7.279,0,8.114-2.114,8.114-3.7,0-.615,0-2.473-4.2-2.925l-8.559-.957c-4.766-.511-7.5-2.642-7.5-5.86,0-1.084.529-6.5,10.965-6.5,7.675,0,11.62,2.376,12.06,7.262l.08.829H35.58l-.06-.692c-.228-2.229-1.4-4.3-8.462-4.3-4.554,0-7.168,1.2-7.168,3.284,0,.959.436,2.283,4.216,2.683l7.741.864c3.575.41,8.314,1.5,8.314,6.31,0,3.1-2.152,6.8-12.387,6.8Zm15.213-.624h3.723V64.751H42.987Zm0-24.069h3.723V56.755H42.987ZM76.062,86.538H72.354V73.346c0-3.18-1-6.128-8.251-6.128-7.054,0-9.558,3.625-9.558,6.719v12.6h-3.7V64.751h3.7V67.52c1.662-1.66,4.6-3.4,9.6-3.4,11.92,0,11.92,6.65,11.92,9.148ZM107.248,84.7c0,7.039-4.594,10.462-14.059,10.462-5.635,0-12.247-.847-13.324-7.443l-.149-.881h3.72l.1.636c.329,1.962,1.683,4.576,9.653,4.576,9.282,0,10.352-4.15,10.352-7.271V82.619c-2.354,2.354-6.015,3.586-10.723,3.586-10.3,0-13.966-5.781-13.966-11.2,0-5.065,3.667-10.977,14.007-10.977,4.809,0,8.385,1.152,10.682,3.42V64.667h3.708Zm31.786,1.717-.543.163a10.3,10.3,0,0,1-2.877.353c-2.82,0-3.512-1.426-3.693-3.269-2.358,2.3-6.1,3.5-10.974,3.5-8.869,0-10.735-3.773-10.735-6.938,0-2.776,1.717-6.172,9.889-6.564l8.488-.478c2.5-.161,2.995-.341,2.995-2.126,0-1.9-.988-3.839-8.274-3.839-6.3,0-7.75,1.577-8.316,4.679l-.115.627h-3.7l.14-.876c.968-6.246,5.525-7.533,12.048-7.533,5.547,0,11.909.761,11.909,6.7V82.166c0,1.66.06,1.66.859,1.66a6.851,6.851,0,0,0,1.93-.3l.964-.264Zm16.642.749c-5.312,0-8.464-2.07-10.116-3.706V94.524h-3.7V64.751h3.7v2.933c1.865-1.938,5.169-3.569,10.116-3.569,9.48,0,13.722,5.808,13.722,11.565,0,6.76-5.638,11.482-13.722,11.482Zm30.329,0c-9.507,0-14.48-5.8-14.48-11.519s4.973-11.529,14.48-11.529,14.488,5.8,14.488,11.529-4.975,11.519-14.488,11.519Zm32.9-19.2-.979-.3a7.738,7.738,0,0,0-2.312-.205c-5.992,0-8.681,3.688-8.681,7.348V86.538h-3.7V64.751h3.7v3.087c2.051-2.39,5.339-3.723,9.4-3.723a7.806,7.806,0,0,1,1.984.265l.584.136Zm14.978,16.1c6.582,0,8.58-3.12,9.447-4.875h3.86l-.054.136c-2.117,5.273-6.528,7.838-13.483,7.838-8.673,0-14.287-4.584-14.287-11.677,0-3.934,3-11.371,14.332-11.371,8.494,0,14.055,4.68,14.147,11.917l.015.768H223.122c.525,4.506,4.575,7.265,10.759,7.265Zm49.844,2.476-1.335.214a21.766,21.766,0,0,1-4.079.372c-3.367,0-4.708-1.11-5.309-2.263-1.959,1.238-5.428,2.461-11.463,2.461-6.9,0-11.006-2.741-11.006-7.325,0-6.46,7.772-7.051,11.954-7.369,8.789-.7,9.738-1,9.738-1.894,0-1.494-2.141-2.253-6.359-2.253-3.884,0-5.949.942-6.136,2.806l-.023.244h-7.971l.08-.446c1.208-6.956,8.144-7.844,14.049-7.844,12.588,0,14.284,3.946,14.284,7.814v9.929c0,.258,0,.422.674.422a17.406,17.406,0,0,0,2.024-.11l.876-.136Zm23.393-15.711-.961-.264a13.692,13.692,0,0,0-3.976-.5c-.745,0-7.274.155-7.274,5.579V86.538h-8.069v-22.5h8.069v2.9a11.857,11.857,0,0,1,8.848-3.444,17.723,17.723,0,0,1,2.714.2l.648.086ZM330.241,86.6l-.671.078a39.824,39.824,0,0,1-5.125.324c-7.951,0-9.359-2.286-9.359-7.084v-10.4h-5.214V64.038h5.214V57.553h8.084v6.485H330v5.481h-6.831v8.818c0,2.566.205,2.952,1.6,2.952,1.2,0,2.343-.02,3.488-.045l1.983-.035Zm45.586-.066h-3.706v-13.9c0-3.5-2.536-5.419-7.128-5.419-5.356,0-8.307,2.162-8.307,6.086V86.538h-3.694V72.282c0-3.406-2.337-5.063-7.134-5.063-5.2,0-8.3,2.42-8.3,6.481v12.84h-3.709V64.751h3.709V67.09a13.041,13.041,0,0,1,8.681-2.975c4.693,0,7.788,1.3,9.4,3.952,2.005-2.589,5.2-3.952,9.313-3.952,8.993,0,10.879,4.314,10.879,7.931Zm28.377.193h-3.7V83.955c-1.662,1.665-4.6,3.4-9.593,3.4C379,87.36,379,80.717,379,78.21V64.947h3.7V78.135c0,3.185,1,6.125,8.262,6.125,7.045,0,9.546-3.62,9.546-6.718v-12.6h3.7Zm14.948.431c-10.023,0-12.408-4.171-12.636-7.672l-.057-.811h3.667l.084.662c.252,1.883.624,4.723,9.506,4.723,7.286,0,8.123-2.114,8.123-3.7,0-.615,0-2.47-4.217-2.925l-8.542-.957c-4.843-.516-7.515-2.594-7.515-5.86,0-1.084.529-6.5,10.956-6.5,7.66,0,11.611,2.376,12.074,7.257l.075.834h-3.706l-.068-.689c-.228-2.232-1.416-4.3-8.465-4.3-4.552,0-7.168,1.2-7.168,3.284,0,.959.436,2.283,4.216,2.683l7.731.864c3.581.41,8.319,1.5,8.319,6.31,0,3.1-2.143,6.8-12.375,6.8Zm28.211-2.741c7,0,8.826-3.58,9.6-5.232h3.825l-.193.487c-2.113,5.273-6.519,7.839-13.473,7.839-8.688,0-14.305-4.584-14.305-11.681,0-3.928,3-11.363,14.34-11.363,8.486,0,14.043,4.67,14.153,11.912l.015.771H436.592c.529,4.5,4.579,7.268,10.771,7.268Zm38.16-55.336V20.72c0-4.365,3.255-7.387,9.451-7.387,4.524,0,7.223,2.223,7.223,6.359V43.434H485.522Zm3.684,57.453H485.5V83.772c-1.666,1.662-4.6,3.391-9.595,3.391-11.912,0-11.912-6.641-11.912-9.145V64.751h3.7V77.941c0,3.183,1,6.123,8.262,6.123,7.048,0,9.546-3.619,9.546-6.718v-12.6h3.709Zm46.284,0H531.8v-13.9c0-3.5-2.529-5.419-7.126-5.419-5.359,0-8.308,2.162-8.308,6.086V86.538h-3.706V72.282c0-3.406-2.334-5.063-7.12-5.063-5.125,0-8.305,2.485-8.305,6.481v12.84h-3.706V64.751h3.706V67.09a13.02,13.02,0,0,1,8.676-2.975c4.69,0,7.785,1.3,9.415,3.958,2.005-2.591,5.186-3.958,9.3-3.958,8.988,0,10.863,4.314,10.863,7.931Zm.2-57.453V43.434H519.012V20.72c0-4.365,3.251-7.387,9.445-7.387,4.527,0,7.23,2.223,7.23,6.359Z" fill-rule="evenodd"/>
          <path id="Fill-52" d="M65.051,44.52c-4.751,0-10.3,2.048-10.3,7.8,0,5.267,3.749,8.168,10.548,8.168,6.535,0,10.442-3.067,10.442-8.213,0-4.852-3.993-7.758-10.685-7.758" transform="translate(27.804 22.61)" fill-rule="evenodd"/>
          <path id="Fill-53" d="M299.825,44.812c-5.324,0-8.984,2.348-10.189,6.479h20.417c-1.077-4.132-4.747-6.479-10.228-6.479" transform="translate(147.099 22.759)" fill-rule="evenodd"/>
          <path id="Fill-54" d="M158.261,44.578c-5.317,0-8.976,2.351-10.193,6.481h20.424c-1.075-4.13-4.75-6.481-10.231-6.481" transform="translate(75.2 22.64)" fill-rule="evenodd"/>
        </g>
      </g>
    </g>
  </g>
</svg>
