<svg xmlns="http://www.w3.org/2000/svg" xmlns:xlink="http://www.w3.org/1999/xlink" width="107.891" height="87.303" viewBox="0 0 107.891 87.303">
  <defs>
    <clipPath id="clip-path">
      <path id="Path_583" data-name="Path 583" d="M61.586,0c18.378,0,33.13,3.669,33.463,37.565s-26.624,56.3-45,56.3S44.26,70.414,44.26,43.534,43.207,0,61.586,0Z" transform="translate(-33.315 11.496)" fill="#fff" stroke="#cd2e63" stroke-width="1"/>
    </clipPath>
  </defs>
  <g id="Mask_Group_188" data-name="Mask Group 188" transform="matrix(0.391, -0.921, 0.921, 0.391, -13.214, 52.337)" clip-path="url(#clip-path)">
    <g id="Group_1047" data-name="Group 1047" transform="translate(-36.518 -14.221)">
      <rect id="Rectangle_8141" data-name="Rectangle 8141" width="11.181" height="11.181" transform="translate(22.361)" fill="#77c1f0"/>
      <rect id="Rectangle_8142" data-name="Rectangle 8142" width="11.181" height="11.181" transform="translate(22.361 44.722)" fill="#77c1f0"/>
      <rect id="Rectangle_8143" data-name="Rectangle 8143" width="11.181" height="11.181" transform="translate(22.361 22.361)" fill="#77c1f0"/>
      <rect id="Rectangle_8144" data-name="Rectangle 8144" width="11.181" height="11.181" transform="translate(22.361 67.084)" fill="#77c1f0"/>
      <rect id="Rectangle_8145" data-name="Rectangle 8145" width="11.181" height="11.181" fill="#77c1f0"/>
      <rect id="Rectangle_8146" data-name="Rectangle 8146" width="11.181" height="11.181" transform="translate(0 44.722)" fill="#77c1f0"/>
      <rect id="Rectangle_8147" data-name="Rectangle 8147" width="11.181" height="11.181" transform="translate(0 22.361)" fill="#77c1f0"/>
      <rect id="Rectangle_8148" data-name="Rectangle 8148" width="11.181" height="11.181" transform="translate(0 67.084)" fill="#77c1f0"/>
      <rect id="Rectangle_8149" data-name="Rectangle 8149" width="11.181" height="11.181" transform="translate(33.542 11.181)" fill="#77c1f0"/>
      <rect id="Rectangle_8150" data-name="Rectangle 8150" width="11.181" height="11.181" transform="translate(33.542 55.903)" fill="#77c1f0"/>
      <rect id="Rectangle_8151" data-name="Rectangle 8151" width="11.181" height="11.181" transform="translate(33.542 33.542)" fill="#77c1f0"/>
      <rect id="Rectangle_8152" data-name="Rectangle 8152" width="11.181" height="11.181" transform="translate(33.542 78.264)" fill="#77c1f0"/>
      <rect id="Rectangle_8153" data-name="Rectangle 8153" width="11.181" height="11.181" transform="translate(11.181 11.181)" fill="#77c1f0"/>
      <rect id="Rectangle_8154" data-name="Rectangle 8154" width="11.181" height="11.181" transform="translate(11.181 55.903)" fill="#77c1f0"/>
      <rect id="Rectangle_8155" data-name="Rectangle 8155" width="11.181" height="11.181" transform="translate(11.181 33.542)" fill="#77c1f0"/>
      <rect id="Rectangle_8156" data-name="Rectangle 8156" width="11.181" height="11.181" transform="translate(11.181 78.264)" fill="#77c1f0"/>
      <rect id="Rectangle_8157" data-name="Rectangle 8157" width="11.181" height="11.181" transform="translate(44.722)" fill="#77c1f0"/>
      <rect id="Rectangle_8158" data-name="Rectangle 8158" width="11.181" height="11.181" transform="translate(44.722 44.722)" fill="#77c1f0"/>
      <rect id="Rectangle_8159" data-name="Rectangle 8159" width="11.181" height="11.181" transform="translate(44.722 22.361)" fill="#77c1f0"/>
      <rect id="Rectangle_8160" data-name="Rectangle 8160" width="11.181" height="11.181" transform="translate(44.722 67.084)" fill="#77c1f0"/>
      <rect id="Rectangle_8161" data-name="Rectangle 8161" width="11.181" height="11.181" transform="translate(55.903 11.181)" fill="#77c1f0"/>
      <rect id="Rectangle_8162" data-name="Rectangle 8162" width="11.181" height="11.181" transform="translate(55.903 55.903)" fill="#77c1f0"/>
      <rect id="Rectangle_8163" data-name="Rectangle 8163" width="11.181" height="11.181" transform="translate(55.903 33.542)" fill="#77c1f0"/>
      <rect id="Rectangle_8164" data-name="Rectangle 8164" width="11.181" height="11.181" transform="translate(55.903 78.264)" fill="#77c1f0"/>
      <rect id="Rectangle_8165" data-name="Rectangle 8165" width="11.181" height="11.181" transform="translate(67.084)" fill="#77c1f0"/>
      <rect id="Rectangle_8166" data-name="Rectangle 8166" width="11.181" height="11.181" transform="translate(67.084 44.722)" fill="#77c1f0"/>
      <rect id="Rectangle_8167" data-name="Rectangle 8167" width="11.181" height="11.181" transform="translate(67.084 22.361)" fill="#77c1f0"/>
      <rect id="Rectangle_8168" data-name="Rectangle 8168" width="11.181" height="11.181" transform="translate(67.084 67.084)" fill="#77c1f0"/>
      <rect id="Rectangle_8169" data-name="Rectangle 8169" width="11.181" height="11.181" transform="translate(78.264 11.181)" fill="#77c1f0"/>
      <rect id="Rectangle_8170" data-name="Rectangle 8170" width="11.181" height="11.181" transform="translate(78.264 55.903)" fill="#77c1f0"/>
      <rect id="Rectangle_8171" data-name="Rectangle 8171" width="11.181" height="11.181" transform="translate(78.264 33.542)" fill="#77c1f0"/>
      <rect id="Rectangle_8172" data-name="Rectangle 8172" width="11.181" height="11.181" transform="translate(78.264 78.264)" fill="#77c1f0"/>
      <rect id="Rectangle_8173" data-name="Rectangle 8173" width="11.181" height="11.181" transform="translate(89.445)" fill="#77c1f0"/>
      <rect id="Rectangle_8174" data-name="Rectangle 8174" width="11.181" height="11.181" transform="translate(89.445 44.722)" fill="#77c1f0"/>
      <rect id="Rectangle_8175" data-name="Rectangle 8175" width="11.181" height="11.181" transform="translate(89.445 22.361)" fill="#77c1f0"/>
      <rect id="Rectangle_8176" data-name="Rectangle 8176" width="11.181" height="11.181" transform="translate(89.445 67.084)" fill="#77c1f0"/>
      <rect id="Rectangle_8177" data-name="Rectangle 8177" width="11.181" height="11.181" transform="translate(100.625 11.181)" fill="#77c1f0"/>
      <rect id="Rectangle_8178" data-name="Rectangle 8178" width="11.181" height="11.181" transform="translate(100.625 55.903)" fill="#77c1f0"/>
      <rect id="Rectangle_8179" data-name="Rectangle 8179" width="11.181" height="11.181" transform="translate(100.625 33.542)" fill="#77c1f0"/>
      <rect id="Rectangle_8180" data-name="Rectangle 8180" width="11.181" height="11.181" transform="translate(100.625 78.264)" fill="#77c1f0"/>
      <rect id="Rectangle_8181" data-name="Rectangle 8181" width="11.181" height="11.181" transform="translate(111.806)" fill="#77c1f0"/>
      <rect id="Rectangle_8182" data-name="Rectangle 8182" width="11.181" height="11.181" transform="translate(111.806 44.722)" fill="#77c1f0"/>
      <rect id="Rectangle_8183" data-name="Rectangle 8183" width="11.181" height="11.181" transform="translate(111.806 22.361)" fill="#77c1f0"/>
      <rect id="Rectangle_8184" data-name="Rectangle 8184" width="11.181" height="11.181" transform="translate(111.806 67.084)" fill="#77c1f0"/>
      <rect id="Rectangle_8185" data-name="Rectangle 8185" width="11.181" height="11.181" transform="translate(122.987 11.181)" fill="#77c1f0"/>
      <rect id="Rectangle_8186" data-name="Rectangle 8186" width="11.181" height="11.181" transform="translate(122.987 55.903)" fill="#77c1f0"/>
      <rect id="Rectangle_8187" data-name="Rectangle 8187" width="11.181" height="11.181" transform="translate(122.987 33.542)" fill="#77c1f0"/>
      <rect id="Rectangle_8188" data-name="Rectangle 8188" width="11.181" height="11.181" transform="translate(122.987 78.264)" fill="#77c1f0"/>
    </g>
    <g id="Group_1048" data-name="Group 1048" transform="translate(-36.518 75.224)">
      <rect id="Rectangle_8189" data-name="Rectangle 8189" width="11.181" height="11.181" transform="translate(22.361)" fill="#77c1f0"/>
      <rect id="Rectangle_8190" data-name="Rectangle 8190" width="11.181" height="11.181" transform="translate(22.361 44.722)" fill="#77c1f0"/>
      <rect id="Rectangle_8191" data-name="Rectangle 8191" width="11.181" height="11.181" transform="translate(22.361 22.361)" fill="#77c1f0"/>
      <rect id="Rectangle_8192" data-name="Rectangle 8192" width="11.181" height="11.181" transform="translate(22.361 67.084)" fill="#77c1f0"/>
      <rect id="Rectangle_8193" data-name="Rectangle 8193" width="11.181" height="11.181" fill="#77c1f0"/>
      <rect id="Rectangle_8194" data-name="Rectangle 8194" width="11.181" height="11.181" transform="translate(0 44.722)" fill="#77c1f0"/>
      <rect id="Rectangle_8195" data-name="Rectangle 8195" width="11.181" height="11.181" transform="translate(0 22.361)" fill="#77c1f0"/>
      <rect id="Rectangle_8196" data-name="Rectangle 8196" width="11.181" height="11.181" transform="translate(0 67.084)" fill="#77c1f0"/>
      <rect id="Rectangle_8197" data-name="Rectangle 8197" width="11.181" height="11.181" transform="translate(33.542 11.181)" fill="#77c1f0"/>
      <rect id="Rectangle_8198" data-name="Rectangle 8198" width="11.181" height="11.181" transform="translate(33.542 55.903)" fill="#77c1f0"/>
      <rect id="Rectangle_8199" data-name="Rectangle 8199" width="11.181" height="11.181" transform="translate(33.542 33.542)" fill="#77c1f0"/>
      <rect id="Rectangle_8200" data-name="Rectangle 8200" width="11.181" height="11.181" transform="translate(33.542 78.264)" fill="#77c1f0"/>
      <rect id="Rectangle_8201" data-name="Rectangle 8201" width="11.181" height="11.181" transform="translate(11.181 11.181)" fill="#77c1f0"/>
      <rect id="Rectangle_8202" data-name="Rectangle 8202" width="11.181" height="11.181" transform="translate(11.181 55.903)" fill="#77c1f0"/>
      <rect id="Rectangle_8203" data-name="Rectangle 8203" width="11.181" height="11.181" transform="translate(11.181 33.542)" fill="#77c1f0"/>
      <rect id="Rectangle_8204" data-name="Rectangle 8204" width="11.181" height="11.181" transform="translate(11.181 78.264)" fill="#77c1f0"/>
      <rect id="Rectangle_8205" data-name="Rectangle 8205" width="11.181" height="11.181" transform="translate(44.722)" fill="#77c1f0"/>
      <rect id="Rectangle_8206" data-name="Rectangle 8206" width="11.181" height="11.181" transform="translate(44.722 44.722)" fill="#77c1f0"/>
      <rect id="Rectangle_8207" data-name="Rectangle 8207" width="11.181" height="11.181" transform="translate(44.722 22.361)" fill="#77c1f0"/>
      <rect id="Rectangle_8208" data-name="Rectangle 8208" width="11.181" height="11.181" transform="translate(44.722 67.084)" fill="#77c1f0"/>
      <rect id="Rectangle_8209" data-name="Rectangle 8209" width="11.181" height="11.181" transform="translate(55.903 11.181)" fill="#77c1f0"/>
      <rect id="Rectangle_8210" data-name="Rectangle 8210" width="11.181" height="11.181" transform="translate(55.903 55.903)" fill="#77c1f0"/>
      <rect id="Rectangle_8211" data-name="Rectangle 8211" width="11.181" height="11.181" transform="translate(55.903 33.542)" fill="#77c1f0"/>
      <rect id="Rectangle_8212" data-name="Rectangle 8212" width="11.181" height="11.181" transform="translate(55.903 78.264)" fill="#77c1f0"/>
      <rect id="Rectangle_8213" data-name="Rectangle 8213" width="11.181" height="11.181" transform="translate(67.084)" fill="#77c1f0"/>
      <rect id="Rectangle_8214" data-name="Rectangle 8214" width="11.181" height="11.181" transform="translate(67.084 44.722)" fill="#77c1f0"/>
      <rect id="Rectangle_8215" data-name="Rectangle 8215" width="11.181" height="11.181" transform="translate(67.084 22.361)" fill="#77c1f0"/>
      <rect id="Rectangle_8216" data-name="Rectangle 8216" width="11.181" height="11.181" transform="translate(67.084 67.084)" fill="#77c1f0"/>
      <rect id="Rectangle_8217" data-name="Rectangle 8217" width="11.181" height="11.181" transform="translate(78.264 11.181)" fill="#77c1f0"/>
      <rect id="Rectangle_8218" data-name="Rectangle 8218" width="11.181" height="11.181" transform="translate(78.264 55.903)" fill="#77c1f0"/>
      <rect id="Rectangle_8219" data-name="Rectangle 8219" width="11.181" height="11.181" transform="translate(78.264 33.542)" fill="#77c1f0"/>
      <rect id="Rectangle_8220" data-name="Rectangle 8220" width="11.181" height="11.181" transform="translate(78.264 78.264)" fill="#77c1f0"/>
      <rect id="Rectangle_8221" data-name="Rectangle 8221" width="11.181" height="11.181" transform="translate(89.445)" fill="#77c1f0"/>
      <rect id="Rectangle_8222" data-name="Rectangle 8222" width="11.181" height="11.181" transform="translate(89.445 44.722)" fill="#77c1f0"/>
      <rect id="Rectangle_8223" data-name="Rectangle 8223" width="11.181" height="11.181" transform="translate(89.445 22.361)" fill="#77c1f0"/>
      <rect id="Rectangle_8224" data-name="Rectangle 8224" width="11.181" height="11.181" transform="translate(89.445 67.084)" fill="#77c1f0"/>
      <rect id="Rectangle_8225" data-name="Rectangle 8225" width="11.181" height="11.181" transform="translate(100.625 11.181)" fill="#77c1f0"/>
      <rect id="Rectangle_8226" data-name="Rectangle 8226" width="11.181" height="11.181" transform="translate(100.625 55.903)" fill="#77c1f0"/>
      <rect id="Rectangle_8227" data-name="Rectangle 8227" width="11.181" height="11.181" transform="translate(100.625 33.542)" fill="#77c1f0"/>
      <rect id="Rectangle_8228" data-name="Rectangle 8228" width="11.181" height="11.181" transform="translate(100.625 78.264)" fill="#77c1f0"/>
      <rect id="Rectangle_8229" data-name="Rectangle 8229" width="11.181" height="11.181" transform="translate(111.806)" fill="#77c1f0"/>
      <rect id="Rectangle_8230" data-name="Rectangle 8230" width="11.181" height="11.181" transform="translate(111.806 44.722)" fill="#77c1f0"/>
      <rect id="Rectangle_8231" data-name="Rectangle 8231" width="11.181" height="11.181" transform="translate(111.806 22.361)" fill="#77c1f0"/>
      <rect id="Rectangle_8232" data-name="Rectangle 8232" width="11.181" height="11.181" transform="translate(111.806 67.084)" fill="#77c1f0"/>
      <rect id="Rectangle_8233" data-name="Rectangle 8233" width="11.181" height="11.181" transform="translate(122.987 11.181)" fill="#77c1f0"/>
      <rect id="Rectangle_8234" data-name="Rectangle 8234" width="11.181" height="11.181" transform="translate(122.987 55.903)" fill="#77c1f0"/>
      <rect id="Rectangle_8235" data-name="Rectangle 8235" width="11.181" height="11.181" transform="translate(122.987 33.542)" fill="#77c1f0"/>
      <rect id="Rectangle_8236" data-name="Rectangle 8236" width="11.181" height="11.181" transform="translate(122.987 78.264)" fill="#77c1f0"/>
    </g>
  </g>
</svg>
