<svg xmlns="http://www.w3.org/2000/svg" width="94.999" height="111.573" viewBox="0 0 94.999 111.573"><g transform="translate(0.531 -374.275)"><path d="M25.15,14.539s2.819-6.578,4.7-8.928S31.256,1.618,32.2.442s2.111.234,2.58,1.408,7.967,15.732,7.732,17.142.933,8.925,2.1,11.038,6.327,12.915,7.263,16.2S58.2,66.9,59.838,69.011s4.216,11.272,4.216,12.681,3.514,8.453,1.636,10.1-10.174.006-14.353.008-19.9-1.633-22.476-2.337S8.454,86.891,6.109,86.422s-7.741-.466-5.626-5.869S5.649,68.337,6.12,65.049s7.755-24.9,10.339-30.775S25.15,14.539,25.15,14.539Z" transform="translate(-0.531 398.014) rotate(-21)" fill="#cd2e63"/><g transform="translate(12.515 422.197) rotate(-21)"><path d="M.855,11.443s1.6-7.75,2.662-8.282S4.582-.737,8.043.147s3.919,3.875,2.625,5.574S7.777,9.609,8.043,11.443,5.647,18.6,4.05,18.069-1.807,19.725.855,11.443Z" transform="translate(14.78 0)" fill="#f8ec4f"/><path d="M.887,12.09A62.783,62.783,0,0,0,3.549,3.808C3.976,1.23,6.307.648,8.638.065s2.914,2.914,2.914,4.662S9.843,9.547,8.075,12.09,5.935,19.3,4.082,18.716-1.775,20.372.887,12.09Z" transform="translate(6.007 23.245)" fill="#f8ec4f"/><path d="M4.156.978C5.321-.77,4.362.289,6.007.634A6.966,6.966,0,0,1,9.4,2.726c.582.583,0,2.182,0,2.548S7.652,7.983,7.652,8.851s-1.166,4.339,0,4.06,6.41,2.052,6.41,2.052.583,2.331-.583,2.914-1.165,2.331-2.914,2.331S3.573,19.043,2.99,18.46s-3.5-1.165-2.914-2.914S.66,8.554,1.825,6.805,2.99,2.726,4.156.978Z" transform="translate(0 47.972)" fill="#f8ec4f"/><path d="M1.02,0c-1.748,0,0,3.5-.583,4.079S-.146,6.3.437,6.356s3.5.637,4.662.637H9.224c.536,0,2.285.583,2.868-.583s1.748-2.021,0-3.341S9.966.334,7.824.459,2.768,0,1.02,0Z" transform="translate(18.287 63.518)" fill="#f8ec4f"/></g></g></svg>