<svg xmlns="http://www.w3.org/2000/svg" width="98.558" height="118.863" viewBox="0 0 98.558 118.863">
  <g id="Group_1069" data-name="Group 1069" transform="translate(-177.331 -718.847)">
    <g id="Group_1068" data-name="Group 1068" transform="matrix(0.966, 0.259, -0.259, 0.966, 128.442, 582.564)">
      <path id="Path_34" data-name="Path 34" d="M28.2,16.2s3.162-7.328,5.269-9.946S35.054,1.8,36.109.492s2.371.262,2.9,1.57S47.965,19.6,47.7,21.169s1.054,9.946,2.371,12.3,7.114,14.4,8.168,18.059S65.354,74.562,67.2,76.918s4.743,12.563,4.743,14.133,3.952,9.422,1.844,11.254-11.426,0-16.12,0-22.347-1.832-25.245-2.618S9.5,96.809,6.863,96.285s-8.695-.524-6.323-6.543,5.8-13.61,6.323-17.274,8.695-27.744,11.593-34.287S28.2,16.2,28.2,16.2Z" transform="translate(108.276 112.078)" fill="#e0873d"/>
      <g id="Group_38" data-name="Group 38" transform="translate(113.749 143.934)">
        <path id="Path_35" data-name="Path 35" d="M.941,12.594S2.7,4.065,3.871,3.478,5.043-.811,8.852.162,13.165,4.427,11.741,6.3s-3.182,4.279-2.889,6.3-2.637,7.878-4.395,7.292S-1.989,21.71.941,12.594Z" transform="translate(16.267 0)" fill="#f8ec4f"/>
        <path id="Path_36" data-name="Path 36" d="M.976,13.307a69.1,69.1,0,0,0,2.93-9.115c.47-2.838,3.036-3.479,5.6-4.12S12.714,3.278,12.714,5.2s-1.881,5.306-3.827,8.1S6.533,21.244,4.492,20.6-1.954,22.422.976,13.307Z" transform="translate(6.612 25.584)" fill="#f8ec4f"/>
        <path id="Path_37" data-name="Path 37" d="M4.574,1.076C5.857-.848,4.8.318,6.612.7A7.667,7.667,0,0,1,10.346,3c.641.642,0,2.4,0,2.8S8.422,8.786,8.422,9.741s-1.283,4.776,0,4.469,7.055,2.259,7.055,2.259.642,2.566-.642,3.207-1.283,2.565-3.207,2.565-7.7-1.283-8.338-1.924S-.557,19.035.084,17.111s.642-7.7,1.924-9.621S3.291,3,4.574,1.076Z" transform="translate(0 52.799)" fill="#f8ec4f"/>
        <path id="Path_38" data-name="Path 38" d="M1.122,0C-.8,0,1.122,3.848.481,4.49S-.16,6.935.481,7s3.848.7,5.131.7h4.54c.59,0,2.515.642,3.156-.642s1.924-2.224,0-3.678S10.969.368,8.611.5,3.046,0,1.122,0Z" transform="translate(20.127 69.91)" fill="#f8ec4f"/>
      </g>
    </g>
  </g>
</svg>
