<svg xmlns="http://www.w3.org/2000/svg" width="647.086" height="188.616" viewBox="0 0 647.086 188.616">
  <g id="Group_1084" data-name="Group 1084" transform="translate(-359.457 -290.286)">
    <g id="Path_481" data-name="Path 481" transform="translate(653.543 290.286)" fill="#fff">
      <path d="M 336.0000305175781 188.1163635253906 L -277.0858764648438 188.1163635253906 C -281.5081481933594 188.1163635253906 -285.6621398925781 186.6538543701172 -288.78271484375 183.9983520507813 C -291.8800659179688 181.3624420166016 -293.5858764648438 177.8646850585938 -293.5858764648438 174.1494445800781 L -293.5858764648438 14.46693897247314 C -293.5858764648438 10.75168895721436 -291.8800659179688 7.253939628601074 -288.78271484375 4.618105888366699 C -285.6621398925781 1.962522745132446 -281.5081481933594 0.5000227093696594 -277.0858764648438 0.5000227093696594 L 336.0000305175781 0.5000227093696594 C 340.4222717285156 0.5000227093696594 344.5762939453125 1.962522745132446 347.69677734375 4.618105888366699 C 350.794189453125 7.253939628601074 352.5000305175781 10.75168895721436 352.5000305175781 14.46693897247314 L 352.5000305175781 174.1494445800781 C 352.5000305175781 177.8646850585938 350.794189453125 181.3624420166016 347.69677734375 183.9983520507813 C 344.5762939453125 186.6538543701172 340.4222717285156 188.1163635253906 336.0000305175781 188.1163635253906 Z" stroke="none"/>
      <path d="M -277.0859680175781 1.000015258789063 C -285.9083862304688 1.000015258789063 -293.0859680175781 7.041275024414063 -293.0859680175781 14.46693420410156 L -293.0859680175781 174.1494445800781 C -293.0859680175781 181.5751037597656 -285.9083862304688 187.6163635253906 -277.0859680175781 187.6163635253906 L 335.9999389648438 187.6163635253906 C 344.8223571777344 187.6163635253906 351.9999389648438 181.5751037597656 351.9999389648438 174.1494445800781 L 351.9999389648438 14.46693420410156 C 351.9999389648438 7.041275024414063 344.8223571777344 1.000015258789063 335.9999389648438 1.000015258789063 L -277.0859680175781 1.000015258789063 M -277.0859680175781 1.52587890625e-05 L 335.9999389648438 1.52587890625e-05 C 345.3888549804688 1.52587890625e-05 352.9999389648438 6.47711181640625 352.9999389648438 14.46693420410156 L 352.9999389648438 174.1494445800781 C 352.9999389648438 182.1392669677734 345.3888549804688 188.6163635253906 335.9999389648438 188.6163635253906 L -277.0859680175781 188.6163635253906 C -286.4747924804688 188.6163635253906 -294.0859680175781 182.1393585205078 -294.0859680175781 174.1494445800781 L -294.0859680175781 14.46693420410156 C -294.0859680175781 6.477020263671875 -286.4747924804688 1.52587890625e-05 -277.0859680175781 1.52587890625e-05 Z" stroke="none" fill="#3d9cd7"/>
    </g>
    <g id="Group_1075" data-name="Group 1075" transform="translate(345.6 -67.536)">
      <g id="Group_374" data-name="Group 374" transform="translate(64.408 387.06)">
        <path id="Path_291" data-name="Path 291" d="M118.117,85.512l-3.735-6.08-6.644,4.217-7.649,3.613L86.664,86.214l-8.33-9.6L73.3,79.908l2.852,3.906L67.889,95.273l3.939,3.465,8.23-10.671,5.054,5.657-2.427,10.861,5.149,1.455,2.508-11.908,7.323.572,1.758,11.188,5.312-.638-1.717-11.711,5.958-2.166,3.931,10.305,5.958-2.166-4.937-10.91Z" transform="translate(-67.889 -76.618)" fill="#e0873d"/>
      </g>
      <g id="Group_373" data-name="Group 373" transform="translate(162.494 383.7)">
        <path id="Path_295" data-name="Path 295" d="M716.65,200.163c-2.7-3.122-10.03-7.777-16.209-6.418s-8.728,7.071-8.728,7.071-.787-3.172-6.162-3.069-11.687,8.022-13.673,10.583a8.1,8.1,0,0,0-1.887,4.858c1.556,10.774,15.35,17.881,27.985,15.218s18.388-13.772,19.333-15.431,1.619-10.021,1.619-10.021S719.355,203.285,716.65,200.163Zm-1.342,12.968c-1.583,2.7-11.015,12.476-18.64,13.481s-18.858.252-24.759-12.06c0,0,11.924-2.25,15.286-3.06s12.073-3.452,14.157-3.716,15.744-3.339,15.744-3.339S716.89,210.43,715.308,213.132Z" transform="translate(-669.99 -193.503)" fill="#cd2e63"/>
      </g>
      <g id="Group_378" data-name="Group 378" transform="translate(355.206 382.581)">
        <ellipse id="Ellipse_63" data-name="Ellipse 63" cx="18.736" cy="18.736" rx="18.736" ry="18.736" transform="translate(0 0)" fill="none" stroke="#463383" stroke-miterlimit="10" stroke-width="12"/>
      </g>
      <g id="Group_377" data-name="Group 377" transform="translate(448.316 389.674)">
        <path id="Path_296" data-name="Path 296" d="M47.966,30.379H0L23.45,0Z" transform="translate(47.966 30.379) rotate(180)" fill="#f8ec4f" stroke="#f8ec4f" stroke-miterlimit="10" stroke-width="5"/>
      </g>
      <g id="Group_438" data-name="Group 438" transform="translate(69.961 468.747)">
        <path id="Path_335" data-name="Path 335" d="M397.521,71.312a23.708,23.708,0,0,1,3.376-3.835c1.351-1.009,1.013-1.716,1.688-2.221s1.519.1,1.857.606,5.739,6.763,5.57,7.368a9.572,9.572,0,0,0,1.519,4.744,57.783,57.783,0,0,1,5.233,6.964c.675,1.413,4.557,8.882,5.739,9.791s3.038,4.845,3.038,5.45,2.532,3.634,1.181,4.34-7.32,0-10.327,0-14.316-.707-16.173-1.009-14.685-1.11-16.373-1.312-5.57-.2-4.051-2.523,3.713-5.249,4.051-6.662,5.57-10.7,7.427-13.222S397.521,71.312,397.521,71.312Z" transform="translate(-379.452 -65.066)" fill="#77c1f0"/>
      </g>
      <path id="Path_336" data-name="Path 336" d="M0,0S13.508,3.7,8.362,11.345,4.911,22.007,9.531,25.475,11.46,35.22,4.765,40.532s-1.871,9.943,3.6,12.953" transform="translate(157.971 500.047) rotate(-90)" fill="none" stroke="#000" stroke-linecap="round" stroke-linejoin="round" stroke-width="7"/>
      <path id="Path_337" data-name="Path 337" d="M-1113.105-1110.69s-6.7-16.4,7.147-17.07,4.1,6.214,18.525,0,16.72-1.614,17.426,4.512,7.243-4.575,10.98,4.362,11.722,13.935,5.381,15.4-10.959,2.293-13.872,0,2.391-1.426-8.881,0-7.113,4.3-11.034,0-6.426.548-18.525,0-13.76-3.138-11.406-4.641S-1113.105-1110.69-1113.105-1110.69Z" transform="translate(1661.67 1521.269)" fill="#e234a6"/>
      <path id="Path_380" data-name="Path 380" d="M57.8,0C72.4,0,84.241,12.1,84.241,27.025S72.4,54.051,57.8,54.051s0-12.1,0-27.025S43.2,0,57.8,0Z" transform="translate(215.328 374.742)" fill="#5bbf7f"/>
      <g id="Path_476" data-name="Path 476" transform="translate(251.8 497.45)" fill="#463383">
        <path d="M 61.08951568603516 5.099043369293213 L 0.5000059604644775 5.099043369293213 L 0.5000059604644775 0.5000035762786865 L 61.08951568603516 0.5000035762786865 L 61.08951568603516 5.099043369293213 Z" stroke="none"/>
        <path d="M 0.9999961853027344 1.000003814697266 L 0.9999961853027344 4.599043846130371 L 60.58950424194336 4.599043846130371 L 60.58950424194336 1.000003814697266 L 0.9999961853027344 1.000003814697266 M -3.814697265625e-06 3.814697265625e-06 L 61.58950424194336 3.814697265625e-06 L 61.58950424194336 5.599043369293213 L -3.814697265625e-06 5.599043369293213 L -3.814697265625e-06 3.814697265625e-06 Z" stroke="none" fill="#463383"/>
      </g>
      <rect id="Rectangle_6664" data-name="Rectangle 6664" width="58.945" height="36.747" transform="translate(393.707 470.574) rotate(90)" fill="#e0873d"/>
      <ellipse id="Ellipse_119" data-name="Ellipse 119" cx="31.355" cy="15.117" rx="31.355" ry="15.117" transform="translate(437.277 485.132)" fill="#f8ec4f"/>
      <path id="Union_15" data-name="Union 15" d="M0,30.819H0V12.873L12.9,0H31.141l12.9,12.873V30.819l-12.9,12.873H12.9Z" transform="translate(554.873 478.413)" fill="#5bbf7f"/>
    </g>
  </g>
</svg>
