<svg xmlns="http://www.w3.org/2000/svg" width="53.051" height="53.051" viewBox="0 0 53.051 53.051">
  <path id="FontAwsome_chevron-circle-right_" data-name="FontAwsome (chevron-circle-right)" d="M34.525,8A26.525,26.525,0,1,1,8,34.525,26.521,26.521,0,0,1,34.525,8ZM46.708,32.707,32.215,18.214a2.556,2.556,0,0,0-3.626,0l-1.818,1.818a2.556,2.556,0,0,0,0,3.626L37.638,34.525,26.771,45.392a2.556,2.556,0,0,0,0,3.626l1.818,1.818a2.556,2.556,0,0,0,3.626,0L46.708,36.344A2.569,2.569,0,0,0,46.708,32.707Z" transform="translate(-8 -8)" fill="#e234a6"/>
</svg>
