<svg xmlns="http://www.w3.org/2000/svg" width="428" height="70.367" viewBox="0 0 428 70.367">
  <g id="Group_1070" data-name="Group 1070" transform="translate(110 1511)">
    <path id="Path_316" data-name="Path 316" d="M0-225.9H428v70.367H0Z" transform="translate(318 -1666.531) rotate(180)" fill="#3d9cd7"/>
    <rect id="Rectangle_117" data-name="Rectangle 117" width="404" height="53" transform="translate(-98 -1502)" fill="#f8ec4f"/>
    <text id="Pre-activity_1" data-name="Pre-activity 1" transform="translate(-74 -1491)" fill="#3d9cd7" font-size="21" font-family="Poppins-Bold, Poppins" font-weight="700"><tspan x="0" y="22">Pre-activity 1</tspan></text>
    <path id="FontAwsome_star_" data-name="FontAwsome (star)" d="M36.624,1.19l-4.409,8.94L22.35,11.568a2.162,2.162,0,0,0-1.2,3.687l7.137,6.955L26.6,32.034a2.159,2.159,0,0,0,3.133,2.275l8.825-4.639,8.825,4.639a2.161,2.161,0,0,0,3.133-2.275L48.832,22.21l7.137-6.955a2.162,2.162,0,0,0-1.2-3.687L44.909,10.13,40.5,1.19a2.163,2.163,0,0,0-3.876,0Z" transform="translate(83.169 -1492.987)" fill="#fff"/>
    <path id="FontAwsome_star_2" data-name="FontAwsome (star)" d="M36.624,1.19l-4.409,8.94L22.35,11.568a2.162,2.162,0,0,0-1.2,3.687l7.137,6.955L26.6,32.034a2.159,2.159,0,0,0,3.133,2.275l8.825-4.639,8.825,4.639a2.161,2.161,0,0,0,3.133-2.275L48.832,22.21l7.137-6.955a2.162,2.162,0,0,0-1.2-3.687L44.909,10.13,40.5,1.19a2.163,2.163,0,0,0-3.876,0Z" transform="translate(222.637 -1492.987)" fill="#fff"/>
    <path id="FontAwsome_star_3" data-name="FontAwsome (star)" d="M36.624,1.19l-4.409,8.94L22.35,11.568a2.162,2.162,0,0,0-1.2,3.687l7.137,6.955L26.6,32.034a2.159,2.159,0,0,0,3.133,2.275l8.825-4.639,8.825,4.639a2.161,2.161,0,0,0,3.133-2.275L48.832,22.21l7.137-6.955a2.162,2.162,0,0,0-1.2-3.687L44.909,10.13,40.5,1.19a2.163,2.163,0,0,0-3.876,0Z" transform="translate(152.687 -1492.987)" fill="#fff"/>
  </g>
</svg>
