<svg xmlns="http://www.w3.org/2000/svg" xmlns:xlink="http://www.w3.org/1999/xlink" width="428" height="70.367" viewBox="0 0 428 70.367">
  <defs>
    <clipPath id="clip-path">
      <path id="Path_287" data-name="Path 287" d="M55.79,26.585l-12.416-1.5C42.4,23.215,41.4,21.348,40.4,19.537c-1.042-1.9-2.056-3.755-3.027-5.6-.485.836-1,1.685-1.544,2.561l-1.7,2.7c-.586.924-1.186,1.879-1.771,2.863-.465.778-.928,1.568-1.386,2.363l-2.616.237c-1.061.1-2.124.187-3.183.3L22,25.276l-3.177.344-3.61.392,2.6,2.715q2.21,2.307,4.449,4.585,1.848,1.873,3.707,3.734l-.373,2.08-.544,3.146c-.184,1.049-.346,2.1-.517,3.151l-.507,3.153-.682,4.232,3.69-2.047,2.793-1.549c.933-.512,1.859-1.04,2.782-1.569s1.85-1.057,2.767-1.6c.692-.4,1.376-.82,2.062-1.236l4.892,2.475,5.708,2.866,2.524,1.267-.522-2.721-2.3-11.986L51.793,32.6l4.466-4.567,1.212-1.24Z" transform="translate(-15.212 -13.932)" fill="none"/>
    </clipPath>
  </defs>
  <g id="Group_1280" data-name="Group 1280" transform="translate(14790.37 -1440.236)">
    <g id="Group_1226" data-name="Group 1226" transform="translate(-14790.37 1440.236)">
      <g id="Group_782" data-name="Group 782" transform="translate(110 1511)">
        <path id="Path_316" data-name="Path 316" d="M0-225.9H428v70.367H0Z" transform="translate(318 -1666.531) rotate(180)" fill="#3d9cd7"/>
        <rect id="Rectangle_117" data-name="Rectangle 117" width="404" height="53" transform="translate(-98 -1502)" fill="#f8ec4f"/>
        <text id="Pre-activity_2" data-name="Pre-activity 2" transform="translate(-74 -1490)" fill="#3d9cd7" font-size="21" font-family="Poppins-Bold, Poppins" font-weight="700"><tspan x="0" y="22">Pre-activity 2</tspan></text>
        <path id="FontAwsome_star_" data-name="FontAwsome (star)" d="M36.624,1.19l-4.409,8.94L22.35,11.568a2.162,2.162,0,0,0-1.2,3.687l7.137,6.955L26.6,32.034a2.159,2.159,0,0,0,3.133,2.275l8.825-4.639,8.825,4.639a2.161,2.161,0,0,0,3.133-2.275L48.832,22.21l7.137-6.955a2.162,2.162,0,0,0-1.2-3.687L44.909,10.13,40.5,1.19a2.163,2.163,0,0,0-3.876,0Z" transform="translate(83.169 -1492.987)" fill="#d3d3d3"/>
        <path id="FontAwsome_star_2" data-name="FontAwsome (star)" d="M36.624,1.19l-4.409,8.94L22.35,11.568a2.162,2.162,0,0,0-1.2,3.687l7.137,6.955L26.6,32.034a2.159,2.159,0,0,0,3.133,2.275l8.825-4.639,8.825,4.639a2.161,2.161,0,0,0,3.133-2.275L48.832,22.21l7.137-6.955a2.162,2.162,0,0,0-1.2-3.687L44.909,10.13,40.5,1.19a2.163,2.163,0,0,0-3.876,0Z" transform="translate(222.637 -1492.987)" fill="#fff"/>
        <path id="FontAwsome_star_3" data-name="FontAwsome (star)" d="M36.624,1.19l-4.409,8.94L22.35,11.568a2.162,2.162,0,0,0-1.2,3.687l7.137,6.955L26.6,32.034a2.159,2.159,0,0,0,3.133,2.275l8.825-4.639,8.825,4.639a2.161,2.161,0,0,0,3.133-2.275L48.832,22.21l7.137-6.955a2.162,2.162,0,0,0-1.2-3.687L44.909,10.13,40.5,1.19a2.163,2.163,0,0,0-3.876,0Z" transform="translate(152.687 -1492.987)" fill="#fff"/>
      </g>
    </g>
    <g id="Group_1231" data-name="Group 1231" transform="translate(-14525.581 1443.05)">
      <path id="Path_275" data-name="Path 275" d="M55.79,26.585l-12.416-1.5C42.4,23.215,41.4,21.348,40.4,19.537c-1.042-1.9-2.056-3.755-3.027-5.6-.485.836-1,1.685-1.544,2.561l-1.7,2.7c-.586.924-1.186,1.879-1.771,2.863-.465.778-.928,1.568-1.386,2.363l-2.616.237c-1.061.1-2.124.187-3.183.3L22,25.276l-3.177.344-3.61.392,2.6,2.715q2.21,2.307,4.449,4.585,1.848,1.873,3.707,3.734l-.373,2.08-.544,3.146c-.184,1.049-.346,2.1-.517,3.151l-.507,3.153-.682,4.232,3.69-2.047,2.793-1.549c.933-.512,1.859-1.04,2.782-1.569s1.85-1.057,2.767-1.6c.692-.4,1.376-.82,2.062-1.236l4.892,2.475,5.708,2.866,2.524,1.267-.522-2.721-2.3-11.986L51.793,32.6l4.466-4.567,1.212-1.24Z" transform="translate(0 0)" fill="#e234a6" stroke="#e234a6" stroke-miterlimit="10" stroke-width="2"/>
      <g id="Group_161" data-name="Group 161" transform="translate(15.212 13.932)">
        <g id="Group_160" data-name="Group 160" clip-path="url(#clip-path)">
          <g id="Group_159" data-name="Group 159" transform="translate(2.743 -0.865)">
            <g id="Group_157" data-name="Group 157" transform="translate(0 4.986)">
              <path id="Path_276" data-name="Path 276" d="M38.612,41.809a8.44,8.44,0,0,1,1,3.387c.167,2.011,1.4,6.391,3.481,5.351s-.01-3.614-.812-4.56A14.145,14.145,0,0,1,40.2,41.821C40.156,41.247,37.475,40.312,38.612,41.809Z" transform="translate(-30.07 -32.238)" fill="#77c1f0"/>
              <path id="Path_277" data-name="Path 277" d="M54.968,68.58s-.072-.862.526-.622,1.292,1.628,2.046,2,2.453,1.676,1.818,2.742-2.525.932-3.422-1.162A11.351,11.351,0,0,1,54.968,68.58Z" transform="translate(-38.787 -46.342)" fill="#77c1f0"/>
              <path id="Path_278" data-name="Path 278" d="M33.217,59.233a2.935,2.935,0,0,1,1.224,1.884c.031,1.048.94,3.287,1,4s.992,3.244-.887,3.255-1.746-3.615-1.578-5.075a8.664,8.664,0,0,0,.037-3.04C32.834,59.843,32.618,58.994,33.217,59.233Z" transform="translate(-27.183 -41.77)" fill="#77c1f0"/>
              <path id="Path_279" data-name="Path 279" d="M21.09,22.757s-.072.874-.061,2.753-.493,6.258,1.35,7.552,3.016-.126,2.574-2.031-1.914-3.7-2.29-4.88S21.736,21.836,21.09,22.757Z" transform="translate(-20.974 -22.59)" fill="#77c1f0"/>
            </g>
            <g id="Group_158" data-name="Group 158" transform="translate(13.363)">
              <path id="Path_280" data-name="Path 280" d="M59.135,27.791a8.474,8.474,0,0,1,.293-2.468c.269-.208.085-1.151,1.1-1.093s1.311.872,1.041,1.419A2.632,2.632,0,0,0,61.15,27.4c.175.5-.28,2.139-.757,2.077S58.842,30.26,59.135,27.791Z" transform="translate(-54.308 -18.462)" fill="#f8ec4f"/>
              <path id="Path_281" data-name="Path 281" d="M74.177,46.807s1.321-1.082,1.635-1,.726-.5,1.426.222.441,1.318-.069,1.4-1.151.2-1.313.561-1.436.848-1.743.493S72.541,47.806,74.177,46.807Z" transform="translate(-61.787 -29.695)" fill="#f8ec4f"/>
              <path id="Path_282" data-name="Path 282" d="M55.535,42.495a17.953,17.953,0,0,0,.564-2.421c.061-.744.712-.965,1.362-1.185s.9.762.939,1.259a5,5,0,0,1-.818,2.178c-.444.766-.441,2.1-.982,1.98S54.971,44.916,55.535,42.495Z" transform="translate(-52.365 -26.128)" fill="#f8ec4f"/>
              <path id="Path_283" data-name="Path 283" d="M51.035,16.161a17.964,17.964,0,0,0-1.62-1.885c-.565-.489-.358-1.144-.152-1.8s1.145-.275,1.571-.014a4.991,4.991,0,0,1,1.275,1.946c.356.811,1.437,1.6,1.018,1.962S52.655,18.046,51.035,16.161Z" transform="translate(-49.049 -12.114)" fill="#f8ec4f"/>
              <path id="Path_284" data-name="Path 284" d="M53.654,53.746c.039-.488-.038-.161.347-.3a1.722,1.722,0,0,1,.956-.016c.19.041.256.427.3.5s-.048.75.054.92.265,1,.476.8a6.172,6.172,0,0,1,1.582-.4s.4.383.22.644.03.6-.336.822a6.238,6.238,0,0,1-1.79.608c-.19-.041-.868.21-.951-.205s-.7-1.442-.66-1.931S53.615,54.234,53.654,53.746Z" transform="translate(-51.46 -33.733)" fill="#f8ec4f"/>
              <path id="Path_285" data-name="Path 285" d="M88.307,42.957c.257.417.125.108-.1.446a1.718,1.718,0,0,1-.763.575c-.178.079-.459-.195-.535-.227s-.4-.634-.585-.712-.8-.648-.853-.362a6.171,6.171,0,0,1-1.042,1.257s-.545-.077-.557-.391-.379-.469-.212-.862a6.245,6.245,0,0,1,1.089-1.545c.178-.079.578-.681.89-.395s1.415.754,1.671,1.172S88.051,42.54,88.307,42.957Z" transform="translate(-67.161 -27.076)" fill="#f8ec4f"/>
              <path id="Path_286" data-name="Path 286" d="M64.4,52.89c-.4.3.6.8.568,1.031s.249.607.391.52.908-.456,1.174-.655l.942-.709c.122-.092.622-.259.555-.625s.052-.762-.574-.763-.955-.259-1.423.138S64.8,52.59,64.4,52.89Z" transform="translate(-57.042 -32.809)" fill="#f8ec4f"/>
            </g>
          </g>
        </g>
      </g>
    </g>
    <g id="Group_1227" data-name="Group 1227" transform="translate(-14455.581 1443.05)">
      <path id="Path_275-2" data-name="Path 275" d="M55.79,26.585l-12.416-1.5C42.4,23.215,41.4,21.348,40.4,19.537c-1.042-1.9-2.056-3.755-3.027-5.6-.485.836-1,1.685-1.544,2.561l-1.7,2.7c-.586.924-1.186,1.879-1.771,2.863-.465.778-.928,1.568-1.386,2.363l-2.616.237c-1.061.1-2.124.187-3.183.3L22,25.276l-3.177.344-3.61.392,2.6,2.715q2.21,2.307,4.449,4.585,1.848,1.873,3.707,3.734l-.373,2.08-.544,3.146c-.184,1.049-.346,2.1-.517,3.151l-.507,3.153-.682,4.232,3.69-2.047,2.793-1.549c.933-.512,1.859-1.04,2.782-1.569s1.85-1.057,2.767-1.6c.692-.4,1.376-.82,2.062-1.236l4.892,2.475,5.708,2.866,2.524,1.267-.522-2.721-2.3-11.986L51.793,32.6l4.466-4.567,1.212-1.24Z" transform="translate(0 0)" fill="#e234a6" stroke="#e234a6" stroke-miterlimit="10" stroke-width="2"/>
      <g id="Group_161-2" data-name="Group 161" transform="translate(15.212 13.932)">
        <g id="Group_160-2" data-name="Group 160" clip-path="url(#clip-path)">
          <g id="Group_159-2" data-name="Group 159" transform="translate(2.743 -0.865)">
            <g id="Group_157-2" data-name="Group 157" transform="translate(0 4.986)">
              <path id="Path_276-2" data-name="Path 276" d="M38.612,41.809a8.44,8.44,0,0,1,1,3.387c.167,2.011,1.4,6.391,3.481,5.351s-.01-3.614-.812-4.56A14.145,14.145,0,0,1,40.2,41.821C40.156,41.247,37.475,40.312,38.612,41.809Z" transform="translate(-30.07 -32.238)" fill="#77c1f0"/>
              <path id="Path_277-2" data-name="Path 277" d="M54.968,68.58s-.072-.862.526-.622,1.292,1.628,2.046,2,2.453,1.676,1.818,2.742-2.525.932-3.422-1.162A11.351,11.351,0,0,1,54.968,68.58Z" transform="translate(-38.787 -46.342)" fill="#77c1f0"/>
              <path id="Path_278-2" data-name="Path 278" d="M33.217,59.233a2.935,2.935,0,0,1,1.224,1.884c.031,1.048.94,3.287,1,4s.992,3.244-.887,3.255-1.746-3.615-1.578-5.075a8.664,8.664,0,0,0,.037-3.04C32.834,59.843,32.618,58.994,33.217,59.233Z" transform="translate(-27.183 -41.77)" fill="#77c1f0"/>
              <path id="Path_279-2" data-name="Path 279" d="M21.09,22.757s-.072.874-.061,2.753-.493,6.258,1.35,7.552,3.016-.126,2.574-2.031-1.914-3.7-2.29-4.88S21.736,21.836,21.09,22.757Z" transform="translate(-20.974 -22.59)" fill="#77c1f0"/>
            </g>
            <g id="Group_158-2" data-name="Group 158" transform="translate(13.363)">
              <path id="Path_280-2" data-name="Path 280" d="M59.135,27.791a8.474,8.474,0,0,1,.293-2.468c.269-.208.085-1.151,1.1-1.093s1.311.872,1.041,1.419A2.632,2.632,0,0,0,61.15,27.4c.175.5-.28,2.139-.757,2.077S58.842,30.26,59.135,27.791Z" transform="translate(-54.308 -18.462)" fill="#f8ec4f"/>
              <path id="Path_281-2" data-name="Path 281" d="M74.177,46.807s1.321-1.082,1.635-1,.726-.5,1.426.222.441,1.318-.069,1.4-1.151.2-1.313.561-1.436.848-1.743.493S72.541,47.806,74.177,46.807Z" transform="translate(-61.787 -29.695)" fill="#f8ec4f"/>
              <path id="Path_282-2" data-name="Path 282" d="M55.535,42.495a17.953,17.953,0,0,0,.564-2.421c.061-.744.712-.965,1.362-1.185s.9.762.939,1.259a5,5,0,0,1-.818,2.178c-.444.766-.441,2.1-.982,1.98S54.971,44.916,55.535,42.495Z" transform="translate(-52.365 -26.128)" fill="#f8ec4f"/>
              <path id="Path_283-2" data-name="Path 283" d="M51.035,16.161a17.964,17.964,0,0,0-1.62-1.885c-.565-.489-.358-1.144-.152-1.8s1.145-.275,1.571-.014a4.991,4.991,0,0,1,1.275,1.946c.356.811,1.437,1.6,1.018,1.962S52.655,18.046,51.035,16.161Z" transform="translate(-49.049 -12.114)" fill="#f8ec4f"/>
              <path id="Path_284-2" data-name="Path 284" d="M53.654,53.746c.039-.488-.038-.161.347-.3a1.722,1.722,0,0,1,.956-.016c.19.041.256.427.3.5s-.048.75.054.92.265,1,.476.8a6.172,6.172,0,0,1,1.582-.4s.4.383.22.644.03.6-.336.822a6.238,6.238,0,0,1-1.79.608c-.19-.041-.868.21-.951-.205s-.7-1.442-.66-1.931S53.615,54.234,53.654,53.746Z" transform="translate(-51.46 -33.733)" fill="#f8ec4f"/>
              <path id="Path_285-2" data-name="Path 285" d="M88.307,42.957c.257.417.125.108-.1.446a1.718,1.718,0,0,1-.763.575c-.178.079-.459-.195-.535-.227s-.4-.634-.585-.712-.8-.648-.853-.362a6.171,6.171,0,0,1-1.042,1.257s-.545-.077-.557-.391-.379-.469-.212-.862a6.245,6.245,0,0,1,1.089-1.545c.178-.079.578-.681.89-.395s1.415.754,1.671,1.172S88.051,42.54,88.307,42.957Z" transform="translate(-67.161 -27.076)" fill="#f8ec4f"/>
              <path id="Path_286-2" data-name="Path 286" d="M64.4,52.89c-.4.3.6.8.568,1.031s.249.607.391.52.908-.456,1.174-.655l.942-.709c.122-.092.622-.259.555-.625s.052-.762-.574-.763-.955-.259-1.423.138S64.8,52.59,64.4,52.89Z" transform="translate(-57.042 -32.809)" fill="#f8ec4f"/>
            </g>
          </g>
        </g>
      </g>
    </g>
  </g>
</svg>
