<svg id="Group_1144" data-name="Group 1144" xmlns="http://www.w3.org/2000/svg" width="150" height="136.17" viewBox="0 0 115.025 72.513">
  <path id="Path_437" data-name="Path 437" d="M159.551,378.458c-12.076,12.257-28.6,21.285-44.689,17.106-17.137-4.452-33.873-15.84-45.052-29.454a43.84,43.84,0,0,1-7.519-12.056c-.479-1.269-.775-2.92.259-3.8a3.456,3.456,0,0,1,2.983-.3c8.536,1.868,16.248,6.276,24.634,8.572,31.28,8.572,55.191,1.689,83.643-11.907a2.687,2.687,0,0,1,1.9-.378c1.092.345,1.259,1.811,1.127,2.948a33.779,33.779,0,0,1-4.43,12.217A79.562,79.562,0,0,1,159.551,378.458Z" transform="translate(-61.854 -346.173)" fill="#e234a6"/>
  <path id="Path_438" data-name="Path 438" d="M159.551,379.7c-12.076,12.255-28.6,21.284-44.689,17.1-17.137-4.452-33.873-15.839-45.052-29.454A43.855,43.855,0,0,1,62.291,355.3c-.479-1.269-.775-2.92.259-3.8a3.456,3.456,0,0,1,2.983-.3c8.536,1.868,16.248,6.276,24.634,8.574,31.28,8.57,55.191,1.689,83.643-11.907a2.689,2.689,0,0,1,1.9-.38c1.092.346,1.259,1.811,1.127,2.948a33.755,33.755,0,0,1-4.43,12.217A79.571,79.571,0,0,1,159.551,379.7Z" transform="translate(-61.854 -345.252)" fill="#463383"/>
  <path id="Path_439" data-name="Path 439" d="M108.542,371.387a27.479,27.479,0,0,1,12.772,5.574,10.523,10.523,0,0,1,2.608,2.8c2.006,3.439-.313,8.367-2.07,11.541a16.759,16.759,0,0,1-8.48,7.583,21.715,21.715,0,0,1-12.516.853c-3.678-.782-5.957-2.7-8.661-5.245-4.1-3.864-9.916-10.775-5.9-16.408a14.288,14.288,0,0,1,5.34-4.228A27.868,27.868,0,0,1,108.542,371.387Z" transform="translate(-44.739 -327.76)" fill="#f8ec4f"/>
  <path id="Path_440" data-name="Path 440" d="M112.646,368.038a6.83,6.83,0,0,1,.855-.538,17.223,17.223,0,0,1,7.144-1.172,23.077,23.077,0,0,1,15.057,6.326,36.252,36.252,0,0,0-4.156,2.563,5.5,5.5,0,0,0-1.445,1.341,6.154,6.154,0,0,0-.77,2.487c-1.405,8.607-3.537,17.4-12.521,20.942a22.246,22.246,0,0,1-12.673.853c-3.725-.782-6.032-2.7-8.769-5.245A29.769,29.769,0,0,1,86.5,379.856c-.362-1.928-.2-3.073-1.7-4.566-1.053-1.046-2.776-2.462-4.348-2.255,1.835-.764,3.773-1.332,5.588-2.178.973-.454,1.908-.994,2.908-1.386,5.4-2.126,16.744-3.556,19.99,2.758C108.477,371.34,111.141,369.1,112.646,368.038Z" transform="translate(-48.069 -331.237)" fill="#e234a6"/>
  <path id="Path_441" data-name="Path 441" d="M96.612,371.962l.683,16.067S99.175,367,96.612,371.962Z" transform="translate(-36.089 -327.618)" fill="#463383"/>
  <path id="Path_442" data-name="Path 442" d="M68.531,354.2s-4.731-2.081-4.921-.568,9.274,12.112,16.465,15.33,33.874,7.569,55.259,3.406,29.333-7.759,32.172-10.6,8.327-14.195,6.056-13.247a223.45,223.45,0,0,1-24.792,10.03C134.2,363.469,112.247,369.9,68.531,354.2Z" transform="translate(-60.554 -344.476)" fill="#fff"/>
</svg>
