<svg xmlns="http://www.w3.org/2000/svg" width="2130.745" height="1288.357" viewBox="0 0 2130.745 1288.357">
  <g id="Group_1259" data-name="Group 1259" transform="translate(150.74 63)">
    <g id="Group_1257" data-name="Group 1257" transform="translate(-66.035 228.336)">
      <g id="Rectangle_8745" data-name="Rectangle 8745" transform="translate(1204.494 328.853)" fill="#fff" stroke="#cd2e63" stroke-width="2">
        <rect width="734.188" height="206.633" rx="17" stroke="none"/>
        <rect x="1" y="1" width="732.188" height="204.633" rx="16" fill="none"/>
      </g>
      <ellipse id="Ellipse_305" data-name="Ellipse 305" cx="157.527" cy="157.527" rx="157.527" ry="157.527" transform="translate(1084.322 274.642)" fill="#3d9cd7"/>
      <g id="Ellipse_308" data-name="Ellipse 308" transform="translate(1088.77 294.514) rotate(-3)" fill="none" stroke="#fff" stroke-linecap="round" stroke-width="3" stroke-dasharray="10 15">
        <ellipse cx="145.566" cy="145.567" rx="145.566" ry="145.567" stroke="none"/>
        <ellipse cx="145.566" cy="145.567" rx="144.066" ry="144.067" fill="none"/>
      </g>
    </g>
    <g id="Group_1258" data-name="Group 1258" transform="translate(-3.484 -283.881)">
      <g id="Rectangle_8746" data-name="Rectangle 8746" transform="translate(1116.02 602.545)" fill="#fff" stroke="#cd2e63" stroke-width="2">
        <rect width="689.188" height="206.633" rx="17" stroke="none"/>
        <rect x="1" y="1" width="687.188" height="204.633" rx="16" fill="none"/>
      </g>
      <ellipse id="Ellipse_309" data-name="Ellipse 309" cx="157.527" cy="157.527" rx="157.527" ry="157.527" transform="translate(1647.774 548.24)" fill="#3d9cd7"/>
      <g id="Ellipse_310" data-name="Ellipse 310" transform="matrix(0.259, 0.966, -0.966, 0.259, 1908.139, 527.58)" fill="none" stroke="#fff" stroke-linecap="round" stroke-width="3" stroke-dasharray="10 15">
        <ellipse cx="145.566" cy="145.567" rx="145.566" ry="145.567" stroke="none"/>
        <ellipse cx="145.566" cy="145.567" rx="144.066" ry="144.067" fill="none"/>
      </g>
    </g>
    <rect id="Rectangle_7591" data-name="Rectangle 7591" width="562" height="1032" transform="translate(520 -63)" fill="#e234a6"/>
    <circle id="Ellipse_257" data-name="Ellipse 257" cx="391.132" cy="391.132" r="391.132" transform="translate(-150.74 443.093)" fill="#f8ec4f"/>
    <g id="Group_733" data-name="Group 733" transform="translate(1980.004 1015.038) rotate(110)">
      <circle id="Ellipse_136" data-name="Ellipse 136" cx="5.125" cy="5.125" r="5.125" transform="translate(0 0)" fill="#e0873d"/>
      <circle id="Ellipse_174" data-name="Ellipse 174" cx="5.125" cy="5.125" r="5.125" transform="translate(0 40.996)" fill="#e0873d"/>
      <circle id="Ellipse_159" data-name="Ellipse 159" cx="5.125" cy="5.125" r="5.125" transform="translate(0 20.498)" fill="#e0873d"/>
      <circle id="Ellipse_175" data-name="Ellipse 175" cx="5.125" cy="5.125" r="5.125" transform="translate(0 61.494)" fill="#e0873d"/>
      <circle id="Ellipse_148" data-name="Ellipse 148" cx="5.125" cy="5.125" r="5.125" transform="translate(81.992 0)" fill="#e0873d"/>
      <circle id="Ellipse_163" data-name="Ellipse 163" cx="5.125" cy="5.125" r="5.125" transform="translate(81.992 40.996)" fill="#e0873d"/>
      <circle id="Ellipse_183" data-name="Ellipse 183" cx="5.125" cy="5.125" r="5.125" transform="translate(81.992 81.992)" fill="#e0873d"/>
      <circle id="Ellipse_196" data-name="Ellipse 196" cx="5.125" cy="5.125" r="5.125" transform="translate(81.992 122.988)" fill="#e0873d"/>
      <circle id="Ellipse_155" data-name="Ellipse 155" cx="5.125" cy="5.125" r="5.125" transform="translate(81.992 20.498)" fill="#e0873d"/>
      <circle id="Ellipse_164" data-name="Ellipse 164" cx="5.125" cy="5.125" r="5.125" transform="translate(81.992 61.494)" fill="#e0873d"/>
      <circle id="Ellipse_176" data-name="Ellipse 176" cx="5.125" cy="5.125" r="5.125" transform="translate(81.992 102.49)" fill="#e0873d"/>
      <circle id="Ellipse_200" data-name="Ellipse 200" cx="5.125" cy="5.125" r="5.125" transform="translate(81.992 143.486)" fill="#e0873d"/>
      <circle id="Ellipse_234" data-name="Ellipse 234" cx="5.125" cy="5.125" r="5.125" transform="translate(61.494 143.486)" fill="#e0873d"/>
      <circle id="Ellipse_147" data-name="Ellipse 147" cx="5.125" cy="5.125" r="5.125" transform="translate(40.996 0)" fill="#e0873d"/>
      <circle id="Ellipse_170" data-name="Ellipse 170" cx="5.125" cy="5.125" r="5.125" transform="translate(40.996 40.996)" fill="#e0873d"/>
      <circle id="Ellipse_184" data-name="Ellipse 184" cx="5.125" cy="5.125" r="5.125" transform="translate(40.996 81.992)" fill="#e0873d"/>
      <circle id="Ellipse_194" data-name="Ellipse 194" cx="5.125" cy="5.125" r="5.125" transform="translate(40.996 122.988)" fill="#e0873d"/>
      <circle id="Ellipse_245" data-name="Ellipse 245" cx="5.125" cy="5.125" r="5.125" transform="translate(20.498 122.988)" fill="#e0873d"/>
      <circle id="Ellipse_237" data-name="Ellipse 237" cx="5.125" cy="5.125" r="5.125" transform="translate(40.996 143.486)" fill="#e0873d"/>
      <circle id="Ellipse_157" data-name="Ellipse 157" cx="5.125" cy="5.125" r="5.125" transform="translate(40.996 20.498)" fill="#e0873d"/>
      <circle id="Ellipse_171" data-name="Ellipse 171" cx="5.125" cy="5.125" r="5.125" transform="translate(40.996 61.494)" fill="#e0873d"/>
      <circle id="Ellipse_181" data-name="Ellipse 181" cx="5.125" cy="5.125" r="5.125" transform="translate(40.996 102.491)" fill="#e0873d"/>
      <circle id="Ellipse_202" data-name="Ellipse 202" cx="5.125" cy="5.125" r="5.125" transform="translate(122.989 143.486)" fill="#e0873d"/>
      <circle id="Ellipse_223" data-name="Ellipse 223" cx="5.125" cy="5.125" r="5.125" transform="translate(122.989 163.985)" fill="#e0873d"/>
      <circle id="Ellipse_227" data-name="Ellipse 227" cx="5.125" cy="5.125" r="5.125" transform="translate(122.989 184.483)" fill="#e0873d"/>
      <circle id="Ellipse_236" data-name="Ellipse 236" cx="5.125" cy="5.125" r="5.125" transform="translate(102.49 184.483)" fill="#e0873d"/>
      <circle id="Ellipse_145" data-name="Ellipse 145" cx="5.125" cy="5.125" r="5.125" transform="translate(20.498 0)" fill="#e0873d"/>
      <circle id="Ellipse_172" data-name="Ellipse 172" cx="5.125" cy="5.125" r="5.125" transform="translate(20.498 40.996)" fill="#e0873d"/>
      <circle id="Ellipse_186" data-name="Ellipse 186" cx="5.125" cy="5.125" r="5.125" transform="translate(20.498 81.992)" fill="#e0873d"/>
      <circle id="Ellipse_246" data-name="Ellipse 246" cx="5.125" cy="5.125" r="5.125" transform="translate(0 81.992)" fill="#e0873d"/>
      <circle id="Ellipse_158" data-name="Ellipse 158" cx="5.125" cy="5.125" r="5.125" transform="translate(20.498 20.498)" fill="#e0873d"/>
      <circle id="Ellipse_173" data-name="Ellipse 173" cx="5.125" cy="5.125" r="5.125" transform="translate(20.498 61.494)" fill="#e0873d"/>
      <circle id="Ellipse_182" data-name="Ellipse 182" cx="5.125" cy="5.125" r="5.125" transform="translate(20.498 102.491)" fill="#e0873d"/>
      <circle id="Ellipse_150" data-name="Ellipse 150" cx="5.125" cy="5.125" r="5.125" transform="translate(102.49 0)" fill="#e0873d"/>
      <circle id="Ellipse_166" data-name="Ellipse 166" cx="5.125" cy="5.125" r="5.125" transform="translate(102.49 40.996)" fill="#e0873d"/>
      <circle id="Ellipse_187" data-name="Ellipse 187" cx="5.125" cy="5.125" r="5.125" transform="translate(102.49 81.992)" fill="#e0873d"/>
      <circle id="Ellipse_197" data-name="Ellipse 197" cx="5.125" cy="5.125" r="5.125" transform="translate(102.49 122.988)" fill="#e0873d"/>
      <circle id="Ellipse_153" data-name="Ellipse 153" cx="5.125" cy="5.125" r="5.125" transform="translate(102.49 20.498)" fill="#e0873d"/>
      <circle id="Ellipse_162" data-name="Ellipse 162" cx="5.125" cy="5.125" r="5.125" transform="translate(102.49 61.494)" fill="#e0873d"/>
      <circle id="Ellipse_178" data-name="Ellipse 178" cx="5.125" cy="5.125" r="5.125" transform="translate(102.49 102.49)" fill="#e0873d"/>
      <circle id="Ellipse_204" data-name="Ellipse 204" cx="5.125" cy="5.125" r="5.125" transform="translate(102.49 143.486)" fill="#e0873d"/>
      <circle id="Ellipse_224" data-name="Ellipse 224" cx="5.125" cy="5.125" r="5.125" transform="translate(102.49 163.985)" fill="#e0873d"/>
      <circle id="Ellipse_235" data-name="Ellipse 235" cx="5.125" cy="5.125" r="5.125" transform="translate(81.992 163.985)" fill="#e0873d"/>
      <circle id="Ellipse_238" data-name="Ellipse 238" cx="5.125" cy="5.125" r="5.125" transform="translate(61.494 163.985)" fill="#e0873d"/>
      <circle id="Ellipse_146" data-name="Ellipse 146" cx="5.125" cy="5.125" r="5.125" transform="translate(61.494 0)" fill="#e0873d"/>
      <circle id="Ellipse_167" data-name="Ellipse 167" cx="5.125" cy="5.125" r="5.125" transform="translate(61.494 40.996)" fill="#e0873d"/>
      <circle id="Ellipse_188" data-name="Ellipse 188" cx="5.125" cy="5.125" r="5.125" transform="translate(61.494 81.992)" fill="#e0873d"/>
      <circle id="Ellipse_195" data-name="Ellipse 195" cx="5.125" cy="5.125" r="5.125" transform="translate(61.494 122.988)" fill="#e0873d"/>
      <circle id="Ellipse_156" data-name="Ellipse 156" cx="5.125" cy="5.125" r="5.125" transform="translate(61.494 20.498)" fill="#e0873d"/>
      <circle id="Ellipse_168" data-name="Ellipse 168" cx="5.125" cy="5.125" r="5.125" transform="translate(61.494 61.494)" fill="#e0873d"/>
      <circle id="Ellipse_180" data-name="Ellipse 180" cx="5.125" cy="5.125" r="5.125" transform="translate(61.494 102.49)" fill="#e0873d"/>
    </g>
    <g id="Symbols" transform="translate(1621.264 42.958)">
      <g id="STLYEGUIDE" transform="translate(0 0)">
        <g id="LOGO_SAM_Main" data-name="LOGO/SAM_Main">
          <path id="Fill-1" d="M4.436,87.562a3.409,3.409,0,0,1-1.192-.194,2.285,2.285,0,0,1-.889-.579,2.557,2.557,0,0,1-.56-.954A4.107,4.107,0,0,1,1.6,84.51a3.953,3.953,0,0,1,.212-1.35,2.78,2.78,0,0,1,.595-1,2.5,2.5,0,0,1,.912-.608,3.092,3.092,0,0,1,1.159-.214,5.419,5.419,0,0,1,.847.064,5.923,5.923,0,0,1,.941.223V80.3a5.1,5.1,0,0,0-.865-.21,6.673,6.673,0,0,0-1.01-.072,4.875,4.875,0,0,0-1.873.358,3.867,3.867,0,0,0-1.377.966A4.208,4.208,0,0,0,.3,82.79a5.46,5.46,0,0,0-.294,1.815,5.278,5.278,0,0,0,.276,1.742A3.632,3.632,0,0,0,1.1,87.7a3.669,3.669,0,0,0,1.354.875,5.242,5.242,0,0,0,1.88.31,7.492,7.492,0,0,0,1.059-.071,7.234,7.234,0,0,0,.948-.2V87.262a5.488,5.488,0,0,1-.931.224,6.594,6.594,0,0,1-.975.075Z" transform="translate(-0.003 -25.937)" fill-rule="evenodd"/>
          <path id="Fill-3" d="M17.9,81.259a3.573,3.573,0,0,0-1.29-.911,4.321,4.321,0,0,0-1.74-.329,4.318,4.318,0,0,0-1.737.329,3.536,3.536,0,0,0-1.289.911,3.991,3.991,0,0,0-.8,1.4,6.053,6.053,0,0,0,0,3.586,3.982,3.982,0,0,0,.8,1.4,3.627,3.627,0,0,0,1.289.911,4.4,4.4,0,0,0,1.737.325,4.4,4.4,0,0,0,1.74-.325,3.666,3.666,0,0,0,1.29-.911,4.027,4.027,0,0,0,.8-1.4,6,6,0,0,0,0-3.586,4.037,4.037,0,0,0-.8-1.4m-.708,4.557a2.756,2.756,0,0,1-.523.972,2.124,2.124,0,0,1-.791.581,2.711,2.711,0,0,1-2.014,0,2.166,2.166,0,0,1-.793-.581,2.8,2.8,0,0,1-.518-.972,5.019,5.019,0,0,1,0-2.726,2.852,2.852,0,0,1,.518-.974,2.117,2.117,0,0,1,.793-.582,2.729,2.729,0,0,1,2.014,0,2.077,2.077,0,0,1,.791.582,2.8,2.8,0,0,1,.523.974,5.019,5.019,0,0,1,0,2.726" transform="translate(-3.492 -25.937)" fill-rule="evenodd"/>
          <path id="Fill-5" d="M30.591,84c0,.506.024,1.319.072,2.427h-.036q-.567-1.014-1.472-2.324L26.39,80.132H24.774v8.549h1.538V84.811q0-.864-.074-2.434h.037c.518.895,1.016,1.687,1.5,2.37l2.743,3.934h1.615V80.132h-1.54Z" transform="translate(-8.03 -25.974)" fill-rule="evenodd"/>
          <path id="Fill-7" d="M37.015,81.443h2.716V88.68h1.541V81.443h2.71V80.131H37.015Z" transform="translate(-11.998 -25.974)" fill-rule="evenodd"/>
          <path id="Fill-9" d="M50.589,84.961h3.36V83.654h-3.36V81.443H54.5V80.131h-5.45V88.68h5.676V87.373H50.589Z" transform="translate(-15.899 -25.973)" fill-rule="evenodd"/>
          <path id="Fill-11" d="M64.519,84.223q-.408,1.155-.685,2.165H63.8c-.214-.779-.44-1.509-.685-2.182l-1.453-4.075H59.509V88.68h1.539V84.344q0-1.021-.074-2.206h.056c.072.242.156.516.252.82s.2.6.3.9l1.742,4.826h.993l1.742-4.826c.1-.3.2-.6.3-.9s.18-.578.251-.82h.055q-.075,1.26-.074,2.213V88.68h1.538V80.131H65.972Z" transform="translate(-19.289 -25.973)" fill-rule="evenodd"/>
          <path id="Fill-13" d="M78.769,80.35a4.91,4.91,0,0,0-.814-.163,9.481,9.481,0,0,0-1.066-.056H74.461v8.55H76V85.34q.174.018.376.024c.135,0,.271,0,.408,0a6.144,6.144,0,0,0,1.6-.185,3.593,3.593,0,0,0,1.182-.527,2.3,2.3,0,0,0,.737-.839,2.459,2.459,0,0,0,.251-1.118,2.331,2.331,0,0,0-.464-1.493,2.652,2.652,0,0,0-1.328-.856m.088,2.885a1.029,1.029,0,0,1-.37.44,2.011,2.011,0,0,1-.678.286,4.491,4.491,0,0,1-1.047.1c-.146,0-.289,0-.423-.008s-.249-.018-.336-.03V81.443h.866a7.076,7.076,0,0,1,.8.037,2.364,2.364,0,0,1,.546.109,1.127,1.127,0,0,1,.589.427,1.209,1.209,0,0,1,.169.654,1.372,1.372,0,0,1-.112.565" transform="translate(-24.135 -25.973)" fill-rule="evenodd"/>
          <path id="Fill-15" d="M91.743,81.259a3.523,3.523,0,0,0-1.288-.911,4.76,4.76,0,0,0-3.479,0,3.557,3.557,0,0,0-1.287.911,3.975,3.975,0,0,0-.8,1.4,5.981,5.981,0,0,0,0,3.586,3.966,3.966,0,0,0,.8,1.4,3.649,3.649,0,0,0,1.287.911,4.816,4.816,0,0,0,3.479,0,3.613,3.613,0,0,0,1.288-.911,3.947,3.947,0,0,0,.8-1.4,6,6,0,0,0,0-3.586,3.956,3.956,0,0,0-.8-1.4m-.707,4.557a2.752,2.752,0,0,1-.52.972,2.133,2.133,0,0,1-.793.581,2.706,2.706,0,0,1-2.012,0,2.113,2.113,0,0,1-.791-.581,2.743,2.743,0,0,1-.522-.972,4.985,4.985,0,0,1,0-2.726,2.789,2.789,0,0,1,.522-.974,2.067,2.067,0,0,1,.791-.582,2.723,2.723,0,0,1,2.012,0,2.086,2.086,0,0,1,.793.582,2.8,2.8,0,0,1,.52.974,5,5,0,0,1,0,2.726" transform="translate(-27.427 -25.937)" fill-rule="evenodd"/>
          <path id="Fill-17" d="M102.505,85.142a2.867,2.867,0,0,0,1.507-.924,2.652,2.652,0,0,0,.086-2.938,2.453,2.453,0,0,0-1.144-.853,4.052,4.052,0,0,0-.937-.219,8.748,8.748,0,0,0-1.182-.077h-2.56V88.68h1.54V85.369h1.057l2.288,3.311h1.846l-2.5-3.515Zm-.414-1.271a2.857,2.857,0,0,1-.619.143,6.723,6.723,0,0,1-.9.049h-.76v-2.62h1.1a5.657,5.657,0,0,1,.825.048,1.984,1.984,0,0,1,.553.151.967.967,0,0,1,.481.418,1.27,1.27,0,0,1,.141.609,1.378,1.378,0,0,1-.18.712,1.2,1.2,0,0,1-.643.49Z" transform="translate(-31.855 -25.974)" fill-rule="evenodd"/>
          <path id="Fill-19" d="M113,80.131l-3.338,8.549h1.64l.827-2.176H115.3l.824,2.176h1.628l-3.338-8.549Zm1.8,5.06h-2.173l.286-.758c.234-.6.495-1.349.788-2.242h.026q.448,1.331.789,2.242Z" transform="translate(-35.545 -25.974)" fill-rule="evenodd"/>
          <path id="Fill-21" d="M127.344,85.142a2.867,2.867,0,0,0,1.506-.924,2.648,2.648,0,0,0,.085-2.938,2.447,2.447,0,0,0-1.144-.853,4.035,4.035,0,0,0-.937-.219,8.717,8.717,0,0,0-1.183-.077h-2.559V88.68h1.54V85.369h1.058L128,88.68h1.848l-2.5-3.515Zm-.416-1.271a2.9,2.9,0,0,1-.617.143,6.793,6.793,0,0,1-.9.049h-.761v-2.62h1.1a5.649,5.649,0,0,1,.823.048,1.977,1.977,0,0,1,.553.151.951.951,0,0,1,.48.418,1.263,1.263,0,0,1,.143.609,1.391,1.391,0,0,1-.18.712,1.221,1.221,0,0,1-.645.49Z" transform="translate(-39.905 -25.974)" fill-rule="evenodd"/>
          <path id="Fill-23" d="M136.492,83.815h-.018l-2.239-3.684h-1.711l3.187,5.106v3.444h1.543V85.237l3.187-5.106h-1.709Z" transform="translate(-42.956 -25.973)" fill-rule="evenodd"/>
          <path id="Fill-25" d="M153.319,80.131l-3.34,8.549h1.642l.825-2.176h3.168l.824,2.176h1.629l-3.337-8.549Zm1.8,5.06h-2.174l.284-.758c.233-.6.5-1.349.788-2.242h.027q.443,1.331.789,2.242Z" transform="translate(-48.614 -25.974)" fill-rule="evenodd"/>
          <path id="Fill-27" d="M167.789,85.142a2.876,2.876,0,0,0,1.506-.924,2.648,2.648,0,0,0,.084-2.938,2.433,2.433,0,0,0-1.141-.853,4.012,4.012,0,0,0-.939-.219,8.7,8.7,0,0,0-1.184-.077h-2.558V88.68H165.1V85.369h1.056l2.29,3.311h1.848l-2.5-3.515Zm-.413-1.271a3.02,3.02,0,0,1-.621.143,6.768,6.768,0,0,1-.9.049H165.1v-2.62h1.1a5.708,5.708,0,0,1,.826.048,1.981,1.981,0,0,1,.554.151.968.968,0,0,1,.48.418,1.261,1.261,0,0,1,.139.609,1.378,1.378,0,0,1-.179.712,1.216,1.216,0,0,1-.642.49Z" transform="translate(-53.015 -25.974)" fill-rule="evenodd"/>
          <path id="Fill-29" d="M173.988,81.443h2.718V88.68h1.537V81.443h2.712V80.131h-6.966Z" transform="translate(-56.396 -25.974)" fill-rule="evenodd"/>
          <path id="Fill-31" d="M191.962,88.681H193.5V80.132h-1.539Z" transform="translate(-62.222 -25.974)" fill-rule="evenodd"/>
          <path id="Fill-33" d="M202.466,84c0,.506.026,1.319.074,2.427h-.033c-.382-.676-.869-1.452-1.473-2.324l-2.769-3.977h-1.616v8.549h1.54V84.811q0-.864-.075-2.434h.039c.515.895,1.012,1.687,1.5,2.37l2.742,3.934h1.617V80.132h-1.542Z" transform="translate(-63.741 -25.974)" fill-rule="evenodd"/>
          <path id="Fill-34" d="M222.139,84.407a3.027,3.027,0,0,0-.867-.418c-.324-.1-.665-.187-1.019-.266-.227-.044-.443-.1-.644-.151a2.3,2.3,0,0,1-.532-.224,1.093,1.093,0,0,1-.371-.345.984.984,0,0,1-.134-.537.949.949,0,0,1,.414-.844,2.086,2.086,0,0,1,1.172-.282,6.151,6.151,0,0,1,1.13.118,7.338,7.338,0,0,1,1.252.38V80.5a5.717,5.717,0,0,0-1.167-.345,7.1,7.1,0,0,0-1.353-.136,4.306,4.306,0,0,0-1.212.161,2.761,2.761,0,0,0-.934.5,2.341,2.341,0,0,0-.635.829,2.834,2.834,0,0,0-.229,1.181,2.283,2.283,0,0,0,.2,1.019,1.886,1.886,0,0,0,.539.677,2.562,2.562,0,0,0,.785.413,8.822,8.822,0,0,0,.94.258c.245.051.481.1.706.156a3.312,3.312,0,0,1,.606.207,1.212,1.212,0,0,1,.43.331.847.847,0,0,1,.157.528,1.1,1.1,0,0,1-.17.622,1.223,1.223,0,0,1-.45.4,2.205,2.205,0,0,1-.632.207,4.019,4.019,0,0,1-.718.059,5.775,5.775,0,0,1-1.219-.124,5.936,5.936,0,0,1-1.216-.4v1.325a3.663,3.663,0,0,0,1.105.387,6.488,6.488,0,0,0,1.35.137,6.086,6.086,0,0,0,1.445-.16,3.172,3.172,0,0,0,1.122-.49,2.248,2.248,0,0,0,.715-.834,2.635,2.635,0,0,0,.251-1.193,2.444,2.444,0,0,0-.22-1.1,1.937,1.937,0,0,0-.6-.7" transform="translate(-70.327 -25.937)" fill-rule="evenodd"/>
          <path id="Fill-35" d="M234.1,81.261a3.556,3.556,0,0,0-1.288-.914,4.76,4.76,0,0,0-3.479,0,3.543,3.543,0,0,0-1.29.912,3.97,3.97,0,0,0-.8,1.4,5.993,5.993,0,0,0,0,3.585,3.965,3.965,0,0,0,.8,1.4,3.621,3.621,0,0,0,1.29.91,4.815,4.815,0,0,0,3.479,0,3.63,3.63,0,0,0,1.288-.91,4,4,0,0,0,.8-1.4,5.95,5.95,0,0,0,0-3.585,3.978,3.978,0,0,0-.8-1.4m-.707,4.557a2.751,2.751,0,0,1-.522.969,2.136,2.136,0,0,1-.791.581,2.718,2.718,0,0,1-2.017,0,2.157,2.157,0,0,1-.789-.581,2.8,2.8,0,0,1-.522-.972,5.034,5.034,0,0,1,0-2.725,2.85,2.85,0,0,1,.522-.974,2.1,2.1,0,0,1,.789-.582,2.736,2.736,0,0,1,2.017,0,2.08,2.08,0,0,1,.791.582,2.792,2.792,0,0,1,.522.974,4.992,4.992,0,0,1,0,2.728" transform="translate(-73.572 -25.937)" fill-rule="evenodd"/>
          <path id="Fill-36" d="M246.185,85.147a3.824,3.824,0,0,1-.212,1.419,1.612,1.612,0,0,1-.7.822,2.462,2.462,0,0,1-2.162,0,1.594,1.594,0,0,1-.7-.822,3.734,3.734,0,0,1-.215-1.419V80.253h-1.54v5.034a7.015,7.015,0,0,0,.059.974,3.5,3.5,0,0,0,.2.789,2.9,2.9,0,0,0,.454.8,2.584,2.584,0,0,0,.685.6,3.219,3.219,0,0,0,.931.375,4.715,4.715,0,0,0,1.19.132,4.8,4.8,0,0,0,1.192-.132,3.32,3.32,0,0,0,.946-.375,2.6,2.6,0,0,0,.7-.6,2.756,2.756,0,0,0,.454-.8,3.533,3.533,0,0,0,.2-.789,7.343,7.343,0,0,0,.059-.974V80.253h-1.541Z" transform="translate(-78.006 -26.013)" fill-rule="evenodd"/>
          <path id="Fill-37" d="M252.67,81.443h2.719V88.68h1.54V81.443h2.71V80.131H252.67Z" transform="translate(-81.9 -25.974)" fill-rule="evenodd"/>
          <path id="Fill-38" d="M269.857,83.657h-3.9V80.132h-1.542v8.549h1.542v-3.72h3.9v3.72H271.4V80.132h-1.541Z" transform="translate(-85.708 -25.974)" fill-rule="evenodd"/>
          <path id="Fill-39" d="M278.925,84.961h3.357v-1.3h-3.357V81.443h3.909V80.131H277.38V88.68h5.682V87.373h-4.137Z" transform="translate(-89.909 -25.973)" fill-rule="evenodd"/>
          <path id="Fill-40" d="M290.666,80.131l-3.34,8.549h1.642l.82-2.176h3.17l.826,2.176h1.627l-3.339-8.549Zm1.8,5.06h-2.176l.289-.758c.228-.6.492-1.349.787-2.242h.024q.446,1.331.787,2.242Z" transform="translate(-93.133 -25.974)" fill-rule="evenodd"/>
          <path id="Fill-41" d="M305.341,84.407a3.04,3.04,0,0,0-.864-.418c-.324-.1-.667-.187-1.023-.266-.227-.044-.441-.1-.644-.151a2.327,2.327,0,0,1-.532-.224,1.064,1.064,0,0,1-.371-.345.978.978,0,0,1-.133-.537.952.952,0,0,1,.411-.844,2.088,2.088,0,0,1,1.175-.282,6.111,6.111,0,0,1,1.128.118,7.4,7.4,0,0,1,1.254.38V80.5a5.772,5.772,0,0,0-1.171-.345,7.047,7.047,0,0,0-1.351-.136,4.3,4.3,0,0,0-1.211.161,2.781,2.781,0,0,0-.937.5,2.359,2.359,0,0,0-.633.829,2.792,2.792,0,0,0-.23,1.181,2.283,2.283,0,0,0,.2,1.022,1.92,1.92,0,0,0,.539.674,2.592,2.592,0,0,0,.787.413,8.825,8.825,0,0,0,.937.258c.247.051.484.1.708.156a3.321,3.321,0,0,1,.606.208,1.164,1.164,0,0,1,.428.33.838.838,0,0,1,.156.528,1.09,1.09,0,0,1-.169.622,1.216,1.216,0,0,1-.448.4,2.21,2.21,0,0,1-.633.207,4.036,4.036,0,0,1-.718.059,5.747,5.747,0,0,1-1.219-.124,5.908,5.908,0,0,1-1.214-.4v1.325a3.643,3.643,0,0,0,1.105.387,6.426,6.426,0,0,0,1.346.137,5.993,5.993,0,0,0,1.45-.16,3.173,3.173,0,0,0,1.12-.49,2.194,2.194,0,0,0,.714-.834,2.633,2.633,0,0,0,.252-1.193,2.464,2.464,0,0,0-.218-1.1,1.954,1.954,0,0,0-.6-.7" transform="translate(-97.297 -25.937)" fill-rule="evenodd"/>
          <path id="Fill-42" d="M309.688,81.443h2.72V88.68h1.54V81.443h2.272V80.131h-6.532Z" transform="translate(-100.382 -25.974)" fill-rule="evenodd"/>
          <path id="Fill-43" d="M329.23,80.131l-3.338,8.549h1.638l.825-2.176h3.17l.821,2.176h1.632l-3.338-8.549Zm1.8,5.06h-2.178l.289-.758c.231-.6.493-1.349.788-2.242h.024q.446,1.331.787,2.242Z" transform="translate(-105.634 -25.974)" fill-rule="evenodd"/>
          <path id="Fill-44" d="M344.4,84.407a3,3,0,0,0-.864-.418c-.325-.1-.669-.187-1.023-.266-.227-.044-.441-.1-.641-.151a2.278,2.278,0,0,1-.535-.224A1.049,1.049,0,0,1,340.97,83a1.088,1.088,0,0,1,.276-1.38,2.089,2.089,0,0,1,1.175-.282,6.113,6.113,0,0,1,1.127.118,7.5,7.5,0,0,1,1.257.38V80.5a5.83,5.83,0,0,0-1.173-.345,7.063,7.063,0,0,0-1.349-.136,4.27,4.27,0,0,0-1.211.161,2.763,2.763,0,0,0-.939.5,2.351,2.351,0,0,0-.629.829,2.75,2.75,0,0,0-.236,1.181,2.341,2.341,0,0,0,.2,1.022,1.992,1.992,0,0,0,.539.674,2.573,2.573,0,0,0,.788.413,8.954,8.954,0,0,0,.937.258c.247.051.484.1.709.156a3.331,3.331,0,0,1,.606.208,1.153,1.153,0,0,1,.426.33.828.828,0,0,1,.157.528,1.09,1.09,0,0,1-.17.622,1.194,1.194,0,0,1-.449.4,2.218,2.218,0,0,1-.631.207,4.016,4.016,0,0,1-.717.059,5.761,5.761,0,0,1-1.221-.124,5.844,5.844,0,0,1-1.213-.4v1.325a3.673,3.673,0,0,0,1.1.387,6.507,6.507,0,0,0,1.35.137,5.973,5.973,0,0,0,1.448-.16,3.18,3.18,0,0,0,1.121-.49,2.2,2.2,0,0,0,.713-.834,2.592,2.592,0,0,0,.253-1.193A2.433,2.433,0,0,0,345,85.1a1.935,1.935,0,0,0-.6-.7" transform="translate(-109.958 -25.937)" fill-rule="evenodd"/>
          <path id="Fill-45" d="M349.962,88.681H351.5V80.132h-1.538Z" transform="translate(-113.436 -25.974)" fill-rule="evenodd"/>
          <path id="Fill-46" d="M357.349,80.131l-3.341,8.549h1.642l.825-2.176h3.168l.825,2.176H362.1l-3.34-8.549Zm1.8,5.06h-2.174l.287-.758c.229-.6.493-1.349.787-2.242h.024q.446,1.331.787,2.242Z" transform="translate(-114.747 -25.974)" fill-rule="evenodd"/>
          <path id="Fill-47" d="M101.113,44.578c-3.516,0-4.771,1.9-4.771,3.688,0,3.677,3.867,3.863,4.64,3.863,2.086,0,4.516-.979,4.516-3.741,0-2.312-1.721-3.81-4.385-3.81" transform="translate(-31.228 -14.449)" fill-rule="evenodd"/>
          <path id="Fill-48" d="M121.039,44.578c-3.317,0-4.83,1.959-4.83,3.776s1.513,3.775,4.83,3.775,4.83-1.956,4.83-3.775-1.511-3.776-4.83-3.776" transform="translate(-37.668 -14.449)" fill-rule="evenodd"/>
          <path id="Fill-49" d="M171.686,52.182c0,.935,1.1,1.132,2.024,1.132.4,0,3.892-.063,3.892-2.231v-.444a22.715,22.715,0,0,1-3.479.466c-2.437.228-2.437.7-2.437,1.077" transform="translate(-55.65 -16.414)" fill-rule="evenodd"/>
          <path id="Fill-50" d="M78.356,50.673c-2.471.147-2.806.867-2.806,1.554,0,1.144,1.082,1.721,3.21,1.721,1.892,0,4.706-.7,4.706-2.639V50.19a4.938,4.938,0,0,1-1.431.269Z" transform="translate(-24.489 -16.268)" fill-rule="evenodd"/>
          <path id="Fill-51" d="M240.336.285a10.253,10.253,0,0,0-8.11,3.313c-1.7-2.6-4.154-3.313-6.821-3.313A10.4,10.4,0,0,0,217.649,3.6h-.073V.783h-7.329V19.468h-2.6a6.434,6.434,0,0,1-.481-2.893V6.829c0-5.408-5.266-6.544-12.27-6.544-5.911,0-11.355.818-12.065,6.544h7.544c.355-1.635,1.7-2.417,4.48-2.417,3.31,0,4.77.709,4.77,2.066,0,.991-.325,1.42-2.28,1.565l-7.5.495c-4.591.305-7.391,1.475-8.129,4.5a7.67,7.67,0,0,0-.2,1.8,5.01,5.01,0,0,0,2.6,4.634h-8.847a5.541,5.541,0,0,0,3.7-5.313,6.213,6.213,0,0,0-.089-1.114h0l0,0c-.481-2.972-3.023-4.308-7.668-4.818l-6.509-.711c-1.918-.216-2.42-.748-2.42-1.35,0-1.315,1.283-1.817,3.451-1.817a7.18,7.18,0,0,1,2.71.428A1.9,1.9,0,0,1,169.8,6.405h8.468C177.843.925,171.365,0,166.242,0c-7.215,0-11.705,1.636-11.705,6.869,0,3.271,2.249,4.836,6.654,5.364l6.563.8.163.019c1.851.212,2.595.5,2.595,1.529,0,1.389-1.777,1.707-3.453,1.707a6.806,6.806,0,0,1-3.343-.6,2.033,2.033,0,0,1-1.067-1.636H153.9c.084,2.757,1.74,4.426,4.024,5.416H0v28.72H247.418V5.311c0-2.237-2.253-5.026-7.082-5.026ZM200.042,19.468h-1.823a7.557,7.557,0,0,0,1.632-1.186,6.484,6.484,0,0,0,.191,1.186Zm-10.2-6.432a2.483,2.483,0,0,1,1.859-.831l5.091-.612a18.279,18.279,0,0,0,2.875-.529v1.167a3.856,3.856,0,0,1-.076.8c-.447,2.159-2.795,3.469-6.678,3.469-2.027,0-3.376-.852-3.376-2.351a1.888,1.888,0,0,1,.306-1.119ZM12.449,39.068c-4.492,0-5.558-1.872-5.659-3.439l-.026-.364H8.4l.038.294c.12.847.3,2.119,4.262,2.119,3.262,0,3.637-.948,3.637-1.661,0-.276,0-1.108-1.884-1.311l-3.836-.429c-2.136-.229-3.363-1.184-3.363-2.626,0-.486.237-2.914,4.915-2.914,3.44,0,5.208,1.065,5.406,3.255l.036.372H15.948l-.027-.31c-.1-1-.629-1.926-3.793-1.926-2.041,0-3.213.537-3.213,1.472,0,.43.2,1.023,1.89,1.2l3.47.387c1.6.184,3.727.673,3.727,2.828,0,1.39-.964,3.049-5.552,3.049Zm6.819-.28h1.669V29.023H19.267Zm0-10.788h1.669V25.439H19.267ZM34.093,38.788H32.431V32.875c0-1.425-.447-2.747-3.7-2.747-3.162,0-4.284,1.625-4.284,3.012v5.648H22.79V29.023h1.658v1.241a5.812,5.812,0,0,1,4.3-1.526c5.343,0,5.343,2.981,5.343,4.1Zm13.978-.826c0,3.155-2.059,4.689-6.3,4.689-2.526,0-5.489-.38-5.972-3.336l-.067-.395H37.4l.045.285c.147.879.754,2.051,4.327,2.051,4.161,0,4.64-1.86,4.64-3.259v-.966A6.6,6.6,0,0,1,41.6,38.639c-4.616,0-6.26-2.591-6.26-5.019,0-2.27,1.644-4.92,6.278-4.92a6.593,6.593,0,0,1,4.788,1.533V28.985h1.662Zm14.247.77-.243.073a4.617,4.617,0,0,1-1.29.158c-1.264,0-1.574-.639-1.655-1.465a6.875,6.875,0,0,1-4.919,1.57c-3.975,0-4.811-1.691-4.811-3.11,0-1.244.77-2.766,4.432-2.942l3.8-.214c1.123-.072,1.342-.153,1.342-.953,0-.852-.443-1.721-3.708-1.721-2.826,0-3.474.707-3.727,2.1l-.051.281H49.835l.063-.393c.434-2.8,2.476-3.377,5.4-3.377,2.487,0,5.338.341,5.338,3v5.087c0,.744.027.744.385.744a3.071,3.071,0,0,0,.865-.132l.432-.118Zm7.459.336a6.21,6.21,0,0,1-4.534-1.661v4.961H63.584V29.023h1.659v1.315a6.128,6.128,0,0,1,4.534-1.6c4.249,0,6.15,2.6,6.15,5.184,0,3.03-2.527,5.147-6.15,5.147Zm13.594,0c-4.261,0-6.49-2.6-6.49-5.163s2.229-5.168,6.49-5.168,6.494,2.6,6.494,5.168-2.23,5.163-6.494,5.163Zm14.745-8.607-.439-.132a3.468,3.468,0,0,0-1.036-.092c-2.686,0-3.891,1.653-3.891,3.293v5.258h-1.66V29.023h1.66v1.383a5.381,5.381,0,0,1,4.215-1.669,3.5,3.5,0,0,1,.889.119l.262.061Zm6.713,7.218c2.95,0,3.846-1.4,4.234-2.185h1.73l-.024.061c-.949,2.363-2.926,3.513-6.044,3.513-3.888,0-6.4-2.055-6.4-5.234,0-1.763,1.344-5.1,6.424-5.1,3.807,0,6.3,2.1,6.341,5.341l.007.344H100.008c.235,2.019,2.051,3.256,4.822,3.256Zm22.341,1.11-.6.1a9.756,9.756,0,0,1-1.828.167c-1.509,0-2.11-.5-2.38-1.014a9.57,9.57,0,0,1-5.138,1.1c-3.091,0-4.933-1.229-4.933-3.283,0-2.9,3.483-3.16,5.358-3.3,3.94-.315,4.365-.448,4.365-.849,0-.67-.96-1.01-2.85-1.01-1.741,0-2.666.422-2.75,1.258l-.01.109h-3.573l.036-.2c.541-3.118,3.65-3.516,6.3-3.516,5.642,0,6.4,1.769,6.4,3.5V36.3c0,.116,0,.189.3.189a7.8,7.8,0,0,0,.907-.049l.393-.061Zm10.485-7.042-.431-.118a6.137,6.137,0,0,0-1.782-.224c-.334,0-3.26.07-3.26,2.5v4.883h-3.617V28.7h3.617V30a5.315,5.315,0,0,1,3.966-1.544,7.944,7.944,0,0,1,1.217.091l.291.039Zm10.364,7.071-.3.035a17.85,17.85,0,0,1-2.3.145c-3.564,0-4.2-1.025-4.2-3.175V31.16h-2.337V28.7h2.337V25.8h3.623V28.7h3.062V31.16h-3.062v3.952c0,1.15.092,1.323.718,1.323.54,0,1.05-.009,1.563-.02l.889-.016Zm20.433-.03h-1.661V32.558c0-1.567-1.137-2.429-3.195-2.429-2.4,0-3.723.969-3.723,2.728v5.932h-1.656V32.4c0-1.527-1.048-2.27-3.2-2.27-2.33,0-3.721,1.085-3.721,2.9v5.755h-1.663V29.023H151.3v1.048a5.845,5.845,0,0,1,3.891-1.333c2.1,0,3.491.582,4.212,1.771a5.018,5.018,0,0,1,4.174-1.771c4.031,0,4.876,1.934,4.876,3.555Zm12.719.087h-1.658V37.631a5.8,5.8,0,0,1-4.3,1.526c-5.339,0-5.339-2.978-5.339-4.1V29.111h1.657v5.911c0,1.427.448,2.745,3.7,2.745,3.158,0,4.279-1.623,4.279-3.011V29.111h1.658Zm6.7.193c-4.492,0-5.562-1.869-5.664-3.439l-.026-.364h1.644l.038.3c.113.844.28,2.117,4.261,2.117,3.266,0,3.641-.948,3.641-1.661,0-.276,0-1.107-1.89-1.311l-3.829-.429c-2.171-.231-3.368-1.162-3.368-2.626,0-.486.237-2.914,4.911-2.914,3.433,0,5.2,1.065,5.412,3.253l.034.374h-1.661l-.03-.309c-.1-1-.635-1.927-3.794-1.927-2.04,0-3.213.537-3.213,1.472,0,.43.2,1.023,1.89,1.2l3.465.387c1.605.184,3.729.673,3.729,2.828,0,1.39-.96,3.049-5.547,3.049Zm12.645-1.229c3.138,0,3.956-1.6,4.3-2.345h1.715l-.087.218c-.947,2.363-2.922,3.514-6.039,3.514-3.894,0-6.412-2.055-6.412-5.236,0-1.761,1.346-5.093,6.427-5.093,3.8,0,6.294,2.093,6.344,5.339l.007.345H195.69c.237,2.019,2.053,3.258,4.828,3.258Zm17.1-24.8V9.287c0-1.957,1.459-3.311,4.236-3.311,2.028,0,3.237,1,3.237,2.85V19.468h-7.474Zm1.651,25.752H217.61v-1.24a5.81,5.81,0,0,1-4.3,1.52c-5.339,0-5.339-2.976-5.339-4.1V29.023h1.658v5.912c0,1.427.449,2.745,3.7,2.745,3.159,0,4.279-1.622,4.279-3.011V29.023h1.663Zm20.746,0h-1.654V32.558c0-1.567-1.133-2.429-3.194-2.429-2.4,0-3.724.969-3.724,2.728v5.932h-1.661V32.4c0-1.527-1.046-2.27-3.191-2.27-2.3,0-3.723,1.114-3.723,2.9v5.755H221.21V29.023h1.661v1.048a5.836,5.836,0,0,1,3.889-1.333c2.1,0,3.489.584,4.22,1.774a5.006,5.006,0,0,1,4.169-1.774c4.029,0,4.869,1.934,4.869,3.555Zm.089-25.752v6.432h-7.474V9.287c0-1.957,1.457-3.311,4.234-3.311,2.029,0,3.241,1,3.241,2.85Z" transform="translate(0 0)" fill-rule="evenodd"/>
          <path id="Fill-52" d="M59.365,44.52c-2.13,0-4.619.918-4.619,3.5,0,2.361,1.68,3.661,4.728,3.661,2.929,0,4.68-1.375,4.68-3.681,0-2.175-1.79-3.477-4.789-3.477" transform="translate(-17.745 -14.43)" fill-rule="evenodd"/>
          <path id="Fill-53" d="M294.2,44.812c-2.386,0-4.027,1.052-4.567,2.9h9.151c-.483-1.852-2.128-2.9-4.584-2.9" transform="translate(-93.882 -14.525)" fill-rule="evenodd"/>
          <path id="Fill-54" d="M152.636,44.578c-2.383,0-4.023,1.054-4.569,2.9h9.155c-.482-1.851-2.129-2.9-4.586-2.9" transform="translate(-47.994 -14.449)" fill-rule="evenodd"/>
        </g>
      </g>
    </g>
    <g id="Group_861" data-name="Group 861" transform="translate(124.639 1092.6) rotate(-180)">
      <circle id="Ellipse_136-2" data-name="Ellipse 136" cx="6.357" cy="6.357" r="6.357" transform="translate(0 0)" fill="#e234a6"/>
      <circle id="Ellipse_174-2" data-name="Ellipse 174" cx="6.357" cy="6.357" r="6.357" transform="translate(0 50.855)" fill="#e234a6"/>
      <circle id="Ellipse_159-2" data-name="Ellipse 159" cx="6.357" cy="6.357" r="6.357" transform="translate(0 25.427)" fill="#e234a6"/>
      <circle id="Ellipse_175-2" data-name="Ellipse 175" cx="6.357" cy="6.357" r="6.357" transform="translate(0 76.282)" fill="#e234a6"/>
      <circle id="Ellipse_148-2" data-name="Ellipse 148" cx="6.357" cy="6.357" r="6.357" transform="translate(101.71 0)" fill="#e234a6"/>
      <circle id="Ellipse_163-2" data-name="Ellipse 163" cx="6.357" cy="6.357" r="6.357" transform="translate(101.71 50.855)" fill="#e234a6"/>
      <circle id="Ellipse_183-2" data-name="Ellipse 183" cx="6.357" cy="6.357" r="6.357" transform="translate(101.71 101.71)" fill="#e234a6"/>
      <circle id="Ellipse_196-2" data-name="Ellipse 196" cx="6.357" cy="6.357" r="6.357" transform="translate(101.71 152.565)" fill="#e234a6"/>
      <circle id="Ellipse_155-2" data-name="Ellipse 155" cx="6.357" cy="6.357" r="6.357" transform="translate(101.71 25.427)" fill="#e234a6"/>
      <circle id="Ellipse_164-2" data-name="Ellipse 164" cx="6.357" cy="6.357" r="6.357" transform="translate(101.71 76.282)" fill="#e234a6"/>
      <circle id="Ellipse_176-2" data-name="Ellipse 176" cx="6.357" cy="6.357" r="6.357" transform="translate(101.71 127.138)" fill="#e234a6"/>
      <circle id="Ellipse_200-2" data-name="Ellipse 200" cx="6.357" cy="6.357" r="6.357" transform="translate(101.71 177.992)" fill="#e234a6"/>
      <circle id="Ellipse_234-2" data-name="Ellipse 234" cx="6.357" cy="6.357" r="6.357" transform="translate(76.283 177.992)" fill="#e234a6"/>
      <circle id="Ellipse_147-2" data-name="Ellipse 147" cx="6.357" cy="6.357" r="6.357" transform="translate(50.855 0)" fill="#e234a6"/>
      <circle id="Ellipse_170-2" data-name="Ellipse 170" cx="6.357" cy="6.357" r="6.357" transform="translate(50.855 50.855)" fill="#e234a6"/>
      <circle id="Ellipse_184-2" data-name="Ellipse 184" cx="6.357" cy="6.357" r="6.357" transform="translate(50.855 101.71)" fill="#e234a6"/>
      <circle id="Ellipse_194-2" data-name="Ellipse 194" cx="6.357" cy="6.357" r="6.357" transform="translate(50.855 152.565)" fill="#e234a6"/>
      <circle id="Ellipse_245-2" data-name="Ellipse 245" cx="6.357" cy="6.357" r="6.357" transform="translate(25.427 152.565)" fill="#e234a6"/>
      <circle id="Ellipse_237-2" data-name="Ellipse 237" cx="6.357" cy="6.357" r="6.357" transform="translate(50.855 177.992)" fill="#e234a6"/>
      <circle id="Ellipse_157-2" data-name="Ellipse 157" cx="6.357" cy="6.357" r="6.357" transform="translate(50.855 25.427)" fill="#e234a6"/>
      <circle id="Ellipse_171-2" data-name="Ellipse 171" cx="6.357" cy="6.357" r="6.357" transform="translate(50.855 76.282)" fill="#e234a6"/>
      <circle id="Ellipse_181-2" data-name="Ellipse 181" cx="6.357" cy="6.357" r="6.357" transform="translate(50.855 127.138)" fill="#e234a6"/>
      <circle id="Ellipse_202-2" data-name="Ellipse 202" cx="6.357" cy="6.357" r="6.357" transform="translate(152.565 177.992)" fill="#e234a6"/>
      <circle id="Ellipse_223-2" data-name="Ellipse 223" cx="6.357" cy="6.357" r="6.357" transform="translate(152.565 203.42)" fill="#e234a6"/>
      <circle id="Ellipse_227-2" data-name="Ellipse 227" cx="6.357" cy="6.357" r="6.357" transform="translate(152.565 228.847)" fill="#e234a6"/>
      <circle id="Ellipse_236-2" data-name="Ellipse 236" cx="6.357" cy="6.357" r="6.357" transform="translate(127.137 228.847)" fill="#e234a6"/>
      <circle id="Ellipse_145-2" data-name="Ellipse 145" cx="6.357" cy="6.357" r="6.357" transform="translate(25.427 0)" fill="#e234a6"/>
      <circle id="Ellipse_172-2" data-name="Ellipse 172" cx="6.357" cy="6.357" r="6.357" transform="translate(25.427 50.855)" fill="#e234a6"/>
      <circle id="Ellipse_186-2" data-name="Ellipse 186" cx="6.357" cy="6.357" r="6.357" transform="translate(25.427 101.71)" fill="#e234a6"/>
      <circle id="Ellipse_246-2" data-name="Ellipse 246" cx="6.357" cy="6.357" r="6.357" transform="translate(0 101.71)" fill="#e234a6"/>
      <circle id="Ellipse_158-2" data-name="Ellipse 158" cx="6.357" cy="6.357" r="6.357" transform="translate(25.427 25.427)" fill="#e234a6"/>
      <circle id="Ellipse_173-2" data-name="Ellipse 173" cx="6.357" cy="6.357" r="6.357" transform="translate(25.427 76.282)" fill="#e234a6"/>
      <circle id="Ellipse_182-2" data-name="Ellipse 182" cx="6.357" cy="6.357" r="6.357" transform="translate(25.427 127.138)" fill="#e234a6"/>
      <circle id="Ellipse_150-2" data-name="Ellipse 150" cx="6.357" cy="6.357" r="6.357" transform="translate(127.137 0)" fill="#e234a6"/>
      <circle id="Ellipse_166-2" data-name="Ellipse 166" cx="6.357" cy="6.357" r="6.357" transform="translate(127.137 50.855)" fill="#e234a6"/>
      <circle id="Ellipse_187-2" data-name="Ellipse 187" cx="6.357" cy="6.357" r="6.357" transform="translate(127.137 101.71)" fill="#e234a6"/>
      <circle id="Ellipse_197-2" data-name="Ellipse 197" cx="6.357" cy="6.357" r="6.357" transform="translate(127.137 152.565)" fill="#e234a6"/>
      <circle id="Ellipse_153-2" data-name="Ellipse 153" cx="6.357" cy="6.357" r="6.357" transform="translate(127.137 25.427)" fill="#e234a6"/>
      <circle id="Ellipse_162-2" data-name="Ellipse 162" cx="6.357" cy="6.357" r="6.357" transform="translate(127.137 76.282)" fill="#e234a6"/>
      <circle id="Ellipse_178-2" data-name="Ellipse 178" cx="6.357" cy="6.357" r="6.357" transform="translate(127.137 127.138)" fill="#e234a6"/>
      <circle id="Ellipse_204-2" data-name="Ellipse 204" cx="6.357" cy="6.357" r="6.357" transform="translate(127.137 177.992)" fill="#e234a6"/>
      <circle id="Ellipse_224-2" data-name="Ellipse 224" cx="6.357" cy="6.357" r="6.357" transform="translate(127.137 203.42)" fill="#e234a6"/>
      <circle id="Ellipse_235-2" data-name="Ellipse 235" cx="6.357" cy="6.357" r="6.357" transform="translate(101.71 203.42)" fill="#e234a6"/>
      <circle id="Ellipse_238-2" data-name="Ellipse 238" cx="6.357" cy="6.357" r="6.357" transform="translate(76.283 203.42)" fill="#e234a6"/>
      <circle id="Ellipse_146-2" data-name="Ellipse 146" cx="6.357" cy="6.357" r="6.357" transform="translate(76.283 0)" fill="#e234a6"/>
      <circle id="Ellipse_167-2" data-name="Ellipse 167" cx="6.357" cy="6.357" r="6.357" transform="translate(76.283 50.855)" fill="#e234a6"/>
      <circle id="Ellipse_188-2" data-name="Ellipse 188" cx="6.357" cy="6.357" r="6.357" transform="translate(76.283 101.71)" fill="#e234a6"/>
      <circle id="Ellipse_195-2" data-name="Ellipse 195" cx="6.357" cy="6.357" r="6.357" transform="translate(76.283 152.565)" fill="#e234a6"/>
      <circle id="Ellipse_156-2" data-name="Ellipse 156" cx="6.357" cy="6.357" r="6.357" transform="translate(76.283 25.427)" fill="#e234a6"/>
      <circle id="Ellipse_168-2" data-name="Ellipse 168" cx="6.357" cy="6.357" r="6.357" transform="translate(76.283 76.282)" fill="#e234a6"/>
      <circle id="Ellipse_180-2" data-name="Ellipse 180" cx="6.357" cy="6.357" r="6.357" transform="translate(76.283 127.138)" fill="#e234a6"/>
    </g>
    <g id="Group_862" data-name="Group 862" transform="translate(-9.002 -4.001)">
      <g id="Rectangle_6328" data-name="Rectangle 6328" transform="translate(41.001 43.001)" fill="#fff" stroke="#3d9cd7" stroke-width="6" stroke-dasharray="12">
        <rect width="1002" height="1002" rx="7" stroke="none"/>
        <rect x="3" y="3" width="996" height="996" rx="4" fill="none"/>
      </g>
    </g>
    <g id="Group_954" data-name="Group 954" transform="translate(4997 -641.993) rotate(-90)">
      <circle id="Ellipse_136-3" data-name="Ellipse 136" cx="3.903" cy="3.903" r="3.903" transform="translate(-745 -3915)" fill="#e0873d"/>
      <circle id="Ellipse_174-3" data-name="Ellipse 174" cx="3.903" cy="3.903" r="3.903" transform="translate(-745 -3885.338)" fill="#e0873d"/>
      <circle id="Ellipse_159-3" data-name="Ellipse 159" cx="3.903" cy="3.903" r="3.903" transform="translate(-745 -3899.389)" fill="#e0873d"/>
      <circle id="Ellipse_175-3" data-name="Ellipse 175" cx="3.903" cy="3.903" r="3.903" transform="translate(-745 -3869.727)" fill="#e0873d"/>
      <circle id="Ellipse_148-3" data-name="Ellipse 148" cx="3.903" cy="3.903" r="3.903" transform="translate(-684.115 -3915)" fill="#e0873d"/>
      <circle id="Ellipse_163-3" data-name="Ellipse 163" cx="3.903" cy="3.903" r="3.903" transform="translate(-684.115 -3885.338)" fill="#e0873d"/>
      <circle id="Ellipse_183-3" data-name="Ellipse 183" cx="3.903" cy="3.903" r="3.903" transform="translate(-684.115 -3854.115)" fill="#e0873d"/>
      <circle id="Ellipse_196-3" data-name="Ellipse 196" cx="3.903" cy="3.903" r="3.903" transform="translate(-684.115 -3824.454)" fill="#e0873d"/>
      <circle id="Ellipse_155-3" data-name="Ellipse 155" cx="3.903" cy="3.903" r="3.903" transform="translate(-684.115 -3899.389)" fill="#e0873d"/>
      <circle id="Ellipse_164-3" data-name="Ellipse 164" cx="3.903" cy="3.903" r="3.903" transform="translate(-684.115 -3869.727)" fill="#e0873d"/>
      <circle id="Ellipse_176-3" data-name="Ellipse 176" cx="3.903" cy="3.903" r="3.903" transform="translate(-684.115 -3840.065)" fill="#e0873d"/>
      <circle id="Ellipse_200-3" data-name="Ellipse 200" cx="3.903" cy="3.903" r="3.903" transform="translate(-684.115 -3808.842)" fill="#e0873d"/>
      <circle id="Ellipse_234-3" data-name="Ellipse 234" cx="3.903" cy="3.903" r="3.903" transform="translate(-699.727 -3808.842)" fill="#e0873d"/>
      <circle id="Ellipse_147-3" data-name="Ellipse 147" cx="3.903" cy="3.903" r="3.903" transform="translate(-715.338 -3915)" fill="#e0873d"/>
      <circle id="Ellipse_170-3" data-name="Ellipse 170" cx="3.903" cy="3.903" r="3.903" transform="translate(-715.338 -3885.338)" fill="#e0873d"/>
      <circle id="Ellipse_184-3" data-name="Ellipse 184" cx="3.903" cy="3.903" r="3.903" transform="translate(-715.338 -3854.115)" fill="#e0873d"/>
      <circle id="Ellipse_194-3" data-name="Ellipse 194" cx="3.903" cy="3.903" r="3.903" transform="translate(-715.338 -3824.454)" fill="#e0873d"/>
      <circle id="Ellipse_245-3" data-name="Ellipse 245" cx="3.903" cy="3.903" r="3.903" transform="translate(-729.389 -3824.454)" fill="#e0873d"/>
      <circle id="Ellipse_237-3" data-name="Ellipse 237" cx="3.903" cy="3.903" r="3.903" transform="translate(-715.338 -3808.842)" fill="#e0873d"/>
      <circle id="Ellipse_157-3" data-name="Ellipse 157" cx="3.903" cy="3.903" r="3.903" transform="translate(-715.338 -3899.389)" fill="#e0873d"/>
      <circle id="Ellipse_171-3" data-name="Ellipse 171" cx="3.903" cy="3.903" r="3.903" transform="translate(-715.338 -3869.727)" fill="#e0873d"/>
      <circle id="Ellipse_181-3" data-name="Ellipse 181" cx="3.903" cy="3.903" r="3.903" transform="translate(-715.338 -3840.065)" fill="#e0873d"/>
      <circle id="Ellipse_149" data-name="Ellipse 149" cx="3.903" cy="3.903" r="3.903" transform="translate(-654.454 -3915)" fill="#e0873d"/>
      <circle id="Ellipse_165" data-name="Ellipse 165" cx="3.903" cy="3.903" r="3.903" transform="translate(-654.454 -3885.338)" fill="#e0873d"/>
      <circle id="Ellipse_185" data-name="Ellipse 185" cx="3.903" cy="3.903" r="3.903" transform="translate(-654.454 -3854.115)" fill="#e0873d"/>
      <circle id="Ellipse_198" data-name="Ellipse 198" cx="3.903" cy="3.903" r="3.903" transform="translate(-654.454 -3824.454)" fill="#e0873d"/>
      <circle id="Ellipse_152" data-name="Ellipse 152" cx="3.903" cy="3.903" r="3.903" transform="translate(-654.454 -3899.389)" fill="#e0873d"/>
      <circle id="Ellipse_161" data-name="Ellipse 161" cx="3.903" cy="3.903" r="3.903" transform="translate(-654.454 -3869.727)" fill="#e0873d"/>
      <circle id="Ellipse_177" data-name="Ellipse 177" cx="3.903" cy="3.903" r="3.903" transform="translate(-654.454 -3840.065)" fill="#e0873d"/>
      <circle id="Ellipse_202-3" data-name="Ellipse 202" cx="3.903" cy="3.903" r="3.903" transform="translate(-654.454 -3808.842)" fill="#e0873d"/>
      <circle id="Ellipse_223-3" data-name="Ellipse 223" cx="3.903" cy="3.903" r="3.903" transform="translate(-654.454 -3794.792)" fill="#e0873d"/>
      <circle id="Ellipse_227-3" data-name="Ellipse 227" cx="3.903" cy="3.903" r="3.903" transform="translate(-654.454 -3779.181)" fill="#e0873d"/>
      <circle id="Ellipse_236-3" data-name="Ellipse 236" cx="3.903" cy="3.903" r="3.903" transform="translate(-670.065 -3779.181)" fill="#e0873d"/>
      <circle id="Ellipse_145-3" data-name="Ellipse 145" cx="3.903" cy="3.903" r="3.903" transform="translate(-729.389 -3915)" fill="#e0873d"/>
      <circle id="Ellipse_172-3" data-name="Ellipse 172" cx="3.903" cy="3.903" r="3.903" transform="translate(-729.389 -3885.338)" fill="#e0873d"/>
      <circle id="Ellipse_186-3" data-name="Ellipse 186" cx="3.903" cy="3.903" r="3.903" transform="translate(-729.389 -3854.115)" fill="#e0873d"/>
      <circle id="Ellipse_246-3" data-name="Ellipse 246" cx="3.903" cy="3.903" r="3.903" transform="translate(-745 -3854.115)" fill="#e0873d"/>
      <circle id="Ellipse_158-3" data-name="Ellipse 158" cx="3.903" cy="3.903" r="3.903" transform="translate(-729.389 -3899.389)" fill="#e0873d"/>
      <circle id="Ellipse_173-3" data-name="Ellipse 173" cx="3.903" cy="3.903" r="3.903" transform="translate(-729.389 -3869.727)" fill="#e0873d"/>
      <circle id="Ellipse_182-3" data-name="Ellipse 182" cx="3.903" cy="3.903" r="3.903" transform="translate(-729.389 -3840.065)" fill="#e0873d"/>
      <circle id="Ellipse_150-3" data-name="Ellipse 150" cx="3.903" cy="3.903" r="3.903" transform="translate(-670.065 -3915)" fill="#e0873d"/>
      <circle id="Ellipse_166-3" data-name="Ellipse 166" cx="3.903" cy="3.903" r="3.903" transform="translate(-670.065 -3885.338)" fill="#e0873d"/>
      <circle id="Ellipse_187-3" data-name="Ellipse 187" cx="3.903" cy="3.903" r="3.903" transform="translate(-670.065 -3854.115)" fill="#e0873d"/>
      <circle id="Ellipse_197-3" data-name="Ellipse 197" cx="3.903" cy="3.903" r="3.903" transform="translate(-670.065 -3824.454)" fill="#e0873d"/>
      <circle id="Ellipse_153-3" data-name="Ellipse 153" cx="3.903" cy="3.903" r="3.903" transform="translate(-670.065 -3899.389)" fill="#e0873d"/>
      <circle id="Ellipse_162-3" data-name="Ellipse 162" cx="3.903" cy="3.903" r="3.903" transform="translate(-670.065 -3869.727)" fill="#e0873d"/>
      <circle id="Ellipse_178-3" data-name="Ellipse 178" cx="3.903" cy="3.903" r="3.903" transform="translate(-670.065 -3840.065)" fill="#e0873d"/>
      <circle id="Ellipse_204-3" data-name="Ellipse 204" cx="3.903" cy="3.903" r="3.903" transform="translate(-670.065 -3808.842)" fill="#e0873d"/>
      <circle id="Ellipse_224-3" data-name="Ellipse 224" cx="3.903" cy="3.903" r="3.903" transform="translate(-670.065 -3794.792)" fill="#e0873d"/>
      <circle id="Ellipse_235-3" data-name="Ellipse 235" cx="3.903" cy="3.903" r="3.903" transform="translate(-684.115 -3794.792)" fill="#e0873d"/>
      <circle id="Ellipse_238-3" data-name="Ellipse 238" cx="3.903" cy="3.903" r="3.903" transform="translate(-699.727 -3794.792)" fill="#e0873d"/>
      <circle id="Ellipse_146-3" data-name="Ellipse 146" cx="3.903" cy="3.903" r="3.903" transform="translate(-699.727 -3915)" fill="#e0873d"/>
      <circle id="Ellipse_167-3" data-name="Ellipse 167" cx="3.903" cy="3.903" r="3.903" transform="translate(-699.727 -3885.338)" fill="#e0873d"/>
      <circle id="Ellipse_188-3" data-name="Ellipse 188" cx="3.903" cy="3.903" r="3.903" transform="translate(-699.727 -3854.115)" fill="#e0873d"/>
      <circle id="Ellipse_195-3" data-name="Ellipse 195" cx="3.903" cy="3.903" r="3.903" transform="translate(-699.727 -3824.454)" fill="#e0873d"/>
      <circle id="Ellipse_156-3" data-name="Ellipse 156" cx="3.903" cy="3.903" r="3.903" transform="translate(-699.727 -3899.389)" fill="#e0873d"/>
      <circle id="Ellipse_168-3" data-name="Ellipse 168" cx="3.903" cy="3.903" r="3.903" transform="translate(-699.727 -3869.727)" fill="#e0873d"/>
      <circle id="Ellipse_180-3" data-name="Ellipse 180" cx="3.903" cy="3.903" r="3.903" transform="translate(-699.727 -3840.065)" fill="#e0873d"/>
      <circle id="Ellipse_151" data-name="Ellipse 151" cx="3.903" cy="3.903" r="3.903" transform="translate(-638.842 -3915)" fill="#e0873d"/>
      <circle id="Ellipse_222" data-name="Ellipse 222" cx="3.903" cy="3.903" r="3.903" transform="translate(-624.792 -3915)" fill="#e0873d"/>
      <circle id="Ellipse_169" data-name="Ellipse 169" cx="3.903" cy="3.903" r="3.903" transform="translate(-638.842 -3885.338)" fill="#e0873d"/>
      <circle id="Ellipse_220" data-name="Ellipse 220" cx="3.903" cy="3.903" r="3.903" transform="translate(-624.792 -3885.338)" fill="#e0873d"/>
      <circle id="Ellipse_189" data-name="Ellipse 189" cx="3.903" cy="3.903" r="3.903" transform="translate(-638.842 -3854.115)" fill="#e0873d"/>
      <circle id="Ellipse_218" data-name="Ellipse 218" cx="3.903" cy="3.903" r="3.903" transform="translate(-624.792 -3854.115)" fill="#e0873d"/>
      <circle id="Ellipse_206" data-name="Ellipse 206" cx="3.903" cy="3.903" r="3.903" transform="translate(-638.842 -3824.454)" fill="#e0873d"/>
      <circle id="Ellipse_216" data-name="Ellipse 216" cx="3.903" cy="3.903" r="3.903" transform="translate(-624.792 -3824.454)" fill="#e0873d"/>
      <circle id="Ellipse_154" data-name="Ellipse 154" cx="3.903" cy="3.903" r="3.903" transform="translate(-638.842 -3899.389)" fill="#e0873d"/>
      <circle id="Ellipse_221" data-name="Ellipse 221" cx="3.903" cy="3.903" r="3.903" transform="translate(-624.792 -3899.389)" fill="#e0873d"/>
      <circle id="Ellipse_160" data-name="Ellipse 160" cx="3.903" cy="3.903" r="3.903" transform="translate(-638.842 -3869.727)" fill="#e0873d"/>
      <circle id="Ellipse_219" data-name="Ellipse 219" cx="3.903" cy="3.903" r="3.903" transform="translate(-624.792 -3869.727)" fill="#e0873d"/>
      <circle id="Ellipse_179" data-name="Ellipse 179" cx="3.903" cy="3.903" r="3.903" transform="translate(-638.842 -3840.065)" fill="#e0873d"/>
      <circle id="Ellipse_217" data-name="Ellipse 217" cx="3.903" cy="3.903" r="3.903" transform="translate(-624.792 -3840.065)" fill="#e0873d"/>
      <circle id="Ellipse_207" data-name="Ellipse 207" cx="3.903" cy="3.903" r="3.903" transform="translate(-638.842 -3808.842)" fill="#e0873d"/>
      <circle id="Ellipse_225" data-name="Ellipse 225" cx="3.903" cy="3.903" r="3.903" transform="translate(-638.842 -3794.792)" fill="#e0873d"/>
      <circle id="Ellipse_229" data-name="Ellipse 229" cx="3.903" cy="3.903" r="3.903" transform="translate(-638.842 -3779.181)" fill="#e0873d"/>
      <circle id="Ellipse_215" data-name="Ellipse 215" cx="3.903" cy="3.903" r="3.903" transform="translate(-624.792 -3808.842)" fill="#e0873d"/>
      <circle id="Ellipse_226" data-name="Ellipse 226" cx="3.903" cy="3.903" r="3.903" transform="translate(-624.792 -3794.792)" fill="#e0873d"/>
      <circle id="Ellipse_230" data-name="Ellipse 230" cx="3.903" cy="3.903" r="3.903" transform="translate(-624.792 -3779.181)" fill="#e0873d"/>
    </g>
  </g>
</svg>
