<svg xmlns="http://www.w3.org/2000/svg" xmlns:xlink="http://www.w3.org/1999/xlink" width="100" height="90" viewBox="0 0 277.07 187.46">
  <defs>
    <clipPath id="clip-path">
      <ellipse id="Ellipse_117" data-name="Ellipse 117" cx="25.018" cy="25.018" rx="25.018" ry="25.018" transform="translate(0 0)" fill="#463383" stroke="#707070" stroke-width="1"/>
    </clipPath>
    <clipPath id="clip-path-2">
      <ellipse id="Ellipse_118" data-name="Ellipse 118" cx="16.679" cy="16.679" rx="16.679" ry="16.679" transform="translate(0 0)" fill="#f8ec4f" stroke="#707070" stroke-width="1"/>
    </clipPath>
  </defs>
  <g id="Group_956" data-name="Group 956" transform="translate(0 0)">
    <g id="Group_707" data-name="Group 707" transform="translate(0 0)">
      <g id="Group_706" data-name="Group 706" transform="translate(0 25.508)">
        <g id="Group_703" data-name="Group 703" transform="translate(0 0)">
          <path id="Path_450" data-name="Path 450" d="M57.259,0A57.259,57.259,0,1,1,0,57.259,57.258,57.258,0,0,1,57.259,0Z" transform="translate(15.065 80.976) rotate(-45)" fill="#e0873d"/>
          <ellipse id="Ellipse_110" data-name="Ellipse 110" cx="43.981" cy="43.981" rx="43.981" ry="43.981" transform="translate(160.93 128.962) rotate(-80.783)" fill="#e0873d"/>
          <path id="Path_443" data-name="Path 443" d="M106.126,44.686l-.12,0v87.956l.12,0a43.981,43.981,0,0,0,0-87.962Z" transform="translate(105.264 3.926)" fill="#e0873d"/>
          <path id="Path_444" data-name="Path 444" d="M73.485,37.4c-.564,0-1.125.024-1.685.041V151.875c.561.017,1.121.044,1.685.044a57.258,57.258,0,1,0,0-114.517Z" transform="translate(22.554 -13.684)" fill="#e0873d"/>
          <circle id="Ellipse_111" data-name="Ellipse 111" cx="46.34" cy="46.34" r="46.34" transform="translate(28.987 83.767) rotate(-45)" fill="#fff"/>
          <circle id="Ellipse_112" data-name="Ellipse 112" cx="38.639" cy="38.639" r="38.639" transform="translate(39.878 83.767) rotate(-45)" fill="#77c1f0"/>
          <path id="Path_445" data-name="Path 445" d="M113.763,72.337A24.548,24.548,0,1,1,89.215,47.789,24.546,24.546,0,0,1,113.763,72.337Z" transform="translate(5.306 11.429)" fill="#f8ec4f"/>
          <ellipse id="Ellipse_114" data-name="Ellipse 114" cx="34.461" cy="34.461" rx="34.461" ry="34.461" transform="matrix(0.23, -0.973, 0.973, 0.23, 168.628, 117.874)" fill="#fff"/>
          <ellipse id="Ellipse_115" data-name="Ellipse 115" cx="28.734" cy="28.734" rx="28.734" ry="28.734" transform="translate(175.518 113.616) rotate(-76.718)" fill="#77c1f0"/>
          <path id="Path_447" data-name="Path 447" d="M136.829,70.369a18.255,18.255,0,1,1-18.256-18.256A18.254,18.254,0,0,1,136.829,70.369Z" transform="translate(91.51 21.885)" fill="#463383"/>
          <ellipse id="Ellipse_116" data-name="Ellipse 116" cx="13.873" cy="13.873" rx="13.873" ry="13.873" transform="translate(206.691 62.174)" fill="#fff"/>
          <path id="Path_448" data-name="Path 448" d="M80.922,64.812s.779-.68,2.252-1.726a60.865,60.865,0,0,1,6.381-3.934,66.964,66.964,0,0,1,9.772-4.231,54.6,54.6,0,0,1,5.838-1.562,52.072,52.072,0,0,1,6.2-.892,42.886,42.886,0,0,1,6.289.048,34.235,34.235,0,0,1,6.012,1.008,32.232,32.232,0,0,1,5.37,1.907,36.123,36.123,0,0,1,4.443,2.458A29.483,29.483,0,0,1,136.9,60.44c.919.875,1.757,1.589,2.376,2.252,1.2,1.347,1.89,2.119,1.89,2.119l-2.191-1.788c-.687-.571-1.6-1.169-2.6-1.9-1.063-.639-2.215-1.425-3.562-2.119a34.148,34.148,0,0,0-4.426-2.017A43.417,43.417,0,0,0,123.2,55.5a39.322,39.322,0,0,0-5.708-.762,41.285,41.285,0,0,0-5.958.031,60.05,60.05,0,0,0-11.611,2.092,81.838,81.838,0,0,0-9.806,3.456c-2.8,1.234-5.13,2.3-6.706,3.151C81.818,64.3,80.922,64.812,80.922,64.812Z" transform="translate(44.611 22.516)" fill="#5bbf7f"/>
          <path id="Path_449" data-name="Path 449" d="M189.254,103.911s-.232,1.2-.667,3.435q-.164.841-.362,1.87c-.191.68-.4,1.418-.619,2.222a52.307,52.307,0,0,1-1.685,5.459,62.516,62.516,0,0,1-6.785,13.918,51.9,51.9,0,0,1-14.12,14.622,40,40,0,0,1-5.011,2.943,54.783,54.783,0,0,1-5.616,2.29,37.266,37.266,0,0,1-6.139,1.395c-1.063.126-2.123.342-3.206.39-1.084.017-2.177.038-3.278.055a21.585,21.585,0,0,1-3.305-.25,26.752,26.752,0,0,1-3.4-.489l-3.134-.8a32.582,32.582,0,0,1-3.257-1.166,41.425,41.425,0,0,1-6.238-3.069,44.39,44.39,0,0,1-5.6-4.2,46.851,46.851,0,0,1-4.96-5.024,60.557,60.557,0,0,1-4.149-5.787,67.749,67.749,0,0,1-3.469-6.282,70.493,70.493,0,0,1-2.6-6.747,61.585,61.585,0,0,1-2.922-14.3,67.665,67.665,0,0,1,.205-14.779l.615-3.65.3-1.8.461-1.822.947-3.654,1.234-3.524a28.565,28.565,0,0,1,1.436-3.442c.537-1.121,1.012-2.276,1.6-3.367a62.929,62.929,0,0,1,3.89-6.347,49.472,49.472,0,0,1,10-10.828,53.139,53.139,0,0,1,5.951-4.255,47.811,47.811,0,0,1,6.508-3.2,37.131,37.131,0,0,1,13.853-2.957,31.934,31.934,0,0,1,3.48,0c1.148.109,2.293.222,3.428.332l.424.048.215.021.1.014.25.048.779.178,1.552.359a21.921,21.921,0,0,1,3.131.851q1.615.584,3.206,1.155c1.042.407,1.969.947,2.943,1.412a38.8,38.8,0,0,1,5.4,3.305,43.017,43.017,0,0,1,8.456,8.357,52.441,52.441,0,0,1,8.873,18.327,62.243,62.243,0,0,1,2.146,15.343,51.667,51.667,0,0,1-.092,5.708q-.056,1.241-.1,2.3c-.089.7-.167,1.333-.239,1.9Zm-.455-.082s.126-1.2.366-3.456c.058-.564.123-1.193.2-1.887.017-.7.034-1.459.055-2.28a39.711,39.711,0,0,0-.167-5.64,52.5,52.5,0,0,0-3.264-14.756,51.085,51.085,0,0,0-9.875-16.471,46.029,46.029,0,0,0-8.077-7.157,44.551,44.551,0,0,0-4.9-2.8c-.861-.386-1.719-.875-2.6-1.2-.882-.3-1.771-.6-2.666-.909a36.683,36.683,0,0,0-11.97-1.572,37.735,37.735,0,0,0-6.176.68,45.073,45.073,0,0,0-6.1,1.8,43,43,0,0,0-5.913,2.724,48.819,48.819,0,0,0-5.5,3.739,52.653,52.653,0,0,0-5.062,4.495,63.528,63.528,0,0,0-4.426,5.253,58.334,58.334,0,0,0-3.886,5.773c-.6,1-1.084,2.068-1.634,3.1a25.51,25.51,0,0,0-1.49,3.189l-1.384,3.261-1.094,3.333-.55,1.678-.417,1.774-.827,3.5c-1.634,9.358-1.5,19.264,1.559,28.246a45.276,45.276,0,0,0,6.115,12.558,43.473,43.473,0,0,0,4.269,5.356,44.5,44.5,0,0,0,5.031,4.44,43.322,43.322,0,0,0,5.486,3.562,38.685,38.685,0,0,0,5.848,2.41,27.106,27.106,0,0,0,2.963.854l3.179.6a24.565,24.565,0,0,0,2.936.3,18.166,18.166,0,0,0,2.98.116,41.2,41.2,0,0,0,11.361-1.7,47.346,47.346,0,0,0,9.888-4.416,51.711,51.711,0,0,0,14.455-12.691,52.431,52.431,0,0,0,7.653-13.04,39.234,39.234,0,0,0,1.89-5.312l.643-2.184q.215-1.025.39-1.866Z" transform="translate(86.893 -5.67)" fill="#5bbf7f"/>
          <ellipse id="Ellipse_113" data-name="Ellipse 113" cx="18.655" cy="18.655" rx="18.655" ry="18.655" transform="translate(89.957 43.321)" fill="#fff"/>
          <path id="Path_446" data-name="Path 446" d="M169.574,106.665s-.065,1.624-.185,4.659q-.046,1.138-.1,2.54c-.12.93-.249,1.948-.393,3.045s-.277,2.28-.434,3.541c-.191,1.254-.513,2.564-.79,3.961a93.342,93.342,0,0,1-2.4,9.143,76.829,76.829,0,0,1-4.327,10.309A68.257,68.257,0,0,1,144.407,165.1a56.435,56.435,0,0,1-29.268,13.012,32.553,32.553,0,0,1-4.337.325,37.225,37.225,0,0,1-4.481.075,54.926,54.926,0,0,1-8.757-1.094,60.91,60.91,0,0,1-8.818-2.437c-1.422-.567-2.816-1.227-4.228-1.842a29.194,29.194,0,0,1-4.115-2.136,44.369,44.369,0,0,1-3.982-2.427q-1.892-1.369-3.8-2.755c-1.244-.954-2.362-2.068-3.568-3.08-.588-.523-1.2-1.022-1.771-1.569l-1.63-1.723c-1.06-1.176-2.239-2.253-3.2-3.521l-2.974-3.739c-.984-1.258-1.784-2.656-2.687-3.982L55.468,146.2l-1.162-2.112a73.231,73.231,0,0,1-7.26-18l-1.186-4.761c-.321-1.6-.523-3.23-.793-4.85l-.379-2.434-.171-2.458-.321-4.929.1-4.915.062-2.434.27-2.478c.2-1.651.332-3.322.588-4.96l.984-4.854A74.415,74.415,0,0,1,53.15,68.595,66.746,66.746,0,0,1,64.662,52.882l1.675-1.75c.584-.55,1.213-1.06,1.818-1.589,1.234-1.032,2.4-2.14,3.685-3.093l3.92-2.745a45.287,45.287,0,0,1,4.1-2.406,30.221,30.221,0,0,1,4.225-2.105c1.449-.6,2.878-1.248,4.337-1.784a61.768,61.768,0,0,1,8.962-2.259,55.213,55.213,0,0,1,9-.909c.431-.01.608-.051,1.251-.038l1.063.068,2.119.137a31.436,31.436,0,0,1,4.259.407,57.349,57.349,0,0,1,29.395,13.313,68.893,68.893,0,0,1,16.505,21.308A77.5,77.5,0,0,1,165.3,79.751a93.252,93.252,0,0,1,2.4,9.147c.273,1.4.595,2.714.786,3.965.154,1.261.294,2.44.427,3.538s.27,2.112.386,3.042c.038.937.072,1.788.1,2.546C169.512,105.034,169.574,106.665,169.574,106.665Zm-.461-.01s-.085-1.61-.243-4.635q-.061-1.133-.137-2.526-.195-1.384-.427-3.015t-.523-3.493c-.239-1.23-.608-2.519-.933-3.89a66.52,66.52,0,0,0-7.7-18.655,67.468,67.468,0,0,0-17.107-19.278,58.018,58.018,0,0,0-27.385-11.549,54.45,54.45,0,0,0-16.413.4,56.947,56.947,0,0,0-8.21,2.044c-1.333.5-2.649,1.08-3.992,1.6a26.024,26.024,0,0,0-3.92,1.866,39.787,39.787,0,0,0-3.828,2.15l-3.678,2.475c-1.21.861-2.311,1.88-3.476,2.816-.574.482-1.169.943-1.726,1.446L67.82,56.02A64.534,64.534,0,0,0,56.712,70.567a70.573,70.573,0,0,0-7.154,17.3l-1.166,4.6c-.314,1.542-.513,3.1-.779,4.648l-.379,2.335-.178,2.42-.332,4.792.113,4.785.068,2.4.27,2.379c.195,1.583.325,3.182.574,4.758l.967,4.689a71.645,71.645,0,0,0,6.839,17.726,60.687,60.687,0,0,0,11.269,14.9l1.637,1.63c.574.513,1.186.981,1.774,1.47,1.2.957,2.345,1.965,3.592,2.827q1.907,1.241,3.8,2.468a41.85,41.85,0,0,0,3.944,2.129,27.233,27.233,0,0,0,4.033,1.836c1.381.513,2.731,1.073,4.105,1.545a57.633,57.633,0,0,0,8.35,1.866,31.619,31.619,0,0,0,4.167.5l4.31.144a34.107,34.107,0,0,0,4.03-.191,28.648,28.648,0,0,0,4.026-.41,59.163,59.163,0,0,0,27.511-11.854,68.1,68.1,0,0,0,17.08-19.343,66.521,66.521,0,0,0,7.694-18.673c.325-1.371.694-2.659.926-3.893.185-1.241.359-2.406.52-3.486s.294-2.092.424-3.011c.048-.933.089-1.777.13-2.536C169.03,108.268,169.112,106.654,169.112,106.654Z" transform="translate(-44.195 -21.429)" fill="#5bbf7f"/>
        </g>
        <g id="Mask_Group_134" data-name="Mask Group 134" transform="translate(72.308 62.534)" clip-path="url(#clip-path)">
          <g id="Group_704" data-name="Group 704" transform="translate(-32.315 -11.467)">
            <rect id="Rectangle_6567" data-name="Rectangle 6567" width="10.424" height="10.424" transform="translate(20.849 0)" fill="#463383"/>
            <rect id="Rectangle_6568" data-name="Rectangle 6568" width="10.424" height="10.424" transform="translate(20.849 41.697)" fill="#463383"/>
            <rect id="Rectangle_6569" data-name="Rectangle 6569" width="10.424" height="10.424" transform="translate(20.849 20.849)" fill="#463383"/>
            <rect id="Rectangle_6570" data-name="Rectangle 6570" width="10.424" height="10.424" transform="translate(20.849 62.546)" fill="#463383"/>
            <rect id="Rectangle_6571" data-name="Rectangle 6571" width="10.424" height="10.424" transform="translate(0 0)" fill="#463383"/>
            <rect id="Rectangle_6572" data-name="Rectangle 6572" width="10.424" height="10.424" transform="translate(0 41.697)" fill="#463383"/>
            <rect id="Rectangle_6573" data-name="Rectangle 6573" width="10.424" height="10.424" transform="translate(0 20.849)" fill="#463383"/>
            <rect id="Rectangle_6574" data-name="Rectangle 6574" width="10.424" height="10.424" transform="translate(0 62.546)" fill="#463383"/>
            <rect id="Rectangle_6575" data-name="Rectangle 6575" width="10.424" height="10.424" transform="translate(31.273 10.424)" fill="#463383"/>
            <rect id="Rectangle_6576" data-name="Rectangle 6576" width="10.424" height="10.424" transform="translate(31.273 52.122)" fill="#463383"/>
            <rect id="Rectangle_6577" data-name="Rectangle 6577" width="10.424" height="10.424" transform="translate(31.273 31.273)" fill="#463383"/>
            <rect id="Rectangle_6578" data-name="Rectangle 6578" width="10.424" height="10.424" transform="translate(31.273 72.971)" fill="#463383"/>
            <rect id="Rectangle_6579" data-name="Rectangle 6579" width="10.424" height="10.424" transform="translate(10.424 10.424)" fill="#463383"/>
            <rect id="Rectangle_6580" data-name="Rectangle 6580" width="10.424" height="10.424" transform="translate(10.424 52.122)" fill="#463383"/>
            <rect id="Rectangle_6581" data-name="Rectangle 6581" width="10.424" height="10.424" transform="translate(10.424 31.273)" fill="#463383"/>
            <rect id="Rectangle_6582" data-name="Rectangle 6582" width="10.424" height="10.424" transform="translate(10.424 72.971)" fill="#463383"/>
            <rect id="Rectangle_6583" data-name="Rectangle 6583" width="10.424" height="10.424" transform="translate(41.697 0)" fill="#463383"/>
            <rect id="Rectangle_6584" data-name="Rectangle 6584" width="10.424" height="10.424" transform="translate(41.697 41.697)" fill="#463383"/>
            <rect id="Rectangle_6585" data-name="Rectangle 6585" width="10.424" height="10.424" transform="translate(41.697 20.849)" fill="#463383"/>
            <rect id="Rectangle_6586" data-name="Rectangle 6586" width="10.424" height="10.424" transform="translate(41.697 62.546)" fill="#463383"/>
            <rect id="Rectangle_6587" data-name="Rectangle 6587" width="10.424" height="10.424" transform="translate(52.122 10.424)" fill="#463383"/>
            <rect id="Rectangle_6588" data-name="Rectangle 6588" width="10.424" height="10.424" transform="translate(52.122 52.122)" fill="#463383"/>
            <rect id="Rectangle_6589" data-name="Rectangle 6589" width="10.424" height="10.424" transform="translate(52.122 31.273)" fill="#463383"/>
            <rect id="Rectangle_6590" data-name="Rectangle 6590" width="10.424" height="10.424" transform="translate(52.122 72.971)" fill="#463383"/>
            <rect id="Rectangle_6591" data-name="Rectangle 6591" width="10.424" height="10.424" transform="translate(62.546 0)" fill="#463383"/>
            <rect id="Rectangle_6592" data-name="Rectangle 6592" width="10.424" height="10.424" transform="translate(62.546 41.697)" fill="#463383"/>
            <rect id="Rectangle_6593" data-name="Rectangle 6593" width="10.424" height="10.424" transform="translate(62.546 20.849)" fill="#463383"/>
            <rect id="Rectangle_6594" data-name="Rectangle 6594" width="10.424" height="10.424" transform="translate(62.546 62.546)" fill="#463383"/>
            <rect id="Rectangle_6595" data-name="Rectangle 6595" width="10.424" height="10.424" transform="translate(72.97 10.424)" fill="#463383"/>
            <rect id="Rectangle_6596" data-name="Rectangle 6596" width="10.424" height="10.424" transform="translate(72.97 52.122)" fill="#463383"/>
            <rect id="Rectangle_6597" data-name="Rectangle 6597" width="10.424" height="10.424" transform="translate(72.97 31.273)" fill="#463383"/>
            <rect id="Rectangle_6598" data-name="Rectangle 6598" width="10.424" height="10.424" transform="translate(72.97 72.971)" fill="#463383"/>
            <rect id="Rectangle_6599" data-name="Rectangle 6599" width="10.424" height="10.424" transform="translate(83.395 0)" fill="#463383"/>
            <rect id="Rectangle_6600" data-name="Rectangle 6600" width="10.424" height="10.424" transform="translate(83.395 41.697)" fill="#463383"/>
            <rect id="Rectangle_6601" data-name="Rectangle 6601" width="10.424" height="10.424" transform="translate(83.395 20.849)" fill="#463383"/>
            <rect id="Rectangle_6602" data-name="Rectangle 6602" width="10.424" height="10.424" transform="translate(83.395 62.546)" fill="#463383"/>
            <rect id="Rectangle_6603" data-name="Rectangle 6603" width="10.424" height="10.424" transform="translate(93.819 10.424)" fill="#463383"/>
            <rect id="Rectangle_6604" data-name="Rectangle 6604" width="10.424" height="10.424" transform="translate(93.819 52.122)" fill="#463383"/>
            <rect id="Rectangle_6605" data-name="Rectangle 6605" width="10.424" height="10.424" transform="translate(93.819 31.273)" fill="#463383"/>
            <rect id="Rectangle_6606" data-name="Rectangle 6606" width="10.424" height="10.424" transform="translate(93.819 72.971)" fill="#463383"/>
            <rect id="Rectangle_6607" data-name="Rectangle 6607" width="10.424" height="10.424" transform="translate(104.243 0)" fill="#463383"/>
            <rect id="Rectangle_6608" data-name="Rectangle 6608" width="10.424" height="10.424" transform="translate(104.243 41.697)" fill="#463383"/>
            <rect id="Rectangle_6609" data-name="Rectangle 6609" width="10.424" height="10.424" transform="translate(104.243 20.849)" fill="#463383"/>
            <rect id="Rectangle_6610" data-name="Rectangle 6610" width="10.424" height="10.424" transform="translate(104.243 62.546)" fill="#463383"/>
            <rect id="Rectangle_6611" data-name="Rectangle 6611" width="10.424" height="10.424" transform="translate(114.668 10.424)" fill="#463383"/>
            <rect id="Rectangle_6612" data-name="Rectangle 6612" width="10.424" height="10.424" transform="translate(114.668 52.122)" fill="#463383"/>
            <rect id="Rectangle_6613" data-name="Rectangle 6613" width="10.424" height="10.424" transform="translate(114.668 31.273)" fill="#463383"/>
            <rect id="Rectangle_6614" data-name="Rectangle 6614" width="10.424" height="10.424" transform="translate(114.668 72.971)" fill="#463383"/>
          </g>
        </g>
        <g id="Mask_Group_135" data-name="Mask Group 135" transform="translate(191.145 79.213)" clip-path="url(#clip-path-2)">
          <g id="Group_705" data-name="Group 705" transform="translate(-21.891 -7.297)">
            <rect id="Rectangle_6615" data-name="Rectangle 6615" width="6.255" height="6.255" transform="translate(14.594 0)" fill="#f8ec4f"/>
            <rect id="Rectangle_6616" data-name="Rectangle 6616" width="6.255" height="7.297" transform="translate(14.594 27.103)" fill="#f8ec4f"/>
            <rect id="Rectangle_6617" data-name="Rectangle 6617" width="6.255" height="7.297" transform="translate(14.594 13.552)" fill="#f8ec4f"/>
            <rect id="Rectangle_6618" data-name="Rectangle 6618" width="6.255" height="6.255" transform="translate(14.594 41.698)" fill="#f8ec4f"/>
            <rect id="Rectangle_6619" data-name="Rectangle 6619" width="7.297" height="6.255" transform="translate(0 0)" fill="#f8ec4f"/>
            <rect id="Rectangle_6620" data-name="Rectangle 6620" width="7.297" height="7.297" transform="translate(0 27.103)" fill="#f8ec4f"/>
            <rect id="Rectangle_6621" data-name="Rectangle 6621" width="7.297" height="7.297" transform="translate(0 13.552)" fill="#f8ec4f"/>
            <rect id="Rectangle_6622" data-name="Rectangle 6622" width="7.297" height="6.255" transform="translate(0 41.698)" fill="#f8ec4f"/>
            <rect id="Rectangle_6623" data-name="Rectangle 6623" width="7.297" height="7.297" transform="translate(20.849 6.255)" fill="#f8ec4f"/>
            <rect id="Rectangle_6624" data-name="Rectangle 6624" width="7.297" height="7.297" transform="translate(20.849 34.4)" fill="#f8ec4f"/>
            <rect id="Rectangle_6625" data-name="Rectangle 6625" width="7.297" height="6.255" transform="translate(20.849 20.849)" fill="#f8ec4f"/>
            <rect id="Rectangle_6626" data-name="Rectangle 6626" width="7.297" height="7.297" transform="translate(20.849 47.952)" fill="#f8ec4f"/>
            <rect id="Rectangle_6627" data-name="Rectangle 6627" width="7.297" height="7.297" transform="translate(7.297 6.255)" fill="#f8ec4f"/>
            <rect id="Rectangle_6628" data-name="Rectangle 6628" width="7.297" height="7.297" transform="translate(7.297 34.4)" fill="#f8ec4f"/>
            <rect id="Rectangle_6629" data-name="Rectangle 6629" width="7.297" height="6.255" transform="translate(7.297 20.849)" fill="#f8ec4f"/>
            <rect id="Rectangle_6630" data-name="Rectangle 6630" width="7.297" height="7.297" transform="translate(7.297 47.952)" fill="#f8ec4f"/>
            <rect id="Rectangle_6631" data-name="Rectangle 6631" width="7.297" height="6.255" transform="translate(28.146 0)" fill="#f8ec4f"/>
            <rect id="Rectangle_6632" data-name="Rectangle 6632" width="7.297" height="7.297" transform="translate(28.146 27.103)" fill="#f8ec4f"/>
            <rect id="Rectangle_6633" data-name="Rectangle 6633" width="7.297" height="7.297" transform="translate(28.146 13.552)" fill="#f8ec4f"/>
            <rect id="Rectangle_6634" data-name="Rectangle 6634" width="7.297" height="6.255" transform="translate(28.146 41.698)" fill="#f8ec4f"/>
            <rect id="Rectangle_6635" data-name="Rectangle 6635" width="6.255" height="7.297" transform="translate(35.443 6.255)" fill="#f8ec4f"/>
            <rect id="Rectangle_6636" data-name="Rectangle 6636" width="6.255" height="7.297" transform="translate(35.443 34.4)" fill="#f8ec4f"/>
            <rect id="Rectangle_6637" data-name="Rectangle 6637" width="6.255" height="6.255" transform="translate(35.443 20.849)" fill="#f8ec4f"/>
            <rect id="Rectangle_6638" data-name="Rectangle 6638" width="6.255" height="7.297" transform="translate(35.443 47.952)" fill="#f8ec4f"/>
            <rect id="Rectangle_6639" data-name="Rectangle 6639" width="7.297" height="6.255" transform="translate(41.697 0)" fill="#f8ec4f"/>
            <rect id="Rectangle_6640" data-name="Rectangle 6640" width="7.297" height="7.297" transform="translate(41.697 27.103)" fill="#f8ec4f"/>
            <rect id="Rectangle_6641" data-name="Rectangle 6641" width="7.297" height="7.297" transform="translate(41.697 13.552)" fill="#f8ec4f"/>
            <rect id="Rectangle_6642" data-name="Rectangle 6642" width="7.297" height="6.255" transform="translate(41.697 41.698)" fill="#f8ec4f"/>
            <rect id="Rectangle_6643" data-name="Rectangle 6643" width="7.297" height="7.297" transform="translate(48.994 6.255)" fill="#f8ec4f"/>
            <rect id="Rectangle_6644" data-name="Rectangle 6644" width="7.297" height="7.297" transform="translate(48.994 34.4)" fill="#f8ec4f"/>
            <rect id="Rectangle_6645" data-name="Rectangle 6645" width="7.297" height="6.255" transform="translate(48.994 20.849)" fill="#f8ec4f"/>
            <rect id="Rectangle_6646" data-name="Rectangle 6646" width="7.297" height="7.297" transform="translate(48.994 47.952)" fill="#f8ec4f"/>
            <rect id="Rectangle_6647" data-name="Rectangle 6647" width="6.255" height="6.255" transform="translate(56.291 0)" fill="#f8ec4f"/>
            <rect id="Rectangle_6648" data-name="Rectangle 6648" width="6.255" height="7.297" transform="translate(56.291 27.103)" fill="#f8ec4f"/>
            <rect id="Rectangle_6649" data-name="Rectangle 6649" width="6.255" height="7.297" transform="translate(56.291 13.552)" fill="#f8ec4f"/>
            <rect id="Rectangle_6650" data-name="Rectangle 6650" width="6.255" height="6.255" transform="translate(56.291 41.698)" fill="#f8ec4f"/>
            <rect id="Rectangle_6651" data-name="Rectangle 6651" width="7.297" height="7.297" transform="translate(62.546 6.255)" fill="#f8ec4f"/>
            <rect id="Rectangle_6652" data-name="Rectangle 6652" width="7.297" height="7.297" transform="translate(62.546 34.4)" fill="#f8ec4f"/>
            <rect id="Rectangle_6653" data-name="Rectangle 6653" width="7.297" height="6.255" transform="translate(62.546 20.849)" fill="#f8ec4f"/>
            <rect id="Rectangle_6654" data-name="Rectangle 6654" width="7.297" height="7.297" transform="translate(62.546 47.952)" fill="#f8ec4f"/>
            <rect id="Rectangle_6655" data-name="Rectangle 6655" width="7.297" height="6.255" transform="translate(69.843 0)" fill="#f8ec4f"/>
            <rect id="Rectangle_6656" data-name="Rectangle 6656" width="7.297" height="7.297" transform="translate(69.843 27.103)" fill="#f8ec4f"/>
            <rect id="Rectangle_6657" data-name="Rectangle 6657" width="7.297" height="7.297" transform="translate(69.843 13.552)" fill="#f8ec4f"/>
            <rect id="Rectangle_6658" data-name="Rectangle 6658" width="7.297" height="6.255" transform="translate(69.843 41.698)" fill="#f8ec4f"/>
            <rect id="Rectangle_6659" data-name="Rectangle 6659" width="6.255" height="7.297" transform="translate(77.14 6.255)" fill="#f8ec4f"/>
            <rect id="Rectangle_6660" data-name="Rectangle 6660" width="6.255" height="7.297" transform="translate(77.14 34.4)" fill="#f8ec4f"/>
            <rect id="Rectangle_6661" data-name="Rectangle 6661" width="6.255" height="6.255" transform="translate(77.14 20.849)" fill="#f8ec4f"/>
            <rect id="Rectangle_6662" data-name="Rectangle 6662" width="6.255" height="7.297" transform="translate(77.14 47.952)" fill="#f8ec4f"/>
          </g>
        </g>
      </g>
      <path id="Path_451" data-name="Path 451" d="M5526.172,2398c-9.331,10.634,20.969-8.291,21.68-36.129S5535.507,2387.369,5526.172,2398Z" transform="translate(-5317.105 -2320.728)" fill="#f8ec4f"/>
      <path id="Path_454" data-name="Path 454" d="M31.656,68.285C45.267,84.758,1.078,55.442.041,12.321S18.044,51.812,31.656,68.285Z" transform="matrix(1, 0.017, -0.017, 1, 97.569, 0)" fill="#f8ec4f"/>
      <path id="Path_455" data-name="Path 455" d="M23.337,50.338C33.371,62.482.8,40.871.03,9.083S13.3,38.2,23.337,50.338Z" transform="translate(71.309 10.025) rotate(-7)" fill="#f8ec4f"/>
      <path id="Path_456" data-name="Path 456" d="M18.049,38.932C25.808,48.324.614,31.61.023,7.025S10.288,29.541,18.049,38.932Z" transform="translate(52.643 25.252) rotate(-21)" fill="#f8ec4f"/>
      <path id="Path_452" data-name="Path 452" d="M1.783,44.084C-7.549,54.718,22.751,35.792,23.462,7.955S11.117,33.449,1.783,44.084Z" transform="translate(236.668 36.761) rotate(22)" fill="#f8ec4f"/>
      <path id="Path_453" data-name="Path 453" d="M1.783,44.084C-7.549,54.718,22.751,35.792,23.462,7.955S11.117,33.449,1.783,44.084Z" transform="translate(252.541 44.058) rotate(31)" fill="#f8ec4f"/>
    </g>
  </g>
</svg>
