<svg xmlns="http://www.w3.org/2000/svg" width="100" height="75" viewBox="0 0 216.01 136.174">
  <g id="Group_723" data-name="Group 723" transform="translate(-10 2725.345)">
    <g id="Group_722" data-name="Group 722" transform="translate(-6 -0.085)">
      <g id="Group_711" data-name="Group 711" transform="translate(-45.854 -3071.432)">
        <path id="Path_437" data-name="Path 437" d="M245.323,406.8c-22.677,23.017-53.716,39.972-83.924,32.124-32.183-8.361-63.611-29.747-84.6-55.311-5.67-6.906-10.964-14.283-14.12-22.641-.9-2.384-1.455-5.484.487-7.132,1.485-1.262,3.7-.987,5.6-.572,16.029,3.509,30.512,11.785,46.26,16.1,58.742,16.1,103.645,3.172,157.076-22.36a5.048,5.048,0,0,1,3.574-.71c2.05.647,2.364,3.4,2.116,5.536-.939,8.132-4.369,15.771-8.319,22.942A149.41,149.41,0,0,1,245.323,406.8Z" transform="translate(0 0)" fill="#e234a6"/>
        <path id="Path_438" data-name="Path 438" d="M245.323,408.046c-22.677,23.014-53.716,39.969-83.924,32.121-32.183-8.361-63.611-29.744-84.6-55.311-5.67-6.906-10.964-14.283-14.12-22.638-.9-2.384-1.455-5.484.487-7.135,1.485-1.262,3.7-.988,5.6-.572,16.029,3.509,30.512,11.785,46.26,16.1,58.742,16.095,103.645,3.172,157.076-22.36a5.049,5.049,0,0,1,3.574-.713c2.05.651,2.364,3.4,2.116,5.536-.939,8.136-4.369,15.774-8.319,22.942A149.427,149.427,0,0,1,245.323,408.046Z" transform="translate(0 2.82)" fill="#463383"/>
        <path id="Path_439" data-name="Path 439" d="M129.26,371.715a51.6,51.6,0,0,1,23.985,10.467,19.759,19.759,0,0,1,4.9,5.255c3.767,6.458-.589,15.712-3.888,21.673a31.471,31.471,0,0,1-15.925,14.241,40.778,40.778,0,0,1-23.5,1.6c-6.906-1.468-11.187-5.065-16.265-9.849-7.707-7.256-18.622-20.235-11.079-30.813,2.5-3.505,6.183-6,10.029-7.939A52.335,52.335,0,0,1,129.26,371.715Z" transform="translate(52.409 56.386)" fill="#f8ec4f"/>
        <path id="Path_440" data-name="Path 440" d="M140.912,369.544a12.83,12.83,0,0,1,1.606-1.01c4-1.805,9.081-2.292,13.417-2.2a43.337,43.337,0,0,1,28.275,11.88,68.083,68.083,0,0,0-7.805,4.813,10.335,10.335,0,0,0-2.714,2.518,11.556,11.556,0,0,0-1.445,4.67c-2.639,16.163-6.641,32.683-23.514,39.328a41.776,41.776,0,0,1-23.8,1.6c-6.994-1.468-11.327-5.065-16.468-9.849-8.214-7.639-14.581-18.485-16.66-29.557-.68-3.62-.376-5.772-3.188-8.574-1.978-1.965-5.212-4.624-8.165-4.235,3.447-1.435,7.086-2.5,10.493-4.091,1.828-.854,3.584-1.867,5.461-2.6,10.15-3.993,31.444-6.677,37.539,5.18C133.083,375.744,138.086,371.533,140.912,369.544Z" transform="translate(42.213 45.739)" fill="#e234a6"/>
        <path id="Path_441" data-name="Path 441" d="M96.612,372.627,97.894,402.8S101.425,363.317,96.612,372.627Z" transform="translate(78.9 56.822)" fill="#463383"/>
        <path id="Path_442" data-name="Path 442" d="M72.854,359.228s-8.884-3.908-9.241-1.066,17.416,22.746,30.921,28.789,63.614,14.215,103.772,6.4,55.086-14.571,60.416-19.9,15.637-26.657,11.373-24.878S250.9,358.162,223.537,367.4,154.949,388.727,72.854,359.228Z" transform="translate(3.981 5.198)" fill="#fff"/>
      </g>
    </g>
  </g>
</svg>
