<svg xmlns="http://www.w3.org/2000/svg" width="3300.157" height="3517.572" viewBox="1150 700 3192.157 3517.572">
  <g id="Group_1265" data-name="Group 1265" transform="translate(1202.078 891.632)">
    <ellipse id="Ellipse_288" data-name="Ellipse 288" cx="813.941" cy="813.942" rx="813.941" ry="813.942" transform="translate(-153 -891.632)" fill="#f8ec4f"/>
    <path id="Path_594" data-name="Path 594" d="M1378.937,0C2140.5,0,2757.875,368.11,2757.875,822.2s-617.371,822.2-1378.937,822.2S0,1276.284,0,822.2,617.371,0,1378.937,0Z" transform="matrix(0.799, -0.602, 0.602, 0.799, -1202.078, 1312.669)" fill="#fff"/>
    <g id="Group_1107" data-name="Group 1107" transform="translate(244.422 -178.06)">
      <g id="Group_915" data-name="Group 915" transform="translate(91.578 946.06) rotate(-180)">
        <circle id="Ellipse_136" data-name="Ellipse 136" cx="2.5" cy="2.5" r="2.5" transform="translate(0 0)" fill="#3d9cd7"/>
        <circle id="Ellipse_174" data-name="Ellipse 174" cx="2.5" cy="2.5" r="2.5" transform="translate(0 19)" fill="#3d9cd7"/>
        <circle id="Ellipse_159" data-name="Ellipse 159" cx="2.5" cy="2.5" r="2.5" transform="translate(0 10)" fill="#3d9cd7"/>
        <circle id="Ellipse_175" data-name="Ellipse 175" cx="2.5" cy="2.5" r="2.5" transform="translate(0 29)" fill="#3d9cd7"/>
        <circle id="Ellipse_148" data-name="Ellipse 148" cx="2.5" cy="2.5" r="2.5" transform="translate(39 0)" fill="#3d9cd7"/>
        <circle id="Ellipse_163" data-name="Ellipse 163" cx="2.5" cy="2.5" r="2.5" transform="translate(39 19)" fill="#3d9cd7"/>
        <circle id="Ellipse_183" data-name="Ellipse 183" cx="2.5" cy="2.5" r="2.5" transform="translate(39 39)" fill="#3d9cd7"/>
        <circle id="Ellipse_196" data-name="Ellipse 196" cx="2.5" cy="2.5" r="2.5" transform="translate(39 58)" fill="#3d9cd7"/>
        <circle id="Ellipse_155" data-name="Ellipse 155" cx="2.5" cy="2.5" r="2.5" transform="translate(39 10)" fill="#3d9cd7"/>
        <circle id="Ellipse_164" data-name="Ellipse 164" cx="2.5" cy="2.5" r="2.5" transform="translate(39 29)" fill="#3d9cd7"/>
        <circle id="Ellipse_176" data-name="Ellipse 176" cx="2.5" cy="2.5" r="2.5" transform="translate(39 48)" fill="#3d9cd7"/>
        <circle id="Ellipse_200" data-name="Ellipse 200" cx="2.5" cy="2.5" r="2.5" transform="translate(39 68)" fill="#3d9cd7"/>
        <circle id="Ellipse_234" data-name="Ellipse 234" cx="2.5" cy="2.5" r="2.5" transform="translate(29 68)" fill="#3d9cd7"/>
        <circle id="Ellipse_147" data-name="Ellipse 147" cx="2.5" cy="2.5" r="2.5" transform="translate(19 0)" fill="#3d9cd7"/>
        <circle id="Ellipse_170" data-name="Ellipse 170" cx="2.5" cy="2.5" r="2.5" transform="translate(19 19)" fill="#3d9cd7"/>
        <circle id="Ellipse_184" data-name="Ellipse 184" cx="2.5" cy="2.5" r="2.5" transform="translate(19 39)" fill="#3d9cd7"/>
        <circle id="Ellipse_194" data-name="Ellipse 194" cx="2.5" cy="2.5" r="2.5" transform="translate(19 58)" fill="#3d9cd7"/>
        <circle id="Ellipse_245" data-name="Ellipse 245" cx="2.5" cy="2.5" r="2.5" transform="translate(10 58)" fill="#3d9cd7"/>
        <circle id="Ellipse_237" data-name="Ellipse 237" cx="2.5" cy="2.5" r="2.5" transform="translate(19 68)" fill="#3d9cd7"/>
        <circle id="Ellipse_157" data-name="Ellipse 157" cx="2.5" cy="2.5" r="2.5" transform="translate(19 10)" fill="#3d9cd7"/>
        <circle id="Ellipse_171" data-name="Ellipse 171" cx="2.5" cy="2.5" r="2.5" transform="translate(19 29)" fill="#3d9cd7"/>
        <circle id="Ellipse_181" data-name="Ellipse 181" cx="2.5" cy="2.5" r="2.5" transform="translate(19 48)" fill="#3d9cd7"/>
        <circle id="Ellipse_149" data-name="Ellipse 149" cx="2.5" cy="2.5" r="2.5" transform="translate(58 0)" fill="#3d9cd7"/>
        <circle id="Ellipse_165" data-name="Ellipse 165" cx="2.5" cy="2.5" r="2.5" transform="translate(58 19)" fill="#3d9cd7"/>
        <circle id="Ellipse_185" data-name="Ellipse 185" cx="2.5" cy="2.5" r="2.5" transform="translate(58 39)" fill="#3d9cd7"/>
        <circle id="Ellipse_198" data-name="Ellipse 198" cx="2.5" cy="2.5" r="2.5" transform="translate(58 58)" fill="#3d9cd7"/>
        <circle id="Ellipse_152" data-name="Ellipse 152" cx="2.5" cy="2.5" r="2.5" transform="translate(58 10)" fill="#3d9cd7"/>
        <circle id="Ellipse_161" data-name="Ellipse 161" cx="2.5" cy="2.5" r="2.5" transform="translate(58 29)" fill="#3d9cd7"/>
        <circle id="Ellipse_177" data-name="Ellipse 177" cx="2.5" cy="2.5" r="2.5" transform="translate(58 48)" fill="#3d9cd7"/>
        <circle id="Ellipse_202" data-name="Ellipse 202" cx="2.5" cy="2.5" r="2.5" transform="translate(58 68)" fill="#3d9cd7"/>
        <circle id="Ellipse_223" data-name="Ellipse 223" cx="2.5" cy="2.5" r="2.5" transform="translate(58 77)" fill="#3d9cd7"/>
        <circle id="Ellipse_227" data-name="Ellipse 227" cx="2.5" cy="2.5" r="2.5" transform="translate(58 87)" fill="#3d9cd7"/>
        <circle id="Ellipse_236" data-name="Ellipse 236" cx="2.5" cy="2.5" r="2.5" transform="translate(48 87)" fill="#3d9cd7"/>
        <circle id="Ellipse_145" data-name="Ellipse 145" cx="2.5" cy="2.5" r="2.5" transform="translate(10 0)" fill="#3d9cd7"/>
        <circle id="Ellipse_172" data-name="Ellipse 172" cx="2.5" cy="2.5" r="2.5" transform="translate(10 19)" fill="#3d9cd7"/>
        <circle id="Ellipse_186" data-name="Ellipse 186" cx="2.5" cy="2.5" r="2.5" transform="translate(10 39)" fill="#3d9cd7"/>
        <circle id="Ellipse_246" data-name="Ellipse 246" cx="2.5" cy="2.5" r="2.5" transform="translate(0 39)" fill="#3d9cd7"/>
        <circle id="Ellipse_158" data-name="Ellipse 158" cx="2.5" cy="2.5" r="2.5" transform="translate(10 10)" fill="#3d9cd7"/>
        <circle id="Ellipse_173" data-name="Ellipse 173" cx="2.5" cy="2.5" r="2.5" transform="translate(10 29)" fill="#3d9cd7"/>
        <circle id="Ellipse_182" data-name="Ellipse 182" cx="2.5" cy="2.5" r="2.5" transform="translate(10 48)" fill="#3d9cd7"/>
        <circle id="Ellipse_150" data-name="Ellipse 150" cx="2.5" cy="2.5" r="2.5" transform="translate(48 0)" fill="#3d9cd7"/>
        <circle id="Ellipse_166" data-name="Ellipse 166" cx="2.5" cy="2.5" r="2.5" transform="translate(48 19)" fill="#3d9cd7"/>
        <circle id="Ellipse_187" data-name="Ellipse 187" cx="2.5" cy="2.5" r="2.5" transform="translate(48 39)" fill="#3d9cd7"/>
        <circle id="Ellipse_197" data-name="Ellipse 197" cx="2.5" cy="2.5" r="2.5" transform="translate(48 58)" fill="#3d9cd7"/>
        <circle id="Ellipse_153" data-name="Ellipse 153" cx="2.5" cy="2.5" r="2.5" transform="translate(48 10)" fill="#3d9cd7"/>
        <circle id="Ellipse_162" data-name="Ellipse 162" cx="2.5" cy="2.5" r="2.5" transform="translate(48 29)" fill="#3d9cd7"/>
        <circle id="Ellipse_178" data-name="Ellipse 178" cx="2.5" cy="2.5" r="2.5" transform="translate(48 48)" fill="#3d9cd7"/>
        <circle id="Ellipse_204" data-name="Ellipse 204" cx="2.5" cy="2.5" r="2.5" transform="translate(48 68)" fill="#3d9cd7"/>
        <circle id="Ellipse_224" data-name="Ellipse 224" cx="2.5" cy="2.5" r="2.5" transform="translate(48 77)" fill="#3d9cd7"/>
        <circle id="Ellipse_235" data-name="Ellipse 235" cx="2.5" cy="2.5" r="2.5" transform="translate(39 77)" fill="#3d9cd7"/>
        <circle id="Ellipse_238" data-name="Ellipse 238" cx="2.5" cy="2.5" r="2.5" transform="translate(29 77)" fill="#3d9cd7"/>
        <circle id="Ellipse_146" data-name="Ellipse 146" cx="2.5" cy="2.5" r="2.5" transform="translate(29 0)" fill="#3d9cd7"/>
        <circle id="Ellipse_167" data-name="Ellipse 167" cx="2.5" cy="2.5" r="2.5" transform="translate(29 19)" fill="#3d9cd7"/>
        <circle id="Ellipse_188" data-name="Ellipse 188" cx="2.5" cy="2.5" r="2.5" transform="translate(29 39)" fill="#3d9cd7"/>
        <circle id="Ellipse_195" data-name="Ellipse 195" cx="2.5" cy="2.5" r="2.5" transform="translate(29 58)" fill="#3d9cd7"/>
        <circle id="Ellipse_156" data-name="Ellipse 156" cx="2.5" cy="2.5" r="2.5" transform="translate(29 10)" fill="#3d9cd7"/>
        <circle id="Ellipse_168" data-name="Ellipse 168" cx="2.5" cy="2.5" r="2.5" transform="translate(29 29)" fill="#3d9cd7"/>
        <circle id="Ellipse_180" data-name="Ellipse 180" cx="2.5" cy="2.5" r="2.5" transform="translate(29 48)" fill="#3d9cd7"/>
        <circle id="Ellipse_151" data-name="Ellipse 151" cx="2.5" cy="2.5" r="2.5" transform="translate(68 0)" fill="#3d9cd7"/>
        <circle id="Ellipse_222" data-name="Ellipse 222" cx="2.5" cy="2.5" r="2.5" transform="translate(77 0)" fill="#3d9cd7"/>
        <circle id="Ellipse_169" data-name="Ellipse 169" cx="2.5" cy="2.5" r="2.5" transform="translate(68 19)" fill="#3d9cd7"/>
        <circle id="Ellipse_220" data-name="Ellipse 220" cx="2.5" cy="2.5" r="2.5" transform="translate(77 19)" fill="#3d9cd7"/>
        <circle id="Ellipse_189" data-name="Ellipse 189" cx="2.5" cy="2.5" r="2.5" transform="translate(68 39)" fill="#3d9cd7"/>
        <circle id="Ellipse_218" data-name="Ellipse 218" cx="2.5" cy="2.5" r="2.5" transform="translate(77 39)" fill="#3d9cd7"/>
        <circle id="Ellipse_206" data-name="Ellipse 206" cx="2.5" cy="2.5" r="2.5" transform="translate(68 58)" fill="#3d9cd7"/>
        <circle id="Ellipse_216" data-name="Ellipse 216" cx="2.5" cy="2.5" r="2.5" transform="translate(77 58)" fill="#3d9cd7"/>
        <circle id="Ellipse_154" data-name="Ellipse 154" cx="2.5" cy="2.5" r="2.5" transform="translate(68 10)" fill="#3d9cd7"/>
        <circle id="Ellipse_221" data-name="Ellipse 221" cx="2.5" cy="2.5" r="2.5" transform="translate(77 10)" fill="#3d9cd7"/>
        <circle id="Ellipse_160" data-name="Ellipse 160" cx="2.5" cy="2.5" r="2.5" transform="translate(68 29)" fill="#3d9cd7"/>
        <circle id="Ellipse_219" data-name="Ellipse 219" cx="2.5" cy="2.5" r="2.5" transform="translate(77 29)" fill="#3d9cd7"/>
        <circle id="Ellipse_179" data-name="Ellipse 179" cx="2.5" cy="2.5" r="2.5" transform="translate(68 48)" fill="#3d9cd7"/>
        <circle id="Ellipse_217" data-name="Ellipse 217" cx="2.5" cy="2.5" r="2.5" transform="translate(77 48)" fill="#3d9cd7"/>
        <circle id="Ellipse_207" data-name="Ellipse 207" cx="2.5" cy="2.5" r="2.5" transform="translate(68 68)" fill="#3d9cd7"/>
        <circle id="Ellipse_225" data-name="Ellipse 225" cx="2.5" cy="2.5" r="2.5" transform="translate(68 77)" fill="#3d9cd7"/>
        <circle id="Ellipse_229" data-name="Ellipse 229" cx="2.5" cy="2.5" r="2.5" transform="translate(68 87)" fill="#3d9cd7"/>
        <circle id="Ellipse_215" data-name="Ellipse 215" cx="2.5" cy="2.5" r="2.5" transform="translate(77 68)" fill="#3d9cd7"/>
        <circle id="Ellipse_226" data-name="Ellipse 226" cx="2.5" cy="2.5" r="2.5" transform="translate(77 77)" fill="#3d9cd7"/>
        <circle id="Ellipse_230" data-name="Ellipse 230" cx="2.5" cy="2.5" r="2.5" transform="translate(77 87)" fill="#3d9cd7"/>
      </g>
      <g id="Group_916" data-name="Group 916" transform="translate(828.638 846.027) rotate(-7)">
        <circle id="Ellipse_136-2" data-name="Ellipse 136" cx="2.5" cy="2.5" r="2.5" transform="translate(0 0)" fill="#e234a6"/>
        <circle id="Ellipse_174-2" data-name="Ellipse 174" cx="2.5" cy="2.5" r="2.5" transform="translate(0 19)" fill="#e234a6"/>
        <circle id="Ellipse_159-2" data-name="Ellipse 159" cx="2.5" cy="2.5" r="2.5" transform="translate(0 10)" fill="#e234a6"/>
        <circle id="Ellipse_175-2" data-name="Ellipse 175" cx="2.5" cy="2.5" r="2.5" transform="translate(0 29)" fill="#e234a6"/>
        <circle id="Ellipse_148-2" data-name="Ellipse 148" cx="2.5" cy="2.5" r="2.5" transform="translate(39 0)" fill="#e234a6"/>
        <circle id="Ellipse_163-2" data-name="Ellipse 163" cx="2.5" cy="2.5" r="2.5" transform="translate(39 19)" fill="#e234a6"/>
        <circle id="Ellipse_183-2" data-name="Ellipse 183" cx="2.5" cy="2.5" r="2.5" transform="translate(39 39)" fill="#e234a6"/>
        <circle id="Ellipse_196-2" data-name="Ellipse 196" cx="2.5" cy="2.5" r="2.5" transform="translate(39 58)" fill="#e234a6"/>
        <circle id="Ellipse_155-2" data-name="Ellipse 155" cx="2.5" cy="2.5" r="2.5" transform="translate(39 10)" fill="#e234a6"/>
        <circle id="Ellipse_164-2" data-name="Ellipse 164" cx="2.5" cy="2.5" r="2.5" transform="translate(39 29)" fill="#e234a6"/>
        <circle id="Ellipse_176-2" data-name="Ellipse 176" cx="2.5" cy="2.5" r="2.5" transform="translate(39 48)" fill="#e234a6"/>
        <circle id="Ellipse_200-2" data-name="Ellipse 200" cx="2.5" cy="2.5" r="2.5" transform="translate(39 68)" fill="#e234a6"/>
        <circle id="Ellipse_234-2" data-name="Ellipse 234" cx="2.5" cy="2.5" r="2.5" transform="translate(29 68)" fill="#e234a6"/>
        <circle id="Ellipse_147-2" data-name="Ellipse 147" cx="2.5" cy="2.5" r="2.5" transform="translate(19 0)" fill="#e234a6"/>
        <circle id="Ellipse_170-2" data-name="Ellipse 170" cx="2.5" cy="2.5" r="2.5" transform="translate(19 19)" fill="#e234a6"/>
        <circle id="Ellipse_184-2" data-name="Ellipse 184" cx="2.5" cy="2.5" r="2.5" transform="translate(19 39)" fill="#e234a6"/>
        <circle id="Ellipse_194-2" data-name="Ellipse 194" cx="2.5" cy="2.5" r="2.5" transform="translate(19 58)" fill="#e234a6"/>
        <circle id="Ellipse_245-2" data-name="Ellipse 245" cx="2.5" cy="2.5" r="2.5" transform="translate(10 58)" fill="#e234a6"/>
        <circle id="Ellipse_237-2" data-name="Ellipse 237" cx="2.5" cy="2.5" r="2.5" transform="translate(19 68)" fill="#e234a6"/>
        <circle id="Ellipse_157-2" data-name="Ellipse 157" cx="2.5" cy="2.5" r="2.5" transform="translate(19 10)" fill="#e234a6"/>
        <circle id="Ellipse_171-2" data-name="Ellipse 171" cx="2.5" cy="2.5" r="2.5" transform="translate(19 29)" fill="#e234a6"/>
        <circle id="Ellipse_181-2" data-name="Ellipse 181" cx="2.5" cy="2.5" r="2.5" transform="translate(19 48)" fill="#e234a6"/>
        <circle id="Ellipse_149-2" data-name="Ellipse 149" cx="2.5" cy="2.5" r="2.5" transform="translate(58 0)" fill="#e234a6"/>
        <circle id="Ellipse_165-2" data-name="Ellipse 165" cx="2.5" cy="2.5" r="2.5" transform="translate(58 19)" fill="#e234a6"/>
        <circle id="Ellipse_185-2" data-name="Ellipse 185" cx="2.5" cy="2.5" r="2.5" transform="translate(58 39)" fill="#e234a6"/>
        <circle id="Ellipse_198-2" data-name="Ellipse 198" cx="2.5" cy="2.5" r="2.5" transform="translate(58 58)" fill="#e234a6"/>
        <circle id="Ellipse_152-2" data-name="Ellipse 152" cx="2.5" cy="2.5" r="2.5" transform="translate(58 10)" fill="#e234a6"/>
        <circle id="Ellipse_161-2" data-name="Ellipse 161" cx="2.5" cy="2.5" r="2.5" transform="translate(58 29)" fill="#e234a6"/>
        <circle id="Ellipse_177-2" data-name="Ellipse 177" cx="2.5" cy="2.5" r="2.5" transform="translate(58 48)" fill="#e234a6"/>
        <circle id="Ellipse_202-2" data-name="Ellipse 202" cx="2.5" cy="2.5" r="2.5" transform="translate(58 68)" fill="#e234a6"/>
        <circle id="Ellipse_223-2" data-name="Ellipse 223" cx="2.5" cy="2.5" r="2.5" transform="translate(58 77)" fill="#e234a6"/>
        <circle id="Ellipse_227-2" data-name="Ellipse 227" cx="2.5" cy="2.5" r="2.5" transform="translate(58 87)" fill="#e234a6"/>
        <circle id="Ellipse_236-2" data-name="Ellipse 236" cx="2.5" cy="2.5" r="2.5" transform="translate(48 87)" fill="#e234a6"/>
        <circle id="Ellipse_145-2" data-name="Ellipse 145" cx="2.5" cy="2.5" r="2.5" transform="translate(10 0)" fill="#e234a6"/>
        <circle id="Ellipse_172-2" data-name="Ellipse 172" cx="2.5" cy="2.5" r="2.5" transform="translate(10 19)" fill="#e234a6"/>
        <circle id="Ellipse_186-2" data-name="Ellipse 186" cx="2.5" cy="2.5" r="2.5" transform="translate(10 39)" fill="#e234a6"/>
        <circle id="Ellipse_246-2" data-name="Ellipse 246" cx="2.5" cy="2.5" r="2.5" transform="translate(0 39)" fill="#e234a6"/>
        <circle id="Ellipse_158-2" data-name="Ellipse 158" cx="2.5" cy="2.5" r="2.5" transform="translate(10 10)" fill="#e234a6"/>
        <circle id="Ellipse_173-2" data-name="Ellipse 173" cx="2.5" cy="2.5" r="2.5" transform="translate(10 29)" fill="#e234a6"/>
        <circle id="Ellipse_182-2" data-name="Ellipse 182" cx="2.5" cy="2.5" r="2.5" transform="translate(10 48)" fill="#e234a6"/>
        <circle id="Ellipse_150-2" data-name="Ellipse 150" cx="2.5" cy="2.5" r="2.5" transform="translate(48 0)" fill="#e234a6"/>
        <circle id="Ellipse_166-2" data-name="Ellipse 166" cx="2.5" cy="2.5" r="2.5" transform="translate(48 19)" fill="#e234a6"/>
        <circle id="Ellipse_187-2" data-name="Ellipse 187" cx="2.5" cy="2.5" r="2.5" transform="translate(48 39)" fill="#e234a6"/>
        <circle id="Ellipse_197-2" data-name="Ellipse 197" cx="2.5" cy="2.5" r="2.5" transform="translate(48 58)" fill="#e234a6"/>
        <circle id="Ellipse_153-2" data-name="Ellipse 153" cx="2.5" cy="2.5" r="2.5" transform="translate(48 10)" fill="#e234a6"/>
        <circle id="Ellipse_162-2" data-name="Ellipse 162" cx="2.5" cy="2.5" r="2.5" transform="translate(48 29)" fill="#e234a6"/>
        <circle id="Ellipse_178-2" data-name="Ellipse 178" cx="2.5" cy="2.5" r="2.5" transform="translate(48 48)" fill="#e234a6"/>
        <circle id="Ellipse_204-2" data-name="Ellipse 204" cx="2.5" cy="2.5" r="2.5" transform="translate(48 68)" fill="#e234a6"/>
        <circle id="Ellipse_224-2" data-name="Ellipse 224" cx="2.5" cy="2.5" r="2.5" transform="translate(48 77)" fill="#e234a6"/>
        <circle id="Ellipse_235-2" data-name="Ellipse 235" cx="2.5" cy="2.5" r="2.5" transform="translate(39 77)" fill="#e234a6"/>
        <circle id="Ellipse_238-2" data-name="Ellipse 238" cx="2.5" cy="2.5" r="2.5" transform="translate(29 77)" fill="#e234a6"/>
        <circle id="Ellipse_146-2" data-name="Ellipse 146" cx="2.5" cy="2.5" r="2.5" transform="translate(29 0)" fill="#e234a6"/>
        <circle id="Ellipse_167-2" data-name="Ellipse 167" cx="2.5" cy="2.5" r="2.5" transform="translate(29 19)" fill="#e234a6"/>
        <circle id="Ellipse_188-2" data-name="Ellipse 188" cx="2.5" cy="2.5" r="2.5" transform="translate(29 39)" fill="#e234a6"/>
        <circle id="Ellipse_195-2" data-name="Ellipse 195" cx="2.5" cy="2.5" r="2.5" transform="translate(29 58)" fill="#e234a6"/>
        <circle id="Ellipse_156-2" data-name="Ellipse 156" cx="2.5" cy="2.5" r="2.5" transform="translate(29 10)" fill="#e234a6"/>
        <circle id="Ellipse_168-2" data-name="Ellipse 168" cx="2.5" cy="2.5" r="2.5" transform="translate(29 29)" fill="#e234a6"/>
        <circle id="Ellipse_180-2" data-name="Ellipse 180" cx="2.5" cy="2.5" r="2.5" transform="translate(29 48)" fill="#e234a6"/>
        <circle id="Ellipse_151-2" data-name="Ellipse 151" cx="2.5" cy="2.5" r="2.5" transform="translate(68 0)" fill="#e234a6"/>
        <circle id="Ellipse_222-2" data-name="Ellipse 222" cx="2.5" cy="2.5" r="2.5" transform="translate(77 0)" fill="#e234a6"/>
        <circle id="Ellipse_169-2" data-name="Ellipse 169" cx="2.5" cy="2.5" r="2.5" transform="translate(68 19)" fill="#e234a6"/>
        <circle id="Ellipse_220-2" data-name="Ellipse 220" cx="2.5" cy="2.5" r="2.5" transform="translate(77 19)" fill="#e234a6"/>
        <circle id="Ellipse_189-2" data-name="Ellipse 189" cx="2.5" cy="2.5" r="2.5" transform="translate(68 39)" fill="#e234a6"/>
        <circle id="Ellipse_218-2" data-name="Ellipse 218" cx="2.5" cy="2.5" r="2.5" transform="translate(77 39)" fill="#e234a6"/>
        <circle id="Ellipse_206-2" data-name="Ellipse 206" cx="2.5" cy="2.5" r="2.5" transform="translate(68 58)" fill="#e234a6"/>
        <circle id="Ellipse_216-2" data-name="Ellipse 216" cx="2.5" cy="2.5" r="2.5" transform="translate(77 58)" fill="#e234a6"/>
        <circle id="Ellipse_154-2" data-name="Ellipse 154" cx="2.5" cy="2.5" r="2.5" transform="translate(68 10)" fill="#e234a6"/>
        <circle id="Ellipse_221-2" data-name="Ellipse 221" cx="2.5" cy="2.5" r="2.5" transform="translate(77 10)" fill="#e234a6"/>
        <circle id="Ellipse_160-2" data-name="Ellipse 160" cx="2.5" cy="2.5" r="2.5" transform="translate(68 29)" fill="#e234a6"/>
        <circle id="Ellipse_219-2" data-name="Ellipse 219" cx="2.5" cy="2.5" r="2.5" transform="translate(77 29)" fill="#e234a6"/>
        <circle id="Ellipse_179-2" data-name="Ellipse 179" cx="2.5" cy="2.5" r="2.5" transform="translate(68 48)" fill="#e234a6"/>
        <circle id="Ellipse_217-2" data-name="Ellipse 217" cx="2.5" cy="2.5" r="2.5" transform="translate(77 48)" fill="#e234a6"/>
        <circle id="Ellipse_207-2" data-name="Ellipse 207" cx="2.5" cy="2.5" r="2.5" transform="translate(68 68)" fill="#e234a6"/>
        <circle id="Ellipse_225-2" data-name="Ellipse 225" cx="2.5" cy="2.5" r="2.5" transform="translate(68 77)" fill="#e234a6"/>
        <circle id="Ellipse_229-2" data-name="Ellipse 229" cx="2.5" cy="2.5" r="2.5" transform="translate(68 87)" fill="#e234a6"/>
        <circle id="Ellipse_215-2" data-name="Ellipse 215" cx="2.5" cy="2.5" r="2.5" transform="translate(77 68)" fill="#e234a6"/>
        <circle id="Ellipse_226-2" data-name="Ellipse 226" cx="2.5" cy="2.5" r="2.5" transform="translate(77 77)" fill="#e234a6"/>
        <circle id="Ellipse_230-2" data-name="Ellipse 230" cx="2.5" cy="2.5" r="2.5" transform="translate(77 87)" fill="#e234a6"/>
      </g>
      <path id="Path_558" data-name="Path 558" d="M25.392,0c57.249.2,103.82,47.123,104.019,104.817s-46.048,104.306-103.3,104.11-.162-46.77-.361-104.464S-31.857-.2,25.392,0Z" transform="translate(1048.858 780.516) rotate(77)" fill="#3d9cd7"/>
    </g>
  </g>
</svg>
