<svg id="Group_373" data-name="Group 373" xmlns="http://www.w3.org/2000/svg" width="100" height="78.411" viewBox="0 0 108.256 78.411">
  <path id="Path_295" data-name="Path 295" d="M773.157,208.229c-5.98-6.9-22.176-17.195-35.838-14.19s-19.3,15.633-19.3,15.633-1.739-7.014-13.625-6.786-25.841,17.738-30.232,23.4-4.172,10.741-4.172,10.741c3.44,23.82,33.939,39.536,61.875,33.646s40.657-30.45,42.746-34.118,3.579-22.156,3.579-22.156S779.136,215.132,773.157,208.229ZM770.189,236.9c-3.5,5.974-24.354,27.586-41.214,29.807s-41.7.557-54.743-26.665c0,0,26.363-4.975,33.8-6.766s26.693-7.632,31.3-8.216,34.81-7.384,34.81-7.384S773.688,230.928,770.189,236.9Z" transform="translate(-669.99 -193.503)" fill="#cd2e63"/>
</svg>
