<svg xmlns="http://www.w3.org/2000/svg" xmlns:xlink="http://www.w3.org/1999/xlink" width="66.16" height="66.16" viewBox="0 0 37.151 37.151">
  <defs>
    <clipPath id="clip-path">
      <ellipse id="Ellipse_294" data-name="Ellipse 294" cx="18.576" cy="18.575" rx="18.576" ry="18.575" transform="translate(0 0)" fill="#463383" stroke="#707070" stroke-width="1"/>
    </clipPath>
  </defs>
  <g id="Mask_Group_193" data-name="Mask Group 193" clip-path="url(#clip-path)">
    <g id="Group_1135" data-name="Group 1135" transform="translate(-23.993 -8.514)">
      <rect id="Rectangle_8344" data-name="Rectangle 8344" width="7.74" height="7.74" transform="translate(15.48)"/>
      <rect id="Rectangle_8345" data-name="Rectangle 8345" width="7.74" height="7.74" transform="translate(15.48 30.959)"/>
      <rect id="Rectangle_8346" data-name="Rectangle 8346" width="7.74" height="7.74" transform="translate(15.48 15.48)"/>
      <rect id="Rectangle_8347" data-name="Rectangle 8347" width="7.74" height="7.74" transform="translate(15.48 46.439)"/>
      <rect id="Rectangle_8348" data-name="Rectangle 8348" width="7.74" height="7.74"/>
      <rect id="Rectangle_8349" data-name="Rectangle 8349" width="7.74" height="7.74" transform="translate(0 30.959)"/>
      <rect id="Rectangle_8350" data-name="Rectangle 8350" width="7.74" height="7.74" transform="translate(0 15.48)"/>
      <rect id="Rectangle_8351" data-name="Rectangle 8351" width="7.74" height="7.74" transform="translate(0 46.439)"/>
      <rect id="Rectangle_8352" data-name="Rectangle 8352" width="7.74" height="7.74" transform="translate(23.219 7.74)"/>
      <rect id="Rectangle_8353" data-name="Rectangle 8353" width="7.74" height="7.74" transform="translate(23.219 38.699)"/>
      <rect id="Rectangle_8354" data-name="Rectangle 8354" width="7.74" height="7.74" transform="translate(23.219 23.219)"/>
      <rect id="Rectangle_8355" data-name="Rectangle 8355" width="7.74" height="7.74" transform="translate(23.219 54.178)"/>
      <rect id="Rectangle_8356" data-name="Rectangle 8356" width="7.74" height="7.74" transform="translate(7.74 7.74)"/>
      <rect id="Rectangle_8357" data-name="Rectangle 8357" width="7.74" height="7.74" transform="translate(7.74 38.699)"/>
      <rect id="Rectangle_8358" data-name="Rectangle 8358" width="7.74" height="7.74" transform="translate(7.74 23.219)"/>
      <rect id="Rectangle_8359" data-name="Rectangle 8359" width="7.74" height="7.74" transform="translate(7.74 54.178)"/>
      <rect id="Rectangle_8360" data-name="Rectangle 8360" width="7.74" height="7.74" transform="translate(30.959)"/>
      <rect id="Rectangle_8361" data-name="Rectangle 8361" width="7.74" height="7.74" transform="translate(30.959 30.959)"/>
      <rect id="Rectangle_8362" data-name="Rectangle 8362" width="7.74" height="7.74" transform="translate(30.959 15.48)"/>
      <rect id="Rectangle_8363" data-name="Rectangle 8363" width="7.74" height="7.74" transform="translate(30.959 46.439)"/>
      <rect id="Rectangle_8364" data-name="Rectangle 8364" width="7.74" height="7.74" transform="translate(38.699 7.74)"/>
      <rect id="Rectangle_8365" data-name="Rectangle 8365" width="7.74" height="7.74" transform="translate(38.699 38.699)"/>
      <rect id="Rectangle_8366" data-name="Rectangle 8366" width="7.74" height="7.74" transform="translate(38.699 23.219)"/>
      <rect id="Rectangle_8367" data-name="Rectangle 8367" width="7.74" height="7.74" transform="translate(38.699 54.178)"/>
      <rect id="Rectangle_8368" data-name="Rectangle 8368" width="7.74" height="7.74" transform="translate(46.439)"/>
      <rect id="Rectangle_8369" data-name="Rectangle 8369" width="7.74" height="7.74" transform="translate(46.439 30.959)"/>
      <rect id="Rectangle_8370" data-name="Rectangle 8370" width="7.74" height="7.74" transform="translate(46.439 15.48)"/>
      <rect id="Rectangle_8371" data-name="Rectangle 8371" width="7.74" height="7.74" transform="translate(46.439 46.439)"/>
      <rect id="Rectangle_8372" data-name="Rectangle 8372" width="7.74" height="7.74" transform="translate(54.179 7.74)"/>
      <rect id="Rectangle_8373" data-name="Rectangle 8373" width="7.74" height="7.74" transform="translate(54.179 38.699)"/>
      <rect id="Rectangle_8374" data-name="Rectangle 8374" width="7.74" height="7.74" transform="translate(54.179 23.219)"/>
      <rect id="Rectangle_8375" data-name="Rectangle 8375" width="7.74" height="7.74" transform="translate(54.179 54.178)"/>
      <rect id="Rectangle_8376" data-name="Rectangle 8376" width="7.74" height="7.74" transform="translate(61.919)"/>
      <rect id="Rectangle_8377" data-name="Rectangle 8377" width="7.74" height="7.74" transform="translate(61.919 30.959)"/>
      <rect id="Rectangle_8378" data-name="Rectangle 8378" width="7.74" height="7.74" transform="translate(61.919 15.48)"/>
      <rect id="Rectangle_8379" data-name="Rectangle 8379" width="7.74" height="7.74" transform="translate(61.919 46.439)"/>
      <rect id="Rectangle_8380" data-name="Rectangle 8380" width="7.74" height="7.74" transform="translate(69.658 7.74)"/>
      <rect id="Rectangle_8381" data-name="Rectangle 8381" width="7.74" height="7.74" transform="translate(69.658 38.699)"/>
      <rect id="Rectangle_8382" data-name="Rectangle 8382" width="7.74" height="7.74" transform="translate(69.658 23.219)"/>
      <rect id="Rectangle_8383" data-name="Rectangle 8383" width="7.74" height="7.74" transform="translate(69.658 54.178)"/>
      <rect id="Rectangle_8384" data-name="Rectangle 8384" width="7.74" height="7.74" transform="translate(77.398)"/>
      <rect id="Rectangle_8385" data-name="Rectangle 8385" width="7.74" height="7.74" transform="translate(77.398 30.959)"/>
      <rect id="Rectangle_8386" data-name="Rectangle 8386" width="7.74" height="7.74" transform="translate(77.398 15.48)"/>
      <rect id="Rectangle_8387" data-name="Rectangle 8387" width="7.74" height="7.74" transform="translate(77.398 46.439)"/>
      <rect id="Rectangle_8388" data-name="Rectangle 8388" width="7.74" height="7.74" transform="translate(85.138 7.74)"/>
      <rect id="Rectangle_8389" data-name="Rectangle 8389" width="7.74" height="7.74" transform="translate(85.138 38.699)"/>
      <rect id="Rectangle_8390" data-name="Rectangle 8390" width="7.74" height="7.74" transform="translate(85.138 23.219)"/>
      <rect id="Rectangle_8391" data-name="Rectangle 8391" width="7.74" height="7.74" transform="translate(85.138 54.178)"/>
    </g>
  </g>
</svg>
