<svg xmlns="http://www.w3.org/2000/svg" xmlns:xlink="http://www.w3.org/1999/xlink" width="67.81" height="100" viewBox="0 0 38.074 64.976">
  <defs>
    <clipPath id="clip-path">
      <path id="Path_604" data-name="Path 604" d="M54.959,0C67.681,0,77.893,2.54,78.123,26S59.693,64.976,46.97,64.976s-4.005-16.232-4.005-34.839S42.236,0,54.959,0Z" transform="translate(-40.051 0)" fill="#fff" stroke="#cd2e63" stroke-width="1"/>
    </clipPath>
  </defs>
  <g id="Mask_Group_197" data-name="Mask Group 197" clip-path="url(#clip-path)">
    <g id="Group_1141" data-name="Group 1141" transform="translate(-29.943 -17.803)">
      <rect id="Rectangle_8584" data-name="Rectangle 8584" width="7.74" height="7.74" transform="translate(15.48)" fill="#e0873d"/>
      <rect id="Rectangle_8585" data-name="Rectangle 8585" width="7.74" height="7.74" transform="translate(15.48 30.959)" fill="#e0873d"/>
      <rect id="Rectangle_8586" data-name="Rectangle 8586" width="7.74" height="7.74" transform="translate(15.48 15.48)" fill="#e0873d"/>
      <rect id="Rectangle_8587" data-name="Rectangle 8587" width="7.74" height="7.74" transform="translate(15.48 46.439)" fill="#e0873d"/>
      <rect id="Rectangle_8588" data-name="Rectangle 8588" width="7.74" height="7.74" fill="#e0873d"/>
      <rect id="Rectangle_8589" data-name="Rectangle 8589" width="7.74" height="7.74" transform="translate(0 30.959)" fill="#e0873d"/>
      <rect id="Rectangle_8590" data-name="Rectangle 8590" width="7.74" height="7.74" transform="translate(0 15.48)" fill="#e0873d"/>
      <rect id="Rectangle_8591" data-name="Rectangle 8591" width="7.74" height="7.74" transform="translate(0 46.439)" fill="#e0873d"/>
      <rect id="Rectangle_8592" data-name="Rectangle 8592" width="7.74" height="7.74" transform="translate(23.219 7.74)" fill="#e0873d"/>
      <rect id="Rectangle_8593" data-name="Rectangle 8593" width="7.74" height="7.74" transform="translate(23.219 38.699)" fill="#e0873d"/>
      <rect id="Rectangle_8594" data-name="Rectangle 8594" width="7.74" height="7.74" transform="translate(23.219 23.219)" fill="#e0873d"/>
      <rect id="Rectangle_8595" data-name="Rectangle 8595" width="7.74" height="7.74" transform="translate(23.219 54.178)" fill="#e0873d"/>
      <rect id="Rectangle_8596" data-name="Rectangle 8596" width="7.74" height="7.74" transform="translate(7.74 7.74)" fill="#e0873d"/>
      <rect id="Rectangle_8597" data-name="Rectangle 8597" width="7.74" height="7.74" transform="translate(7.74 38.699)" fill="#e0873d"/>
      <rect id="Rectangle_8598" data-name="Rectangle 8598" width="7.74" height="7.74" transform="translate(7.74 23.219)" fill="#e0873d"/>
      <rect id="Rectangle_8599" data-name="Rectangle 8599" width="7.74" height="7.74" transform="translate(7.74 54.178)" fill="#e0873d"/>
      <rect id="Rectangle_8600" data-name="Rectangle 8600" width="7.74" height="7.74" transform="translate(30.959)" fill="#e0873d"/>
      <rect id="Rectangle_8601" data-name="Rectangle 8601" width="7.74" height="7.74" transform="translate(30.959 30.959)" fill="#e0873d"/>
      <rect id="Rectangle_8602" data-name="Rectangle 8602" width="7.74" height="7.74" transform="translate(30.959 15.48)" fill="#e0873d"/>
      <rect id="Rectangle_8603" data-name="Rectangle 8603" width="7.74" height="7.74" transform="translate(30.959 46.439)" fill="#e0873d"/>
      <rect id="Rectangle_8604" data-name="Rectangle 8604" width="7.74" height="7.74" transform="translate(38.699 7.74)" fill="#e0873d"/>
      <rect id="Rectangle_8605" data-name="Rectangle 8605" width="7.74" height="7.74" transform="translate(38.699 38.699)" fill="#e0873d"/>
      <rect id="Rectangle_8606" data-name="Rectangle 8606" width="7.74" height="7.74" transform="translate(38.699 23.219)" fill="#e0873d"/>
      <rect id="Rectangle_8607" data-name="Rectangle 8607" width="7.74" height="7.74" transform="translate(38.699 54.178)" fill="#e0873d"/>
      <rect id="Rectangle_8608" data-name="Rectangle 8608" width="7.74" height="7.74" transform="translate(46.439)" fill="#e0873d"/>
      <rect id="Rectangle_8609" data-name="Rectangle 8609" width="7.74" height="7.74" transform="translate(46.439 30.959)" fill="#e0873d"/>
      <rect id="Rectangle_8610" data-name="Rectangle 8610" width="7.74" height="7.74" transform="translate(46.439 15.48)" fill="#e0873d"/>
      <rect id="Rectangle_8611" data-name="Rectangle 8611" width="7.74" height="7.74" transform="translate(46.439 46.439)" fill="#e0873d"/>
      <rect id="Rectangle_8612" data-name="Rectangle 8612" width="7.74" height="7.74" transform="translate(54.179 7.74)" fill="#e0873d"/>
      <rect id="Rectangle_8613" data-name="Rectangle 8613" width="7.74" height="7.74" transform="translate(54.179 38.699)" fill="#e0873d"/>
      <rect id="Rectangle_8614" data-name="Rectangle 8614" width="7.74" height="7.74" transform="translate(54.179 23.219)" fill="#e0873d"/>
      <rect id="Rectangle_8615" data-name="Rectangle 8615" width="7.74" height="7.74" transform="translate(54.179 54.178)" fill="#e0873d"/>
      <rect id="Rectangle_8616" data-name="Rectangle 8616" width="7.74" height="7.74" transform="translate(61.919)" fill="#e0873d"/>
      <rect id="Rectangle_8617" data-name="Rectangle 8617" width="7.74" height="7.74" transform="translate(61.919 30.959)" fill="#e0873d"/>
      <rect id="Rectangle_8618" data-name="Rectangle 8618" width="7.74" height="7.74" transform="translate(61.919 15.48)" fill="#e0873d"/>
      <rect id="Rectangle_8619" data-name="Rectangle 8619" width="7.74" height="7.74" transform="translate(61.919 46.439)" fill="#e0873d"/>
      <rect id="Rectangle_8620" data-name="Rectangle 8620" width="7.74" height="7.74" transform="translate(69.658 7.74)" fill="#e0873d"/>
      <rect id="Rectangle_8621" data-name="Rectangle 8621" width="7.74" height="7.74" transform="translate(69.658 38.699)" fill="#e0873d"/>
      <rect id="Rectangle_8622" data-name="Rectangle 8622" width="7.74" height="7.74" transform="translate(69.658 23.219)" fill="#e0873d"/>
      <rect id="Rectangle_8623" data-name="Rectangle 8623" width="7.74" height="7.74" transform="translate(69.658 54.178)" fill="#e0873d"/>
      <rect id="Rectangle_8624" data-name="Rectangle 8624" width="7.74" height="7.74" transform="translate(77.398)" fill="#e0873d"/>
      <rect id="Rectangle_8625" data-name="Rectangle 8625" width="7.74" height="7.74" transform="translate(77.398 30.959)" fill="#e0873d"/>
      <rect id="Rectangle_8626" data-name="Rectangle 8626" width="7.74" height="7.74" transform="translate(77.398 15.48)" fill="#e0873d"/>
      <rect id="Rectangle_8627" data-name="Rectangle 8627" width="7.74" height="7.74" transform="translate(77.398 46.439)" fill="#e0873d"/>
      <rect id="Rectangle_8628" data-name="Rectangle 8628" width="7.74" height="7.74" transform="translate(85.138 7.74)" fill="#e0873d"/>
      <rect id="Rectangle_8629" data-name="Rectangle 8629" width="7.74" height="7.74" transform="translate(85.138 38.699)" fill="#e0873d"/>
      <rect id="Rectangle_8630" data-name="Rectangle 8630" width="7.74" height="7.74" transform="translate(85.138 23.219)" fill="#e0873d"/>
      <rect id="Rectangle_8631" data-name="Rectangle 8631" width="7.74" height="7.74" transform="translate(85.138 54.178)" fill="#e0873d"/>
    </g>
    <g id="Group_1142" data-name="Group 1142" transform="translate(-29.943 44.115)">
      <rect id="Rectangle_8632" data-name="Rectangle 8632" width="7.74" height="7.74" transform="translate(15.48)" fill="#e0873d"/>
      <rect id="Rectangle_8633" data-name="Rectangle 8633" width="7.74" height="7.74" transform="translate(15.48 30.959)" fill="#e0873d"/>
      <rect id="Rectangle_8634" data-name="Rectangle 8634" width="7.74" height="7.74" transform="translate(15.48 15.48)" fill="#e0873d"/>
      <rect id="Rectangle_8635" data-name="Rectangle 8635" width="7.74" height="7.74" transform="translate(15.48 46.439)" fill="#e0873d"/>
      <rect id="Rectangle_8636" data-name="Rectangle 8636" width="7.74" height="7.74" fill="#e0873d"/>
      <rect id="Rectangle_8637" data-name="Rectangle 8637" width="7.74" height="7.74" transform="translate(0 30.959)" fill="#e0873d"/>
      <rect id="Rectangle_8638" data-name="Rectangle 8638" width="7.74" height="7.74" transform="translate(0 15.48)" fill="#e0873d"/>
      <rect id="Rectangle_8639" data-name="Rectangle 8639" width="7.74" height="7.74" transform="translate(0 46.439)" fill="#e0873d"/>
      <rect id="Rectangle_8640" data-name="Rectangle 8640" width="7.74" height="7.74" transform="translate(23.219 7.74)" fill="#e0873d"/>
      <rect id="Rectangle_8641" data-name="Rectangle 8641" width="7.74" height="7.74" transform="translate(23.219 38.699)" fill="#e0873d"/>
      <rect id="Rectangle_8642" data-name="Rectangle 8642" width="7.74" height="7.74" transform="translate(23.219 23.219)" fill="#e0873d"/>
      <rect id="Rectangle_8643" data-name="Rectangle 8643" width="7.74" height="7.74" transform="translate(23.219 54.178)" fill="#e0873d"/>
      <rect id="Rectangle_8644" data-name="Rectangle 8644" width="7.74" height="7.74" transform="translate(7.74 7.74)" fill="#e0873d"/>
      <rect id="Rectangle_8645" data-name="Rectangle 8645" width="7.74" height="7.74" transform="translate(7.74 38.699)" fill="#e0873d"/>
      <rect id="Rectangle_8646" data-name="Rectangle 8646" width="7.74" height="7.74" transform="translate(7.74 23.219)" fill="#e0873d"/>
      <rect id="Rectangle_8647" data-name="Rectangle 8647" width="7.74" height="7.74" transform="translate(7.74 54.178)" fill="#e0873d"/>
      <rect id="Rectangle_8648" data-name="Rectangle 8648" width="7.74" height="7.74" transform="translate(30.959)" fill="#e0873d"/>
      <rect id="Rectangle_8649" data-name="Rectangle 8649" width="7.74" height="7.74" transform="translate(30.959 30.959)" fill="#e0873d"/>
      <rect id="Rectangle_8650" data-name="Rectangle 8650" width="7.74" height="7.74" transform="translate(30.959 15.48)" fill="#e0873d"/>
      <rect id="Rectangle_8651" data-name="Rectangle 8651" width="7.74" height="7.74" transform="translate(30.959 46.439)" fill="#e0873d"/>
      <rect id="Rectangle_8652" data-name="Rectangle 8652" width="7.74" height="7.74" transform="translate(38.699 7.74)" fill="#e0873d"/>
      <rect id="Rectangle_8653" data-name="Rectangle 8653" width="7.74" height="7.74" transform="translate(38.699 38.699)" fill="#e0873d"/>
      <rect id="Rectangle_8654" data-name="Rectangle 8654" width="7.74" height="7.74" transform="translate(38.699 23.219)" fill="#e0873d"/>
      <rect id="Rectangle_8655" data-name="Rectangle 8655" width="7.74" height="7.74" transform="translate(38.699 54.178)" fill="#e0873d"/>
      <rect id="Rectangle_8656" data-name="Rectangle 8656" width="7.74" height="7.74" transform="translate(46.439)" fill="#e0873d"/>
      <rect id="Rectangle_8657" data-name="Rectangle 8657" width="7.74" height="7.74" transform="translate(46.439 30.959)" fill="#e0873d"/>
      <rect id="Rectangle_8658" data-name="Rectangle 8658" width="7.74" height="7.74" transform="translate(46.439 15.48)" fill="#e0873d"/>
      <rect id="Rectangle_8659" data-name="Rectangle 8659" width="7.74" height="7.74" transform="translate(46.439 46.439)" fill="#e0873d"/>
      <rect id="Rectangle_8660" data-name="Rectangle 8660" width="7.74" height="7.74" transform="translate(54.179 7.74)" fill="#e0873d"/>
      <rect id="Rectangle_8661" data-name="Rectangle 8661" width="7.74" height="7.74" transform="translate(54.179 38.699)" fill="#e0873d"/>
      <rect id="Rectangle_8662" data-name="Rectangle 8662" width="7.74" height="7.74" transform="translate(54.179 23.219)" fill="#e0873d"/>
      <rect id="Rectangle_8663" data-name="Rectangle 8663" width="7.74" height="7.74" transform="translate(54.179 54.178)" fill="#e0873d"/>
      <rect id="Rectangle_8664" data-name="Rectangle 8664" width="7.74" height="7.74" transform="translate(61.919)" fill="#e0873d"/>
      <rect id="Rectangle_8665" data-name="Rectangle 8665" width="7.74" height="7.74" transform="translate(61.919 30.959)" fill="#e0873d"/>
      <rect id="Rectangle_8666" data-name="Rectangle 8666" width="7.74" height="7.74" transform="translate(61.919 15.48)" fill="#e0873d"/>
      <rect id="Rectangle_8667" data-name="Rectangle 8667" width="7.74" height="7.74" transform="translate(61.919 46.439)" fill="#e0873d"/>
      <rect id="Rectangle_8668" data-name="Rectangle 8668" width="7.74" height="7.74" transform="translate(69.658 7.74)" fill="#e0873d"/>
      <rect id="Rectangle_8669" data-name="Rectangle 8669" width="7.74" height="7.74" transform="translate(69.658 38.699)" fill="#e0873d"/>
      <rect id="Rectangle_8670" data-name="Rectangle 8670" width="7.74" height="7.74" transform="translate(69.658 23.219)" fill="#e0873d"/>
      <rect id="Rectangle_8671" data-name="Rectangle 8671" width="7.74" height="7.74" transform="translate(69.658 54.178)" fill="#e0873d"/>
      <rect id="Rectangle_8672" data-name="Rectangle 8672" width="7.74" height="7.74" transform="translate(77.398)" fill="#e0873d"/>
      <rect id="Rectangle_8673" data-name="Rectangle 8673" width="7.74" height="7.74" transform="translate(77.398 30.959)" fill="#e0873d"/>
      <rect id="Rectangle_8674" data-name="Rectangle 8674" width="7.74" height="7.74" transform="translate(77.398 15.48)" fill="#e0873d"/>
      <rect id="Rectangle_8675" data-name="Rectangle 8675" width="7.74" height="7.74" transform="translate(77.398 46.439)" fill="#e0873d"/>
      <rect id="Rectangle_8676" data-name="Rectangle 8676" width="7.74" height="7.74" transform="translate(85.138 7.74)" fill="#e0873d"/>
      <rect id="Rectangle_8677" data-name="Rectangle 8677" width="7.74" height="7.74" transform="translate(85.138 38.699)" fill="#e0873d"/>
      <rect id="Rectangle_8678" data-name="Rectangle 8678" width="7.74" height="7.74" transform="translate(85.138 23.219)" fill="#e0873d"/>
      <rect id="Rectangle_8679" data-name="Rectangle 8679" width="7.74" height="7.74" transform="translate(85.138 54.178)" fill="#e0873d"/>
    </g>
  </g>
</svg>
