<svg xmlns="http://www.w3.org/2000/svg" xmlns:xlink="http://www.w3.org/1999/xlink" width="100" height="66.36" viewBox="0 0 87.992 37.261">
  <defs>
    <clipPath id="clip-path">
      <path id="Path_601" data-name="Path 601" d="M44,0c24.3,0,44,18.631,44,18.631s-19.7,18.631-44,18.631S0,18.631,0,18.631,19.7,0,44,0Z" transform="translate(0 0)" fill="#fff" stroke="#707070" stroke-width="1"/>
    </clipPath>
  </defs>
  <g id="Mask_Group_194" data-name="Mask Group 194" clip-path="url(#clip-path)">
    <g id="Group_1136" data-name="Group 1136" transform="translate(1.427 -16.148)">
      <rect id="Rectangle_8392" data-name="Rectangle 8392" width="7.74" height="7.74" transform="translate(15.48)" fill="#5bbf7f"/>
      <rect id="Rectangle_8393" data-name="Rectangle 8393" width="7.74" height="7.74" transform="translate(15.48 30.959)" fill="#5bbf7f"/>
      <rect id="Rectangle_8394" data-name="Rectangle 8394" width="7.74" height="7.74" transform="translate(15.48 15.48)" fill="#5bbf7f"/>
      <rect id="Rectangle_8395" data-name="Rectangle 8395" width="7.74" height="7.74" transform="translate(15.48 46.439)" fill="#5bbf7f"/>
      <rect id="Rectangle_8396" data-name="Rectangle 8396" width="7.74" height="7.74" fill="#5bbf7f"/>
      <rect id="Rectangle_8397" data-name="Rectangle 8397" width="7.74" height="7.74" transform="translate(0 30.959)" fill="#5bbf7f"/>
      <rect id="Rectangle_8398" data-name="Rectangle 8398" width="7.74" height="7.74" transform="translate(0 15.48)" fill="#5bbf7f"/>
      <rect id="Rectangle_8399" data-name="Rectangle 8399" width="7.74" height="7.74" transform="translate(0 46.439)" fill="#5bbf7f"/>
      <rect id="Rectangle_8400" data-name="Rectangle 8400" width="7.74" height="7.74" transform="translate(23.219 7.74)" fill="#5bbf7f"/>
      <rect id="Rectangle_8401" data-name="Rectangle 8401" width="7.74" height="7.74" transform="translate(23.219 38.699)" fill="#5bbf7f"/>
      <rect id="Rectangle_8402" data-name="Rectangle 8402" width="7.74" height="7.74" transform="translate(23.219 23.219)" fill="#5bbf7f"/>
      <rect id="Rectangle_8403" data-name="Rectangle 8403" width="7.74" height="7.74" transform="translate(23.219 54.178)" fill="#5bbf7f"/>
      <rect id="Rectangle_8404" data-name="Rectangle 8404" width="7.74" height="7.74" transform="translate(7.74 7.74)" fill="#5bbf7f"/>
      <rect id="Rectangle_8405" data-name="Rectangle 8405" width="7.74" height="7.74" transform="translate(7.74 38.699)" fill="#5bbf7f"/>
      <rect id="Rectangle_8406" data-name="Rectangle 8406" width="7.74" height="7.74" transform="translate(7.74 23.219)" fill="#5bbf7f"/>
      <rect id="Rectangle_8407" data-name="Rectangle 8407" width="7.74" height="7.74" transform="translate(7.74 54.178)" fill="#5bbf7f"/>
      <rect id="Rectangle_8408" data-name="Rectangle 8408" width="7.74" height="7.74" transform="translate(30.959)" fill="#5bbf7f"/>
      <rect id="Rectangle_8409" data-name="Rectangle 8409" width="7.74" height="7.74" transform="translate(30.959 30.959)" fill="#5bbf7f"/>
      <rect id="Rectangle_8410" data-name="Rectangle 8410" width="7.74" height="7.74" transform="translate(30.959 15.48)" fill="#5bbf7f"/>
      <rect id="Rectangle_8411" data-name="Rectangle 8411" width="7.74" height="7.74" transform="translate(30.959 46.439)" fill="#5bbf7f"/>
      <rect id="Rectangle_8412" data-name="Rectangle 8412" width="7.74" height="7.74" transform="translate(38.699 7.74)" fill="#5bbf7f"/>
      <rect id="Rectangle_8413" data-name="Rectangle 8413" width="7.74" height="7.74" transform="translate(38.699 38.699)" fill="#5bbf7f"/>
      <rect id="Rectangle_8414" data-name="Rectangle 8414" width="7.74" height="7.74" transform="translate(38.699 23.219)" fill="#5bbf7f"/>
      <rect id="Rectangle_8415" data-name="Rectangle 8415" width="7.74" height="7.74" transform="translate(38.699 54.178)" fill="#5bbf7f"/>
      <rect id="Rectangle_8416" data-name="Rectangle 8416" width="7.74" height="7.74" transform="translate(46.439)" fill="#5bbf7f"/>
      <rect id="Rectangle_8417" data-name="Rectangle 8417" width="7.74" height="7.74" transform="translate(46.439 30.959)" fill="#5bbf7f"/>
      <rect id="Rectangle_8418" data-name="Rectangle 8418" width="7.74" height="7.74" transform="translate(46.439 15.48)" fill="#5bbf7f"/>
      <rect id="Rectangle_8419" data-name="Rectangle 8419" width="7.74" height="7.74" transform="translate(46.439 46.439)" fill="#5bbf7f"/>
      <rect id="Rectangle_8420" data-name="Rectangle 8420" width="7.74" height="7.74" transform="translate(54.179 7.74)" fill="#5bbf7f"/>
      <rect id="Rectangle_8421" data-name="Rectangle 8421" width="7.74" height="7.74" transform="translate(54.179 38.699)" fill="#5bbf7f"/>
      <rect id="Rectangle_8422" data-name="Rectangle 8422" width="7.74" height="7.74" transform="translate(54.179 23.219)" fill="#5bbf7f"/>
      <rect id="Rectangle_8423" data-name="Rectangle 8423" width="7.74" height="7.74" transform="translate(54.179 54.178)" fill="#5bbf7f"/>
      <rect id="Rectangle_8424" data-name="Rectangle 8424" width="7.74" height="7.74" transform="translate(61.919)" fill="#5bbf7f"/>
      <rect id="Rectangle_8425" data-name="Rectangle 8425" width="7.74" height="7.74" transform="translate(61.919 30.959)" fill="#5bbf7f"/>
      <rect id="Rectangle_8426" data-name="Rectangle 8426" width="7.74" height="7.74" transform="translate(61.919 15.48)" fill="#5bbf7f"/>
      <rect id="Rectangle_8427" data-name="Rectangle 8427" width="7.74" height="7.74" transform="translate(61.919 46.439)" fill="#5bbf7f"/>
      <rect id="Rectangle_8428" data-name="Rectangle 8428" width="7.74" height="7.74" transform="translate(69.658 7.74)" fill="#5bbf7f"/>
      <rect id="Rectangle_8429" data-name="Rectangle 8429" width="7.74" height="7.74" transform="translate(69.658 38.699)" fill="#5bbf7f"/>
      <rect id="Rectangle_8430" data-name="Rectangle 8430" width="7.74" height="7.74" transform="translate(69.658 23.219)" fill="#5bbf7f"/>
      <rect id="Rectangle_8431" data-name="Rectangle 8431" width="7.74" height="7.74" transform="translate(69.658 54.178)" fill="#5bbf7f"/>
      <rect id="Rectangle_8432" data-name="Rectangle 8432" width="7.74" height="7.74" transform="translate(77.398)" fill="#5bbf7f"/>
      <rect id="Rectangle_8433" data-name="Rectangle 8433" width="7.74" height="7.74" transform="translate(77.398 30.959)" fill="#5bbf7f"/>
      <rect id="Rectangle_8434" data-name="Rectangle 8434" width="7.74" height="7.74" transform="translate(77.398 15.48)" fill="#5bbf7f"/>
      <rect id="Rectangle_8435" data-name="Rectangle 8435" width="7.74" height="7.74" transform="translate(77.398 46.439)" fill="#5bbf7f"/>
      <rect id="Rectangle_8436" data-name="Rectangle 8436" width="7.74" height="7.74" transform="translate(85.138 7.74)" fill="#5bbf7f"/>
      <rect id="Rectangle_8437" data-name="Rectangle 8437" width="7.74" height="7.74" transform="translate(85.138 38.699)" fill="#5bbf7f"/>
      <rect id="Rectangle_8438" data-name="Rectangle 8438" width="7.74" height="7.74" transform="translate(85.138 23.219)" fill="#5bbf7f"/>
      <rect id="Rectangle_8439" data-name="Rectangle 8439" width="7.74" height="7.74" transform="translate(85.138 54.178)" fill="#5bbf7f"/>
    </g>
  </g>
</svg>
