<svg xmlns="http://www.w3.org/2000/svg" xmlns:xlink="http://www.w3.org/1999/xlink" width="100" height="77.214" viewBox="0 0 131.679 77.214">
  <defs>
    <clipPath id="clip-path">
      <path id="Path_379" data-name="Path 379" d="M4.515,0C20.437,0,56.369,8.131,72.869,43.807c5.277,11.411,4.7,31.363,3.641,37.928-3.92,26.089-31.664,49.944-52.7,49.944S42.752,101.85,42.752,67.436-16.517,0,4.515,0Z" transform="translate(0 0)" fill="#fff" stroke="#cd2e63" stroke-width="1"/>
    </clipPath>
  </defs>
  <g id="Mask_Group_103" data-name="Mask Group 103" transform="translate(0 77.214) rotate(-90)" clip-path="url(#clip-path)">
    <g id="Group_589" data-name="Group 589" transform="translate(88.953 -19.225) rotate(90)">
      <rect id="Rectangle_5571" data-name="Rectangle 5571" width="13.784" height="13.784" transform="translate(27.568)" fill="#cd2e63"/>
      <rect id="Rectangle_5616" data-name="Rectangle 5616" width="13.784" height="13.784" transform="translate(27.568 55.136)" fill="#cd2e63"/>
      <rect id="Rectangle_5585" data-name="Rectangle 5585" width="13.784" height="13.784" transform="translate(27.568 27.568)" fill="#cd2e63"/>
      <rect id="Rectangle_5597" data-name="Rectangle 5597" width="13.784" height="13.784" transform="translate(27.568 82.705)" fill="#cd2e63"/>
      <rect id="Rectangle_5581" data-name="Rectangle 5581" width="13.784" height="13.784" transform="translate(0)" fill="#cd2e63"/>
      <rect id="Rectangle_5618" data-name="Rectangle 5618" width="13.784" height="13.784" transform="translate(0 55.136)" fill="#cd2e63"/>
      <rect id="Rectangle_5583" data-name="Rectangle 5583" width="13.784" height="13.784" transform="translate(0 27.568)" fill="#cd2e63"/>
      <rect id="Rectangle_5595" data-name="Rectangle 5595" width="13.784" height="13.784" transform="translate(0 82.705)" fill="#cd2e63"/>
      <rect id="Rectangle_5580" data-name="Rectangle 5580" width="13.784" height="13.784" transform="translate(41.352 13.784)" fill="#cd2e63"/>
      <rect id="Rectangle_5615" data-name="Rectangle 5615" width="13.784" height="13.784" transform="translate(41.352 68.921)" fill="#cd2e63"/>
      <rect id="Rectangle_5586" data-name="Rectangle 5586" width="13.784" height="13.784" transform="translate(41.352 41.352)" fill="#cd2e63"/>
      <rect id="Rectangle_5598" data-name="Rectangle 5598" width="13.784" height="13.784" transform="translate(41.352 96.489)" fill="#cd2e63"/>
      <rect id="Rectangle_5582" data-name="Rectangle 5582" width="13.784" height="13.784" transform="translate(13.784 13.784)" fill="#cd2e63"/>
      <rect id="Rectangle_5617" data-name="Rectangle 5617" width="13.784" height="13.784" transform="translate(13.784 68.921)" fill="#cd2e63"/>
      <rect id="Rectangle_5584" data-name="Rectangle 5584" width="13.784" height="13.784" transform="translate(13.784 41.352)" fill="#cd2e63"/>
      <rect id="Rectangle_5596" data-name="Rectangle 5596" width="13.784" height="13.784" transform="translate(13.784 96.489)" fill="#cd2e63"/>
      <rect id="Rectangle_5572" data-name="Rectangle 5572" width="13.784" height="13.784" transform="translate(55.136)" fill="#cd2e63"/>
      <rect id="Rectangle_5614" data-name="Rectangle 5614" width="13.784" height="13.784" transform="translate(55.136 55.136)" fill="#cd2e63"/>
      <rect id="Rectangle_5587" data-name="Rectangle 5587" width="13.784" height="13.784" transform="translate(55.136 27.568)" fill="#cd2e63"/>
      <rect id="Rectangle_5599" data-name="Rectangle 5599" width="13.784" height="13.784" transform="translate(55.136 82.705)" fill="#cd2e63"/>
      <rect id="Rectangle_5579" data-name="Rectangle 5579" width="13.784" height="13.784" transform="translate(68.921 13.784)" fill="#cd2e63"/>
      <rect id="Rectangle_5613" data-name="Rectangle 5613" width="13.784" height="13.784" transform="translate(68.921 68.921)" fill="#cd2e63"/>
      <rect id="Rectangle_5588" data-name="Rectangle 5588" width="13.784" height="13.784" transform="translate(68.921 41.352)" fill="#cd2e63"/>
      <rect id="Rectangle_5600" data-name="Rectangle 5600" width="13.784" height="13.784" transform="translate(68.921 96.489)" fill="#cd2e63"/>
      <rect id="Rectangle_5573" data-name="Rectangle 5573" width="13.784" height="13.784" transform="translate(82.705)" fill="#cd2e63"/>
      <rect id="Rectangle_5612" data-name="Rectangle 5612" width="13.784" height="13.784" transform="translate(82.705 55.136)" fill="#cd2e63"/>
      <rect id="Rectangle_5589" data-name="Rectangle 5589" width="13.784" height="13.784" transform="translate(82.705 27.568)" fill="#cd2e63"/>
      <rect id="Rectangle_5601" data-name="Rectangle 5601" width="13.784" height="13.784" transform="translate(82.705 82.705)" fill="#cd2e63"/>
      <rect id="Rectangle_5578" data-name="Rectangle 5578" width="13.784" height="13.784" transform="translate(96.489 13.784)" fill="#cd2e63"/>
      <rect id="Rectangle_5611" data-name="Rectangle 5611" width="13.784" height="13.784" transform="translate(96.489 68.921)" fill="#cd2e63"/>
      <rect id="Rectangle_5590" data-name="Rectangle 5590" width="13.784" height="13.784" transform="translate(96.489 41.352)" fill="#cd2e63"/>
      <rect id="Rectangle_5602" data-name="Rectangle 5602" width="13.784" height="13.784" transform="translate(96.489 96.489)" fill="#cd2e63"/>
      <rect id="Rectangle_5574" data-name="Rectangle 5574" width="13.784" height="13.784" transform="translate(110.273)" fill="#cd2e63"/>
      <rect id="Rectangle_5610" data-name="Rectangle 5610" width="13.784" height="13.784" transform="translate(110.273 55.136)" fill="#cd2e63"/>
      <rect id="Rectangle_5591" data-name="Rectangle 5591" width="13.784" height="13.784" transform="translate(110.273 27.568)" fill="#cd2e63"/>
      <rect id="Rectangle_5603" data-name="Rectangle 5603" width="13.784" height="13.784" transform="translate(110.273 82.705)" fill="#cd2e63"/>
      <rect id="Rectangle_5577" data-name="Rectangle 5577" width="13.784" height="13.784" transform="translate(124.057 13.784)" fill="#cd2e63"/>
      <rect id="Rectangle_5607" data-name="Rectangle 5607" width="13.784" height="13.784" transform="translate(124.057 68.921)" fill="#cd2e63"/>
      <rect id="Rectangle_5592" data-name="Rectangle 5592" width="13.784" height="13.784" transform="translate(124.057 41.352)" fill="#cd2e63"/>
      <rect id="Rectangle_5604" data-name="Rectangle 5604" width="13.784" height="13.784" transform="translate(124.057 96.489)" fill="#cd2e63"/>
      <rect id="Rectangle_5575" data-name="Rectangle 5575" width="13.784" height="13.784" transform="translate(137.841)" fill="#cd2e63"/>
      <rect id="Rectangle_5609" data-name="Rectangle 5609" width="13.784" height="13.784" transform="translate(137.841 55.136)" fill="#cd2e63"/>
      <rect id="Rectangle_5593" data-name="Rectangle 5593" width="13.784" height="13.784" transform="translate(137.841 27.568)" fill="#cd2e63"/>
      <rect id="Rectangle_5605" data-name="Rectangle 5605" width="13.784" height="13.784" transform="translate(137.841 82.705)" fill="#cd2e63"/>
      <rect id="Rectangle_5576" data-name="Rectangle 5576" width="13.784" height="13.784" transform="translate(151.625 13.784)" fill="#cd2e63"/>
      <rect id="Rectangle_5608" data-name="Rectangle 5608" width="13.784" height="13.784" transform="translate(151.625 68.921)" fill="#cd2e63"/>
      <rect id="Rectangle_5594" data-name="Rectangle 5594" width="13.784" height="13.784" transform="translate(151.625 41.352)" fill="#cd2e63"/>
      <rect id="Rectangle_5606" data-name="Rectangle 5606" width="13.784" height="13.784" transform="translate(151.625 96.489)" fill="#cd2e63"/>
    </g>
  </g>
</svg>
