<svg xmlns="http://www.w3.org/2000/svg" xmlns:xlink="http://www.w3.org/1999/xlink" width="90.25" height="68.63" viewBox="0 0 50.676 38.535">
  <defs>
    <clipPath id="clip-path">
      <path id="Path_602" data-name="Path 602" d="M25.338,0C39.331,0,50.676,19.268,50.676,19.268S39.331,38.536,25.338,38.536,0,19.268,0,19.268,11.344,0,25.338,0Z" transform="translate(0)" fill="#fff" stroke="#707070" stroke-width="1"/>
    </clipPath>
  </defs>
  <g id="Group_1138" data-name="Group 1138" clip-path="url(#clip-path)">
    <g id="Group_1137" data-name="Group 1137" transform="translate(-24.923 -7.817)">
      <rect id="Rectangle_8440" data-name="Rectangle 8440" width="7.74" height="7.74" transform="translate(15.48)" fill="#77c1f0"/>
      <rect id="Rectangle_8441" data-name="Rectangle 8441" width="7.74" height="7.74" transform="translate(15.48 30.959)" fill="#77c1f0"/>
      <rect id="Rectangle_8442" data-name="Rectangle 8442" width="7.74" height="7.74" transform="translate(15.48 15.48)" fill="#77c1f0"/>
      <rect id="Rectangle_8443" data-name="Rectangle 8443" width="7.74" height="7.74" transform="translate(15.48 46.439)" fill="#77c1f0"/>
      <rect id="Rectangle_8444" data-name="Rectangle 8444" width="7.74" height="7.74" fill="#77c1f0"/>
      <rect id="Rectangle_8445" data-name="Rectangle 8445" width="7.74" height="7.74" transform="translate(0 30.959)" fill="#77c1f0"/>
      <rect id="Rectangle_8446" data-name="Rectangle 8446" width="7.74" height="7.74" transform="translate(0 15.48)" fill="#77c1f0"/>
      <rect id="Rectangle_8447" data-name="Rectangle 8447" width="7.74" height="7.74" transform="translate(0 46.439)" fill="#77c1f0"/>
      <rect id="Rectangle_8448" data-name="Rectangle 8448" width="7.74" height="7.74" transform="translate(23.219 7.74)" fill="#77c1f0"/>
      <rect id="Rectangle_8449" data-name="Rectangle 8449" width="7.74" height="7.74" transform="translate(23.219 38.699)" fill="#77c1f0"/>
      <rect id="Rectangle_8450" data-name="Rectangle 8450" width="7.74" height="7.74" transform="translate(23.219 23.219)" fill="#77c1f0"/>
      <rect id="Rectangle_8451" data-name="Rectangle 8451" width="7.74" height="7.74" transform="translate(23.219 54.178)" fill="#77c1f0"/>
      <rect id="Rectangle_8452" data-name="Rectangle 8452" width="7.74" height="7.74" transform="translate(7.74 7.74)" fill="#77c1f0"/>
      <rect id="Rectangle_8453" data-name="Rectangle 8453" width="7.74" height="7.74" transform="translate(7.74 38.699)" fill="#77c1f0"/>
      <rect id="Rectangle_8454" data-name="Rectangle 8454" width="7.74" height="7.74" transform="translate(7.74 23.219)" fill="#77c1f0"/>
      <rect id="Rectangle_8455" data-name="Rectangle 8455" width="7.74" height="7.74" transform="translate(7.74 54.178)" fill="#77c1f0"/>
      <rect id="Rectangle_8456" data-name="Rectangle 8456" width="7.74" height="7.74" transform="translate(30.959)" fill="#77c1f0"/>
      <rect id="Rectangle_8457" data-name="Rectangle 8457" width="7.74" height="7.74" transform="translate(30.959 30.959)" fill="#77c1f0"/>
      <rect id="Rectangle_8458" data-name="Rectangle 8458" width="7.74" height="7.74" transform="translate(30.959 15.48)" fill="#77c1f0"/>
      <rect id="Rectangle_8459" data-name="Rectangle 8459" width="7.74" height="7.74" transform="translate(30.959 46.439)" fill="#77c1f0"/>
      <rect id="Rectangle_8460" data-name="Rectangle 8460" width="7.74" height="7.74" transform="translate(38.699 7.74)" fill="#77c1f0"/>
      <rect id="Rectangle_8461" data-name="Rectangle 8461" width="7.74" height="7.74" transform="translate(38.699 38.699)" fill="#77c1f0"/>
      <rect id="Rectangle_8462" data-name="Rectangle 8462" width="7.74" height="7.74" transform="translate(38.699 23.219)" fill="#77c1f0"/>
      <rect id="Rectangle_8463" data-name="Rectangle 8463" width="7.74" height="7.74" transform="translate(38.699 54.178)" fill="#77c1f0"/>
      <rect id="Rectangle_8464" data-name="Rectangle 8464" width="7.74" height="7.74" transform="translate(46.439)" fill="#77c1f0"/>
      <rect id="Rectangle_8465" data-name="Rectangle 8465" width="7.74" height="7.74" transform="translate(46.439 30.959)" fill="#77c1f0"/>
      <rect id="Rectangle_8466" data-name="Rectangle 8466" width="7.74" height="7.74" transform="translate(46.439 15.48)" fill="#77c1f0"/>
      <rect id="Rectangle_8467" data-name="Rectangle 8467" width="7.74" height="7.74" transform="translate(46.439 46.439)" fill="#77c1f0"/>
      <rect id="Rectangle_8468" data-name="Rectangle 8468" width="7.74" height="7.74" transform="translate(54.179 7.74)" fill="#77c1f0"/>
      <rect id="Rectangle_8469" data-name="Rectangle 8469" width="7.74" height="7.74" transform="translate(54.179 38.699)" fill="#77c1f0"/>
      <rect id="Rectangle_8470" data-name="Rectangle 8470" width="7.74" height="7.74" transform="translate(54.179 23.219)" fill="#77c1f0"/>
      <rect id="Rectangle_8471" data-name="Rectangle 8471" width="7.74" height="7.74" transform="translate(54.179 54.178)" fill="#77c1f0"/>
      <rect id="Rectangle_8472" data-name="Rectangle 8472" width="7.74" height="7.74" transform="translate(61.919)" fill="#77c1f0"/>
      <rect id="Rectangle_8473" data-name="Rectangle 8473" width="7.74" height="7.74" transform="translate(61.919 30.959)" fill="#77c1f0"/>
      <rect id="Rectangle_8474" data-name="Rectangle 8474" width="7.74" height="7.74" transform="translate(61.919 15.48)" fill="#77c1f0"/>
      <rect id="Rectangle_8475" data-name="Rectangle 8475" width="7.74" height="7.74" transform="translate(61.919 46.439)" fill="#77c1f0"/>
      <rect id="Rectangle_8476" data-name="Rectangle 8476" width="7.74" height="7.74" transform="translate(69.658 7.74)" fill="#77c1f0"/>
      <rect id="Rectangle_8477" data-name="Rectangle 8477" width="7.74" height="7.74" transform="translate(69.658 38.699)" fill="#77c1f0"/>
      <rect id="Rectangle_8478" data-name="Rectangle 8478" width="7.74" height="7.74" transform="translate(69.658 23.219)" fill="#77c1f0"/>
      <rect id="Rectangle_8479" data-name="Rectangle 8479" width="7.74" height="7.74" transform="translate(69.658 54.178)" fill="#77c1f0"/>
      <rect id="Rectangle_8480" data-name="Rectangle 8480" width="7.74" height="7.74" transform="translate(77.398)" fill="#77c1f0"/>
      <rect id="Rectangle_8481" data-name="Rectangle 8481" width="7.74" height="7.74" transform="translate(77.398 30.959)" fill="#77c1f0"/>
      <rect id="Rectangle_8482" data-name="Rectangle 8482" width="7.74" height="7.74" transform="translate(77.398 15.48)" fill="#77c1f0"/>
      <rect id="Rectangle_8483" data-name="Rectangle 8483" width="7.74" height="7.74" transform="translate(77.398 46.439)" fill="#77c1f0"/>
      <rect id="Rectangle_8484" data-name="Rectangle 8484" width="7.74" height="7.74" transform="translate(85.138 7.74)" fill="#77c1f0"/>
      <rect id="Rectangle_8485" data-name="Rectangle 8485" width="7.74" height="7.74" transform="translate(85.138 38.699)" fill="#77c1f0"/>
      <rect id="Rectangle_8486" data-name="Rectangle 8486" width="7.74" height="7.74" transform="translate(85.138 23.219)" fill="#77c1f0"/>
      <rect id="Rectangle_8487" data-name="Rectangle 8487" width="7.74" height="7.74" transform="translate(85.138 54.178)" fill="#77c1f0"/>
    </g>
  </g>
</svg>
