<svg xmlns="http://www.w3.org/2000/svg" xmlns:xlink="http://www.w3.org/1999/xlink" width="100" height="68.92" viewBox="0 0 69.658 38.699">
  <defs>
    <clipPath id="clip-path">
      <rect id="Rectangle_8343" data-name="Rectangle 8343" width="69.658" height="38.699" transform="translate(0)" fill="#fff" stroke="#707070" stroke-width="1"/>
    </clipPath>
  </defs>
  <g id="Mask_Group_192" data-name="Mask Group 192" clip-path="url(#clip-path)">
    <g id="Group_1134" data-name="Group 1134" transform="translate(-15.48 -15.48)">
      <rect id="Rectangle_8295" data-name="Rectangle 8295" width="7.74" height="7.74" transform="translate(15.48)" fill="#f8ec4f"/>
      <rect id="Rectangle_8296" data-name="Rectangle 8296" width="7.74" height="7.74" transform="translate(15.48 30.959)" fill="#f8ec4f"/>
      <rect id="Rectangle_8297" data-name="Rectangle 8297" width="7.74" height="7.74" transform="translate(15.48 15.48)" fill="#f8ec4f"/>
      <rect id="Rectangle_8298" data-name="Rectangle 8298" width="7.74" height="7.74" transform="translate(15.48 46.439)" fill="#f8ec4f"/>
      <rect id="Rectangle_8299" data-name="Rectangle 8299" width="7.74" height="7.74" fill="#f8ec4f"/>
      <rect id="Rectangle_8300" data-name="Rectangle 8300" width="7.74" height="7.74" transform="translate(0 30.959)" fill="#f8ec4f"/>
      <rect id="Rectangle_8301" data-name="Rectangle 8301" width="7.74" height="7.74" transform="translate(0 15.48)" fill="#f8ec4f"/>
      <rect id="Rectangle_8302" data-name="Rectangle 8302" width="7.74" height="7.74" transform="translate(0 46.439)" fill="#f8ec4f"/>
      <rect id="Rectangle_8303" data-name="Rectangle 8303" width="7.74" height="7.74" transform="translate(23.219 7.74)" fill="#f8ec4f"/>
      <rect id="Rectangle_8304" data-name="Rectangle 8304" width="7.74" height="7.74" transform="translate(23.219 38.699)" fill="#f8ec4f"/>
      <rect id="Rectangle_8305" data-name="Rectangle 8305" width="7.74" height="7.74" transform="translate(23.219 23.219)" fill="#f8ec4f"/>
      <rect id="Rectangle_8306" data-name="Rectangle 8306" width="7.74" height="7.74" transform="translate(23.219 54.178)" fill="#f8ec4f"/>
      <rect id="Rectangle_8307" data-name="Rectangle 8307" width="7.74" height="7.74" transform="translate(7.74 7.74)" fill="#f8ec4f"/>
      <rect id="Rectangle_8308" data-name="Rectangle 8308" width="7.74" height="7.74" transform="translate(7.74 38.699)" fill="#f8ec4f"/>
      <rect id="Rectangle_8309" data-name="Rectangle 8309" width="7.74" height="7.74" transform="translate(7.74 23.219)" fill="#f8ec4f"/>
      <rect id="Rectangle_8310" data-name="Rectangle 8310" width="7.74" height="7.74" transform="translate(7.74 54.178)" fill="#f8ec4f"/>
      <rect id="Rectangle_8311" data-name="Rectangle 8311" width="7.74" height="7.74" transform="translate(30.959)" fill="#f8ec4f"/>
      <rect id="Rectangle_8312" data-name="Rectangle 8312" width="7.74" height="7.74" transform="translate(30.959 30.959)" fill="#f8ec4f"/>
      <rect id="Rectangle_8313" data-name="Rectangle 8313" width="7.74" height="7.74" transform="translate(30.959 15.48)" fill="#f8ec4f"/>
      <rect id="Rectangle_8314" data-name="Rectangle 8314" width="7.74" height="7.74" transform="translate(30.959 46.439)" fill="#f8ec4f"/>
      <rect id="Rectangle_8315" data-name="Rectangle 8315" width="7.74" height="7.74" transform="translate(38.699 7.74)" fill="#f8ec4f"/>
      <rect id="Rectangle_8316" data-name="Rectangle 8316" width="7.74" height="7.74" transform="translate(38.699 38.699)" fill="#f8ec4f"/>
      <rect id="Rectangle_8317" data-name="Rectangle 8317" width="7.74" height="7.74" transform="translate(38.699 23.219)" fill="#f8ec4f"/>
      <rect id="Rectangle_8318" data-name="Rectangle 8318" width="7.74" height="7.74" transform="translate(38.699 54.178)" fill="#f8ec4f"/>
      <rect id="Rectangle_8319" data-name="Rectangle 8319" width="7.74" height="7.74" transform="translate(46.439)" fill="#f8ec4f"/>
      <rect id="Rectangle_8320" data-name="Rectangle 8320" width="7.74" height="7.74" transform="translate(46.439 30.959)" fill="#f8ec4f"/>
      <rect id="Rectangle_8321" data-name="Rectangle 8321" width="7.74" height="7.74" transform="translate(46.439 15.48)" fill="#f8ec4f"/>
      <rect id="Rectangle_8322" data-name="Rectangle 8322" width="7.74" height="7.74" transform="translate(46.439 46.439)" fill="#f8ec4f"/>
      <rect id="Rectangle_8323" data-name="Rectangle 8323" width="7.74" height="7.74" transform="translate(54.179 7.74)" fill="#f8ec4f"/>
      <rect id="Rectangle_8324" data-name="Rectangle 8324" width="7.74" height="7.74" transform="translate(54.179 38.699)" fill="#f8ec4f"/>
      <rect id="Rectangle_8325" data-name="Rectangle 8325" width="7.74" height="7.74" transform="translate(54.179 23.219)" fill="#f8ec4f"/>
      <rect id="Rectangle_8326" data-name="Rectangle 8326" width="7.74" height="7.74" transform="translate(54.179 54.178)" fill="#f8ec4f"/>
      <rect id="Rectangle_8327" data-name="Rectangle 8327" width="7.74" height="7.74" transform="translate(61.919)" fill="#f8ec4f"/>
      <rect id="Rectangle_8328" data-name="Rectangle 8328" width="7.74" height="7.74" transform="translate(61.919 30.959)" fill="#f8ec4f"/>
      <rect id="Rectangle_8329" data-name="Rectangle 8329" width="7.74" height="7.74" transform="translate(61.919 15.48)" fill="#f8ec4f"/>
      <rect id="Rectangle_8330" data-name="Rectangle 8330" width="7.74" height="7.74" transform="translate(61.919 46.439)" fill="#f8ec4f"/>
      <rect id="Rectangle_8331" data-name="Rectangle 8331" width="7.74" height="7.74" transform="translate(69.658 7.74)" fill="#f8ec4f"/>
      <rect id="Rectangle_8332" data-name="Rectangle 8332" width="7.74" height="7.74" transform="translate(69.658 38.699)" fill="#f8ec4f"/>
      <rect id="Rectangle_8333" data-name="Rectangle 8333" width="7.74" height="7.74" transform="translate(69.658 23.219)" fill="#f8ec4f"/>
      <rect id="Rectangle_8334" data-name="Rectangle 8334" width="7.74" height="7.74" transform="translate(69.658 54.178)" fill="#f8ec4f"/>
      <rect id="Rectangle_8335" data-name="Rectangle 8335" width="7.74" height="7.74" transform="translate(77.398)" fill="#f8ec4f"/>
      <rect id="Rectangle_8336" data-name="Rectangle 8336" width="7.74" height="7.74" transform="translate(77.398 30.959)" fill="#f8ec4f"/>
      <rect id="Rectangle_8337" data-name="Rectangle 8337" width="7.74" height="7.74" transform="translate(77.398 15.48)" fill="#f8ec4f"/>
      <rect id="Rectangle_8338" data-name="Rectangle 8338" width="7.74" height="7.74" transform="translate(77.398 46.439)" fill="#f8ec4f"/>
      <rect id="Rectangle_8339" data-name="Rectangle 8339" width="7.74" height="7.74" transform="translate(85.138 7.74)" fill="#f8ec4f"/>
      <rect id="Rectangle_8340" data-name="Rectangle 8340" width="7.74" height="7.74" transform="translate(85.138 38.699)" fill="#f8ec4f"/>
      <rect id="Rectangle_8341" data-name="Rectangle 8341" width="7.74" height="7.74" transform="translate(85.138 23.219)" fill="#f8ec4f"/>
      <rect id="Rectangle_8342" data-name="Rectangle 8342" width="7.74" height="7.74" transform="translate(85.138 54.178)" fill="#f8ec4f"/>
    </g>
  </g>
</svg>
