<svg xmlns="http://www.w3.org/2000/svg" xmlns:xlink="http://www.w3.org/1999/xlink" width="100" height="41.22" viewBox="0 0 81.96 23.142">
  <defs>
    <clipPath id="clip-path">
      <path id="Path_603" data-name="Path 603" d="M40.98,65.593c22.633,0,40.98-13.659,40.98-3.092S63.613,81.633,40.98,81.633,0,73.068,0,62.5,18.347,65.593,40.98,65.593Z" transform="translate(0 -58.491)" fill="#fff" stroke="#707070" stroke-width="1"/>
    </clipPath>
  </defs>
  <g id="Mask_Group_196" data-name="Mask Group 196" clip-path="url(#clip-path)">
    <g id="Group_1140" data-name="Group 1140" transform="translate(-9.288 -22.911)">
      <rect id="Rectangle_8536" data-name="Rectangle 8536" width="7.74" height="7.74" transform="translate(15.48)" fill="#e234a6"/>
      <rect id="Rectangle_8537" data-name="Rectangle 8537" width="7.74" height="7.74" transform="translate(15.48 30.959)" fill="#e234a6"/>
      <rect id="Rectangle_8538" data-name="Rectangle 8538" width="7.74" height="7.74" transform="translate(15.48 15.48)" fill="#e234a6"/>
      <rect id="Rectangle_8539" data-name="Rectangle 8539" width="7.74" height="7.74" transform="translate(15.48 46.439)" fill="#e234a6"/>
      <rect id="Rectangle_8540" data-name="Rectangle 8540" width="7.74" height="7.74" fill="#e234a6"/>
      <rect id="Rectangle_8541" data-name="Rectangle 8541" width="7.74" height="7.74" transform="translate(0 30.959)" fill="#e234a6"/>
      <rect id="Rectangle_8542" data-name="Rectangle 8542" width="7.74" height="7.74" transform="translate(0 15.48)" fill="#e234a6"/>
      <rect id="Rectangle_8543" data-name="Rectangle 8543" width="7.74" height="7.74" transform="translate(0 46.439)" fill="#e234a6"/>
      <rect id="Rectangle_8544" data-name="Rectangle 8544" width="7.74" height="7.74" transform="translate(23.219 7.74)" fill="#e234a6"/>
      <rect id="Rectangle_8545" data-name="Rectangle 8545" width="7.74" height="7.74" transform="translate(23.219 38.699)" fill="#e234a6"/>
      <rect id="Rectangle_8546" data-name="Rectangle 8546" width="7.74" height="7.74" transform="translate(23.219 23.219)" fill="#e234a6"/>
      <rect id="Rectangle_8547" data-name="Rectangle 8547" width="7.74" height="7.74" transform="translate(23.219 54.178)" fill="#e234a6"/>
      <rect id="Rectangle_8548" data-name="Rectangle 8548" width="7.74" height="7.74" transform="translate(7.74 7.74)" fill="#e234a6"/>
      <rect id="Rectangle_8549" data-name="Rectangle 8549" width="7.74" height="7.74" transform="translate(7.74 38.699)" fill="#e234a6"/>
      <rect id="Rectangle_8550" data-name="Rectangle 8550" width="7.74" height="7.74" transform="translate(7.74 23.219)" fill="#e234a6"/>
      <rect id="Rectangle_8551" data-name="Rectangle 8551" width="7.74" height="7.74" transform="translate(7.74 54.178)" fill="#e234a6"/>
      <rect id="Rectangle_8552" data-name="Rectangle 8552" width="7.74" height="7.74" transform="translate(30.959)" fill="#e234a6"/>
      <rect id="Rectangle_8553" data-name="Rectangle 8553" width="7.74" height="7.74" transform="translate(30.959 30.959)" fill="#e234a6"/>
      <rect id="Rectangle_8554" data-name="Rectangle 8554" width="7.74" height="7.74" transform="translate(30.959 15.48)" fill="#e234a6"/>
      <rect id="Rectangle_8555" data-name="Rectangle 8555" width="7.74" height="7.74" transform="translate(30.959 46.439)" fill="#e234a6"/>
      <rect id="Rectangle_8556" data-name="Rectangle 8556" width="7.74" height="7.74" transform="translate(38.699 7.74)" fill="#e234a6"/>
      <rect id="Rectangle_8557" data-name="Rectangle 8557" width="7.74" height="7.74" transform="translate(38.699 38.699)" fill="#e234a6"/>
      <rect id="Rectangle_8558" data-name="Rectangle 8558" width="7.74" height="7.74" transform="translate(38.699 23.219)" fill="#e234a6"/>
      <rect id="Rectangle_8559" data-name="Rectangle 8559" width="7.74" height="7.74" transform="translate(38.699 54.178)" fill="#e234a6"/>
      <rect id="Rectangle_8560" data-name="Rectangle 8560" width="7.74" height="7.74" transform="translate(46.439)" fill="#e234a6"/>
      <rect id="Rectangle_8561" data-name="Rectangle 8561" width="7.74" height="7.74" transform="translate(46.439 30.959)" fill="#e234a6"/>
      <rect id="Rectangle_8562" data-name="Rectangle 8562" width="7.74" height="7.74" transform="translate(46.439 15.48)" fill="#e234a6"/>
      <rect id="Rectangle_8563" data-name="Rectangle 8563" width="7.74" height="7.74" transform="translate(46.439 46.439)" fill="#e234a6"/>
      <rect id="Rectangle_8564" data-name="Rectangle 8564" width="7.74" height="7.74" transform="translate(54.179 7.74)" fill="#e234a6"/>
      <rect id="Rectangle_8565" data-name="Rectangle 8565" width="7.74" height="7.74" transform="translate(54.179 38.699)" fill="#e234a6"/>
      <rect id="Rectangle_8566" data-name="Rectangle 8566" width="7.74" height="7.74" transform="translate(54.179 23.219)" fill="#e234a6"/>
      <rect id="Rectangle_8567" data-name="Rectangle 8567" width="7.74" height="7.74" transform="translate(54.179 54.178)" fill="#e234a6"/>
      <rect id="Rectangle_8568" data-name="Rectangle 8568" width="7.74" height="7.74" transform="translate(61.919)" fill="#e234a6"/>
      <rect id="Rectangle_8569" data-name="Rectangle 8569" width="7.74" height="7.74" transform="translate(61.919 30.959)" fill="#e234a6"/>
      <rect id="Rectangle_8570" data-name="Rectangle 8570" width="7.74" height="7.74" transform="translate(61.919 15.48)" fill="#e234a6"/>
      <rect id="Rectangle_8571" data-name="Rectangle 8571" width="7.74" height="7.74" transform="translate(61.919 46.439)" fill="#e234a6"/>
      <rect id="Rectangle_8572" data-name="Rectangle 8572" width="7.74" height="7.74" transform="translate(69.658 7.74)" fill="#e234a6"/>
      <rect id="Rectangle_8573" data-name="Rectangle 8573" width="7.74" height="7.74" transform="translate(69.658 38.699)" fill="#e234a6"/>
      <rect id="Rectangle_8574" data-name="Rectangle 8574" width="7.74" height="7.74" transform="translate(69.658 23.219)" fill="#e234a6"/>
      <rect id="Rectangle_8575" data-name="Rectangle 8575" width="7.74" height="7.74" transform="translate(69.658 54.178)" fill="#e234a6"/>
      <rect id="Rectangle_8576" data-name="Rectangle 8576" width="7.74" height="7.74" transform="translate(77.398)" fill="#e234a6"/>
      <rect id="Rectangle_8577" data-name="Rectangle 8577" width="7.74" height="7.74" transform="translate(77.398 30.959)" fill="#e234a6"/>
      <rect id="Rectangle_8578" data-name="Rectangle 8578" width="7.74" height="7.74" transform="translate(77.398 15.48)" fill="#e234a6"/>
      <rect id="Rectangle_8579" data-name="Rectangle 8579" width="7.74" height="7.74" transform="translate(77.398 46.439)" fill="#e234a6"/>
      <rect id="Rectangle_8580" data-name="Rectangle 8580" width="7.74" height="7.74" transform="translate(85.138 7.74)" fill="#e234a6"/>
      <rect id="Rectangle_8581" data-name="Rectangle 8581" width="7.74" height="7.74" transform="translate(85.138 38.699)" fill="#e234a6"/>
      <rect id="Rectangle_8582" data-name="Rectangle 8582" width="7.74" height="7.74" transform="translate(85.138 23.219)" fill="#e234a6"/>
      <rect id="Rectangle_8583" data-name="Rectangle 8583" width="7.74" height="7.74" transform="translate(85.138 54.178)" fill="#e234a6"/>
    </g>
  </g>
</svg>
