<svg xmlns="http://www.w3.org/2000/svg" xmlns:xlink="http://www.w3.org/1999/xlink" width="100" height="85.46" viewBox="0 0 66.563 47.987">
  <defs>
    <clipPath id="clip-path">
      <path id="Polygon_32" data-name="Polygon 32" d="M33.281,0,66.562,47.986H0Z" transform="translate(0 0)" fill="#d3d3d3"/>
    </clipPath>
  </defs>
  <g id="Mask_Group_195" data-name="Mask Group 195" clip-path="url(#clip-path)">
    <g id="Group_1139" data-name="Group 1139" transform="translate(-17.028 -1.548)">
      <rect id="Rectangle_8488" data-name="Rectangle 8488" width="7.74" height="7.74" transform="translate(15.48)" fill="#463383"/>
      <rect id="Rectangle_8489" data-name="Rectangle 8489" width="7.74" height="7.74" transform="translate(15.48 30.959)" fill="#463383"/>
      <rect id="Rectangle_8490" data-name="Rectangle 8490" width="7.74" height="7.74" transform="translate(15.48 15.48)" fill="#463383"/>
      <rect id="Rectangle_8491" data-name="Rectangle 8491" width="7.74" height="7.74" transform="translate(15.48 46.439)" fill="#463383"/>
      <rect id="Rectangle_8492" data-name="Rectangle 8492" width="7.74" height="7.74" fill="#463383"/>
      <rect id="Rectangle_8493" data-name="Rectangle 8493" width="7.74" height="7.74" transform="translate(0 30.959)" fill="#463383"/>
      <rect id="Rectangle_8494" data-name="Rectangle 8494" width="7.74" height="7.74" transform="translate(0 15.48)" fill="#463383"/>
      <rect id="Rectangle_8495" data-name="Rectangle 8495" width="7.74" height="7.74" transform="translate(0 46.439)" fill="#463383"/>
      <rect id="Rectangle_8496" data-name="Rectangle 8496" width="7.74" height="7.74" transform="translate(23.219 7.74)" fill="#463383"/>
      <rect id="Rectangle_8497" data-name="Rectangle 8497" width="7.74" height="7.74" transform="translate(23.219 38.699)" fill="#463383"/>
      <rect id="Rectangle_8498" data-name="Rectangle 8498" width="7.74" height="7.74" transform="translate(23.219 23.219)" fill="#463383"/>
      <rect id="Rectangle_8499" data-name="Rectangle 8499" width="7.74" height="7.74" transform="translate(23.219 54.178)" fill="#463383"/>
      <rect id="Rectangle_8500" data-name="Rectangle 8500" width="7.74" height="7.74" transform="translate(7.74 7.74)" fill="#463383"/>
      <rect id="Rectangle_8501" data-name="Rectangle 8501" width="7.74" height="7.74" transform="translate(7.74 38.699)" fill="#463383"/>
      <rect id="Rectangle_8502" data-name="Rectangle 8502" width="7.74" height="7.74" transform="translate(7.74 23.219)" fill="#463383"/>
      <rect id="Rectangle_8503" data-name="Rectangle 8503" width="7.74" height="7.74" transform="translate(7.74 54.178)" fill="#463383"/>
      <rect id="Rectangle_8504" data-name="Rectangle 8504" width="7.74" height="7.74" transform="translate(30.959)" fill="#463383"/>
      <rect id="Rectangle_8505" data-name="Rectangle 8505" width="7.74" height="7.74" transform="translate(30.959 30.959)" fill="#463383"/>
      <rect id="Rectangle_8506" data-name="Rectangle 8506" width="7.74" height="7.74" transform="translate(30.959 15.48)" fill="#463383"/>
      <rect id="Rectangle_8507" data-name="Rectangle 8507" width="7.74" height="7.74" transform="translate(30.959 46.439)" fill="#463383"/>
      <rect id="Rectangle_8508" data-name="Rectangle 8508" width="7.74" height="7.74" transform="translate(38.699 7.74)" fill="#463383"/>
      <rect id="Rectangle_8509" data-name="Rectangle 8509" width="7.74" height="7.74" transform="translate(38.699 38.699)" fill="#463383"/>
      <rect id="Rectangle_8510" data-name="Rectangle 8510" width="7.74" height="7.74" transform="translate(38.699 23.219)" fill="#463383"/>
      <rect id="Rectangle_8511" data-name="Rectangle 8511" width="7.74" height="7.74" transform="translate(38.699 54.178)" fill="#463383"/>
      <rect id="Rectangle_8512" data-name="Rectangle 8512" width="7.74" height="7.74" transform="translate(46.439)" fill="#463383"/>
      <rect id="Rectangle_8513" data-name="Rectangle 8513" width="7.74" height="7.74" transform="translate(46.439 30.959)" fill="#463383"/>
      <rect id="Rectangle_8514" data-name="Rectangle 8514" width="7.74" height="7.74" transform="translate(46.439 15.48)" fill="#463383"/>
      <rect id="Rectangle_8515" data-name="Rectangle 8515" width="7.74" height="7.74" transform="translate(46.439 46.439)" fill="#463383"/>
      <rect id="Rectangle_8516" data-name="Rectangle 8516" width="7.74" height="7.74" transform="translate(54.179 7.74)" fill="#463383"/>
      <rect id="Rectangle_8517" data-name="Rectangle 8517" width="7.74" height="7.74" transform="translate(54.179 38.699)" fill="#463383"/>
      <rect id="Rectangle_8518" data-name="Rectangle 8518" width="7.74" height="7.74" transform="translate(54.179 23.219)" fill="#463383"/>
      <rect id="Rectangle_8519" data-name="Rectangle 8519" width="7.74" height="7.74" transform="translate(54.179 54.178)" fill="#463383"/>
      <rect id="Rectangle_8520" data-name="Rectangle 8520" width="7.74" height="7.74" transform="translate(61.919)" fill="#463383"/>
      <rect id="Rectangle_8521" data-name="Rectangle 8521" width="7.74" height="7.74" transform="translate(61.919 30.959)" fill="#463383"/>
      <rect id="Rectangle_8522" data-name="Rectangle 8522" width="7.74" height="7.74" transform="translate(61.919 15.48)" fill="#463383"/>
      <rect id="Rectangle_8523" data-name="Rectangle 8523" width="7.74" height="7.74" transform="translate(61.919 46.439)" fill="#463383"/>
      <rect id="Rectangle_8524" data-name="Rectangle 8524" width="7.74" height="7.74" transform="translate(69.658 7.74)" fill="#463383"/>
      <rect id="Rectangle_8525" data-name="Rectangle 8525" width="7.74" height="7.74" transform="translate(69.658 38.699)" fill="#463383"/>
      <rect id="Rectangle_8526" data-name="Rectangle 8526" width="7.74" height="7.74" transform="translate(69.658 23.219)" fill="#463383"/>
      <rect id="Rectangle_8527" data-name="Rectangle 8527" width="7.74" height="7.74" transform="translate(69.658 54.178)" fill="#463383"/>
      <rect id="Rectangle_8528" data-name="Rectangle 8528" width="7.74" height="7.74" transform="translate(77.398)" fill="#463383"/>
      <rect id="Rectangle_8529" data-name="Rectangle 8529" width="7.74" height="7.74" transform="translate(77.398 30.959)" fill="#463383"/>
      <rect id="Rectangle_8530" data-name="Rectangle 8530" width="7.74" height="7.74" transform="translate(77.398 15.48)" fill="#463383"/>
      <rect id="Rectangle_8531" data-name="Rectangle 8531" width="7.74" height="7.74" transform="translate(77.398 46.439)" fill="#463383"/>
      <rect id="Rectangle_8532" data-name="Rectangle 8532" width="7.74" height="7.74" transform="translate(85.138 7.74)" fill="#463383"/>
      <rect id="Rectangle_8533" data-name="Rectangle 8533" width="7.74" height="7.74" transform="translate(85.138 38.699)" fill="#463383"/>
      <rect id="Rectangle_8534" data-name="Rectangle 8534" width="7.74" height="7.74" transform="translate(85.138 23.219)" fill="#463383"/>
      <rect id="Rectangle_8535" data-name="Rectangle 8535" width="7.74" height="7.74" transform="translate(85.138 54.178)" fill="#463383"/>
    </g>
  </g>
</svg>
