<svg xmlns="http://www.w3.org/2000/svg" width="215.824" height="140.717" viewBox="0 0 215.824 140.717">
  <g id="Group_1259" data-name="Group 1259" transform="translate(-91.184 -535.619)">
    <g id="Group_1150" data-name="Group 1150" transform="matrix(-0.602, 0.799, -0.799, -0.602, -3268.001, -1167.185)">
      <circle id="Ellipse_136" data-name="Ellipse 136" cx="4.523" cy="4.523" r="4.523" transform="translate(-745 -3915)" fill="#f8ec4f"/>
      <circle id="Ellipse_174" data-name="Ellipse 174" cx="4.523" cy="4.523" r="4.523" transform="translate(-745 -3877.386)" fill="#f8ec4f"/>
      <circle id="Ellipse_159" data-name="Ellipse 159" cx="4.523" cy="4.523" r="4.523" transform="translate(-745 -3896.91)" fill="#f8ec4f"/>
      <circle id="Ellipse_175" data-name="Ellipse 175" cx="4.523" cy="4.523" r="4.523" transform="translate(-745 -3858.579)" fill="#f8ec4f"/>
      <circle id="Ellipse_148" data-name="Ellipse 148" cx="4.523" cy="4.523" r="4.523" transform="translate(-669.697 -3915)" fill="#f8ec4f"/>
      <circle id="Ellipse_163" data-name="Ellipse 163" cx="4.523" cy="4.523" r="4.523" transform="translate(-669.697 -3877.386)" fill="#f8ec4f"/>
      <circle id="Ellipse_183" data-name="Ellipse 183" cx="4.523" cy="4.523" r="4.523" transform="translate(-669.697 -3839.772)" fill="#f8ec4f"/>
      <circle id="Ellipse_196" data-name="Ellipse 196" cx="4.523" cy="4.523" r="4.523" transform="translate(-669.697 -3802.159)" fill="#f8ec4f"/>
      <circle id="Ellipse_155" data-name="Ellipse 155" cx="4.523" cy="4.523" r="4.523" transform="translate(-669.697 -3896.91)" fill="#f8ec4f"/>
      <circle id="Ellipse_164" data-name="Ellipse 164" cx="4.523" cy="4.523" r="4.523" transform="translate(-669.697 -3858.579)" fill="#f8ec4f"/>
      <circle id="Ellipse_176" data-name="Ellipse 176" cx="4.523" cy="4.523" r="4.523" transform="translate(-669.697 -3820.966)" fill="#f8ec4f"/>
      <circle id="Ellipse_200" data-name="Ellipse 200" cx="4.523" cy="4.523" r="4.523" transform="translate(-669.697 -3783.352)" fill="#f8ec4f"/>
      <circle id="Ellipse_234" data-name="Ellipse 234" cx="4.523" cy="4.523" r="4.523" transform="translate(-688.523 -3783.352)" fill="#f8ec4f"/>
      <circle id="Ellipse_147" data-name="Ellipse 147" cx="4.523" cy="4.523" r="4.523" transform="translate(-707.348 -3915)" fill="#f8ec4f"/>
      <circle id="Ellipse_170" data-name="Ellipse 170" cx="4.523" cy="4.523" r="4.523" transform="translate(-707.348 -3877.386)" fill="#f8ec4f"/>
      <circle id="Ellipse_184" data-name="Ellipse 184" cx="4.523" cy="4.523" r="4.523" transform="translate(-707.348 -3839.772)" fill="#f8ec4f"/>
      <circle id="Ellipse_194" data-name="Ellipse 194" cx="4.523" cy="4.523" r="4.523" transform="translate(-707.348 -3802.159)" fill="#f8ec4f"/>
      <circle id="Ellipse_245" data-name="Ellipse 245" cx="4.523" cy="4.523" r="4.523" transform="translate(-726.174 -3802.159)" fill="#f8ec4f"/>
      <circle id="Ellipse_237" data-name="Ellipse 237" cx="4.523" cy="4.523" r="4.523" transform="translate(-707.348 -3783.352)" fill="#f8ec4f"/>
      <circle id="Ellipse_157" data-name="Ellipse 157" cx="4.523" cy="4.523" r="4.523" transform="translate(-707.348 -3896.91)" fill="#f8ec4f"/>
      <circle id="Ellipse_171" data-name="Ellipse 171" cx="4.523" cy="4.523" r="4.523" transform="translate(-707.348 -3858.579)" fill="#f8ec4f"/>
      <circle id="Ellipse_181" data-name="Ellipse 181" cx="4.523" cy="4.523" r="4.523" transform="translate(-707.348 -3820.966)" fill="#f8ec4f"/>
      <circle id="Ellipse_202" data-name="Ellipse 202" cx="4.523" cy="4.523" r="4.523" transform="translate(-632.045 -3783.352)" fill="#f8ec4f"/>
      <circle id="Ellipse_223" data-name="Ellipse 223" cx="4.523" cy="4.523" r="4.523" transform="translate(-632.045 -3763.828)" fill="#f8ec4f"/>
      <circle id="Ellipse_227" data-name="Ellipse 227" cx="4.523" cy="4.523" r="4.523" transform="translate(-632.045 -3745.738)" fill="#f8ec4f"/>
      <circle id="Ellipse_236" data-name="Ellipse 236" cx="4.523" cy="4.523" r="4.523" transform="translate(-650.871 -3745.738)" fill="#f8ec4f"/>
      <circle id="Ellipse_145" data-name="Ellipse 145" cx="4.523" cy="4.523" r="4.523" transform="translate(-726.174 -3915)" fill="#f8ec4f"/>
      <circle id="Ellipse_172" data-name="Ellipse 172" cx="4.523" cy="4.523" r="4.523" transform="translate(-726.174 -3877.386)" fill="#f8ec4f"/>
      <circle id="Ellipse_186" data-name="Ellipse 186" cx="4.523" cy="4.523" r="4.523" transform="translate(-726.174 -3839.772)" fill="#f8ec4f"/>
      <circle id="Ellipse_246" data-name="Ellipse 246" cx="4.523" cy="4.523" r="4.523" transform="translate(-745 -3839.772)" fill="#f8ec4f"/>
      <circle id="Ellipse_158" data-name="Ellipse 158" cx="4.523" cy="4.523" r="4.523" transform="translate(-726.174 -3896.91)" fill="#f8ec4f"/>
      <circle id="Ellipse_173" data-name="Ellipse 173" cx="4.523" cy="4.523" r="4.523" transform="translate(-726.174 -3858.579)" fill="#f8ec4f"/>
      <circle id="Ellipse_182" data-name="Ellipse 182" cx="4.523" cy="4.523" r="4.523" transform="translate(-726.174 -3820.966)" fill="#f8ec4f"/>
      <circle id="Ellipse_150" data-name="Ellipse 150" cx="4.523" cy="4.523" r="4.523" transform="translate(-650.871 -3915)" fill="#f8ec4f"/>
      <circle id="Ellipse_166" data-name="Ellipse 166" cx="4.523" cy="4.523" r="4.523" transform="translate(-650.871 -3877.386)" fill="#f8ec4f"/>
      <circle id="Ellipse_187" data-name="Ellipse 187" cx="4.523" cy="4.523" r="4.523" transform="translate(-650.871 -3839.772)" fill="#f8ec4f"/>
      <circle id="Ellipse_197" data-name="Ellipse 197" cx="4.523" cy="4.523" r="4.523" transform="translate(-650.871 -3802.159)" fill="#f8ec4f"/>
      <circle id="Ellipse_153" data-name="Ellipse 153" cx="4.523" cy="4.523" r="4.523" transform="translate(-650.871 -3896.91)" fill="#f8ec4f"/>
      <circle id="Ellipse_162" data-name="Ellipse 162" cx="4.523" cy="4.523" r="4.523" transform="translate(-650.871 -3858.579)" fill="#f8ec4f"/>
      <circle id="Ellipse_178" data-name="Ellipse 178" cx="4.523" cy="4.523" r="4.523" transform="translate(-650.871 -3820.966)" fill="#f8ec4f"/>
      <circle id="Ellipse_204" data-name="Ellipse 204" cx="4.523" cy="4.523" r="4.523" transform="translate(-650.871 -3783.352)" fill="#f8ec4f"/>
      <circle id="Ellipse_224" data-name="Ellipse 224" cx="4.523" cy="4.523" r="4.523" transform="translate(-650.871 -3763.828)" fill="#f8ec4f"/>
      <circle id="Ellipse_235" data-name="Ellipse 235" cx="4.523" cy="4.523" r="4.523" transform="translate(-669.697 -3763.828)" fill="#f8ec4f"/>
      <circle id="Ellipse_238" data-name="Ellipse 238" cx="4.523" cy="4.523" r="4.523" transform="translate(-688.523 -3763.828)" fill="#f8ec4f"/>
      <circle id="Ellipse_146" data-name="Ellipse 146" cx="4.523" cy="4.523" r="4.523" transform="translate(-688.523 -3915)" fill="#f8ec4f"/>
      <circle id="Ellipse_167" data-name="Ellipse 167" cx="4.523" cy="4.523" r="4.523" transform="translate(-688.523 -3877.386)" fill="#f8ec4f"/>
      <circle id="Ellipse_188" data-name="Ellipse 188" cx="4.523" cy="4.523" r="4.523" transform="translate(-688.523 -3839.772)" fill="#f8ec4f"/>
      <circle id="Ellipse_195" data-name="Ellipse 195" cx="4.523" cy="4.523" r="4.523" transform="translate(-688.523 -3802.159)" fill="#f8ec4f"/>
      <circle id="Ellipse_156" data-name="Ellipse 156" cx="4.523" cy="4.523" r="4.523" transform="translate(-688.523 -3896.91)" fill="#f8ec4f"/>
      <circle id="Ellipse_168" data-name="Ellipse 168" cx="4.523" cy="4.523" r="4.523" transform="translate(-688.523 -3858.579)" fill="#f8ec4f"/>
      <circle id="Ellipse_180" data-name="Ellipse 180" cx="4.523" cy="4.523" r="4.523" transform="translate(-688.523 -3820.966)" fill="#f8ec4f"/>
    </g>
    <ellipse id="Ellipse_295" data-name="Ellipse 295" cx="40" cy="40" rx="40" ry="40" transform="translate(134.982 583.268)" fill="none" stroke="#3d9cd7" stroke-miterlimit="10" stroke-width="20"/>
  </g>
</svg>
