<svg xmlns="http://www.w3.org/2000/svg" width="332" height="768" viewBox="0 0 332 768">
  <g id="Group_1148" data-name="Group 1148" transform="translate(0 0)">
    <g id="Path_598" data-name="Path 598" transform="translate(264.349 312.343)" fill="#fff">
      <path d="M 59.40077590942383 154.6715087890625 L 8.250109672546387 154.6715087890625 C 6.375630855560303 154.6715087890625 4.560089111328125 154.1599426269531 3.26900577545166 153.2679901123047 C 2.608339071273804 152.8115386962891 1.500005722045898 151.8413543701172 1.500005722045898 150.4718170166016 L 1.500005722045898 5.699671268463135 C 1.500005722045898 4.330150127410889 2.608339071273804 3.359962701797485 3.26900577545166 2.903525114059448 C 4.560089111328125 2.011566877365112 6.375630855560303 1.500004410743713 8.250109672546387 1.500004410743713 L 59.40077590942383 1.500004410743713 C 61.2752571105957 1.500004410743713 63.09079742431641 2.011566877365112 64.38188171386719 2.903525114059448 C 65.04254913330078 3.359962701797485 66.15087890625 4.330150127410889 66.15087890625 5.699671268463135 L 66.15087890625 150.4718170166016 C 66.15087890625 151.8413543701172 65.04254913330078 152.8115386962891 64.38188171386719 153.2679901123047 C 63.09079742431641 154.1599426269531 61.2752571105957 154.6715087890625 59.40077590942383 154.6715087890625 Z" stroke="none"/>
      <path d="M 59.40079116821289 153.1715087890625 C 60.97798538208008 153.1715087890625 62.48276901245117 152.7568664550781 63.52927017211914 152.0338592529297 C 63.86650848388672 151.8008880615234 64.65087890625 151.1822814941406 64.65087890625 150.4718170166016 L 64.65087890625 5.699689388275146 C 64.65087890625 4.989232540130615 63.86650848388672 4.37062406539917 63.52927017211914 4.137645721435547 C 62.48276901245117 3.414645671844482 60.97798538208008 2.999993562698364 59.40079116821289 2.999993562698364 L 8.250117301940918 2.999993562698364 C 6.672921657562256 2.999993562698364 5.168138980865479 3.414645671844482 4.121638774871826 4.137645721435547 C 3.784399747848511 4.37062406539917 3.000008583068848 4.989232540130615 3.000008583068848 5.699689388275146 L 3.000008583068848 150.4718170166016 C 3.000008583068848 151.1822814941406 3.784399747848511 151.8008880615234 4.121638774871826 152.0338592529297 C 5.168138980865479 152.7568664550781 6.672899723052979 153.1715087890625 8.250117301940918 153.1715087890625 L 59.40079116821289 153.1715087890625 M 59.40079116821289 156.1715087890625 L 8.250117301940918 156.1715087890625 C 3.693704128265381 156.1715087890625 8.485213584208395e-06 153.6196746826172 8.485213584208395e-06 150.4718170166016 L 8.485213584208395e-06 5.699689388275146 C 8.485213584208395e-06 2.551863193511963 3.693704128265381 -6.475033842434641e-06 8.250117301940918 -6.475033842434641e-06 L 59.40079116821289 -6.475033842434641e-06 C 63.95720291137695 -6.475033842434641e-06 67.65087890625 2.551863193511963 67.65087890625 5.699689388275146 L 67.65087890625 150.4718170166016 C 67.65087890625 153.6196746826172 63.95720291137695 156.1715087890625 59.40079116821289 156.1715087890625 Z" stroke="none" fill="#3d9cd7"/>
    </g>
    <g id="Path_599" data-name="Path 599" transform="translate(264.349 156.172)" fill="#fff">
      <path d="M 59.40077590942383 154.6715087890625 L 8.250109672546387 154.6715087890625 C 6.375630855560303 154.6715087890625 4.560089111328125 154.1599426269531 3.26900577545166 153.2679901123047 C 2.608339071273804 152.8115386962891 1.500005722045898 151.8413543701172 1.500005722045898 150.4718170166016 L 1.500005722045898 5.699671268463135 C 1.500005722045898 4.330150127410889 2.608339071273804 3.359962701797485 3.26900577545166 2.903525114059448 C 4.560089111328125 2.011566877365112 6.375630855560303 1.500004410743713 8.250109672546387 1.500004410743713 L 59.40077590942383 1.500004410743713 C 61.2752571105957 1.500004410743713 63.09079742431641 2.011566877365112 64.38188171386719 2.903525114059448 C 65.04254913330078 3.359962701797485 66.15087890625 4.330150127410889 66.15087890625 5.699671268463135 L 66.15087890625 150.4718170166016 C 66.15087890625 151.8413543701172 65.04254913330078 152.8115386962891 64.38188171386719 153.2679901123047 C 63.09079742431641 154.1599426269531 61.2752571105957 154.6715087890625 59.40077590942383 154.6715087890625 Z" stroke="none"/>
      <path d="M 59.40079116821289 153.1715087890625 C 60.97798538208008 153.1715087890625 62.48276901245117 152.7568664550781 63.52927017211914 152.0338592529297 C 63.86650848388672 151.8008880615234 64.65087890625 151.1822814941406 64.65087890625 150.4718170166016 L 64.65087890625 5.699689388275146 C 64.65087890625 4.989232540130615 63.86650848388672 4.37062406539917 63.52927017211914 4.137645721435547 C 62.48276901245117 3.414645671844482 60.97798538208008 2.999993562698364 59.40079116821289 2.999993562698364 L 8.250117301940918 2.999993562698364 C 6.672921657562256 2.999993562698364 5.168138980865479 3.414645671844482 4.121638774871826 4.137645721435547 C 3.784399747848511 4.37062406539917 3.000008583068848 4.989232540130615 3.000008583068848 5.699689388275146 L 3.000008583068848 150.4718170166016 C 3.000008583068848 151.1822814941406 3.784399747848511 151.8008880615234 4.121638774871826 152.0338592529297 C 5.168138980865479 152.7568664550781 6.672899723052979 153.1715087890625 8.250117301940918 153.1715087890625 L 59.40079116821289 153.1715087890625 M 59.40079116821289 156.1715087890625 L 8.250117301940918 156.1715087890625 C 3.693704128265381 156.1715087890625 8.485213584208395e-06 153.6196746826172 8.485213584208395e-06 150.4718170166016 L 8.485213584208395e-06 5.699689388275146 C 8.485213584208395e-06 2.551863193511963 3.693704128265381 -6.475033842434641e-06 8.250117301940918 -6.475033842434641e-06 L 59.40079116821289 -6.475033842434641e-06 C 63.95720291137695 -6.475033842434641e-06 67.65087890625 2.551863193511963 67.65087890625 5.699689388275146 L 67.65087890625 150.4718170166016 C 67.65087890625 153.6196746826172 63.95720291137695 156.1715087890625 59.40079116821289 156.1715087890625 Z" stroke="none" fill="#3d9cd7"/>
    </g>
    <g id="Path_600" data-name="Path 600" transform="translate(264.349 0)" fill="#fff">
      <path d="M 59.40077590942383 154.6715087890625 L 8.250109672546387 154.6715087890625 C 6.375630855560303 154.6715087890625 4.560089111328125 154.1599426269531 3.26900577545166 153.2679901123047 C 2.608339071273804 152.8115386962891 1.500005722045898 151.8413543701172 1.500005722045898 150.4718170166016 L 1.500005722045898 5.699671268463135 C 1.500005722045898 4.330150127410889 2.608339071273804 3.359962701797485 3.26900577545166 2.903525114059448 C 4.560089111328125 2.011566877365112 6.375630855560303 1.500004410743713 8.250109672546387 1.500004410743713 L 59.40077590942383 1.500004410743713 C 61.2752571105957 1.500004410743713 63.09079742431641 2.011566877365112 64.38188171386719 2.903525114059448 C 65.04254913330078 3.359962701797485 66.15087890625 4.330150127410889 66.15087890625 5.699671268463135 L 66.15087890625 150.4718170166016 C 66.15087890625 151.8413543701172 65.04254913330078 152.8115386962891 64.38188171386719 153.2679901123047 C 63.09079742431641 154.1599426269531 61.2752571105957 154.6715087890625 59.40077590942383 154.6715087890625 Z" stroke="none"/>
      <path d="M 59.40079116821289 153.1715087890625 C 60.97798538208008 153.1715087890625 62.48276901245117 152.7568664550781 63.52927017211914 152.0338592529297 C 63.86650848388672 151.8008880615234 64.65087890625 151.1822814941406 64.65087890625 150.4718170166016 L 64.65087890625 5.699689388275146 C 64.65087890625 4.989232540130615 63.86650848388672 4.37062406539917 63.52927017211914 4.137645721435547 C 62.48276901245117 3.414645671844482 60.97798538208008 2.999993562698364 59.40079116821289 2.999993562698364 L 8.250117301940918 2.999993562698364 C 6.672921657562256 2.999993562698364 5.168138980865479 3.414645671844482 4.121638774871826 4.137645721435547 C 3.784399747848511 4.37062406539917 3.000008583068848 4.989232540130615 3.000008583068848 5.699689388275146 L 3.000008583068848 150.4718170166016 C 3.000008583068848 151.1822814941406 3.784399747848511 151.8008880615234 4.121638774871826 152.0338592529297 C 5.168138980865479 152.7568664550781 6.672899723052979 153.1715087890625 8.250117301940918 153.1715087890625 L 59.40079116821289 153.1715087890625 M 59.40079116821289 156.1715087890625 L 8.250117301940918 156.1715087890625 C 3.693704128265381 156.1715087890625 8.485213584208395e-06 153.6196746826172 8.485213584208395e-06 150.4718170166016 L 8.485213584208395e-06 5.699689388275146 C 8.485213584208395e-06 2.551863193511963 3.693704128265381 -6.475033842434641e-06 8.250117301940918 -6.475033842434641e-06 L 59.40079116821289 -6.475033842434641e-06 C 63.95720291137695 -6.475033842434641e-06 67.65087890625 2.551863193511963 67.65087890625 5.699689388275146 L 67.65087890625 150.4718170166016 C 67.65087890625 153.6196746826172 63.95720291137695 156.1715087890625 59.40079116821289 156.1715087890625 Z" stroke="none" fill="#3d9cd7"/>
    </g>
    <g id="Group_1127" data-name="Group 1127" transform="translate(327.522 46) rotate(90)">
      <g id="Union_16" data-name="Union 16" transform="translate(722.001 375.673) rotate(180)" fill="#fff">
        <path d="M 294.3008728027344 378.6510620117188 L 149.5287628173828 378.6510620117188 C 148.1594696044922 378.6510620117188 147.1892700195313 377.5426635742188 146.7327575683594 376.8819580078125 C 145.8406677246094 375.5907592773438 145.3290557861328 373.775146484375 145.3290557861328 371.9006652832031 L 145.3290557861328 322.2693481445313 L 145.3290557861328 320.7693481445313 L 143.8290557861328 320.7693481445313 L 1.500862956047058 320.7693481445313 L 1.500862956047058 49.65085601806641 L 766.5006713867188 49.65085601806641 L 766.5006713867188 320.7693481445313 L 300.0006713867188 320.7693481445313 L 298.5006713867188 320.7693481445313 L 298.5006713867188 322.2693481445313 L 298.5006713867188 371.9006652832031 C 298.5006713867188 373.8028564453125 298.0022583007813 375.5719604492188 297.09716796875 376.8820495605469 C 296.6407775878906 377.5427551269531 295.6705627441406 378.6510620117188 294.3008728027344 378.6510620117188 Z" stroke="none"/>
        <path d="M 294.3008728027344 377.1510620117188 C 295.011474609375 377.1510620117188 295.6300659179688 376.3666687011719 295.8630676269531 376.0294494628906 C 296.5860595703125 374.9829406738281 297.0006713867188 373.4780578613281 297.0006713867188 371.9006652832031 L 297.0006713867188 322.2693481445313 L 297.0006713867188 319.2693481445313 L 300.0006713867188 319.2693481445313 L 765.0006713867188 319.2693481445313 L 765.0006713867188 51.15085601806641 L 3.000862836837769 51.15085601806641 L 3.000862836837769 319.2693481445313 L 143.8290557861328 319.2693481445313 L 146.8290557861328 319.2693481445313 L 146.8290557861328 322.2693481445313 L 146.8290557861328 371.9006652832031 C 146.8290557861328 373.4778442382813 147.2437591552734 374.9827575683594 147.9668579101563 376.0293579101563 C 148.1998596191406 376.3666687011719 148.8185577392578 377.1510620117188 149.5287628173828 377.1510620117188 L 294.3008728027344 377.1510620117188 M 294.3008728027344 380.1510620117188 L 149.5287628173828 380.1510620117188 C 146.3814697265625 380.1510620117188 143.8290557861328 376.4573669433594 143.8290557861328 371.9006652832031 L 143.8290557861328 322.2693481445313 L 0.0008629394578747451 322.2693481445313 L 0.0008629394578747451 48.15085601806641 L 768.0006713867188 48.15085601806641 L 768.0006713867188 322.2693481445313 L 300.0006713867188 322.2693481445313 L 300.0006713867188 371.9006652832031 C 300.0006713867188 376.4573669433594 297.4490661621094 380.1510620117188 294.3008728027344 380.1510620117188 Z" stroke="none" fill="#3d9cd7"/>
      </g>
      <text id="Shapes" transform="translate(-42.318 9.589)" fill="#3d9cd7" font-size="21" font-family="Poppins-Bold, Poppins" font-weight="700"><tspan x="34.4" y="22">Shapes</tspan></text>
      <text id="Photos" transform="translate(113.86 9.589)" fill="#3d9cd7" font-size="21" font-family="Poppins-Bold, Poppins" font-weight="700"><tspan x="37.645" y="22">Photos</tspan></text>
      <text id="Pixels" transform="translate(270.542 9.589)" fill="#3d9cd7" font-size="21" font-family="Poppins-Bold, Poppins" font-weight="700"><tspan x="43.346" y="22">Pixels</tspan></text>
      <text id="Bonus" transform="translate(426.653 9.589)" fill="#3d9cd7" font-size="21" font-family="Poppins-Bold, Poppins" font-weight="700"><tspan x="41.076" y="22">Bonus</tspan></text>
    </g>
  </g>
</svg>
