<svg xmlns="http://www.w3.org/2000/svg" width="52" height="52" viewBox="0 0 52 52">
  <g id="Group_1269" data-name="Group 1269" transform="translate(-1172.361 -425)">
    <g id="Ellipse_293" data-name="Ellipse 293" transform="translate(1172.361 425)" fill="#f8ec4f" stroke="#e234a6" stroke-width="3">
      <circle cx="26" cy="26" r="26" stroke="none"/>
      <circle cx="26" cy="26" r="24.5" fill="none"/>
    </g>
    <path id="FontAwsome_trash-alt_" data-name="FontAwsome (trash-alt)" d="M13.161,20.429h1.179a.589.589,0,0,0,.589-.589V9.232a.589.589,0,0,0-.589-.589H13.161a.589.589,0,0,0-.589.589V19.839A.589.589,0,0,0,13.161,20.429Zm8.054-16.5H17.167L15.5,1.144A2.357,2.357,0,0,0,13.475,0H8.525A2.357,2.357,0,0,0,6.5,1.144L4.833,3.929H.786A.786.786,0,0,0,0,4.714V5.5a.786.786,0,0,0,.786.786h.786v16.5a2.357,2.357,0,0,0,2.357,2.357H18.071a2.357,2.357,0,0,0,2.357-2.357V6.286h.786A.786.786,0,0,0,22,5.5V4.714A.786.786,0,0,0,21.214,3.929ZM8.439,2.5a.3.3,0,0,1,.253-.143h4.616a.3.3,0,0,1,.253.143l.857,1.429H7.582Zm9.633,20.286H3.929V6.286H18.071ZM7.661,20.429H8.839a.589.589,0,0,0,.589-.589V9.232a.589.589,0,0,0-.589-.589H7.661a.589.589,0,0,0-.589.589V19.839A.589.589,0,0,0,7.661,20.429Z" transform="translate(1187.361 438.429)"/>
  </g>
</svg>
