<svg id="Group_438" data-name="Group 438" xmlns="http://www.w3.org/2000/svg" width="100" height="87.926" viewBox="0 0 105.392 87.926">
  <path id="Path_335" data-name="Path 335" d="M419.4,78.876s4.478-6.248,7.464-8.48,2.239-3.793,3.733-4.91,3.358.223,4.105,1.339,12.688,14.952,12.316,16.291,1.493,8.48,3.359,10.489,10.077,12.274,11.569,15.4,10.077,19.639,12.689,21.647,6.718,10.712,6.718,12.051,5.6,8.034,2.612,9.6-16.186,0-22.834,0-31.654-1.562-35.759-2.232-32.469-2.454-36.2-2.9-12.316-.446-8.956-5.579,8.21-11.6,8.956-14.729,12.316-23.656,16.421-29.235S419.4,78.876,419.4,78.876Z" transform="translate(-379.452 -65.066)" fill="#77c1f0"/>
</svg>
