<svg xmlns="http://www.w3.org/2000/svg" width="52" height="52" viewBox="0 0 52 52">
  <g id="Group_1267" data-name="Group 1267" transform="translate(-1172.361 -292)">
    <g id="Ellipse_291" data-name="Ellipse 291" transform="translate(1172.361 292)" fill="#f8ec4f" stroke="#e234a6" stroke-width="3">
      <circle cx="26" cy="26" r="26" stroke="none"/>
      <circle cx="26" cy="26" r="24.5" fill="none"/>
    </g>
    <path id="FontAwsome_undo-alt_" data-name="FontAwsome (undo-alt)" d="M18.98,8A10.963,10.963,0,0,0,11.4,11.046L9.817,9.462A1.065,1.065,0,0,0,8,10.215v5.946a1.065,1.065,0,0,0,1.065,1.065h5.946a1.065,1.065,0,0,0,.753-1.817l-1.852-1.852a7.451,7.451,0,1,1,.181,11.052.531.531,0,0,0-.726.025l-1.759,1.759a.533.533,0,0,0,.021.773A11,11,0,1,0,18.98,8Z" transform="translate(1179.361 299)"/>
  </g>
</svg>
