<svg xmlns="http://www.w3.org/2000/svg" width="17.004" height="17" viewBox="0 0 17.004 17">
  <path id="FontAwsome_instagram_" data-name="FontAwsome (instagram)" d="M8.429,35.966a4.359,4.359,0,1,0,4.359,4.359A4.352,4.352,0,0,0,8.429,35.966Zm0,7.192a2.834,2.834,0,1,1,2.834-2.834A2.839,2.839,0,0,1,8.429,43.159Zm5.553-7.371a1.017,1.017,0,1,1-1.017-1.017A1.014,1.014,0,0,1,13.982,35.788Zm2.887,1.032A5.031,5.031,0,0,0,15.5,33.258a5.064,5.064,0,0,0-3.562-1.373c-1.4-.08-5.61-.08-7.014,0a5.057,5.057,0,0,0-3.562,1.369A5.047,5.047,0,0,0-.015,36.816c-.08,1.4-.08,5.61,0,7.014a5.031,5.031,0,0,0,1.373,3.562A5.071,5.071,0,0,0,4.92,48.765c1.4.08,5.61.08,7.014,0A5.031,5.031,0,0,0,15.5,47.392a5.064,5.064,0,0,0,1.373-3.562c.08-1.4.08-5.607,0-7.01Zm-1.813,8.516a2.869,2.869,0,0,1-1.616,1.616c-1.119.444-3.774.341-5.011.341s-3.9.1-5.011-.341A2.869,2.869,0,0,1,1.8,45.336c-.444-1.119-.341-3.774-.341-5.011s-.1-3.9.341-5.011A2.869,2.869,0,0,1,3.418,33.7c1.119-.444,3.774-.341,5.011-.341s3.9-.1,5.011.341a2.869,2.869,0,0,1,1.616,1.616c.444,1.119.341,3.774.341,5.011S15.5,44.221,15.056,45.336Z" transform="translate(0.075 -31.825)"/>
</svg>
