<svg xmlns="http://www.w3.org/2000/svg" width="24.178" height="17" viewBox="0 0 24.178 17">
  <path id="FontAwsome_youtube_" data-name="FontAwsome (youtube)" d="M38.606,66.66a3.038,3.038,0,0,0-2.138-2.151C34.583,64,27.022,64,27.022,64s-7.561,0-9.446.508a3.038,3.038,0,0,0-2.138,2.151,34.205,34.205,0,0,0,0,11.714,2.993,2.993,0,0,0,2.138,2.117C19.461,81,27.022,81,27.022,81s7.561,0,9.446-.508a2.993,2.993,0,0,0,2.138-2.117,34.206,34.206,0,0,0,0-11.714ZM24.549,76.112v-7.19l6.319,3.6-6.319,3.595Z" transform="translate(-14.933 -64)"/>
</svg>
