<svg xmlns="http://www.w3.org/2000/svg" width="131.126" height="134.967" viewBox="0 0 131.126 134.967">
  <g id="Group_1096" data-name="Group 1096" transform="matrix(-0.766, 0.643, -0.643, -0.766, -2352.042, 135.712)">
    <path id="Path_34" data-name="Path 34" d="M409.344,82.346s3.351-7.818,5.585-10.611,1.676-4.747,2.793-6.143,2.513.279,3.072,1.675,9.494,18.709,9.215,20.385,1.117,10.611,2.513,13.124,7.539,15.358,8.656,19.267,7.539,24.573,9.494,27.087,5.026,13.4,5.026,15.079,4.188,10.052,1.954,12.007-12.11,0-17.085,0-23.684-1.955-26.756-2.793-24.294-3.071-27.086-3.63-9.215-.559-6.7-6.981,6.143-14.521,6.7-18.43,9.215-29.6,12.287-36.581S409.344,82.346,409.344,82.346Z" transform="translate(-2314.73 -1621.816)" fill="#e0873d"/>
    <g id="Group_38" data-name="Group 38" transform="translate(-1929.065 -1527.627)">
      <path id="Path_35" data-name="Path 35" d="M423.457,130.03s2-9.682,3.326-10.348,1.331-4.869,5.654-3.765,4.9,4.842,3.28,6.965-3.612,4.857-3.28,7.148-2.993,8.943-4.989,8.278S420.13,140.377,423.457,130.03Z" transform="translate(-403.922 -115.733)" fill="#f8ec4f"/>
      <path id="Path_36" data-name="Path 36" d="M404.427,181.364s2.792-7.127,3.326-10.347,3.446-3.949,6.358-4.677,3.64,3.64,3.64,5.824-2.135,6.023-4.344,9.2-2.673,9.01-4.989,8.278S401.1,191.712,404.427,181.364Z" transform="translate(-395.814 -137.218)" fill="#f8ec4f"/>
      <path id="Path_37" data-name="Path 37" d="M395.454,221.229c1.456-2.184.258-.86,2.313-.43a8.7,8.7,0,0,1,4.24,2.614c.728.728,0,2.726,0,3.183s-2.184,3.384-2.184,4.469-1.456,5.421,0,5.073,8.009,2.564,8.009,2.564.728,2.912-.728,3.641-1.456,2.912-3.64,2.912-8.737-1.456-9.465-2.184-4.368-1.456-3.64-3.64.728-8.737,2.184-10.921S394,223.413,395.454,221.229Z" transform="translate(-390.261 -160.072)" fill="#f8ec4f"/>
      <path id="Path_38" data-name="Path 38" d="M431.286,253.8c-2.184,0,0,4.368-.728,5.1s-.728,2.776,0,2.844,4.368.8,5.825.8h5.154c.67,0,2.854.728,3.583-.728s2.184-2.524,0-4.175-2.656-3.416-5.332-3.261S433.47,253.8,431.286,253.8Z" transform="translate(-407.164 -174.441)" fill="#f8ec4f"/>
    </g>
  </g>
</svg>
