<svg xmlns="http://www.w3.org/2000/svg" width="62.588" height="56" viewBox="0 0 62.588 56">
  <g id="Group_773" data-name="Group 773" transform="translate(-3852.412 745) rotate(90)">
    <circle id="Ellipse_136" data-name="Ellipse 136" cx="1.5" cy="1.5" r="1.5" transform="translate(-745 -3915)" fill="#77c1f0"/>
    <circle id="Ellipse_174" data-name="Ellipse 174" cx="1.5" cy="1.5" r="1.5" transform="translate(-745 -3901.758)" fill="#77c1f0"/>
    <circle id="Ellipse_159" data-name="Ellipse 159" cx="1.5" cy="1.5" r="1.5" transform="translate(-745 -3909)" fill="#77c1f0"/>
    <circle id="Ellipse_175" data-name="Ellipse 175" cx="1.5" cy="1.5" r="1.5" transform="translate(-745 -3895.137)" fill="#77c1f0"/>
    <circle id="Ellipse_148" data-name="Ellipse 148" cx="1.5" cy="1.5" r="1.5" transform="translate(-718.5 -3915)" fill="#77c1f0"/>
    <circle id="Ellipse_163" data-name="Ellipse 163" cx="1.5" cy="1.5" r="1.5" transform="translate(-718.5 -3901.758)" fill="#77c1f0"/>
    <circle id="Ellipse_183" data-name="Ellipse 183" cx="1.5" cy="1.5" r="1.5" transform="translate(-718.5 -3888.516)" fill="#77c1f0"/>
    <circle id="Ellipse_196" data-name="Ellipse 196" cx="1.5" cy="1.5" r="1.5" transform="translate(-718.5 -3875.274)" fill="#77c1f0"/>
    <circle id="Ellipse_155" data-name="Ellipse 155" cx="1.5" cy="1.5" r="1.5" transform="translate(-718.5 -3909)" fill="#77c1f0"/>
    <circle id="Ellipse_164" data-name="Ellipse 164" cx="1.5" cy="1.5" r="1.5" transform="translate(-718.5 -3895.137)" fill="#77c1f0"/>
    <circle id="Ellipse_176" data-name="Ellipse 176" cx="1.5" cy="1.5" r="1.5" transform="translate(-718.5 -3881.896)" fill="#77c1f0"/>
    <circle id="Ellipse_200" data-name="Ellipse 200" cx="1.5" cy="1.5" r="1.5" transform="translate(-718.5 -3868.654)" fill="#77c1f0"/>
    <circle id="Ellipse_234" data-name="Ellipse 234" cx="1.5" cy="1.5" r="1.5" transform="translate(-725.125 -3868.654)" fill="#77c1f0"/>
    <circle id="Ellipse_147" data-name="Ellipse 147" cx="1.5" cy="1.5" r="1.5" transform="translate(-731.75 -3915)" fill="#77c1f0"/>
    <circle id="Ellipse_170" data-name="Ellipse 170" cx="1.5" cy="1.5" r="1.5" transform="translate(-731.75 -3901.758)" fill="#77c1f0"/>
    <circle id="Ellipse_184" data-name="Ellipse 184" cx="1.5" cy="1.5" r="1.5" transform="translate(-731.75 -3888.516)" fill="#77c1f0"/>
    <circle id="Ellipse_194" data-name="Ellipse 194" cx="1.5" cy="1.5" r="1.5" transform="translate(-731.75 -3875.274)" fill="#77c1f0"/>
    <circle id="Ellipse_245" data-name="Ellipse 245" cx="1.5" cy="1.5" r="1.5" transform="translate(-739 -3875.274)" fill="#77c1f0"/>
    <circle id="Ellipse_237" data-name="Ellipse 237" cx="1.5" cy="1.5" r="1.5" transform="translate(-731.75 -3868.654)" fill="#77c1f0"/>
    <circle id="Ellipse_157" data-name="Ellipse 157" cx="1.5" cy="1.5" r="1.5" transform="translate(-731.75 -3909)" fill="#77c1f0"/>
    <circle id="Ellipse_171" data-name="Ellipse 171" cx="1.5" cy="1.5" r="1.5" transform="translate(-731.75 -3895.137)" fill="#77c1f0"/>
    <circle id="Ellipse_181" data-name="Ellipse 181" cx="1.5" cy="1.5" r="1.5" transform="translate(-731.75 -3881.896)" fill="#77c1f0"/>
    <circle id="Ellipse_149" data-name="Ellipse 149" cx="1.5" cy="1.5" r="1.5" transform="translate(-705.25 -3915)" fill="#77c1f0"/>
    <circle id="Ellipse_165" data-name="Ellipse 165" cx="1.5" cy="1.5" r="1.5" transform="translate(-705.25 -3901.758)" fill="#77c1f0"/>
    <circle id="Ellipse_185" data-name="Ellipse 185" cx="1.5" cy="1.5" r="1.5" transform="translate(-705.25 -3888.516)" fill="#77c1f0"/>
    <circle id="Ellipse_198" data-name="Ellipse 198" cx="1.5" cy="1.5" r="1.5" transform="translate(-705.25 -3875.274)" fill="#77c1f0"/>
    <circle id="Ellipse_152" data-name="Ellipse 152" cx="1.5" cy="1.5" r="1.5" transform="translate(-705.25 -3909)" fill="#77c1f0"/>
    <circle id="Ellipse_161" data-name="Ellipse 161" cx="1.5" cy="1.5" r="1.5" transform="translate(-705.25 -3895.137)" fill="#77c1f0"/>
    <circle id="Ellipse_177" data-name="Ellipse 177" cx="1.5" cy="1.5" r="1.5" transform="translate(-705.25 -3881.896)" fill="#77c1f0"/>
    <circle id="Ellipse_202" data-name="Ellipse 202" cx="1.5" cy="1.5" r="1.5" transform="translate(-705.25 -3868.654)" fill="#77c1f0"/>
    <circle id="Ellipse_223" data-name="Ellipse 223" cx="1.5" cy="1.5" r="1.5" transform="translate(-705.25 -3861.412)" fill="#77c1f0"/>
    <circle id="Ellipse_227" data-name="Ellipse 227" cx="1.5" cy="1.5" r="1.5" transform="translate(-705.25 -3855.412)" fill="#77c1f0"/>
    <circle id="Ellipse_236" data-name="Ellipse 236" cx="1.5" cy="1.5" r="1.5" transform="translate(-711.875 -3855.412)" fill="#77c1f0"/>
    <circle id="Ellipse_145" data-name="Ellipse 145" cx="1.5" cy="1.5" r="1.5" transform="translate(-739 -3915)" fill="#77c1f0"/>
    <circle id="Ellipse_172" data-name="Ellipse 172" cx="1.5" cy="1.5" r="1.5" transform="translate(-739 -3901.758)" fill="#77c1f0"/>
    <circle id="Ellipse_186" data-name="Ellipse 186" cx="1.5" cy="1.5" r="1.5" transform="translate(-739 -3888.516)" fill="#77c1f0"/>
    <circle id="Ellipse_246" data-name="Ellipse 246" cx="1.5" cy="1.5" r="1.5" transform="translate(-745 -3888.516)" fill="#77c1f0"/>
    <circle id="Ellipse_158" data-name="Ellipse 158" cx="1.5" cy="1.5" r="1.5" transform="translate(-739 -3909)" fill="#77c1f0"/>
    <circle id="Ellipse_173" data-name="Ellipse 173" cx="1.5" cy="1.5" r="1.5" transform="translate(-739 -3895.137)" fill="#77c1f0"/>
    <circle id="Ellipse_182" data-name="Ellipse 182" cx="1.5" cy="1.5" r="1.5" transform="translate(-739 -3881.896)" fill="#77c1f0"/>
    <circle id="Ellipse_150" data-name="Ellipse 150" cx="1.5" cy="1.5" r="1.5" transform="translate(-711.875 -3915)" fill="#77c1f0"/>
    <circle id="Ellipse_166" data-name="Ellipse 166" cx="1.5" cy="1.5" r="1.5" transform="translate(-711.875 -3901.758)" fill="#77c1f0"/>
    <circle id="Ellipse_187" data-name="Ellipse 187" cx="1.5" cy="1.5" r="1.5" transform="translate(-711.875 -3888.516)" fill="#77c1f0"/>
    <circle id="Ellipse_197" data-name="Ellipse 197" cx="1.5" cy="1.5" r="1.5" transform="translate(-711.875 -3875.274)" fill="#77c1f0"/>
    <circle id="Ellipse_153" data-name="Ellipse 153" cx="1.5" cy="1.5" r="1.5" transform="translate(-711.875 -3909)" fill="#77c1f0"/>
    <circle id="Ellipse_162" data-name="Ellipse 162" cx="1.5" cy="1.5" r="1.5" transform="translate(-711.875 -3895.137)" fill="#77c1f0"/>
    <circle id="Ellipse_178" data-name="Ellipse 178" cx="1.5" cy="1.5" r="1.5" transform="translate(-711.875 -3881.896)" fill="#77c1f0"/>
    <circle id="Ellipse_204" data-name="Ellipse 204" cx="1.5" cy="1.5" r="1.5" transform="translate(-711.875 -3868.654)" fill="#77c1f0"/>
    <circle id="Ellipse_224" data-name="Ellipse 224" cx="1.5" cy="1.5" r="1.5" transform="translate(-711.875 -3861.412)" fill="#77c1f0"/>
    <circle id="Ellipse_235" data-name="Ellipse 235" cx="1.5" cy="1.5" r="1.5" transform="translate(-718.5 -3861.412)" fill="#77c1f0"/>
    <circle id="Ellipse_238" data-name="Ellipse 238" cx="1.5" cy="1.5" r="1.5" transform="translate(-725.125 -3861.412)" fill="#77c1f0"/>
    <circle id="Ellipse_146" data-name="Ellipse 146" cx="1.5" cy="1.5" r="1.5" transform="translate(-725.125 -3915)" fill="#77c1f0"/>
    <circle id="Ellipse_167" data-name="Ellipse 167" cx="1.5" cy="1.5" r="1.5" transform="translate(-725.125 -3901.758)" fill="#77c1f0"/>
    <circle id="Ellipse_188" data-name="Ellipse 188" cx="1.5" cy="1.5" r="1.5" transform="translate(-725.125 -3888.516)" fill="#77c1f0"/>
    <circle id="Ellipse_195" data-name="Ellipse 195" cx="1.5" cy="1.5" r="1.5" transform="translate(-725.125 -3875.274)" fill="#77c1f0"/>
    <circle id="Ellipse_156" data-name="Ellipse 156" cx="1.5" cy="1.5" r="1.5" transform="translate(-725.125 -3909)" fill="#77c1f0"/>
    <circle id="Ellipse_168" data-name="Ellipse 168" cx="1.5" cy="1.5" r="1.5" transform="translate(-725.125 -3895.137)" fill="#77c1f0"/>
    <circle id="Ellipse_180" data-name="Ellipse 180" cx="1.5" cy="1.5" r="1.5" transform="translate(-725.125 -3881.896)" fill="#77c1f0"/>
    <circle id="Ellipse_151" data-name="Ellipse 151" cx="1.5" cy="1.5" r="1.5" transform="translate(-698 -3915)" fill="#77c1f0"/>
    <circle id="Ellipse_222" data-name="Ellipse 222" cx="1.5" cy="1.5" r="1.5" transform="translate(-692 -3915)" fill="#77c1f0"/>
    <circle id="Ellipse_169" data-name="Ellipse 169" cx="1.5" cy="1.5" r="1.5" transform="translate(-698 -3901.758)" fill="#77c1f0"/>
    <circle id="Ellipse_220" data-name="Ellipse 220" cx="1.5" cy="1.5" r="1.5" transform="translate(-692 -3901.758)" fill="#77c1f0"/>
    <circle id="Ellipse_189" data-name="Ellipse 189" cx="1.5" cy="1.5" r="1.5" transform="translate(-698 -3888.516)" fill="#77c1f0"/>
    <circle id="Ellipse_218" data-name="Ellipse 218" cx="1.5" cy="1.5" r="1.5" transform="translate(-692 -3888.516)" fill="#77c1f0"/>
    <circle id="Ellipse_206" data-name="Ellipse 206" cx="1.5" cy="1.5" r="1.5" transform="translate(-698 -3875.274)" fill="#77c1f0"/>
    <circle id="Ellipse_216" data-name="Ellipse 216" cx="1.5" cy="1.5" r="1.5" transform="translate(-692 -3875.274)" fill="#77c1f0"/>
    <circle id="Ellipse_154" data-name="Ellipse 154" cx="1.5" cy="1.5" r="1.5" transform="translate(-698 -3909)" fill="#77c1f0"/>
    <circle id="Ellipse_221" data-name="Ellipse 221" cx="1.5" cy="1.5" r="1.5" transform="translate(-692 -3909)" fill="#77c1f0"/>
    <circle id="Ellipse_160" data-name="Ellipse 160" cx="1.5" cy="1.5" r="1.5" transform="translate(-698 -3895.137)" fill="#77c1f0"/>
    <circle id="Ellipse_219" data-name="Ellipse 219" cx="1.5" cy="1.5" r="1.5" transform="translate(-692 -3895.137)" fill="#77c1f0"/>
    <circle id="Ellipse_179" data-name="Ellipse 179" cx="1.5" cy="1.5" r="1.5" transform="translate(-698 -3881.896)" fill="#77c1f0"/>
    <circle id="Ellipse_217" data-name="Ellipse 217" cx="1.5" cy="1.5" r="1.5" transform="translate(-692 -3881.896)" fill="#77c1f0"/>
    <circle id="Ellipse_207" data-name="Ellipse 207" cx="1.5" cy="1.5" r="1.5" transform="translate(-698 -3868.654)" fill="#77c1f0"/>
    <circle id="Ellipse_225" data-name="Ellipse 225" cx="1.5" cy="1.5" r="1.5" transform="translate(-698 -3861.412)" fill="#77c1f0"/>
    <circle id="Ellipse_229" data-name="Ellipse 229" cx="1.5" cy="1.5" r="1.5" transform="translate(-698 -3855.412)" fill="#77c1f0"/>
    <circle id="Ellipse_215" data-name="Ellipse 215" cx="1.5" cy="1.5" r="1.5" transform="translate(-692 -3868.654)" fill="#77c1f0"/>
    <circle id="Ellipse_226" data-name="Ellipse 226" cx="1.5" cy="1.5" r="1.5" transform="translate(-692 -3861.412)" fill="#77c1f0"/>
    <circle id="Ellipse_230" data-name="Ellipse 230" cx="1.5" cy="1.5" r="1.5" transform="translate(-692 -3855.412)" fill="#77c1f0"/>
  </g>
</svg>
